<?xml version="1.0" encoding="utf-8"?>
<!-- Generator: Adobe Illustrator 20.0.0, SVG Export Plug-In . SVG Version: 6.00 Build 0)  -->
<svg version="1.1" id="Layer_1" xmlns="http://www.w3.org/2000/svg" xmlns:xlink="http://www.w3.org/1999/xlink" x="0px" y="0px"
	 viewBox="0 0 401.7 417.7" style="enable-background:new 0 0 401.7 417.7;" xml:space="preserve">
<style type="text/css">
	.st0{fill:#FFFFFF;}
</style>
<g>
	<path class="st0" d="M41.8,17.9c-5.5,0-10,4.5-10,10V195c0,5.5,0,13.8,0,18.5s0,13,0,18.5v167.1c0,5.5,4.5,10,10,10h322.4
		c5.5,0,10-4.5,10-10V232c0-5.5,0-13.8,0-18.5c0-4.7,0-13,0-18.5V27.9c0-5.5-4.5-10-10-10H41.8z M357.9,382.9c0,5.5-4.5,10-10,10
		H58.2c-5.5,0-10-4.5-10-10V232c0-5.5,4.5-10,10-10h289.7c5.5,0,10,4.5,10,10V382.9z M48.2,205c0,0,0-4.5,0-10V44.2
		c0-5.5,4.5-10,10-10h289.7c5.5,0,10,4.5,10,10V195c0,5.5-4.5,10-10,10H58.2C52.7,205,48.2,205,48.2,205z"/>
</g>
<path class="st0" d="M147.7,106.5l-16.9-28.1l-41.9,69.9h34.9h48.9h62.9l-55.9-97.9L147.7,106.5z M117.7,132l13.1-21.9l7.6,12.7
	l-5.3,9.2H117.7z M151.9,132l27.8-48.7l27.8,48.7H151.9z"/>
<path class="st0" d="M227.5,164.6L227.5,164.6L227.5,164.6H97.1c-4.5,0-8.1,3.7-8.1,8.2c0,4.5,3.7,8.1,8.1,8.1h130.5l0,0l0,0
	c4.5,0,8.1-3.7,8.1-8.1C235.6,168.3,232,164.6,227.5,164.6z"/>
<path class="st0" d="M97.1,352.1c-4.5,0-8.1,3.6-8.1,8.1c0,4.5,3.7,8.1,8.1,8.1c4.5,0,8.2-3.6,8.2-8.1
	C105.2,355.7,101.6,352.1,97.1,352.1z"/>
<path class="st0" d="M129.6,352.1c-4.5,0-8.1,3.6-8.1,8.1c0,4.5,3.7,8.1,8.1,8.1c4.5,0,8.2-3.6,8.2-8.1
	C137.8,355.7,134.2,352.1,129.6,352.1z"/>
<path class="st0" d="M162.3,352.1c-4.5,0-8.2,3.6-8.2,8.1c0,4.5,3.7,8.1,8.2,8.1c4.5,0,8.1-3.6,8.1-8.1
	C170.4,355.7,166.8,352.1,162.3,352.1z"/>
<path class="st0" d="M194.9,352.1c-4.5,0-8.2,3.6-8.2,8.1c0,4.5,3.7,8.1,8.2,8.1c4.4,0,8.1-3.6,8.1-8.1
	C203,355.7,199.4,352.1,194.9,352.1z"/>
<path class="st0" d="M227.5,352.1c-4.5,0-8.1,3.6-8.1,8.1c0,4.5,3.6,8.1,8.1,8.1c4.5,0,8.1-3.6,8.1-8.1
	C235.6,355.7,232,352.1,227.5,352.1z"/>
<path class="st0" d="M172.8,335.8h62.9L179.7,238l-32,56.1l-16.9-28.1l-41.9,69.9h34.9L172.8,335.8L172.8,335.8z M207.5,319.5h-55.6
	l27.8-48.6L207.5,319.5z M117.7,319.5l13.1-21.9l7.6,12.6l-5.3,9.2L117.7,319.5L117.7,319.5z"/>
<path class="st0" d="M339.2,99.8c-3.2-3.2-8.4-3.2-11.5,0l0,0l-28.8,28.9l-11.5-11.5l0,0c-3.2-3.2-8.4-3.2-11.5,0
	c-3.2,3.2-3.2,8.3,0,11.5l17.3,17.3c3.2,3.2,8.4,3.2,11.5,0l34.6-34.6C342.4,108.1,342.4,103,339.2,99.8z"/>
<path class="st0" d="M293.1,332.1c3.2,3.2,8.4,3.2,11.5,0h0l11.5-11.5l11.5,11.5l0,0c3.2,3.2,8.4,3.2,11.5,0s3.2-8.3,0-11.5l0,0l0,0
	L327.7,309l11.5-11.5l0,0l0,0c3.2-3.2,3.2-8.4,0-11.5c-3.2-3.2-8.4-3.2-11.5,0l0,0l-11.5,11.5L304.7,286h0c-3.2-3.2-8.3-3.2-11.5,0
	c-3.2,3.2-3.2,8.4,0,11.5l0,0l0,0l11.5,11.5l-11.5,11.5l0,0l0,0C289.9,323.7,289.9,328.9,293.1,332.1z"/>
</svg>
