<?xml version="1.0" encoding="utf-8"?>
<!-- Generator: Adobe Illustrator 20.0.0, SVG Export Plug-In . SVG Version: 6.00 Build 0)  -->
<svg version="1.1" id="Layer_1" xmlns="http://www.w3.org/2000/svg" xmlns:xlink="http://www.w3.org/1999/xlink" x="0px" y="0px"
	 viewBox="0 0 390 379" style="enable-background:new 0 0 390 379;" xml:space="preserve">
<style type="text/css">
	.st0{fill:#FFFFFF;}
</style>
<g>
	<path class="st0" d="M379.2,35.7H331c-3.2-15.5-16.9-27.1-33.2-27.1H134.9c-18.7,0-33.9,15.2-33.9,33.9v74.6H87.4
		c-3.7,0-6.8,3-6.8,6.8v27.1c0,2.5,1.4,4.8,3.6,6l84.6,45.6v57c0,2.7,1.7,5.2,4.2,6.3c0.8,0.4,1.7,0.5,2.6,0.5c1.8,0,3.5-0.7,4.8-2
		l27.1-27.1c1.3-1.3,2-3,2-4.8v-29.9l84.6-45.6c2.2-1.2,3.6-3.5,3.6-6v-27.1c0-3.8-3-6.8-6.8-6.8h-13.6V90h74.6
		c18.7,0,33.9-15.2,33.9-33.9V42.5C386,38.7,383,35.7,379.2,35.7z M284.2,147l-84.6,45.6c-2.2,1.2-3.6,3.5-3.6,6v31.1l-13.6,13.6
		v-44.7c0-2.5-1.4-4.8-3.6-6L94.2,147v-16.3h13.6h162.9h13.6V147z M114.6,117.1V42.5c0-11.2,9.1-20.4,20.4-20.4h135.7
		c-0.2,0.3-0.3,0.6-0.5,0.8c-0.4,0.6-0.7,1.2-1.1,1.7c-0.7,1.1-1.4,2.3-1.9,3.5c-0.3,0.7-0.6,1.3-0.9,2c-0.5,1.3-0.9,2.7-1.3,4
		c-0.2,0.6-0.4,1.3-0.5,1.9c-0.4,2-0.6,4.1-0.6,6.3v40.7v33.9H114.6z M277.4,76.4V42.5c0-11.2,9.1-20.4,20.4-20.4
		s20.4,9.1,20.4,20.4v13.6c0,2.2,0.3,4.2,0.6,6.3c0.1,0.7,0.3,1.3,0.5,1.9c0.3,1.4,0.7,2.7,1.3,4c0.3,0.7,0.6,1.3,0.9,2
		c0.6,1.2,1.2,2.4,1.9,3.5c0.4,0.6,0.7,1.2,1.1,1.7c0.2,0.3,0.3,0.6,0.5,0.8C324.9,76.4,277.4,76.4,277.4,76.4z M372.4,56.1
		c0,11.2-9.1,20.4-20.4,20.4c-11.2,0-20.4-9.1-20.4-20.4v-6.8h40.7V56.1z"/>
	<path class="st0" d="M358.9,293.6c-9.3,0-17.4,4.7-22.3,11.8l-32.2-16.1c0.1-0.8,0.3-1.6,0.3-2.5c0-15-12.2-27.1-27.1-27.1
		c-15,0-27.1,12.2-27.1,27.1c0,3.2,0.7,6.2,1.7,9l-34.5,28.8c-5-6.4-12.7-10.6-21.4-10.6c-7,0-13.3,2.7-18.1,7.1l-36.4-18.2
		c0.1-0.8,0.3-1.6,0.3-2.5c0-15-12.2-27.1-27.1-27.1s-27.1,12.2-27.1,27.1c0,1,0.2,2,0.3,3l-36.6,24.4c-4.8-4.3-11.1-7-18-7
		c-15,0-27.1,12.2-27.1,27.1S18.2,375,33.1,375s27.1-12.2,27.1-27.1c0-3.1-0.6-6.1-1.6-8.9l34-22.7c4.9,6.8,12.9,11.2,21.9,11.2
		c9.3,0,17.4-4.7,22.3-11.8l33.5,16.7c-0.9,2.7-1.5,5.6-1.5,8.6c0,15,12.2,27.1,27.1,27.1c15,0,27.1-12.2,27.1-27.1
		c0-1.1-0.2-2.2-0.3-3.3l36.8-30.7c4.8,4.2,11,6.8,17.8,6.8c9.3,0,17.4-4.7,22.3-11.8l32.2,16.1c-0.1,0.8-0.3,1.6-0.3,2.5
		c0,15,12.2,27.1,27.1,27.1s27.1-12.2,27.1-27.1S373.8,293.6,358.9,293.6z M33.1,361.4c-7.5,0-13.6-6.1-13.6-13.6
		s6.1-13.6,13.6-13.6s13.6,6.1,13.6,13.6S40.6,361.4,33.1,361.4z M114.6,313.9c-7.5,0-13.6-6.1-13.6-13.6s6.1-13.6,13.6-13.6
		c7.5,0,13.6,6.1,13.6,13.6S122.1,313.9,114.6,313.9z M196,354.6c-7.5,0-13.6-6.1-13.6-13.6c0-7.5,6.1-13.6,13.6-13.6
		s13.6,6.1,13.6,13.6C209.6,348.6,203.5,354.6,196,354.6z M277.4,300.4c-7.5,0-13.6-6.1-13.6-13.6s6.1-13.6,13.6-13.6
		c7.5,0,13.6,6.1,13.6,13.6S284.9,300.4,277.4,300.4z M358.9,334.3c-7.5,0-13.6-6.1-13.6-13.6s6.1-13.6,13.6-13.6
		s13.6,6.1,13.6,13.6S366.3,334.3,358.9,334.3z"/>
	<rect x="134.9" y="90" class="st0" width="27.1" height="13.6"/>
	<rect x="175.6" y="90" class="st0" width="27.1" height="13.6"/>
	<rect x="216.4" y="90" class="st0" width="27.1" height="13.6"/>
	<rect x="134.9" y="62.9" class="st0" width="27.1" height="13.6"/>
	<rect x="175.6" y="62.9" class="st0" width="27.1" height="13.6"/>
	<rect x="216.4" y="62.9" class="st0" width="27.1" height="13.6"/>
	<rect x="134.9" y="35.7" class="st0" width="27.1" height="13.6"/>
	<rect x="175.6" y="35.7" class="st0" width="27.1" height="13.6"/>
	<rect x="216.4" y="35.7" class="st0" width="27.1" height="13.6"/>
	<rect x="236.7" y="212.1" class="st0" width="13.6" height="13.6"/>
	<rect x="263.9" y="212.1" class="st0" width="13.6" height="13.6"/>
	<rect x="291" y="212.1" class="st0" width="13.6" height="13.6"/>
	<rect x="73.9" y="212.1" class="st0" width="13.6" height="13.6"/>
	<rect x="101" y="212.1" class="st0" width="13.6" height="13.6"/>
	<rect x="128.1" y="212.1" class="st0" width="13.6" height="13.6"/>
</g>
</svg>
