<?xml version="1.0" encoding="utf-8"?>
<!-- Generator: Adobe Illustrator 20.0.0, SVG Export Plug-In . SVG Version: 6.00 Build 0)  -->
<svg version="1.1" id="Layer_1" xmlns="http://www.w3.org/2000/svg" xmlns:xlink="http://www.w3.org/1999/xlink" x="0px" y="0px"
	 viewBox="0 0 299 324" style="enable-background:new 0 0 299 324;" xml:space="preserve">
<style type="text/css">
	.st0{fill:#FFFFFF;}
</style>
<g>
	<path class="st0" d="M216.8,189c-1.8-3.9-5-6.7-8.7-8.3c1.2-3.8,1-8.1-0.8-11.9c-1.8-3.9-5-6.7-8.7-8.3c1.2-3.8,1-8.1-0.8-11.9
		c-2-4.3-5.5-7.3-9.7-8.7c11.2-25,11.2-53.9-0.5-78.9c-22.1-47.4-78.6-67.9-126-45.8S-6.1,93.8,16,141.2c11.7,25,33.8,43.6,60.2,51
		c-1.5,4.1-1.5,8.7,0.5,13c1.8,3.9,5,6.7,8.7,8.3c-1.2,3.8-1,8.1,0.8,11.9c1.8,3.9,5,6.7,8.7,8.3c-1.2,3.8-1,8.1,0.8,11.9
		c3.1,6.6,9.9,10.2,16.7,9.5l16.9,36.3c0.6,1.4,1.8,2.4,3.2,2.9l0,0l66.7,24.3c1.4,0.5,3,0.4,4.3-0.2c1.3-0.6,2.4-1.7,2.9-3.1
		l24.3-66.7l0,0c0.5-1.4,0.5-2.9-0.2-4.3L213.3,208C218.2,203.1,219.9,195.6,216.8,189z M96.2,220.7c-1.3-2.8-0.1-6.1,2.7-7.4
		l91-42.4c2.8-1.3,6.1-0.1,7.4,2.7c1.3,2.8,0.1,6.1-2.7,7.4l-91,42.4C100.8,224.7,97.5,223.5,96.2,220.7z M86.7,200.5
		c-1.3-2.8-0.1-6.1,2.7-7.4l90.9-42.4l0.1,0c2.8-1.3,6.1-0.1,7.4,2.7c1.3,2.8,0.1,6.1-2.7,7.4l-91,42.4
		C91.4,204.5,88,203.2,86.7,200.5z M99.9,128l-27.1-7.2c-7.9-2.1-14.5-7.6-17.9-15c-4-8.7-0.5-19.6,7.6-23.3
		c1.6-0.7,3.2-1.2,4.9-1.4c0,0.2,0,0.4-0.1,0.6c-0.2,1-0.3,2.1-0.3,3.1c0,0.2,0,0.5,0,0.7c0,1.2,0,2.5,0.2,3.7c0,0.3,0.1,0.6,0.1,1
		c0.1,1,0.3,1.9,0.6,2.9c0.1,0.4,0.2,0.7,0.3,1.1c0.4,1.2,0.8,2.4,1.4,3.6c3.5,7.6,10.3,13.1,18.6,15.2c1.3,0.3,2.6,0.2,3.7-0.4
		c1.1-0.5,2.1-1.4,2.7-2.6c3.8-7.7,3.9-16.4,0.3-24c-0.5-1.2-1.2-2.3-1.9-3.3c-0.2-0.3-0.4-0.6-0.6-0.9c-0.6-0.8-1.2-1.6-1.8-2.3
		c-0.2-0.2-0.4-0.5-0.6-0.7c-0.9-0.9-1.8-1.8-2.7-2.5c-0.2-0.1-0.4-0.3-0.6-0.4c-0.8-0.6-1.7-1.2-2.6-1.8c-0.2-0.1-0.3-0.2-0.5-0.3
		c2.5-2.4,5.8-3.9,9.2-4.3c0,0.2,0,0.4-0.1,0.5c-0.2,1-0.3,2.1-0.3,3.1c0,0.2,0,0.5,0,0.7c0,1.2,0,2.5,0.2,3.7c0,0.3,0.1,0.6,0.2,1
		c0.1,1,0.3,1.9,0.6,2.9c0.1,0.4,0.2,0.7,0.3,1.1c0.4,1.2,0.8,2.4,1.3,3.6c3.5,7.6,10.3,13.1,18.6,15.2c1.3,0.3,2.6,0.2,3.7-0.4
		c1.1-0.5,2.1-1.4,2.7-2.6c3.8-7.7,3.9-16.4,0.3-24c-0.5-1.2-1.2-2.3-1.9-3.3c-0.2-0.3-0.4-0.6-0.6-0.9c-0.6-0.8-1.2-1.6-1.8-2.3
		c-0.2-0.2-0.4-0.5-0.6-0.7c-0.9-0.9-1.8-1.8-2.7-2.5c-0.2-0.1-0.4-0.3-0.6-0.4c-0.8-0.6-1.7-1.2-2.6-1.7c-0.2-0.1-0.3-0.2-0.5-0.3
		c1.3-1.2,2.7-2.2,4.2-2.9c8.1-3.8,18.7,0.5,22.8,9.2c3.5,7.4,3.5,16,0,23.4l-11.9,25.4c-0.7,1.5-0.7,3.2,0,4.7l16.5,35.4l-20.2,9.4
		l-16.5-35.4C102.9,129.6,101.5,128.4,99.9,128z M80.2,84.9c0.8,0.7,1.6,1.5,2.3,2.3c0.2,0.2,0.3,0.4,0.5,0.6
		c0.7,0.9,1.3,1.8,1.7,2.8c0.5,1,0.8,2.1,1,3.1c0.1,0.3,0.1,0.5,0.2,0.8c0.2,1.1,0.3,2.1,0.3,3.2c0,0.1,0,0.2,0,0.2
		c0,0.6-0.2,1.3-0.2,1.9c-0.6-0.3-1.1-0.6-1.6-1c-0.1,0-0.1-0.1-0.2-0.1c-0.8-0.7-1.6-1.5-2.3-2.3c-0.2-0.2-0.3-0.4-0.5-0.6
		c-0.6-0.9-1.3-1.8-1.7-2.8s-0.8-2.1-1-3.1c-0.1-0.3-0.1-0.5-0.2-0.8c-0.2-1.1-0.3-2.1-0.3-3.2c0-0.1,0-0.2,0-0.2
		c0-0.6,0.2-1.3,0.2-1.9c0.6,0.3,1.1,0.6,1.6,1C80.1,84.8,80.2,84.8,80.2,84.9z M105.5,73.1c0.8,0.7,1.6,1.5,2.3,2.3
		c0.2,0.2,0.3,0.4,0.5,0.6c0.7,0.9,1.3,1.8,1.7,2.8c0.5,1,0.8,2.1,1,3.1c0.1,0.3,0.1,0.5,0.2,0.8c0.2,1.1,0.3,2.1,0.3,3.2
		c0,0.1,0,0.2,0,0.2c0,0.6-0.2,1.3-0.2,1.9c-0.6-0.3-1.1-0.6-1.6-1c-0.1,0-0.1-0.1-0.2-0.1c-0.8-0.7-1.6-1.5-2.3-2.3
		c-0.2-0.2-0.3-0.4-0.5-0.6c-0.6-0.9-1.3-1.8-1.7-2.8c-0.5-1-0.8-2.1-1-3.1c-0.1-0.3-0.1-0.5-0.2-0.8c-0.2-1.1-0.3-2.1-0.3-3.2
		c0-0.1,0-0.2,0-0.2c0-0.6,0.2-1.3,0.2-1.9c0.6,0.3,1.1,0.6,1.6,1C105.4,73,105.4,73.1,105.5,73.1z M26.1,136.4
		C6.6,94.6,24.7,44.8,66.5,25.3s91.7-1.4,111.2,40.4c11.1,23.8,10.3,51.6-2.1,74.8l-25.2,11.7l-15.4-33l10.8-23
		c4.9-10.4,4.9-22.4,0.1-32.8c-6.7-14.3-23.9-21-37.6-14.6c-4.5,2.1-8.2,5.3-11,9.4c-9.9-0.9-19.6,3.6-25.2,11.8
		c-4.9-0.5-9.8,0.3-14.3,2.4c-13.7,6.4-19.6,23.9-13,38.2c4.9,10.4,14.1,18.1,25.2,21.1l24.6,6.5l15.4,33l-25.2,11.7
		C59.1,177.5,37.2,160.2,26.1,136.4z M142.5,286.2l5-8.2l16.2,2.5c2.2,0.3,4.4-0.7,5.6-2.6l8.5-14l16.2,2.5c2.2,0.3,4.4-0.7,5.6-2.6
		l8.5-14l9.5,1.4l-10.4,28.5L171,296.5L142.5,286.2z M206.2,238.1c-2.2-0.3-4.4,0.7-5.6,2.6l-8.5,14l-16.2-2.5
		c-2.2-0.3-4.4,0.7-5.6,2.6l-8.5,14l-16.2-2.5c-2.2-0.3-4.4,0.7-5.6,2.6l-5,8.3l-12.1-25.9l80.9-37.7l12.1,25.9L206.2,238.1z
		 M197.6,306.2l-11.8-4.3l16-7.5L197.6,306.2z M204,201.1l-91,42.4c-2.8,1.3-6.1,0.1-7.4-2.7c-1.3-2.8-0.1-6.1,2.7-7.4l91-42.4
		c2.8-1.3,6.1-0.1,7.4,2.7C208,196.5,206.8,199.8,204,201.1z"/>
	<rect x="230.8" y="271.7" class="st0" width="11.2" height="11.2"/>
	<rect x="253.1" y="271.7" class="st0" width="11.2" height="11.2"/>
	<rect x="275.4" y="271.7" class="st0" width="11.2" height="11.2"/>
	<rect x="52.3" y="274.1" class="st0" width="11.2" height="11.2"/>
	<rect x="74.6" y="274.1" class="st0" width="11.2" height="11.2"/>
	<rect x="96.9" y="274.1" class="st0" width="11.2" height="11.2"/>
</g>
</svg>
