<?xml version="1.0" encoding="utf-8"?>
<!-- Generator: Adobe Illustrator 20.0.0, SVG Export Plug-In . SVG Version: 6.00 Build 0)  -->
<svg version="1.1" id="Layer_1" xmlns="http://www.w3.org/2000/svg" xmlns:xlink="http://www.w3.org/1999/xlink" x="0px" y="0px"
	 viewBox="0 0 365 339" style="enable-background:new 0 0 365 339;" xml:space="preserve">
<style type="text/css">
	.st0{fill:#FFFFFF;}
</style>
<path class="st0" d="M352.1,328.8H175.5c-3.9,0-7-3.1-7-7v-25c0-3.9,3.1-7,7-7h71.9l7-23.3v-27.9h-78.9c-3.9,0-7-3.1-7-7
	c0-3.9,3.1-7,7-7h83.7c11.4-8.2,15.8-20.9,11.9-34.3c-3.1-10.6-10.6-18.7-18.8-21.2v21.1c0,1.3-0.4,2.6-1.1,3.7l-10.9,17.4
	c-1.3,2-3.5,3.3-5.9,3.3h-15.6c-2.4,0-4.6-1.2-5.9-3.2l-11.3-17.3c-0.7-1.1-1.1-2.5-1.1-3.8V47.2c0-2.9,1.7-5.3,4.2-6.4v-17
	c0-7.7,8.1-12.9,15.7-12.9h12.7c8.2,0,14.9,5.8,14.9,12.9v17c2.5,1.1,4.2,3.5,4.2,6.4v6c1.2-0.1,2.4-0.2,3.6-0.2
	c17.1,0,31,13.9,31,31c0,10.1-4.8,19-12.2,24.7v24.3c25,6.9,67.9,33.5,75.6,76.2c3.6,19.9-0.1,37.6-10.4,49.9
	c-0.1,0.2-0.3,0.3-0.4,0.5l5,30.4h7.7c3.9,0,7,3.1,7,7v25C359.1,325.7,356,328.8,352.1,328.8z M182.5,314.9h162.7v-11H182.5
	C182.5,303.9,182.5,314.9,182.5,314.9z M261.9,289.9h68.3l-3.3-20.4c-6.4,3.4-13.8,5.2-21.7,5.2h-38.7L261.9,289.9z M268.4,260.7
	h36.9c9.8,0,18.1-3.7,23.9-10.6c7.6-9.1,10.2-22.7,7.4-38.4c-7.2-40.3-52.4-63.4-70-66.2c-3.4-0.6-5.9-3.5-5.9-6.9v-23.9
	c-2.7,0.4-5.6,0.5-8.4,0.2V155c14.4,2.4,27.2,14.7,32.2,31.6c4.4,14.9,2.2,35.1-16.2,48.8V260.7z M222.7,200.8h7.9l7.7-12.4v-7
	h-23.8v7.1L222.7,200.8z M214.6,167.3h23.8v-57.9c-8.1-5.6-13.4-14.9-13.4-25.5s5.3-19.9,13.4-25.5v-4.3h-23.8V167.3z M247.4,69.2
	c-5,3-8.4,8.4-8.4,14.7c0,9.4,7.6,17,17,17c9.4,0,17-7.6,17-17s-7.6-17-17-17c-2.3,0-4.5,0.5-6.5,1.3
	C248.8,68.7,248.1,69,247.4,69.2z M218.8,40.2h15.4V25c-0.2-0.1-0.6-0.2-0.9-0.2h-12.7c-0.7,0-1.3,0.2-1.8,0.4
	C218.8,25.2,218.8,40.2,218.8,40.2z M312.1,252.9c-12.1,0-21.9-9.8-21.9-21.9s9.8-21.9,21.9-21.9c12.1,0,21.9,9.8,21.9,21.9
	S324.2,252.9,312.1,252.9z M312.1,223.1c-4.4,0-7.9,3.5-7.9,7.9c0,4.4,3.5,7.9,7.9,7.9c4.4,0,7.9-3.5,7.9-7.9
	C320,226.6,316.5,223.1,312.1,223.1z M99,223.4c-50.8,0-92.1-41.3-92.1-92.2c0-50.8,41.3-92.1,92.1-92.1s92.1,41.3,92.1,92.1
	C191.2,182.1,149.8,223.4,99,223.4z M99,53.1c-43.1,0-78.2,35.1-78.2,78.2c0,43.1,35.1,78.2,78.2,78.2s78.2-35.1,78.2-78.2
	C177.2,88.1,142.1,53.1,99,53.1z M144.9,170.2c-3.9,0-7-3.1-7-7v-35.8c0-3.9,3.1-7,7-7c3.9,0,7,3.1,7,7v35.8
	C151.9,167,148.8,170.2,144.9,170.2z M114.3,170.2c-3.9,0-7-3.1-7-7v-11.8c0-3.9,3.1-7,7-7c3.9,0,7,3.1,7,7v11.8
	C121.3,167,118.2,170.2,114.3,170.2z M83.7,170.2c-3.9,0-7-3.1-7-7V99.5c0-3.9,3.1-7,7-7c3.9,0,7,3.1,7,7v63.7
	C90.7,167,87.6,170.2,83.7,170.2z M53.1,170.2c-3.9,0-7-3.1-7-7v-39.8c0-3.9,3.1-7,7-7s7,3.1,7,7v39.8C60.1,167,57,170.2,53.1,170.2
	z"/>
</svg>
