<svg xmlns:dc="http://purl.org/dc/elements/1.1/" xmlns:cc="http://creativecommons.org/ns#" xmlns:rdf="http://www.w3.org/1999/02/22-rdf-syntax-ns#" xmlns:svg="http://www.w3.org/2000/svg" xmlns="http://www.w3.org/2000/svg" xmlns:sodipodi="http://sodipodi.sourceforge.net/DTD/sodipodi-0.dtd" xmlns:inkscape="http://www.inkscape.org/namespaces/inkscape" version="1.1" x="0px" y="0px" viewBox="0 0 100 100"><g transform="translate(0,-952.36218)"><path style="text-indent:0;text-transform:none;direction:ltr;block-progression:tb;baseline-shift:baseline;color:#000000;enable-background:accumulate;" d="M 27.8125 27 A 2.0002 2.0002 0 0 0 26 29 L 26 71 A 2.0002 2.0002 0 0 0 28 73 L 92 73 A 2.0002 2.0002 0 0 0 94 71 L 94 29 A 2.0002 2.0002 0 0 0 92 27 L 28 27 A 2.0002 2.0002 0 0 0 27.8125 27 z M 33.34375 31 L 86.65625 31 L 60 54.3125 L 33.34375 31 z M 7.8125 33 A 2.0021961 2.0021961 0 1 0 8 37 L 22 37 A 2.0001998 2.0001998 0 1 0 22 33 L 8 33 A 2.0001998 2.0001998 0 0 0 7.8125 33 z M 30 33.40625 L 48.96875 50 L 30 66.5625 L 30 33.40625 z M 90 33.40625 L 90 66.5625 L 71.03125 50 L 90 33.40625 z M 9.8125 43 A 2.0021961 2.0021961 0 1 0 10 47 L 22 47 A 2.0001998 2.0001998 0 1 0 22 43 L 10 43 A 2.0001998 2.0001998 0 0 0 9.8125 43 z M 52 52.65625 L 58.6875 58.5 A 2.0001999 2.0001999 0 0 0 61.3125 58.5 L 68 52.65625 L 86.6875 69 L 33.3125 69 L 52 52.65625 z M 11.8125 53 A 2.0021961 2.0021961 0 1 0 12 57 L 22 57 A 2.0001998 2.0001998 0 1 0 22 53 L 12 53 A 2.0001998 2.0001998 0 0 0 11.8125 53 z " transform="translate(0,952.36218)" fill="#ffffff" fill-opacity="1" stroke="none" marker="none" visibility="visible" display="inline" overflow="visible"></path></g></svg>