<?xml version="1.0" encoding="utf-8"?>
<!-- Generator: Adobe Illustrator 20.0.0, SVG Export Plug-In . SVG Version: 6.00 Build 0)  -->
<svg version="1.1" id="Layer_1" xmlns="http://www.w3.org/2000/svg" xmlns:xlink="http://www.w3.org/1999/xlink" x="0px" y="0px"
	 viewBox="0 0 256 256" style="enable-background:new 0 0 256 256;" xml:space="preserve">
<style type="text/css">
	.st0{fill:#FFFFFF;}
</style>
<path class="st0" d="M118.4,8.6l-3.9,14.1c-0.7,2.6,0.8,5.2,3.4,5.9l0,0c2.6,0.7,5.2-0.8,5.9-3.4l3.9-14.1c0.7-2.6-0.8-5.2-3.4-5.9
	l0,0C121.8,4.6,119.1,6.1,118.4,8.6z"/>
<path class="st0" d="M81.6,140.8l-3.3,12c-0.7,2.6,0.8,5.2,3.4,5.9s5.2-0.8,5.9-3.4l3.3-12c0.7-2.6-0.8-5.2-3.4-5.9l0,0
	C85,136.7,82.4,138.2,81.6,140.8z"/>
<path class="st0" d="M172.7,106.4c2.6,0.7,5.2-0.8,5.9-3.4l0,0c0.7-2.6-0.8-5.2-3.4-5.9l-14.1-3.9c-2.6-0.7-5.2,0.8-5.9,3.4l0,0
	c-0.7,2.6,0.8,5.2,3.4,5.9L172.7,106.4z"/>
<path class="st0" d="M46.5,66.2L46.5,66.2c0.7-2.6-0.8-5.2-3.4-5.9l-12-3.3c-2.6-0.7-5.2,0.8-5.9,3.4c-0.7,2.6,0.8,5.2,3.4,5.9
	l12,3.3C43.1,70.3,45.8,68.8,46.5,66.2z"/>
<path class="st0" d="M73.1,33.3L73.1,33.3c2.3-1.3,3.1-4.2,1.8-6.6L68.9,16c-1.3-2.3-4.2-3.1-6.6-1.8c-2.3,1.3-3.1,4.2-1.8,6.6
	l6.1,10.8C67.9,33.8,70.8,34.6,73.1,33.3z"/>
<path class="st0" d="M157.2,54.6l12.7-7.2c2.3-1.3,3.1-4.2,1.8-6.6s-4.2-3.1-6.6-1.8l-12.7,7.2c-2.3,1.3-3.1,4.2-1.8,6.6
	C151.9,55,154.9,55.9,157.2,54.6z"/>
<path class="st0" d="M39.7,120.9l10.8-6.1c2.3-1.3,3.1-4.2,1.8-6.6s-4.2-3.1-6.6-1.8l-10.8,6.1c-2.3,1.3-3.1,4.2-1.8,6.6
	C34.4,121.4,37.3,122.2,39.7,120.9z"/>
<path class="st0" d="M118.8,80.2c-3.1-2.2-6.6-3.3-10.1-3.3c-4.6,0-9,2-12,5.5c-3.2,3.7-4.5,8.7-3.7,14l19.8,125.2
	c1.4,8.7,8.6,15.1,17.1,15.1c3.4,0,6.8-1,9.7-2.8l21.6-13.6l13.6,21.6c3.6,5.6,9.7,9,16.4,9c3.6,0,7.2-1,10.3-2.9l7-4.4
	c9-5.6,11.7-17.6,6.1-26.6l-13.6-21.6l21.6-13.6c5.2-3.3,8.3-8.7,8.5-14.6c0.1-5.8-2.8-11.4-7.9-14.9L118.8,80.2L118.8,80.2z
	 M214.8,169.5l-29.7,18.7c-2.3,1.4-2.9,4.4-1.5,6.7l18.7,29.7c1.4,2.3,0.7,5.3-1.5,6.7l-7,4.4c-0.8,0.5-1.7,0.7-2.6,0.7
	c-1.6,0-3.2-0.8-4.1-2.3l-18.7-29.7c-0.9-1.4-2.5-2.3-4.1-2.3c-0.9,0-1.8,0.2-2.6,0.7L132,221.6c-0.7,0.4-1.4,0.6-2,0.6
	c-1.4,0-2.6-1-2.8-2.8L107.4,94.1c-0.3-1.8,0.3-2.8,1.4-2.8c0.5,0,1.2,0.2,1.9,0.7l104.3,72C217.1,165.7,217.1,168.1,214.8,169.5
	L214.8,169.5z"/>
<path class="st0" d="M56.1,82c0,20.4,13.3,37.6,31.7,43.6l-2.7-17.2c-1.9-1.2-3.7-2.7-5.3-4.2c-5.7-5.7-9.2-13.5-9.2-22.2
	s3.5-16.5,9.2-22.2c5.7-5.7,13.5-9.2,22.2-9.2s16.5,3.5,22.2,9.2c4.9,4.9,8.1,11.3,8.9,18.5l14.3,9.8c0.3-2,0.4-4.1,0.4-6.1
	c0-25.3-20.5-45.8-45.8-45.8C76.6,36.1,56.1,56.7,56.1,82L56.1,82z"/>
</svg>
