<?xml version="1.0" encoding="utf-8"?>
<!-- Generator: Adobe Illustrator 20.0.0, SVG Export Plug-In . SVG Version: 6.00 Build 0)  -->
<svg version="1.1" id="Layer_1" xmlns="http://www.w3.org/2000/svg" xmlns:xlink="http://www.w3.org/1999/xlink" x="0px" y="0px"
	 viewBox="0 0 512 512" style="enable-background:new 0 0 512 512;" xml:space="preserve">
<style type="text/css">
	.st0{fill:#FFFFFF;}
</style>
<g>
	<path class="st0" d="M489.7,175.2H374.8c-7.8,0-14.1,6.3-14.1,14.1v306.6c0,7.8,6.3,14.1,14.1,14.1h114.9c7.8,0,14.1-6.3,14.1-14.1
		V189.3C503.8,181.5,497.5,175.2,489.7,175.2z M475.6,481.8h-86.7v-33.1h86.7L475.6,481.8L475.6,481.8z M475.6,420.5h-86.7v-33.1
		h86.7L475.6,420.5L475.6,420.5z M475.6,359.2h-86.7v-33.1h86.7L475.6,359.2L475.6,359.2z M475.6,297.8h-86.7v-33.1h86.7
		L475.6,297.8L475.6,297.8z M475.6,236.5h-86.7v-33.1h86.7L475.6,236.5L475.6,236.5z"/>
	<path class="st0" d="M313.5,297.8h-115c-7.8,0-14.1,6.3-14.1,14.1v183.9c0,7.8,6.3,14.1,14.1,14.1h114.9c7.8,0,14.1-6.3,14.1-14.1
		V312C327.6,304.2,321.3,297.8,313.5,297.8z M299.4,481.8h-86.7v-33.1h86.7V481.8z M299.4,420.5h-86.7v-33.1h86.7V420.5z
		 M299.4,359.2h-86.7v-33.1h86.7V359.2z"/>
	<path class="st0" d="M137.2,420.5H22.3c-7.8,0-14.1,6.3-14.1,14.1v61.3c0,7.8,6.3,14.1,14.1,14.1h114.9c7.8,0,14.1-6.3,14.1-14.1
		v-61.3C151.3,426.8,145,420.5,137.2,420.5z M123.1,481.8H36.4v-33.1h86.7V481.8z"/>
	<path class="st0" d="M495.9,2h-75.6c-7.8,0-14.1,6.3-14.1,14.1s6.3,14.1,14.1,14.1h41.5L399.1,93l-37.5-37.5
		c-5.3-5.3-14.7-5.3-20,0L223.5,173.6L189,139.1c-5.3-5.3-14.7-5.3-20,0L6.1,302c-5.5,5.5-5.5,14.4,0,20c5,5,16.2,3.7,20,0L179,169
		l34.5,34.5c2.6,2.6,6.2,4.1,10,4.1c3.7,0,7.3-1.5,10-4.1L351.6,85.4l37.5,37.5c5.3,5.3,14.7,5.3,20,0l72.7-72.7v41.5
		c0,7.8,6.3,14.1,14.1,14.1c7.8,0,14.1-6.3,14.1-14.1V16.1C510,8.3,503.7,2,495.9,2z"/>
</g>
</svg>
