<?xml version="1.0" encoding="utf-8"?>
<!-- Generator: Adobe Illustrator 20.0.0, SVG Export Plug-In . SVG Version: 6.00 Build 0)  -->
<svg version="1.1"
	 id="Layer_1" xmlns:cc="http://creativecommons.org/ns#" xmlns:dc="http://purl.org/dc/elements/1.1/" xmlns:inkscape="http://www.inkscape.org/namespaces/inkscape" xmlns:rdf="http://www.w3.org/1999/02/22-rdf-syntax-ns#" xmlns:sodipodi="http://sodipodi.sourceforge.net/DTD/sodipodi-0.dtd" xmlns:svg="http://www.w3.org/2000/svg"
	 xmlns="http://www.w3.org/2000/svg" xmlns:xlink="http://www.w3.org/1999/xlink" x="0px" y="0px" viewBox="0 0 326.8 213.3"
	 style="enable-background:new 0 0 326.8 213.3;" xml:space="preserve">
<style type="text/css">
	.st0{fill:#FFFFFF;}
</style>
<g transform="translate(0,-1020.3622)">
	<g transform="translate(-530.00032,-515.02)">
		<path class="st0" d="M539.1,1545.7c-2,0.7-3.5,2.8-3.4,4.9v107.9c0,2.6,2.3,4.9,4.9,4.9h93.5l30,34.8c2.6,2.9,8.4,0.8,8.6-3.1
			v-31.8h34.2c2.6,0,4.9-2.3,4.9-4.9v-107.9c0-2.6-2.3-4.9-4.9-4.9H540.6c-0.2,0-0.4,0-0.6,0
			C539.7,1545.6,539.4,1545.6,539.1,1545.7z M545.5,1555.4H702v98.1h-34.2c-2.6,0-4.9,2.3-4.9,4.9v23.2l-22.9-26.6
			c-0.9-1-2.3-1.6-3.7-1.5h-90.8V1555.4z M816.4,1575c-6,0-12,2.2-16.5,6.7l-11.9,12.2c-0.3,0.3-0.7,0.6-0.9,0.9
			c-0.5,0.4-0.9,0.9-1.2,1.5l-83.8,84.4c-1.7,0.5-1.7,2.6-2.4,3.7l-17.4,51.7c-1.5,3.6,2.9,7.9,6.4,6.4l52-17.7
			c0.8-0.2,1.5-0.6,2.1-1.2c0.4-0.4,0.7-0.8,0.9-1.2l85-85.3c0.1-0.1,0.2-0.2,0.3-0.3c0.5-0.4,0.9-0.9,1.2-1.5l11.9-11.6
			c9.1-9.1,8.8-24.2-0.3-33.3l-8.6-8.6C828.6,1577.2,822.4,1575,816.4,1575z M816.7,1584.5c3.5,0,6.8,1.3,9.5,4l8.9,8.9
			c5.4,5.4,5.4,13.8,0,19.3l-9.8,9.8l-27.8-28.1l9.5-9.5C809.5,1586.1,813.2,1584.5,816.7,1584.5z M584.6,1589.7
			c-8,0-14.7,6.6-14.7,14.7c0,8,6.6,14.7,14.7,14.7s14.7-6.6,14.7-14.7C599.3,1596.3,592.7,1589.7,584.6,1589.7z M623.8,1589.7
			c-8,0-14.7,6.6-14.7,14.7c0,8,6.6,14.7,14.7,14.7c8,0,14.7-6.6,14.7-14.7C638.4,1596.3,631.8,1589.7,623.8,1589.7z M662.9,1589.7
			c-8,0-14.7,6.6-14.7,14.7c0,8,6.6,14.7,14.7,14.7c8,0,14.7-6.6,14.7-14.7C677.6,1596.3,670.9,1589.7,662.9,1589.7z M584.6,1599.5
			c2.8,0,4.9,2.1,4.9,4.9c0,2.8-2.1,4.9-4.9,4.9s-4.9-2.1-4.9-4.9C579.8,1601.6,581.9,1599.5,584.6,1599.5z M623.8,1599.5
			c2.8,0,4.9,2.1,4.9,4.9c0,2.8-2.1,4.9-4.9,4.9c-2.8,0-4.9-2.1-4.9-4.9C618.9,1601.6,621,1599.5,623.8,1599.5z M662.9,1599.5
			c2.8,0,4.9,2.1,4.9,4.9c0,2.8-2.1,4.9-4.9,4.9c-2.8,0-4.9-2.1-4.9-4.9C658,1601.6,660.1,1599.5,662.9,1599.5z M790.4,1605.3l11,11
			l-79.8,79.2l-10.4-10.4L790.4,1605.3z M808.4,1623l10.1,10.1l-79.5,80.1l-10.4-10.7L808.4,1623z M706.3,1694.2l23.8,23.8
			l-35.5,11.9L706.3,1694.2z"/>
	</g>
</g>
</svg>
