<?xml version="1.0" encoding="utf-8"?>
<!-- Generator: Adobe Illustrator 20.0.0, SVG Export Plug-In . SVG Version: 6.00 Build 0)  -->
<svg version="1.1"
	 id="Layer_1" xmlns:cc="http://creativecommons.org/ns#" xmlns:dc="http://purl.org/dc/elements/1.1/" xmlns:inkscape="http://www.inkscape.org/namespaces/inkscape" xmlns:rdf="http://www.w3.org/1999/02/22-rdf-syntax-ns#" xmlns:sodipodi="http://sodipodi.sourceforge.net/DTD/sodipodi-0.dtd" xmlns:svg="http://www.w3.org/2000/svg"
	 xmlns="http://www.w3.org/2000/svg" xmlns:xlink="http://www.w3.org/1999/xlink" x="0px" y="0px" viewBox="0 0 326 325"
	 style="enable-background:new 0 0 326 325;" xml:space="preserve">
<style type="text/css">
	.st0{fill:#FFFFFF;}
</style>
<g transform="translate(0,-952.36218)">
	<path class="st0" d="M143.4,961.4C67.6,961.4,6,1023,6,1098.7s61.6,137.4,137.4,137.4c13.4,0,26.3-2,38.5-5.6
		c11,7.9,24.4,12.7,39,12.7c15.9,0,30.5-5.6,42.1-15c0,0,39.8,39.8,41.1,41.1c1.3,1.3,3,2.1,5,2.1c3.9,0,7-3.2,7-7
		c0-1.9-0.8-3.6-2-4.8c-1.3-1.3-41.2-41.3-41.2-41.3c9.3-11.5,15-26,15-41.9c0-14.5-4.7-28-12.7-39c3.6-12.2,5.6-25.1,5.6-38.5
		C280.8,1023,219.2,961.4,143.4,961.4z M150.4,976.3c13.5,3,26.4,14.7,36.7,33.7c2.8,5.1,5.3,10.8,7.6,16.8
		c-13.8-3.1-28.7-5-44.3-5.4V976.3z M136.3,976.4v45c-15.5,0.4-30.3,2.3-44,5.4c2.3-6.1,4.8-11.7,7.6-16.8
		C110.1,991.1,122.9,979.5,136.3,976.4z M101.7,982.7c-5.3,5.9-10,12.9-14.2,20.6c-4.5,8.4-8.4,17.8-11.6,28
		c-10.2,3.2-19.6,7-28,11.6c-7.7,4.2-14.7,8.9-20.6,14.2C39.8,1022.5,67.1,995.1,101.7,982.7z M185.4,982.8
		c34.3,12.4,61.4,39.6,73.9,73.9c-5.8-5.1-12.7-9.8-20.3-13.9c-8.4-4.5-17.8-8.4-28-11.6c-3.2-10.2-7-19.6-11.6-28
		C195.4,995.6,190.7,988.7,185.4,982.8z M136.3,1035.6v56.1H80.2c0.5-17.7,3.1-34.3,7.2-49.2
		C102.2,1038.5,118.8,1036.1,136.3,1035.6z M150.4,1035.6c17.7,0.5,34.3,3.1,49.2,7.2c4,14.8,6.6,31.4,7.2,49h-56.4V1035.6z
		 M71.5,1047.6c-3.1,13.8-5,28.6-5.4,44.1h-45c3.1-13.4,14.7-26.3,33.6-36.5C59.8,1052.4,65.4,1049.8,71.5,1047.6z M215.5,1047.7
		c6.1,2.3,11.7,4.8,16.8,7.6c18.9,10.2,30.5,23,33.6,36.4h-45C220.5,1076.2,218.6,1061.4,215.5,1047.7z M21,1105.8h45.1
		c0.4,15.6,2.3,30.4,5.4,44.3c-6.1-2.3-11.7-4.8-16.8-7.6C35.6,1132.2,24,1119.3,21,1105.8z M80.2,1105.8h56.1v56.4
		c-17.6-0.5-34.2-3.2-49-7.2C83.3,1140.1,80.7,1123.5,80.2,1105.8z M150.4,1105.8h56.4c-0.1,1.7-0.1,3.4-0.2,5.1
		c-25.4,5.6-45.5,25.6-51.1,51c-1.7,0.1-3.4,0.3-5.1,0.3V1105.8z M220.9,1105.8H266c-1.2,5.2-3.7,10.3-7.4,15.2
		c-10.7-7.4-23.8-11.7-37.8-11.7c-0.1,0-0.1,0-0.2,0C220.7,1108.1,220.9,1107,220.9,1105.8z M220.9,1123.4
		c29.3,0,52.8,23.6,52.8,52.8c0,29.3-23.6,52.8-52.8,52.8s-52.8-23.6-52.8-52.8C168,1147,191.6,1123.4,220.9,1123.4z M27.4,1140.7
		c5.9,5.2,12.9,9.9,20.6,14.1c8.4,4.5,17.8,8.5,28,11.7c3.2,10.2,7,19.6,11.6,28c4.1,7.6,8.8,14.5,14,20.4
		C67.1,1202.3,39.7,1175.1,27.4,1140.7z M92.3,1170.9c13.8,3.1,28.5,5,44,5.4v45c-13.4-3.1-26.2-14.7-36.4-33.6
		C97.1,1182.6,94.6,1176.9,92.3,1170.9z M154,1176c0,0.1,0,0.1,0,0.2c0,14,4.3,27,11.7,37.8c-4.9,3.7-10,6.2-15.2,7.4v-45.1
		C151.6,1176.2,152.8,1176.1,154,1176z"/>
</g>
</svg>
