<?xml version="1.0" encoding="utf-8"?>
<!-- Generator: Adobe Illustrator 20.0.0, SVG Export Plug-In . SVG Version: 6.00 Build 0)  -->
<svg version="1.1" id="Layer_1" xmlns="http://www.w3.org/2000/svg" xmlns:xlink="http://www.w3.org/1999/xlink" x="0px" y="0px"
	 viewBox="0 0 322 325" style="enable-background:new 0 0 322 325;" xml:space="preserve">
<style type="text/css">
	.st0{fill:#FFFFFF;}
</style>
<path class="st0" d="M110.4,159.1c1.7,0,3.4-0.6,4.6-1.9l19.9-19.9c2.6-2.6,2.6-6.7,0-9.3c-2.6-2.6-6.7-2.6-9.3,0l-19.9,19.9
	c-2.6,2.6-2.6,6.7,0,9.3C107,158.4,108.7,159.1,110.4,159.1z"/>
<path class="st0" d="M114.3,255.3c1.7,0,3.4-0.6,4.6-1.9c2.6-2.6,2.6-6.7,0-9.3L99,224.2c-2.6-2.6-6.7-2.6-9.3,0
	c-2.6,2.6-2.6,6.7,0,9.3l19.9,19.9C110.9,254.7,112.6,255.3,114.3,255.3z"/>
<path class="st0" d="M222,224.2L202,244.1c-2.6,2.6-2.6,6.7,0,9.3c1.3,1.3,3,1.9,4.6,1.9c1.7,0,3.4-0.6,4.6-1.9l19.9-19.9
	c2.6-2.6,2.6-6.7,0-9.3C228.7,221.7,224.5,221.7,222,224.2z"/>
<path class="st0" d="M195.3,127.9c-2.6-2.6-6.7-2.6-9.3,0c-2.6,2.6-2.6,6.7,0,9.3l19.9,19.9c1.3,1.3,3,1.9,4.6,1.9
	c1.7,0,3.4-0.6,4.6-1.9c2.6-2.6,2.6-6.7,0-9.3L195.3,127.9z"/>
<path class="st0" d="M127.3,120.4h66.4c6.2,0,12-2.4,16.3-6.9c4.3-4.4,6.5-10.3,6.3-16.5c0-0.4-0.2-4.5-1.8-11l0,0
	c-3.9-16-12.9-21.1-24.4-26.8c2.2-4.5,3.5-9.5,3.5-14.8c0-18.3-14.9-33.1-33.1-33.1c-18.3,0-33.1,14.9-33.1,33.1
	c0,5.3,1.3,10.3,3.5,14.8c-11.9,6-21.3,11.2-24.9,28.8c-1.2,5.9-1.4,8.3-1.4,9c-0.2,6.2,2.1,12.1,6.4,16.5
	C115.3,118,121.1,120.4,127.3,120.4z M160.5,24.5c11,0,20,9,20,20c0,11-9,20-20,20s-20-9-20-20C140.5,33.5,149.4,24.5,160.5,24.5z
	 M118.8,90.7c2.4-12,7.4-14.5,19.2-20.4l1.1-0.6c5.8,4.9,13.2,7.8,21.3,7.8c8.1,0,15.6-2.9,21.3-7.8l1.1,0.6
	c11.9,5.9,16.8,8.3,19.2,20.4l0,0c0.9,4.2,1,6.8,1,6.8c0.1,2.6-0.8,5.1-2.6,6.9c-1.8,1.9-4.2,2.9-6.8,2.9h-66.4
	c-2.6,0-5.1-1-6.9-2.9c-1.8-1.9-2.8-4.3-2.7-6.9C117.7,97.5,117.8,95.6,118.8,90.7z"/>
<path class="st0" d="M214.5,285.3c-3.9-16-12.9-21.1-24.4-26.8c2.2-4.5,3.5-9.5,3.5-14.8c0-18.3-14.9-33.1-33.1-33.1
	c-18.3,0-33.1,14.9-33.1,33.1c0,5.3,1.3,10.3,3.5,14.8c-11.9,6-21.3,11.2-24.9,28.8c-1.2,5.9-1.4,8.3-1.4,9
	c-0.2,6.2,2.1,12.1,6.4,16.5c4.3,4.4,10.1,6.9,16.3,6.9h66.4c6.2,0,12-2.4,16.3-6.9c4.3-4.4,6.5-10.3,6.3-16.5
	C216.2,295.8,216.1,291.7,214.5,285.3L214.5,285.3z M160.5,223.7c11,0,20,9,20,20c0,11-9,20-20,20s-20-9-20-20
	C140.5,232.7,149.4,223.7,160.5,223.7z M200.5,303.6c-1.8,1.9-4.2,2.9-6.8,2.9h-66.4c-2.6,0-5.1-1-6.9-2.9c-1.8-1.9-2.8-4.3-2.7-6.9
	c0,0,0.1-1.9,1.1-6.8c2.4-12,7.4-14.5,19.2-20.4l1.1-0.6c5.8,4.9,13.2,7.8,21.3,7.8c8.1,0,15.6-2.9,21.3-7.8l1.1,0.6
	c11.9,5.9,16.8,8.3,19.2,20.4l0,0c0.9,4.2,1,6.8,1,6.8C203.2,299.3,202.3,301.8,200.5,303.6z"/>
<path class="st0" d="M110.3,211.2c4.3-4.4,6.5-10.3,6.3-16.5c0-0.4-0.2-4.5-1.8-11l0,0c-3.9-16-13-21.1-24.4-26.8
	c2.2-4.5,3.5-9.5,3.5-14.8c0-18.3-14.9-33.1-33.1-33.1c-18.3,0-33.1,14.9-33.1,33.1c0,5.3,1.3,10.3,3.5,14.8
	c-11.9,5.9-21.3,11.2-24.9,28.8c-1.2,5.9-1.4,8.3-1.4,9c-0.2,6.2,2.1,12.1,6.4,16.5c4.3,4.4,10.1,6.9,16.3,6.9h66.4
	C100.3,218.1,106.1,215.7,110.3,211.2z M60.9,122.2c11,0,20,9,20,20c0,11-9,20-20,20s-20-9-20-20C40.9,131.2,49.8,122.2,60.9,122.2z
	 M20.8,202.1c-1.8-1.9-2.8-4.3-2.7-6.9c0,0,0.1-1.9,1.1-6.8c2.4-12,7.4-14.5,19.2-20.4l1.1-0.6c5.8,4.9,13.2,7.8,21.3,7.8
	c8.1,0,15.6-2.9,21.3-7.8l1.1,0.6c11.9,5.9,16.8,8.3,19.2,20.4h0c0.9,4.2,1,6.8,1,6.8c0.1,2.6-0.8,5.1-2.6,6.9
	c-1.8,1.9-4.2,2.9-6.8,2.9H27.7C25,205,22.6,204,20.8,202.1z"/>
<path class="st0" d="M314.1,183.8L314.1,183.8c-3.9-16-13-21.1-24.4-26.8c2.2-4.5,3.5-9.5,3.5-14.8c0-18.3-14.9-33.1-33.1-33.1
	c-18.3,0-33.1,14.9-33.1,33.1c0,5.3,1.3,10.3,3.5,14.8c-11.9,5.9-21.3,11.2-24.9,28.8c-1.2,5.9-1.4,8.3-1.4,9
	c-0.2,6.2,2.1,12.1,6.4,16.5c4.3,4.4,10.1,6.9,16.3,6.9h66.4c6.2,0,12-2.4,16.3-6.9c4.3-4.4,6.5-10.3,6.3-16.5
	C315.8,194.3,315.7,190.2,314.1,183.8z M260.1,122.2c11,0,20,9,20,20c0,11-9,20-20,20c-11,0-20-9-20-20
	C240.1,131.2,249,122.2,260.1,122.2z M300.1,202.1c-1.8,1.9-4.2,2.9-6.8,2.9h-66.4c-2.6,0-5.1-1-6.9-2.9c-1.8-1.9-2.7-4.3-2.7-6.9
	c0,0,0.1-1.9,1.1-6.8c2.4-12,7.4-14.5,19.2-20.4l1.1-0.6c5.8,4.9,13.2,7.8,21.3,7.8c8.1,0,15.6-2.9,21.3-7.8l1.1,0.6
	c11.9,5.9,16.8,8.3,19.2,20.4h0c0.9,4.2,1,6.8,1,6.8C302.8,197.8,301.9,200.3,300.1,202.1z"/>
</svg>
