<svg id="Layer_1" data-name="Layer 1" xmlns="http://www.w3.org/2000/svg" xmlns:xlink="http://www.w3.org/1999/xlink" viewBox="0 0 122.2 101.3">
  <defs>
    <style>
      .cls-1 {
        fill: none;
        stroke: #000;
        stroke-linecap: round;
        stroke-linejoin: round;
        stroke-width: 0;
      }

      .cls-2 {
        fill-rule: evenodd;
        fill: url(#radial-gradient);
      }

      .cls-3 {
        fill: url(#radial-gradient-2);
      }

      .cls-4 {
        fill: url(#radial-gradient-3);
      }

      .cls-5 {
        fill: url(#radial-gradient-4);
      }

      .cls-6 {
        fill: url(#radial-gradient-5);
      }

      .cls-7 {
        fill: url(#radial-gradient-6);
      }

      .cls-8 {
        fill: url(#radial-gradient-7);
      }

      .cls-9 {
        fill: url(#radial-gradient-8);
      }

      .cls-10 {
        fill: url(#radial-gradient-9);
      }

      .cls-11 {
        fill: url(#radial-gradient-10);
      }

      .cls-12 {
        fill: url(#radial-gradient-11);
      }

      .cls-13 {
        fill: url(#radial-gradient-12);
      }

      .cls-14 {
        fill: url(#radial-gradient-13);
      }

      .cls-15 {
        fill: url(#radial-gradient-14);
      }

      .cls-16 {
        fill: url(#radial-gradient-15);
      }

      .cls-17 {
        fill: url(#radial-gradient-16);
      }

      .cls-18 {
        fill: url(#radial-gradient-17);
      }

      .cls-19 {
        fill: url(#radial-gradient-18);
      }

      .cls-20 {
        fill: url(#radial-gradient-19);
      }

      .cls-21 {
        fill: url(#radial-gradient-20);
      }

      .cls-22 {
        fill: url(#radial-gradient-21);
      }

      .cls-23 {
        fill: url(#radial-gradient-22);
      }

      .cls-24 {
        fill: url(#radial-gradient-23);
      }

      .cls-25 {
        fill: url(#radial-gradient-24);
      }

      .cls-26 {
        fill: url(#radial-gradient-25);
      }

      .cls-27 {
        fill: url(#radial-gradient-26);
      }

      .cls-28 {
        fill: url(#radial-gradient-27);
      }

      .cls-29 {
        fill: url(#radial-gradient-28);
      }
    </style>
    <radialGradient id="radial-gradient" cx="28.72" cy="876.8" r="5.66" gradientTransform="translate(222.9 -125.2) scale(1.94 0.47)" gradientUnits="userSpaceOnUse">
      <stop offset="0.25" stop-color="#f04923"/>
      <stop offset="0.85" stop-color="#300f07"/>
      <stop offset="1"/>
    </radialGradient>
    <radialGradient id="radial-gradient-2" cx="55.84" cy="28.9" r="2.48" gradientUnits="userSpaceOnUse">
      <stop offset="0.22" stop-color="#7bc144"/>
      <stop offset="0.92"/>
    </radialGradient>
    <radialGradient id="radial-gradient-3" cx="61.86" cy="28.9" r="2.48" xlink:href="#radial-gradient-2"/>
    <radialGradient id="radial-gradient-4" cx="67.89" cy="28.9" r="2.48" xlink:href="#radial-gradient-2"/>
    <radialGradient id="radial-gradient-5" cx="55.84" cy="35.02" r="2.48" xlink:href="#radial-gradient-2"/>
    <radialGradient id="radial-gradient-6" cx="61.86" cy="35.02" r="2.48" xlink:href="#radial-gradient-2"/>
    <radialGradient id="radial-gradient-7" cx="67.89" cy="35.02" r="2.48" xlink:href="#radial-gradient-2"/>
    <radialGradient id="radial-gradient-8" cx="55.84" cy="41.14" r="2.48" xlink:href="#radial-gradient-2"/>
    <radialGradient id="radial-gradient-9" cx="61.86" cy="41.14" r="2.48" xlink:href="#radial-gradient-2"/>
    <radialGradient id="radial-gradient-10" cx="67.89" cy="41.14" r="2.48" xlink:href="#radial-gradient-2"/>
    <radialGradient id="radial-gradient-11" cx="273.07" cy="298.37" r="2.48" gradientTransform="translate(-200.8 -251.6) scale(0.94 0.94)" xlink:href="#radial-gradient-2"/>
    <radialGradient id="radial-gradient-12" cx="279.09" cy="298.37" r="2.48" gradientTransform="translate(-200.8 -251.6) scale(0.94 0.94)" xlink:href="#radial-gradient-2"/>
    <radialGradient id="radial-gradient-13" cx="285.11" cy="298.37" r="2.48" gradientTransform="translate(-200.8 -251.6) scale(0.94 0.94)" xlink:href="#radial-gradient-2"/>
    <radialGradient id="radial-gradient-14" cx="273.07" cy="304.48" r="2.48" gradientTransform="translate(-200.8 -251.6) scale(0.94 0.94)" xlink:href="#radial-gradient-2"/>
    <radialGradient id="radial-gradient-15" cx="279.09" cy="304.48" r="2.48" gradientTransform="translate(-200.8 -251.6) scale(0.94 0.94)" xlink:href="#radial-gradient-2"/>
    <radialGradient id="radial-gradient-16" cx="285.11" cy="304.48" r="2.48" gradientTransform="translate(-200.8 -251.6) scale(0.94 0.94)" xlink:href="#radial-gradient-2"/>
    <radialGradient id="radial-gradient-17" cx="273.07" cy="310.6" r="2.48" gradientTransform="translate(-200.8 -251.6) scale(0.94 0.94)" xlink:href="#radial-gradient-2"/>
    <radialGradient id="radial-gradient-18" cx="279.09" cy="310.6" r="2.48" gradientTransform="translate(-200.8 -251.6) scale(0.94 0.94)" xlink:href="#radial-gradient-2"/>
    <radialGradient id="radial-gradient-19" cx="285.11" cy="310.6" r="2.48" gradientTransform="translate(-200.8 -251.6) scale(0.94 0.94)" xlink:href="#radial-gradient-2"/>
    <radialGradient id="radial-gradient-20" cx="272.32" cy="297.6" r="2.79" gradientTransform="translate(-200.8 -234.4) scale(0.94 0.88)" xlink:href="#radial-gradient-2"/>
    <radialGradient id="radial-gradient-21" cx="279.09" cy="297.6" r="2.79" gradientTransform="translate(-200.8 -234.4) scale(0.94 0.88)" xlink:href="#radial-gradient-2"/>
    <radialGradient id="radial-gradient-22" cx="285.86" cy="297.6" r="2.79" gradientTransform="translate(-200.8 -234.4) scale(0.94 0.88)" xlink:href="#radial-gradient-2"/>
    <radialGradient id="radial-gradient-23" cx="272.32" cy="304.48" r="2.79" gradientTransform="translate(-200.8 -234.4) scale(0.94 0.88)" xlink:href="#radial-gradient-2"/>
    <radialGradient id="radial-gradient-24" cx="279.09" cy="304.48" r="2.79" gradientTransform="translate(-200.8 -234.4) scale(0.94 0.88)" xlink:href="#radial-gradient-2"/>
    <radialGradient id="radial-gradient-25" cx="285.86" cy="304.48" r="2.79" gradientTransform="translate(-200.8 -234.4) scale(0.94 0.88)" xlink:href="#radial-gradient-2"/>
    <radialGradient id="radial-gradient-26" cx="272.32" cy="311.37" r="2.79" gradientTransform="translate(-200.8 -234.4) scale(0.94 0.88)" xlink:href="#radial-gradient-2"/>
    <radialGradient id="radial-gradient-27" cx="279.09" cy="311.37" r="2.79" gradientTransform="translate(-200.8 -234.4) scale(0.94 0.88)" xlink:href="#radial-gradient-2"/>
    <radialGradient id="radial-gradient-28" cx="285.86" cy="311.37" r="2.79" gradientTransform="translate(-200.8 -234.4) scale(0.94 0.88)" xlink:href="#radial-gradient-2"/>
  </defs>
  <title>avatar-prankbot</title>
  <g>
    <g>
      <path d="M338.3,323.8a8.3,8.3,0,0,0-1.6,1,4.7,4.7,0,0,1-2.7.9c-.5-.1-.9-.8-1.2-1.2s-1.6-3.2-1.1-4,4.5-.1,5.7-.8.5-2.4-.1-2.6a20.2,20.2,0,0,0-5.9-.7c-1.7,0-3.5.3-4.3,1.1s-.5,3.4,0,5.2a1.4,1.4,0,0,0-1.6,1.2,4.6,4.6,0,0,0,.1,1.3h0a1.5,1.5,0,0,1-.8-.3,5.5,5.5,0,0,1-1.4-1.5l-.4-.7v-.2h0c-.3-.7-.7-1.8-1-3s-1-3.7-1.4-5.2l-.4-1.9-.2-.7a34.2,34.2,0,0,0-2.3-7.4,15.4,15.4,0,0,0-4.5-5.9,13.2,13.2,0,0,0-8.1-2.7h-1.9v-1.1a2.1,2.1,0,0,0-2.1-2.1h-1.5v-1.9a2.2,2.2,0,0,0-2.1-2.2h-7v-3.3a3.8,3.8,0,0,0,2.5-3.7,3.8,3.8,0,0,0-3.7-3.9h-.4a34.4,34.4,0,0,0-.9-8.1,31.4,31.4,0,0,0-.8,7,10.6,10.6,0,0,0-16.5,0,31.5,31.5,0,0,0-.9-7,34.6,34.6,0,0,0-.8,8.2h0l-1.1-.2a3.9,3.9,0,0,0-.5,7.7v3.1h-7a2.2,2.2,0,0,0-2.1,2.2v1.9h-1.5a2.1,2.1,0,0,0-2.1,2.1v1.5h-.2a14.6,14.6,0,0,0-9.6,3.4,13.9,13.9,0,0,0-2,2.1c-.5.6-1.5,2.2-1.8,2.7a19.7,19.7,0,0,0-1.5,3.7,42.6,42.6,0,0,0-1.5,8.2c-.2,2.2-.2,3.8-.2,4a25.8,25.8,0,0,1-.6,5.4,7.1,7.1,0,0,1-1.9,3.7l-.9.6-1,.2a5,5,0,0,1-1.8-.4h-.3a4.9,4.9,0,0,0,.1-1.5,1.4,1.4,0,0,0-1.6-1.2c.5-1.7,1.5-3.8,0-5.2s-2.6-1.1-4.3-1.1a20.3,20.3,0,0,0-5.9.7c-.6.3-.5,2.3-.1,2.6s5-.4,5.7.8-.6,3.1-1.1,4-.7,1.1-1.2,1.2a4.7,4.7,0,0,1-2.7-.9,8.2,8.2,0,0,0-1.6-1,2.4,2.4,0,0,0-1.1,2.3c1.3,1.6,3.4,4.5,5.6,5.4s3.4-.9,3.9-2.5a1.9,1.9,0,0,0,2.2-.2l.5-.4h.1l.6.3a8.2,8.2,0,0,0,3,.6h0a6.1,6.1,0,0,0,2.7-.6,6.3,6.3,0,0,0,1.9-1.5,10.6,10.6,0,0,0,2.1-4.1,27.4,27.4,0,0,0,.9-6.7h0a51.9,51.9,0,0,1,.6-6.7,32.3,32.3,0,0,1,1.1-4.9,15.1,15.1,0,0,1,1.3-3.1,23.5,23.5,0,0,1,1.5-2.2,10.7,10.7,0,0,1,1.5-1.4,11.4,11.4,0,0,1,7.4-2.5h.2v.8a2.1,2.1,0,0,0,2.1,2.1h1.5v4h-1.5a2.1,2.1,0,0,0-2.1,2.1v.9a1.9,1.9,0,0,0,0,3.8v.9a2.1,2.1,0,0,0,2.1,2.1h1.5v1.3a2.2,2.2,0,0,0,2.1,2.2h2.5v2.3h0a5.2,5.2,0,0,0-4.6,7.5l-7.1,9.7a4.2,4.2,0,0,0-.2,8.4l6.6,16.6a4.2,4.2,0,0,0-1,2.7h0l-6.4,1.5-1,2.6h10.3l1.2.2a4.2,4.2,0,0,0,.1-8.4l-6.4-16.3a4.2,4.2,0,0,0,.5-5.1l6.9-8.9h1a5.2,5.2,0,0,0,4.8-3.1h2.4a4.2,4.2,0,0,0,.9,1.7l-5.6,7.6a3.7,3.7,0,0,0-.2,7.3l5.8,14.5a3.7,3.7,0,0,0-.9,2.4v.3l-3.3,1-.6,2.3h6.5l1.1.2a3.7,3.7,0,0,0,.1-7.3l-5.6-14.3a3.7,3.7,0,0,0,.4-4.5l6.2-8a4.2,4.2,0,0,0,3.2-3h1.7a4.2,4.2,0,0,0,3.2,3l6.5,8.3a4.2,4.2,0,0,0,.5,5.1l-6.4,16.3a4.2,4.2,0,0,0,.1,8.4l1.2-.2h7.5l-.7-2.6-3.8-1.2c0-.1,0-.2,0-.3a4.2,4.2,0,0,0-1-2.7l6.6-16.6a4.2,4.2,0,0,0-.2-8.4l-6-8.2a4.2,4.2,0,0,0,.6-1.2h2.2a5.2,5.2,0,0,0,4.8,3.1h1.1l6.9,8.9a4.2,4.2,0,0,0,.5,5.1l-6.4,16.3a4.2,4.2,0,0,0,.1,8.4l1.2-.2h10.3l-1-2.6-6.4-1.5h0a4.2,4.2,0,0,0-1-2.7l6.6-16.6a4.2,4.2,0,0,0-.2-8.4l-7.2-9.8a5.2,5.2,0,0,0-4.7-7.4h0v-2.3h2.5a2.2,2.2,0,0,0,2.1-2.2V316h1.5a2.1,2.1,0,0,0,2.1-2.1V313a1.9,1.9,0,0,0,0-3.8v-.9a2.1,2.1,0,0,0-2.1-2.1h-1.5v-4h1.5a2.1,2.1,0,0,0,2.1-2.1v-1.1l1.9-.2a10,10,0,0,1,6.1,2.1,12.2,12.2,0,0,1,3.6,4.7,30.9,30.9,0,0,1,2.1,6.7s.4,2,1,4.3.6,2.5,1,3.7a34.4,34.4,0,0,0,1.1,3.3h0a11.5,11.5,0,0,0,1.4,2.2,7.8,7.8,0,0,0,1.7,1.6,4.7,4.7,0,0,0,2.7.9h0l1.5-.3.2.2.5.4a1.9,1.9,0,0,0,2.2.2c.6,1.6,2.2,3.2,3.9,2.5s4.4-3.8,5.6-5.3A2.4,2.4,0,0,0,338.3,323.8Z" transform="translate(-217.2 -269.5)"/>
      <line class="cls-1" x1="27.4" y1="34.9" x2="27.4" y2="34.9"/>
    </g>
    <path class="cls-2" d="M287.2,283.4c0,.7-2.3,1.2-5.1,1.2h-6.8c-2.8,0-5.1-.5-5.1-1.2v-1.6c0-.7,2.3-1.2,5.1-1.2h6.8c2.8,0,5.1.5,5.1,1.2Z" transform="translate(-217.2 -269.5)"/>
    <g>
      <circle class="cls-3" cx="55.8" cy="28.9" r="2.5"/>
      <circle class="cls-4" cx="61.9" cy="28.9" r="2.5"/>
      <circle class="cls-5" cx="67.9" cy="28.9" r="2.5"/>
      <circle class="cls-6" cx="55.8" cy="35" r="2.5"/>
      <circle class="cls-7" cx="61.9" cy="35" r="2.5"/>
      <circle class="cls-8" cx="67.9" cy="35" r="2.5"/>
      <circle class="cls-9" cx="55.8" cy="41.1" r="2.5"/>
      <circle class="cls-10" cx="61.9" cy="41.1" r="2.5"/>
      <circle class="cls-11" cx="67.9" cy="41.1" r="2.5"/>
    </g>
    <g>
      <circle class="cls-12" cx="56.2" cy="29.3" r="2.3"/>
      <circle class="cls-13" cx="61.9" cy="29.3" r="2.3"/>
      <circle class="cls-14" cx="67.5" cy="29.3" r="2.3"/>
      <circle class="cls-15" cx="56.2" cy="35" r="2.3"/>
      <circle class="cls-16" cx="61.9" cy="35" r="2.3"/>
      <circle class="cls-17" cx="67.5" cy="35" r="2.3"/>
      <circle class="cls-18" cx="56.2" cy="40.8" r="2.3"/>
      <circle class="cls-19" cx="61.9" cy="40.8" r="2.3"/>
      <circle class="cls-20" cx="67.5" cy="40.8" r="2.3"/>
    </g>
    <g>
      <ellipse class="cls-21" cx="55.5" cy="28.9" rx="2.6" ry="2.5"/>
      <ellipse class="cls-22" cx="61.9" cy="28.9" rx="2.6" ry="2.5"/>
      <ellipse class="cls-23" cx="68.2" cy="28.9" rx="2.6" ry="2.5"/>
      <ellipse class="cls-24" cx="55.5" cy="35" rx="2.6" ry="2.5"/>
      <ellipse class="cls-25" cx="61.9" cy="35" rx="2.6" ry="2.5"/>
      <ellipse class="cls-26" cx="68.2" cy="35" rx="2.6" ry="2.5"/>
      <ellipse class="cls-27" cx="55.5" cy="41.1" rx="2.6" ry="2.5"/>
      <ellipse class="cls-28" cx="61.9" cy="41.1" rx="2.6" ry="2.5"/>
      <ellipse class="cls-29" cx="68.2" cy="41.1" rx="2.6" ry="2.5"/>
    </g>
  </g>
</svg>
