<svg id="browser" xmlns="http://www.w3.org/2000/svg" viewBox="0 0 546.8 306.5">
  <defs>
    <style>
      .cls-1 {
        fill: #fff;
      }

      .cls-2 {
        fill: #e2e2e2;
      }

      .cls-3 {
        fill: #70b44a;
      }

      .cls-4 {
        fill: #ddab54;
      }

      .cls-5 {
        fill: #d6655d;
      }
    </style>
  </defs>
  <title>mockup-browser</title>
  <g id="Layer_2" data-name="Layer 2">
    <g id="Layer_1-2" data-name="Layer 1">
      <g id="browser_Light-nak">
        <path class="cls-1" d="M546.8,18.1V301.5a5,5,0,0,1-5,5H5a5,5,0,0,1-5-5V18.1a5,5,0,0,1,5-5H541.8A5,5,0,0,1,546.8,18.1Z"/>
        <path class="cls-2" d="M546.8,26.1V5a5,5,0,0,0-5-5H5A5,5,0,0,0,0,5V26.1Z"/>
        <circle class="circle cls-3" cx="491.6" cy="13" r="5.6"/>
        <circle class="circle cls-4" cx="510.6" cy="13" r="5.6"/>
        <circle class="circle cls-5" cx="529.7" cy="13" r="5.6"/>
      </g>
    </g>
  </g>
</svg>
