<?xml version="1.0" encoding="utf-8"?>
<!-- Generator: Adobe Illustrator 20.0.0, SVG Export Plug-In . SVG Version: 6.00 Build 0)  -->
<svg version="1.1" id="Layer_1" xmlns="http://www.w3.org/2000/svg" xmlns:xlink="http://www.w3.org/1999/xlink" x="0px" y="0px"
	 viewBox="0 0 320 284" style="enable-background:new 0 0 320 284;" xml:space="preserve">
<style type="text/css">
	.st0{fill:#FFFFFF;}
</style>
<g>
	<path class="st0" d="M305.2,11.5H14.1c-5.5,0-11.5,6-11.5,11.5v196.9c0,5.5,5.9,11,11.5,11h72.2c2.2-3.3,4.5-6.5,6.7-6.5H81.3
		v-26.2h38.8c2.2-3.3,4.5-6.5,6.7-9.8H81.3V54.1h203v134.3H198c-2.2,3.3-4.5,6.5-6.7,9.8h95.5c0.9,0,2-0.8,3.3-2
		c1.2-1.2,0.7-3.5,0.7-4.7V53.8c0-1.8,0.5-3.8-1.2-5.5c-0.9-0.9-1.5-0.8-2.8-0.8H81.3V18h223.9c1.8,0,2,3.1,2,5v196.9
		c0,1.8-0.2,4.4-2,4.4H164.7c-2.2,0-4.5,3.3-6.7,6.5h147.2c5.5,0,8.6-5.4,8.6-11V23C313.8,17.5,310.7,11.5,305.2,11.5z M74.7,224.3
		H14.1c-1.8,0-4.9-2.6-4.9-4.4V23c0-1.8,3.1-5,4.9-5h60.6V224.3z"/>
	<path class="st0" d="M42.9,146.9c13.4,0,24.3-10.9,24.3-24.3c0-13.4-10.9-24.3-24.3-24.3c-13.4,0-24.3,10.9-24.3,24.3
		C18.6,136,29.5,146.9,42.9,146.9z M42.9,104.6c9.9,0,18,8.1,18,18c0,9.9-8.1,18-18,18s-18-8.1-18-18
		C24.9,112.7,33,104.6,42.9,104.6z"/>
	<path class="st0" d="M42.9,131.3c4.8,0,8.6-3.9,8.6-8.6c0-4.8-3.9-8.6-8.6-8.6s-8.6,3.9-8.6,8.6C34.2,127.4,38.1,131.3,42.9,131.3z
		"/>
	<path class="st0" d="M47.5,188.3h-10c-2.8,0-5,2.2-5,4.9c0,2.8,2.2,4.9,5,4.9h10c2.8,0,5-2.1,5-4.9
		C52.5,190.5,50.3,188.3,47.5,188.3z"/>
	<path class="st0" d="M47.5,171.9h-10c-2.8,0-5,2.2-5,4.9c0,2.8,2.2,4.9,5,4.9h10c2.8,0,5-2.1,5-4.9
		C52.5,174.1,50.3,171.9,47.5,171.9z"/>
	<path class="st0" d="M47.5,155.6h-10c-2.8,0-5,2.1-5,4.9c0,2.8,2.2,4.9,5,4.9h10c2.8,0,5-2.1,5-4.9
		C52.5,157.7,50.3,155.6,47.5,155.6z"/>
	<path class="st0" d="M37.5,90.1h10c2.8,0,5-2.1,5-4.9c0-2.8-2.2-4.9-5-4.9h-10c-2.8,0-5,2.2-5,4.9C32.5,87.9,34.7,90.1,37.5,90.1z"
		/>
	<path class="st0" d="M37.5,73.7h10c2.8,0,5-2.1,5-4.9c0-2.8-2.2-4.9-5-4.9h-10c-2.8,0-5,2.2-5,4.9C32.5,71.6,34.7,73.7,37.5,73.7z"
		/>
	<path class="st0" d="M37.5,57.3h10c2.8,0,5-2.1,5-4.9c0-2.8-2.2-4.9-5-4.9h-10c-2.8,0-5,2.1-5,4.9C32.5,55.2,34.7,57.3,37.5,57.3z"
		/>
	<path class="st0" d="M249.6,137.2c5.2-1.8,10.5-7.4,12.1-12.7l9.8-32.7c0.4-1.4,0.5-2.8,0.4-4.1l4.5-4.5c0.8-0.8,0.5-2.5-0.8-3.8
		l-1.4-1.4c-1.3-1.3-2.9-1.5-3.7-0.7l-5,5c-1,0-2,0.1-3.1,0.4l-32.7,9.8c-5.3,1.6-10.9,6.9-12.7,12.1c0,0.1-3.7,10-20.4,26.7
		L83.5,244.4c-2.1,2.1-3.3,4.9-3.3,7.9c0,1.5,0.3,2.9,0.8,4.3l-4.5,4.5c-1.3,1.3-2,3-2,4.9s0.7,3.6,2,4.9l6.8,6.8c1.3,1.3,3,2,4.9,2
		c1.8,0,3.6-0.7,4.9-2l4.5-4.5c1.3,0.5,2.8,0.8,4.3,0.8c3,0,5.8-1.2,7.9-3.3l113.1-113.1C239.6,140.9,249.5,137.2,249.6,137.2z
		 M231.3,97.8L264,88c0.1,0,0.3,0,0.4-0.1l1.4,1.3c0.2,0.2,0.4,0.3,0.5,0.4c0,0.2-0.1,0.3-0.1,0.5l-9.8,32.7
		c-0.1,0.2-0.1,0.3-0.2,0.5L230.8,98C230.9,98,231.1,97.9,231.3,97.8z M89.1,273.7c-0.6,0.6-1.2,0.6-1.8,0l-6.8-6.8
		c-0.3-0.3-0.4-0.7-0.4-0.9c0-0.2,0-0.6,0.4-0.9l3.9-3.9l8.6,8.6L89.1,273.7z M157,215.6l-8.8,8.8l-42.4,42.4
		c-0.9,0.9-2.1,1.4-3.4,1.5c-1.2,0.1-2.3-0.1-3.3-0.6c-0.4-0.2-0.9-0.5-1.2-0.9l-0.9-0.9l-8.6-8.6l-0.9-0.9
		c-0.4-0.4-0.6-0.8-0.9-1.2c-0.5-0.8-0.7-1.8-0.7-2.8c0-0.2,0-0.4,0.1-0.5c0.1-1.3,0.6-2.5,1.6-3.4l42.4-42.4l8.8-8.8l14.1-14.1
		l18.4,18.3L157,215.6z M175.8,196.8l-18.4-18.4l43.1-43.1c17.8-17.8,21.6-28.4,21.7-28.8c0.6-1.8,2-3.7,3.7-5.3l27,27.1
		c-1.6,1.7-3.5,3.1-5.3,3.7c-0.4,0.2-11,3.9-28.8,21.7L175.8,196.8z"/>
	<path class="st0" d="M230.3,121.4c-2.1-2.1-5.8-2.1-7.9,0L176.8,167c-1.1,1-1.7,2.5-1.7,4c0,1.5,0.6,2.9,1.7,4l2,2
		c1.1,1.1,2.5,1.7,4,1.7c1.5,0,2.9-0.6,4-1.7l45.6-45.6c2.2-2.2,2.2-5.7,0-7.9L230.3,121.4z M182.7,173l-2-2l25.8-25.8l2,2
		L182.7,173z M212.5,143.2l-2-2l15.9-15.9l2,2L212.5,143.2z"/>
</g>
</svg>
