<?xml version="1.0" encoding="utf-8"?>
<!-- Generator: Adobe Illustrator 20.0.0, SVG Export Plug-In . SVG Version: 6.00 Build 0)  -->
<svg version="1.1" id="Layer_1" xmlns="http://www.w3.org/2000/svg" xmlns:xlink="http://www.w3.org/1999/xlink" x="0px" y="0px"
	 viewBox="0 0 252 348" style="enable-background:new 0 0 252 348;" xml:space="preserve">
<style type="text/css">
	.st0{fill:#FFFFFF;}
</style>
<g>
	<path class="st0" d="M217.7,176.7c3.4-7.3,0.3-16-7.4-19.3l-7.3-3.4c-0.4-0.2-0.4-0.2-0.8-0.4l5.6-11.8l0,0
		c3.4-7.3,0.3-16-7.4-19.3l-7.3-3.4c-2.2-1-4.9-1.5-7.3-1.1l-25-88.6c-2.2-7.7-10-11.8-17.4-9.7L41.3,48.7
		c-7.7,2.2-11.8,10-9.7,17.4l17.7,62.6c-3-1.7-6.9-3.1-11.2-3.5c-7.9-1-16.8,3.8-21.1,11.1c-3.7,6.1-2.9,13.3,1.2,19.1
		c2.6,3.4,5.2,7.1,7.3,11.3c10.1,17.9,17,38.6,18.6,55.6l0.4,5c2.2,23.6,4.3,45.7,15.7,60c9.8,12.2,19.5,17.1,28,21.4l0.8,0.4
		c1.8,0.8,2.7,2.7,2.6,4.7l-1.6,18l92.3-4.1l1.4-13.1c0.2-1.6,1.1-2.9,2.5-3.6c4.3-1.8,10.4-6.1,15.7-15.6c6.5-12,10-31.2,11.2-39.2
		c1.3,0,2.5-0.1,4-0.5c4.1-1.2,7.5-4,9.2-8l4.4-9.2c1.5-3.6,1.7-7.5,0.3-11.3c-1.4-3.8-4.1-6.5-7.8-8.3l-0.8-0.4l4.5-9.9l0,0
		c3.4-7.3,0.3-16-7.4-19.3l-6.2-2.7L217.7,176.7L217.7,176.7z M183.4,197.3l6.2,2.7l-4.5,9.9c-1.3,3.2-1.7,6.5-0.7,9.8l-92.7,26.2
		L45.3,82l112.5-31.8l20,70.9l-0.2,0.4c-0.5,0.5-1,0.9-1.5,1.4c-0.2,0.4-0.5,0.5-0.4,0.8c-0.7,0.8-1.1,1.6-1.5,2.7l-7.8,16.5
		c-3.4,7.3-0.3,16,7.4,19.3l7.3,3.4c0.4,0.2,0.4,0.2,0.8,0.4l-5.3,11.7c-1.5,3.6-1.7,7.5-0.3,11.3
		C177,192.7,179.7,195.5,183.4,197.3z M198.7,232.2l-1.2,2.6c-1.5,3.6-1.7,7.5-0.3,11.3c0.3,0.9,0.8,1.7,1.3,2.5
		c0.1,0.3,0.5,0.5,0.5,0.8c0.1,0.3,0.5,0.8,0.6,1.1l-93.9,26.5c-3,0.8-5.7-0.9-6.4-3.6L94.1,255l95.4-26.9c0.8,0.7,2,1.4,3.1,2
		L198.7,232.2z M196.7,130.4c2.9,1.4,4.2,4.9,2.8,7.5l-7.8,16.5l-0.2,0.4c-0.4,0.8-0.9,1.2-1.4,1.7c-0.8,0.5-1.9,1.2-3.2,1.2
		c-1,0-1.9-0.1-3-0.4l-7.3-3.4c-2.9-1.4-4.2-4.9-2.8-7.5l7.8-16.5c0.6-1.1,1.6-2.4,2.7-2.7c0.3-0.1,0.6-0.2,0.9-0.3
		c1.2-0.3,2.8-0.2,3.9,0.2L196.7,130.4z M43.7,57.2l102.2-28.9c3-0.8,5.7,0.9,6.4,3.6l2.7,9.4L42.8,73.1l-2.7-9.4
		C39.3,61,41,58,43.7,57.2z M194,291.2c-4,7.2-8.2,10.3-11.3,11.8c-4.3,1.8-7.3,5.9-7.8,10.8l-0.4,5.5l-74.7,2.9l0.7-7.8
		c0.4-5.5-2.4-10.8-7.3-13.3l-0.8-0.4c-8.2-4.1-16.4-8.4-25.1-19c-9.7-11.9-11.6-33.1-13.7-55.1l-0.4-5
		c-1.7-18.3-9.1-40.2-19.6-59.2c-2.5-4.4-5.2-8.4-8.2-12c-2.2-3.2-2.4-6.3-0.7-9.4c2.3-4.2,7.8-7.3,12.2-6.6
		c12.9,1.8,17.2,12.4,17.5,13.5l36,127.6c2.2,7.7,10,11.8,17.4,9.7l95.4-26.9C202,266.6,199,281.8,194,291.2z M222.3,234.5l-4.4,9.2
		c-1.2,2.6-4,4-6.8,3.2c-0.4-0.2-0.7-0.1-1.1-0.3l-1.5-0.8c-1.4-0.6-2.4-1.9-3.2-3.3c-0.4-1.5-0.5-3,0-4.5l2-4.4
		c0.3-0.1,0.6-0.2,0.9-0.3c0.3-0.1,0.9-0.3,1.2-0.3c0.3-0.1,0.6-0.2,0.9-0.3l0.6-0.2c0.9-0.3,1.4-0.7,2.3-1c0.3-0.1,0.5-0.5,0.5-0.5
		c0.6-0.2,0.8-0.5,1.1-0.6s0.5-0.5,0.8-0.5c0.3-0.1,0.5-0.5,0.5-0.5c0.5-0.5,0.9-1.2,1.4-1.7c0.3-0.1,0.2-0.4,0.5-0.5
		c0.2-0.4,0.2-0.4,0.4-0.8l0.8,0.4c1.4,0.6,2.4,1.9,3.2,3.3C223,231.4,222.8,233,222.3,234.5z M207.7,224.6
		c-0.3,0.1-0.9,0.3-1.2,0.3l-0.3,0.1c-0.3,0.1-0.6,0.2-1,0c-0.7-0.1-1.3-0.3-1.7-0.5l-7.3-3.4c-2.9-1.4-4.2-4.9-2.8-7.5l5.3-11.7
		c0.6-0.2,1.2-0.3,1.8-0.5c0,0,0,0,0.3-0.1c0.3-0.1,0.6-0.2,0.9-0.3l0.6-0.2c0.9-0.3,1.4-0.7,2-0.9l0,0c0.3-0.1,0.6-0.2,0.3-0.1
		c0.3-0.1,0.5-0.5,0.8-0.5l0,0l0,0l0,0c0.3-0.1,0.5-0.5,0.5-0.5c0.3-0.1,0.5-0.5,0.5-0.5c0.8-0.5,1.2-1.3,1.6-2.1
		c0.2-0.4,0.2-0.4,0.4-0.8c0.2-0.4,0.5-0.5,0.7-0.8l6.3,3c2.9,1.4,4.2,4.9,2.8,7.5l-5.1,11.3l0,0l-2.4,5.1c-0.1,0.7-0.6,1.1-1.4,1.7
		l-0.2,0.4c0,0-0.3,0.1-0.5,0.5c-0.3,0.1-0.5,0.5-0.8,0.5 M198.6,192.7c-0.6,0.2-0.9,0.3-1.5,0.4c-0.3,0.1-0.6,0.2-1,0
		c-0.7-0.1-1.3-0.3-1.7-0.5l-7.3-3.4c-1.4-0.6-2.4-1.9-3.2-3.3c-0.4-1.5-0.5-3,0-4.5l6.9-15c0.6-0.2,1.2-0.3,1.7-0.8
		c0.3-0.1,0.6-0.2,0.9-0.3c0.8-0.5,1.6-1.1,2.4-1.6c0.8-0.5,1.5-1.4,2-1.8c0.4,0.2,0.7,0.1,1.3,0.3l7.3,3.4c2.9,1.4,4.2,4.9,2.8,7.5
		l-5.1,11.3l0,0l-2.4,5.1c-0.4,0.8-0.8,1.5-1.6,2.1l-0.8,0.5c-0.3,0.1-0.6,0.2-0.6,0.2"/>
	
		<rect x="82.1" y="47.1" transform="matrix(0.9623 -0.2719 0.2719 0.9623 -9.9604 28.2072)" class="st0" width="29.5" height="5.8"/>
	
		<ellipse transform="matrix(0.9623 -0.2719 0.2719 0.9623 -61.7867 50.8242)" class="st0" cx="152.5" cy="248.4" rx="7.4" ry="7.4"/>
	<path class="st0" d="M145,121.1c-2.9-3.3-3.2-8-1.4-11.7c-2.4-1.6-4.6-2.8-7.2-4c-2.2,3.5-6.4,5.6-10.7,4.9c-4.3-0.7-8-3.5-9.5-7.5
		c-2.7,0.5-5.4,1.2-8,2.3c0.9,4.2-0.5,8.4-4.1,11.4c-3.3,2.9-8,3.2-11.7,1.4c-1.6,2.4-2.8,4.6-4,7.2c3.5,2.2,5.6,6.4,4.9,10.7
		c-0.7,4.3-3.5,8-7.5,9.5c0.5,2.7,1.2,5.4,2.3,8c4.2-0.9,8.4,0.5,11.4,4.1c2.9,3.3,3.2,8,1.4,11.7c2.4,1.6,4.6,2.8,7.2,4
		c2.2-3.5,6.4-5.6,10.7-4.9c4.3,0.7,8,3.5,9.5,7.5c2.7-0.5,5.4-1.2,8-2.3c-0.9-4.2,0.5-8.4,4.1-11.4c3.3-2.9,8-3.2,11.7-1.4
		c1.6-2.4,2.8-4.6,4-7.2c-3.5-2.2-5.6-6.4-4.9-10.7c0.7-4.3,3.5-8,7.5-9.5c-0.5-2.7-1.2-5.4-2.3-8C152,125.8,147.5,124.5,145,121.1z
		 M127.1,157.1c-9.4,2.7-19.6-2.8-22.3-12.5c-2.7-9.4,2.8-19.6,12.5-22.3c9.7-2.8,19.6,2.8,22.3,12.5
		C142.2,144.2,136.8,154.3,127.1,157.1z"/>
</g>
</svg>
