<?xml version="1.0" encoding="utf-8"?>
<!-- Generator: Adobe Illustrator 20.0.0, SVG Export Plug-In . SVG Version: 6.00 Build 0)  -->
<svg version="1.1" id="Layer_1" xmlns="http://www.w3.org/2000/svg" xmlns:xlink="http://www.w3.org/1999/xlink" x="0px" y="0px"
	 viewBox="0 0 384 247" style="enable-background:new 0 0 384 247;" xml:space="preserve">
<style type="text/css">
	.st0{fill:#FFFFFF;}
</style>
<path class="st0" d="M364.2,122.9h-75.9V25.6c0-7.7-6.3-14-14-14H44.6c-7.7,0-14,6.3-14,14v86.1h-15c-5.8,0-10.6,4.7-10.6,10.6v108
	c0,5.8,4.7,10.6,10.6,10.6h53.5c5.8,0,10.6-4.7,10.6-10.6V190h49.9l0,5.2c-1.1,13-8.8,15.8-23.5,20l-5.1,1.5
	c-3.4,1-9.6,2.8-10.4,7.8c-0.3,1.8-0.7,4.2,1,6.2c1.7,1.9,4.3,2.1,6.6,2.1h103.1c0.5,5.5,5.1,9.8,10.7,9.8h152.3
	c5.9,0,10.8-4.8,10.8-10.8v-98C375,127.7,370.2,122.9,364.2,122.9z M37.7,25.6c0-3.8,3.1-6.9,6.9-6.9h229.7c3.8,0,6.9,3.1,6.9,6.9
	v97.3H270V38.9c0-5.1-4.1-9.2-9.2-9.2H58.1c-5.1,0-9.2,4.1-9.2,9.2v72.8H37.7L37.7,25.6L37.7,25.6z M72.6,230.3
	c0,1.9-1.6,3.5-3.5,3.5H15.6c-1.9,0-3.5-1.6-3.5-3.5v-108c0-1.9,1.6-3.5,3.5-3.5h53.5c1.9,0,3.5,1.6,3.5,3.5L72.6,230.3L72.6,230.3z
	 M201.1,225.7h-103c-0.2,0-0.5,0-0.6,0c0.5-0.6,2.4-1.4,6-2.5l4.4-1.3c13.9-4,27-7.7,28.6-26.5V190h39.7l0,6.9
	c2,16.9,14.5,20.9,24.9,24L201.1,225.7L201.1,225.7z M201.1,213.5c-10.2-3.2-16.6-6.5-17.8-17V190h17.8V213.5z M201.1,182.9H79.6
	v-27.6h121.5V182.9z M201.1,133.7v14.6H79.6v-25.9c0-5.8-4.7-10.6-10.6-10.6H55.9V38.9c0-1.2,1-2.2,2.2-2.2h202.7
	c1.2,0,2.2,1,2.2,2.2v83.9h-51.1C205.9,122.9,201.1,127.7,201.1,133.7z M367.9,231.7c0,2-1.7,3.7-3.7,3.7H211.9
	c-2,0-3.7-1.7-3.7-3.7v-98c0-2,1.7-3.7,3.7-3.7h152.3c2,0,3.7,1.7,3.7,3.7C367.9,133.7,367.9,231.7,367.9,231.7z M233.7,229.1h117.7
	v-92.9H233.7V229.1z M240.8,143.3h103.6v78.8H240.8V143.3z M220.5,176.1c-3.6,0-6.6,3-6.6,6.6c0,3.6,3,6.6,6.6,6.6
	c3.6,0,6.6-3,6.6-6.6S224.2,176.1,220.5,176.1z M359.9,167.9c-1.8,0-3.2,1.4-3.2,3.2v29.4c0,1.8,1.4,3.2,3.2,3.2
	c1.8,0,3.2-1.4,3.2-3.2v-29.4C363.1,169.3,361.7,167.9,359.9,167.9z M42.7,215.3c-3.6,0-6.6,2.9-6.6,6.6c0,3.6,2.9,6.6,6.6,6.6
	s6.6-2.9,6.6-6.6C49.2,218.2,46.3,215.3,42.7,215.3z M16.2,207.9h52.4v-74.8H16.2V207.9z M23.3,140.2h38.3v60.7H23.3V140.2z
	 M30,127.6h24.9c1.5,0,2.7-1.2,2.7-2.7c0-1.5-1.2-2.7-2.7-2.7H30c-1.5,0-2.7,1.2-2.7,2.7C27.3,126.3,28.5,127.6,30,127.6z"/>
</svg>
