<?xml version="1.0" encoding="utf-8"?>
<!-- Generator: Adobe Illustrator 20.0.0, SVG Export Plug-In . SVG Version: 6.00 Build 0)  -->
<svg version="1.1" id="Layer_1" xmlns="http://www.w3.org/2000/svg" xmlns:xlink="http://www.w3.org/1999/xlink" x="0px" y="0px"
	 viewBox="0 0 340 323" style="enable-background:new 0 0 340 323;" xml:space="preserve">
<style type="text/css">
	.st0{fill:#FFFFFF;}
</style>
<path class="st0" d="M322.9,226.1c0.1-0.2,0.2-0.3,0.3-0.5c0.1-0.2,0.2-0.4,0.3-0.6c0.1-0.2,0.1-0.4,0.2-0.6
	c0.1-0.2,0.1-0.4,0.2-0.6c0.2-0.8,0.2-1.7,0-2.5c0-0.2-0.1-0.4-0.2-0.6c-0.1-0.2-0.1-0.4-0.2-0.6c-0.1-0.2-0.2-0.4-0.3-0.6
	c-0.1-0.2-0.2-0.3-0.3-0.5c-0.2-0.4-0.5-0.7-0.8-1l-17-17c-2.5-2.5-6.6-2.5-9.1,0c-2.5,2.5-2.5,6.6,0,9.1l5.9,5.9H261l-87.3-64.7
	v-36h85.7c8.9,0,16.2-7.3,16.2-16.2V37.1c0-8.9-7.3-16.2-16.2-16.2H75.1c-8.9,0-16.2,7.3-16.2,16.2v62.1c0,8.9,7.3,16.2,16.2,16.2
	h85.7v36l-87.3,64.7h-30c-3.6,0-6.5,2.9-6.5,6.5V297l-5.9-5.9c-2.5-2.5-6.6-2.5-9.1,0s-2.5,6.6,0,9.1l17,17c1.3,1.3,2.9,1.9,4.6,1.9
	c1.7,0,3.3-0.6,4.6-1.9l17-17c2.5-2.5,2.5-6.6,0-9.1c-2.5-2.5-6.6-2.5-9.1,0l-5.9,5.9v-68h23.5l89.9,66.6c1.1,0.8,2.5,1.3,3.8,1.3
	c1.4,0,2.7-0.4,3.8-1.3L261,229h40.9l-5.9,5.9c-2.5,2.5-2.5,6.6,0,9.1c1.3,1.3,2.9,1.9,4.6,1.9c1.7,0,3.3-0.6,4.6-1.9l17-17
	C322.4,226.8,322.7,226.5,322.9,226.1z M71.8,99.2V37.1c0-1.8,1.5-3.2,3.2-3.2h184.3c1.8,0,3.2,1.5,3.2,3.2v62.1
	c0,1.8-1.5,3.2-3.2,3.2H75.1C73.3,102.5,71.8,101,71.8,99.2z M167.2,282.4l-80.8-59.9l80.8-59.8l80.8,59.8L167.2,282.4z"/>
</svg>
