<?xml version="1.0" encoding="utf-8"?>
<!-- Generator: Adobe Illustrator 20.0.0, SVG Export Plug-In . SVG Version: 6.00 Build 0)  -->
<svg version="1.1" id="Layer_1" xmlns="http://www.w3.org/2000/svg" xmlns:xlink="http://www.w3.org/1999/xlink" x="0px" y="0px"
	 viewBox="0 0 271 273" style="enable-background:new 0 0 271 273;" xml:space="preserve">
<style type="text/css">
	.st0{fill:#FFFFFF;}
</style>
<g>
	<g>
		<path class="st0" d="M260.2,8H9.8C7.2,8,5,10.2,5,12.8v250.4c0,2.7,2.2,4.8,4.8,4.8h250.4c2.7,0,4.8-2.2,4.8-4.8V12.8
			C265,10.2,262.8,8,260.2,8z M255.4,17.6v28.9H14.6V17.6H255.4z M14.6,258.4V56.1h240.7v202.2H14.6z"/>
		<circle class="st0" cx="173.5" cy="32.1" r="9.6"/>
		<circle class="st0" cx="202.4" cy="32.1" r="9.6"/>
		<circle class="st0" cx="231.3" cy="32.1" r="9.6"/>
		<path class="st0" d="M240.9,65.8H29.1c-2.7,0-4.8,2.2-4.8,4.8v105.9c0,2.7,2.2,4.8,4.8,4.8h211.9c2.7,0,4.8-2.2,4.8-4.8V70.6
			C245.7,67.9,243.6,65.8,240.9,65.8z M236.1,171.7H33.9V75.4h202.2V171.7z"/>
		<path class="st0" d="M115.7,200.6H29.1c-2.7,0-4.8,2.2-4.8,4.8s2.2,4.8,4.8,4.8h86.7c2.7,0,4.8-2.2,4.8-4.8
			S118.4,200.6,115.7,200.6z"/>
		<path class="st0" d="M240.9,200.6h-86.7c-2.7,0-4.8,2.2-4.8,4.8s2.2,4.8,4.8,4.8h86.7c2.7,0,4.8-2.2,4.8-4.8
			S243.6,200.6,240.9,200.6z"/>
		<path class="st0" d="M115.7,219.9H29.1c-2.7,0-4.8,2.2-4.8,4.8s2.2,4.8,4.8,4.8h86.7c2.7,0,4.8-2.2,4.8-4.8
			S118.4,219.9,115.7,219.9z"/>
		<path class="st0" d="M240.9,219.9h-86.7c-2.7,0-4.8,2.2-4.8,4.8s2.2,4.8,4.8,4.8h86.7c2.7,0,4.8-2.2,4.8-4.8
			S243.6,219.9,240.9,219.9z"/>
		<path class="st0" d="M115.7,239.1H29.1c-2.7,0-4.8,2.2-4.8,4.8c0,2.7,2.2,4.8,4.8,4.8h86.7c2.7,0,4.8-2.2,4.8-4.8
			C120.6,241.3,118.4,239.1,115.7,239.1z"/>
		<path class="st0" d="M240.9,239.1h-86.7c-2.7,0-4.8,2.2-4.8,4.8c0,2.7,2.2,4.8,4.8,4.8h86.7c2.7,0,4.8-2.2,4.8-4.8
			C245.7,241.3,243.6,239.1,240.9,239.1z"/>
	</g>
</g>
</svg>
