<svg id="content-layer-1" xmlns="http://www.w3.org/2000/svg" viewBox="0 0 482.8 406.1"><style>.st0{opacity:0.25;fill:none;stroke:#000000;stroke-width:5;stroke-miterlimit:10;enable-background:new ;} .st1{fill:#FFF6E1;} .st2{fill:#FCF2E3;} .st3{fill:#FFFDF8;} .st4{fill:#FDFFFF;} .st5{fill:#FFCF44;} .st6{fill:#EFDCBB;} .st7{fill:#BCBCAF;} .st8{fill:#8C9596;} .st9{fill:#FAA947;} .st10{fill:#93928A;} .st11{fill:#FFECBB;} .st12{fill:#FFE092;} .st13{fill:#FCB867;} .st14{fill:#FEE18D;} .st15{opacity:0.25;fill:#FFFFFF;enable-background:new ;}</style><path id="content-shadow" class="st0" d="M65.2 370.6h205.6"/><g id="content-document"><path class="st1" d="M70.7 356.2L82.5 367h103.7l-2.3-10.8-2.2-27.6.9-125.5H73.2l-2.5 153.1z"/><path class="st2" d="M183.5 275l1.2 84.8 13 7.2 15.2-5.7 1.6-80.3 4.9-9-33.2-1-2.7 4z"/><path class="st2" d="M221.9 273.3l-7.5 10.6 1.5 40.2 25.5-.8V281l-10.4-9-9.1 1.3z"/><path id="Layer_5" class="st3" d="M73.1 208.9v115.2h108.6l.9-121H77.8l-4.7 5.8z"/><circle id="Layer_6" class="st4" cx="109.4" cy="257.9" r="17.8"/><path class="st5" d="M169 318.1c-3.4 3.4-8.9 3.4-12.3 0L141.6 303c-3.4-3.4-3.4-8.9 0-12.3s8.9-3.4 12.3 0l15.1 15.1c3.3 3.4 3.3 8.9 0 12.3z"/><path class="st6" d="M221.9 308.9h6.1v6.1h-6.1v-6.1zm9.1 0h6.1v6.1H231v-6.1zm-9.1-9.1h6.1v6.1h-6.1v-6.1zm9.1 0h6.1v6.1H231v-6.1zm-9.1-9.1h6.1v6.1h-6.1v-6.1zm9.1 0h6.1v6.1H231v-6.1zm-9.1-9.1h6.1v6.1h-6.1v-6.1zm9.1 0h6.1v6.1H231v-6.1z"/><path class="st7" d="M197.7 371.1H88.6c-10 0-18.2-8.2-18.2-18.2v-150c0-1.7 1.4-3 3-3h109.1c1.7 0 3 1.4 3 3v145.5h-6.1V205.9h-103v147c0 6.7 5.4 12.1 12.1 12.1h109.1l.1 6.1z"/><path class="st7" d="M197.7 371.1c-10 0-18.2-8.2-18.2-18.2V271c0-1.7 1.4-3 3-3H228v6.1h-42.4v78.8c0 6.7 5.4 12.1 12.1 12.1 6.7 0 12.1-5.4 12.1-12.1v-63.7h6.1v63.7c0 10-8.2 18.2-18.2 18.2z"/><path class="st7" d="M243.2 327.1h-30.3c-1.7 0-3-1.4-3-3v-37.9c0-10 8.2-18.2 18.2-18.2s18.2 8.2 18.2 18.2v37.9c-.1 1.7-1.5 3-3.1 3zm-27.3-6.1h24.2v-34.9c0-6.7-5.4-12.1-12.1-12.1-6.7 0-12.1 5.4-12.1 12.1V321z"/><path class="st8" d="M111.3 286.2c-15 0-27.3-12.2-27.3-27.3s12.2-27.3 27.3-27.3c15 0 27.3 12.2 27.3 27.3s-12.2 27.3-27.3 27.3zm0-48.5c-11.7 0-21.2 9.5-21.2 21.2s9.5 21.2 21.2 21.2 21.2-9.5 21.2-21.2-9.5-21.2-21.2-21.2zm14.6 41.6l4.3-4.3 13.6 13.6-4.3 4.3-13.6-13.6z"/><path class="st9" d="M162.8 327.1c-.8 0-1.6-.3-2.1-.9l-27.3-27.3c-1.2-1.2-1.2-3.1 0-4.3l12.1-12.1c1.2-1.2 3.1-1.2 4.3 0l27.3 27.3c1.2 1.2 1.2 3.1 0 4.3L165 326.2c-.6.6-1.4.9-2.2.9zm-23-30.3l23 23 7.8-7.8-23-23-7.8 7.8zm-24.9-52.3l-.7 21.2h-6.1l-.4-21.2m.5 22.7h6.1v6.1h-6.1v-6.1z"/><path class="st10" d="M140.1 239.2h33.3v6.1h-33.3v-6.1zm0-24.2h33.3v6.1h-33.3V215zm0 36.3h33.3v6.1h-33.3v-6.1zm0 12.2h33.3v6.1h-33.3v-6.1zm-54.6 33.3h27.3v6.1H85.5v-6.1zm0 12.1H137v6.1H85.5v-6.1zm39.4-81.8h48.5v6.1h-48.5v-6.1zM85.5 321h27.3v6.1H85.5V321zm33.4 0h27.3v6.1h-27.3V321zm-33.4 12.2h12.1v6.1H85.5v-6.1zm51.6 0h36.4v6.1h-36.4v-6.1zm15.1 12.1h21.2v6.1h-21.2v-6.1zm-66.7 0h27.3v6.1H85.5v-6.1zm18.2-12.1H131v6.1h-27.3v-6.1zM121.9 215H134v6.1h-12.1V215zm-39.4 12.1h12.1v6.1H82.5v-6.1zm0-12.1h33.3v6.1H82.5V215zm36.4 130.3h27.3v6.1h-27.3v-6.1z"/></g><g id="content-email"><path class="st1" d="M260.3 268.9l24 98.1 148.6-32.8-23.8-101.1-148.8 35.8z"/><path class="st3" d="M266.5 268l80.1 31.8 62.5-66.7L266.5 268z"/><path class="st6" d="M402 237.5l6-1.3 1.3 5.9-6 1.3-1.3-5.9zm-4.6 7.3l6-1.3 1.3 6-6 1.3-1.3-6zm-4.6 7.3l6-1.3 1.3 6-6 1.3-1.3-6zm11.9-2.6l6-1.3 1.3 6-6 1.3-1.3-6zm-16.5 9.9l6-1.3 1.3 6-6 1.3-1.3-6zm11.9-2.6l6-1.3 1.3 6-6 1.3-1.3-6zm-16.6 9.9l6-1.3 1.3 6-6 1.3-1.3-6z"/><path class="st6" d="M395.4 264l6-1.3 1.3 6-6 1.3-1.3-6zm12-2.6l6-1.3 1.3 6-6 1.3-1.3-6zm-16.6 9.9l6-1.3 1.3 6-6 1.3-1.3-6zm11.9-2.6l6-1.3 1.3 6-6 1.3-1.3-6zm-16.5 9.9l6-1.3 1.3 6-6 1.3-1.3-6zm11.9-2.6l6-1.3 1.3 6-6 1.3-1.3-6zm11.9-2.7l6-1.3 1.3 6-6 1.3-1.3-6zm-16.5 10l6-1.3 1.3 6-6 1.3-1.3-6zm11.9-2.7l6-1.3 1.3 6-6 1.3-1.3-6z"/><path class="st6" d="M388.9 290.5l6-1.3 1.3 6-6 1.3-1.3-6zm11.9-2.6l6-1.3 1.3 6-6 1.3-1.3-6zm11.9-2.7l6-1.3 1.3 6-6 1.3-1.3-6zm-16.5 10l6-1.3 1.3 6-6 1.3-1.3-6zm11.9-2.7l6-1.3 1.3 6-6 1.3-1.3-6zm-16.5 10l6-1.3 1.3 6-6 1.3-1.3-6zm11.9-2.7l6-1.3 1.3 6-6 1.3-1.3-6zm11.9-2.7l6-1.3 1.3 6-6 1.3-1.3-6z"/><path class="st6" d="M398.8 307.1l6-1.3 1.3 6-6 1.3-1.3-6zm12-2.7l6-1.3 1.3 6-6 1.3-1.3-6zm-16.6 10l6-1.3 1.3 6-6 1.3-1.3-6zm11.9-2.7l6-1.3 1.3 6-6 1.3-1.3-6zm12-2.7l6-1.3 1.3 6-6 1.3-1.3-6zm-16.6 10l6-1.3 1.3 6-6 1.3-1.3-6zm11.9-2.7l6-1.3 1.3 6-6 1.3-1.3-6zm-16.5 10l6-1.3 1.3 6-6 1.3-1.3-6zm11.9-2.7l6-1.3 1.3 6-6 1.3-1.3-6zm11.9-2.7l6-1.3 1.3 6-6 1.3-1.3-6zm-16.5 10l6-1.3 1.3 6-6 1.3-1.3-6zm11.9-2.7l6-1.3 1.3 6-6 1.3-1.3-6z"/><path class="st7" d="M433.7 336.8l-148.9 33.4c-1.6.4-3.3-.7-3.6-2.3l-22.7-101.3c-.4-1.6.7-3.3 2.3-3.6l148.9-33.4c1.6-.4 3.3.7 3.6 2.3L436 333.2c.4 1.6-.7 3.3-2.3 3.6zm-147.3 26.8l142.9-32.1-21.3-95.2-143 32 21.4 95.3z"/><path class="st7" d="M347.9 302.9c-.6.1-1.2.1-1.8-.1l-85.8-33.9c-1.2-.5-2-1.7-1.9-3.1.1-1.3 1.1-2.4 2.4-2.7l148.9-33.4c1.3-.3 2.7.3 3.3 1.5.7 1.2.5 2.6-.4 3.6L349.4 302c-.4.5-1 .8-1.5.9zm-76.2-36.1l74.7 29.5 54.9-58.6-129.6 29.1z"/></g><g id="content-sparkles"><path class="st11" d="M197.7 193.7h6.1v6.1h-6.1v-6.1z"/><path class="st5" d="M209.8 205.9h6.1v6.1h-6.1v-6.1z"/><path class="st11" d="M197.7 218h6.1v6.1h-6.1V218z"/><path class="st12" d="M197.7 205.9h6.1v6.1h-6.1v-6.1z"/><path class="st13" d="M58.3 178.6h6.1v18.2h-6.1v-18.2z"/><path class="st14" d="M52.2 184.6h18.2v6.1H52.2v-6.1zm241.7 32.8h2.8v5.6h-2.8v-5.6zm0 13.8h2.8v5.6h-2.8v-5.6zm5.6-5.5h5.6v2.8h-5.6v-2.8zm-13.9 0h5.6v2.8h-5.6"/><path class="st13" d="M297.2 231l2-2 4 4-2 2-4-4zm-9.7-9.8l1.9-2 4 4-2 1.9-3.9-3.9m0 11.8l3.9-4 2 2-4 3.9-1.9-1.9m9.8-9.9l4-4 2 2-4 4-2-2zm-195.9-82.9h4.6v9.2h-4.6v-9.2zm0 23.1h4.6v9.2h-4.6v-9.2zm9.3-9.3h9.2v4.6h-9.2V154zm-23.1 0h9.2v4.7h-9.2"/><path class="st14" d="M107 162.9l3.3-3.3 6.5 6.5-3.3 3.3-6.5-6.5zm-16.3-16.4l3.2-3.2 6.6 6.5-3.3 3.3-6.5-6.6m0 19.6l6.5-6.5 3.3 3.3-6.6 6.5-3.2-3.3m16.3-16.3l6.5-6.5 3.3 3.3-6.5 6.5-3.3-3.3z"/><path class="st13" d="M435.4 245.3h6.1v18.2h-6.1v-18.2z"/><path class="st14" d="M429.4 251.3h18.2v6.1h-18.2z"/><path class="st11" d="M52.2 337.4h6.1v6.1h-6.1v-6.1z"/><path class="st5" d="M40 349.5h6.1v6.1H40v-6.1z"/><path class="st11" d="M52.2 361.7h6.1v6.1h-6.1v-6.1z"/><path class="st12" d="M52.2 349.5h6.1v6.1h-6.1v-6.1z"/><path class="st11" d="M432.5 346.9l5.9-1.4 1.4 5.9-5.9 1.4-1.4-5.9z"/><path class="st5" d="M423.5 361.4l5.9-1.4 1.4 5.9-5.9 1.4-1.4-5.9z"/><path class="st11" d="M408.9 352.3l5.9-1.4 1.4 5.9-5.9 1.4-1.4-5.9z"/><path class="st12" d="M420.8 349.5l5.9-1.4 1.4 5.9-5.9 1.4-1.4-5.9z"/></g><g id="getusers-sparkle-l"><path class="st14" d="M306.4 159.7h6.1V172h-6.1zM287.9 147.4h12.3v6.2h-12.3"/><path class="st13" d="M292.1 163.5l8.7-8.7 4.3 4.4-8.7 8.7-4.3-4.4"/></g><g id="getusers-sparkle-r"><path class="st14" d="M404.7 91.5l2.2-5.7 11.5 4.4-2.2 5.7-11.5-4.4zm-2.6-27.4l-4.4 11.5 5.7 2.2 4.4-11.5"/><path class="st13" d="M415.6 73.8l-11.2 5 2.5 5.6 11.2-5-2.5-5.6"/></g><g id="content-getusers"><path class="st15" d="M286.3 99.1c-5.1 4-12.2 4-17.3 0-2.9-2.3-4.8-5.6-5.2-9.4-.4-3.7.6-7.4 2.9-10.3.7-.9 1.5-1.7 2.4-2.4 5.1-4 12.2-4 17.3 0 6.1 4.8 7.1 13.6 2.3 19.7-.7.9-1.5 1.7-2.4 2.4zM295.2 130.7c-.9 1.2-2.6 1.2-3.6.1-7.7-9.2-7.9-22.7-.5-32.1 1.3-1.6 2.7-3.1 4.3-4.3 7.7-6 18.3-7.1 27-2.7 1.3.7 1.7 2.4.8 3.5l-28 35.5zM313.5 49.1c-.7.6-1.5 1.1-2.3 1.5-6.9 3.5-15.4.7-18.9-6.2-3-6-1.4-13.3 3.9-17.4.7-.6 1.5-1.1 2.3-1.5 6.9-3.5 15.4-.7 18.9 6.2 3 6 1.3 13.3-3.9 17.4zm29.8 14.6l-40.5 20.5c-1.3.7-2.9 0-3.3-1.5-2.7-9.9.8-20.3 8.9-26.7 1.3-1 2.7-1.9 4.2-2.7 10.7-5.4 23.9-2.6 31.4 6.8.9 1.2.6 2.9-.7 3.6zm21.1-4.5c-1.2.9-2.6 1.6-4.1 2-5.9 1.5-12-2.1-13.6-8-1.1-4.3.4-8.8 3.9-11.6 1.2-.9 2.6-1.6 4.1-2 2.9-.7 5.9-.3 8.4 1.2 2.6 1.5 4.4 3.9 5.1 6.8 1.2 4.3-.3 8.9-3.8 11.6zm17.4 16.9l-33.1 8.5c-1.4.4-2.8-.7-2.9-2.1-.3-6.4 2.5-12.5 7.6-16.5 2.2-1.7 4.6-2.9 7.3-3.6 9-2.3 18.6 2.1 22.7 10.4.5 1.3-.2 2.9-1.6 3.3zM377.9 96.9l-14.1 10.8-4.8 3.7 3.7 4.8 28.6 37.1c.7.9 2.5 4.1 2.1 7.2-.3 2-1.5 3.9-3.7 5.6-3.1 2.4-5.9 2.9-8.8 1.4-2.4-1.2-4-3.1-4-3.1l-28.5-37.1-3.7-4.8-4.8 3.7-14.2 10.8-4.8 3.7 3.7 4.8 28.6 37.1c6.3 8.3 15.5 13.6 25.9 14.9 10.3 1.4 20.6-1.4 28.8-7.8 8.3-6.3 13.6-15.5 14.9-25.9 1.4-10.3-1.4-20.6-7.8-28.8l-28.6-37-3.7-4.8-4.8 3.7zm32.2 41.9c5.5 7.2 7.6 16 6.5 24.3-1.1 8.4-5.4 16.3-12.6 21.8-14.4 11.1-35.1 8.4-46.2-6l-14.2-18.5 14.1-10.8 14.2 18.5s9.3 12 21.3 2.8c4-3.1 5.7-6.5 6.1-9.6.8-6.3-3.3-11.7-3.3-11.7l-14.9-19.4 14.1-10.8 14.9 19.4z"/></g></svg>