<?xml version="1.0" encoding="utf-8"?>
<!-- Generator: Adobe Illustrator 20.1.0, SVG Export Plug-In . SVG Version: 6.00 Build 0)  -->
<svg version="1.1" id="content-layer-1" xmlns="http://www.w3.org/2000/svg" xmlns:xlink="http://www.w3.org/1999/xlink" x="0px"
	 y="0px" viewBox="0 0 482.8 406.1" style="enable-background:new 0 0 482.8 406.1;" xml:space="preserve">
<style type="text/css">
	.st0{opacity:0.25;fill:none;stroke:#000000;stroke-width:5;stroke-miterlimit:10;enable-background:new    ;}
	.st1{fill:#FFF6E1;}
	.st2{fill:#FCF2E3;}
	.st3{fill:#FFFDF8;}
	.st4{fill:#FDFFFF;}
	.st5{fill:#FFCF44;}
	.st6{fill:#EFDCBB;}
	.st7{fill:#BCBCAF;}
	.st8{fill:#8C9596;}
	.st9{fill:#FAA947;}
	.st10{fill:#93928A;}
	.st11{fill:#FFECBB;}
	.st12{fill:#FFE092;}
	.st13{fill:#FCB867;}
	.st14{fill:#FEE18D;}
	.st15{opacity:0.25;fill:#FFFFFF;enable-background:new    ;}
</style>
<path id="content-shadow" class="st0" d="M65.2,370.6h205.6"/>
<g id="content-document">
	<path class="st1" d="M70.7,356.2L82.5,367h103.7l-2.3-10.8l-2.2-27.6l0.9-125.5H73.2L70.7,356.2z"/>
	<path class="st2" d="M183.5,275l1.2,84.8l13,7.2l15.2-5.7l1.6-80.3l4.9-9l-33.2-1L183.5,275z"/>
	<path class="st2" d="M221.9,273.3l-7.5,10.6l1.5,40.2l25.5-0.8V281l-10.4-9L221.9,273.3z"/>
	<path id="Layer_5" class="st3" d="M73.1,208.9v115.2h108.6l0.9-121H77.8L73.1,208.9z"/>
	<circle id="Layer_6" class="st4" cx="109.4" cy="257.9" r="17.8"/>
	<path class="st5" d="M169,318.1c-3.4,3.4-8.9,3.4-12.3,0L141.6,303c-3.4-3.4-3.4-8.9,0-12.3s8.9-3.4,12.3,0l15.1,15.1
		C172.3,309.2,172.3,314.7,169,318.1L169,318.1z"/>
	<path class="st6" d="M221.9,308.9h6.1v6.1h-6.1V308.9z M231,308.9h6.1v6.1H231V308.9z M221.9,299.8h6.1v6.1h-6.1V299.8z M231,299.8
		h6.1v6.1H231V299.8z M221.9,290.7h6.1v6.1h-6.1V290.7z M231,290.7h6.1v6.1H231V290.7z M221.9,281.6h6.1v6.1h-6.1V281.6z M231,281.6
		h6.1v6.1H231V281.6z"/>
	<path class="st7" d="M197.7,371.1H88.6c-10,0-18.2-8.2-18.2-18.2v-150c0-1.7,1.4-3,3-3h109.1c1.7,0,3,1.4,3,3v145.5h-6.1V205.9
		h-103v147c0,6.7,5.4,12.1,12.1,12.1h109.1L197.7,371.1z"/>
	<path class="st7" d="M197.7,371.1c-10,0-18.2-8.2-18.2-18.2V271c0-1.7,1.4-3,3-3H228v6.1h-42.4v78.8c0,6.7,5.4,12.1,12.1,12.1
		c6.7,0,12.1-5.4,12.1-12.1v-63.7h6.1v63.7C215.9,362.9,207.7,371.1,197.7,371.1L197.7,371.1z"/>
	<path class="st7" d="M243.2,327.1h-30.3c-1.7,0-3-1.4-3-3v-37.9c0-10,8.2-18.2,18.2-18.2s18.2,8.2,18.2,18.2v37.9
		C246.2,325.8,244.8,327.1,243.2,327.1L243.2,327.1z M215.9,321h24.2v-34.9c0-6.7-5.4-12.1-12.1-12.1c-6.7,0-12.1,5.4-12.1,12.1
		L215.9,321L215.9,321z"/>
	<path class="st8" d="M111.3,286.2c-15,0-27.3-12.2-27.3-27.3s12.2-27.3,27.3-27.3c15,0,27.3,12.2,27.3,27.3
		S126.4,286.2,111.3,286.2z M111.3,237.7c-11.7,0-21.2,9.5-21.2,21.2s9.5,21.2,21.2,21.2s21.2-9.5,21.2-21.2S123,237.7,111.3,237.7
		L111.3,237.7z M125.9,279.3l4.3-4.3l13.6,13.6l-4.3,4.3L125.9,279.3z"/>
	<path class="st9" d="M162.8,327.1c-0.8,0-1.6-0.3-2.1-0.9l-27.3-27.3c-1.2-1.2-1.2-3.1,0-4.3l12.1-12.1c1.2-1.2,3.1-1.2,4.3,0
		l27.3,27.3c1.2,1.2,1.2,3.1,0,4.3L165,326.2C164.4,326.8,163.6,327.1,162.8,327.1z M139.8,296.8l23,23l7.8-7.8l-23-23L139.8,296.8z
		 M114.9,244.5l-0.7,21.2h-6.1l-0.4-21.2 M108.2,267.2h6.1v6.1h-6.1V267.2z"/>
	<path class="st10" d="M140.1,239.2h33.3v6.1h-33.3V239.2z M140.1,215h33.3v6.1h-33.3V215z M140.1,251.3h33.3v6.1h-33.3V251.3z
		 M140.1,263.5h33.3v6.1h-33.3V263.5z M85.5,296.8h27.3v6.1H85.5V296.8z M85.5,308.9H137v6.1H85.5V308.9z M124.9,227.1h48.5v6.1
		h-48.5L124.9,227.1z M85.5,321h27.3v6.1H85.5V321z M118.9,321h27.3v6.1h-27.3L118.9,321z M85.5,333.2h12.1v6.1H85.5V333.2z
		 M137.1,333.2h36.4v6.1h-36.4V333.2z M152.2,345.3h21.2v6.1h-21.2V345.3z M85.5,345.3h27.3v6.1H85.5V345.3z M103.7,333.2H131v6.1
		h-27.3V333.2z M121.9,215H134v6.1h-12.1V215z M82.5,227.1h12.1v6.1H82.5V227.1z M82.5,215h33.3v6.1H82.5V215z M118.9,345.3h27.3
		v6.1h-27.3L118.9,345.3z"/>
</g>
<g id="content-email">
	<path class="st1" d="M260.3,268.9l24,98.1l148.6-32.8l-23.8-101.1L260.3,268.9z"/>
	<path class="st3" d="M266.5,268l80.1,31.8l62.5-66.7L266.5,268z"/>
	<path class="st6" d="M402,237.5l6-1.3l1.3,5.9l-6,1.3L402,237.5z M397.4,244.8l6-1.3l1.3,6l-6,1.3L397.4,244.8z M392.8,252.1l6-1.3
		l1.3,6l-6,1.3L392.8,252.1z M404.7,249.5l6-1.3l1.3,6l-6,1.3L404.7,249.5z M388.2,259.4l6-1.3l1.3,6l-6,1.3L388.2,259.4z
		 M400.1,256.8l6-1.3l1.3,6l-6,1.3L400.1,256.8z M383.5,266.7l6-1.3l1.3,6l-6,1.3L383.5,266.7z"/>
	<path class="st6" d="M395.4,264l6-1.3l1.3,6l-6,1.3L395.4,264z M407.4,261.4l6-1.3l1.3,6l-6,1.3L407.4,261.4z M390.8,271.3l6-1.3
		l1.3,6l-6,1.3L390.8,271.3z M402.7,268.7l6-1.3l1.3,6l-6,1.3L402.7,268.7z M386.2,278.6l6-1.3l1.3,6l-6,1.3L386.2,278.6z
		 M398.1,276l6-1.3l1.3,6l-6,1.3L398.1,276z M410,273.3l6-1.3l1.3,6l-6,1.3L410,273.3z M393.5,283.3l6-1.3l1.3,6l-6,1.3L393.5,283.3
		z M405.4,280.6l6-1.3l1.3,6l-6,1.3L405.4,280.6z"/>
	<path class="st6" d="M388.9,290.5l6-1.3l1.3,6l-6,1.3L388.9,290.5z M400.8,287.9l6-1.3l1.3,6l-6,1.3L400.8,287.9z M412.7,285.2
		l6-1.3l1.3,6l-6,1.3L412.7,285.2z M396.2,295.2l6-1.3l1.3,6l-6,1.3L396.2,295.2z M408.1,292.5l6-1.3l1.3,6l-6,1.3L408.1,292.5z
		 M391.6,302.5l6-1.3l1.3,6l-6,1.3L391.6,302.5z M403.5,299.8l6-1.3l1.3,6l-6,1.3L403.5,299.8z M415.4,297.1l6-1.3l1.3,6l-6,1.3
		L415.4,297.1z"/>
	<path class="st6" d="M398.8,307.1l6-1.3l1.3,6l-6,1.3L398.8,307.1z M410.8,304.4l6-1.3l1.3,6l-6,1.3L410.8,304.4z M394.2,314.4
		l6-1.3l1.3,6l-6,1.3L394.2,314.4z M406.1,311.7l6-1.3l1.3,6l-6,1.3L406.1,311.7z M418.1,309l6-1.3l1.3,6l-6,1.3L418.1,309z
		 M401.5,319l6-1.3l1.3,6l-6,1.3L401.5,319z M413.4,316.3l6-1.3l1.3,6l-6,1.3L413.4,316.3z M396.9,326.3l6-1.3l1.3,6l-6,1.3
		L396.9,326.3z M408.8,323.6l6-1.3l1.3,6l-6,1.3L408.8,323.6z M420.7,320.9l6-1.3l1.3,6l-6,1.3L420.7,320.9z M404.2,330.9l6-1.3
		l1.3,6l-6,1.3L404.2,330.9z M416.1,328.2l6-1.3l1.3,6l-6,1.3L416.1,328.2z"/>
	<g>
		<path class="st7" d="M433.7,336.8l-148.9,33.4c-1.6,0.4-3.3-0.7-3.6-2.3l-22.7-101.3c-0.4-1.6,0.7-3.3,2.3-3.6l148.9-33.4
			c1.6-0.4,3.3,0.7,3.6,2.3L436,333.2C436.4,334.8,435.3,336.5,433.7,336.8L433.7,336.8z M286.4,363.6l142.9-32.1L408,236.3l-143,32
			L286.4,363.6z"/>
	</g>
	<g>
		<path class="st7" d="M347.9,302.9c-0.6,0.1-1.2,0.1-1.8-0.1l-85.8-33.9c-1.2-0.5-2-1.7-1.9-3.1c0.1-1.3,1.1-2.4,2.4-2.7
			l148.9-33.4c1.3-0.3,2.7,0.3,3.3,1.5c0.7,1.2,0.5,2.6-0.4,3.6L349.4,302C349,302.5,348.4,302.8,347.9,302.9z M271.7,266.8
			l74.7,29.5l54.9-58.6L271.7,266.8z"/>
	</g>
</g>
<g id="content-sparkles">
	<path class="st11" d="M197.7,193.7h6.1v6.1h-6.1V193.7z"/>
	<path class="st5" d="M209.8,205.9h6.1v6.1h-6.1V205.9z"/>
	<path class="st11" d="M197.7,218h6.1v6.1h-6.1V218z"/>
	<path class="st12" d="M197.7,205.9h6.1v6.1h-6.1V205.9z"/>
	<path class="st13" d="M58.3,178.6h6.1v18.2h-6.1L58.3,178.6z"/>
	<path class="st14" d="M52.2,184.6h18.2v6.1H52.2V184.6z M293.9,217.4h2.8v5.6h-2.8V217.4z M293.9,231.2h2.8v5.6h-2.8V231.2z
		 M299.5,225.7h5.6v2.8h-5.6V225.7z M285.6,225.7h5.6v2.8h-5.6"/>
	<path class="st13" d="M297.2,231l2-2l4,4l-2,2L297.2,231z M287.5,221.2l1.9-2l4,4l-2,1.9L287.5,221.2 M287.5,233l3.9-4l2,2l-4,3.9
		L287.5,233 M297.3,223.1l4-4l2,2l-4,4L297.3,223.1z M101.4,140.2h4.6v9.2h-4.6V140.2z M101.4,163.3h4.6v9.2h-4.6V163.3z M110.7,154
		h9.2v4.6h-9.2V154z M87.6,154h9.2v4.7h-9.2"/>
	<path class="st14" d="M107,162.9l3.3-3.3l6.5,6.5l-3.3,3.3L107,162.9z M90.7,146.5l3.2-3.2l6.6,6.5l-3.3,3.3L90.7,146.5
		 M90.7,166.1l6.5-6.5l3.3,3.3l-6.6,6.5L90.7,166.1 M107,149.8l6.5-6.5l3.3,3.3l-6.5,6.5L107,149.8z"/>
	<path class="st13" d="M435.4,245.3h6.1v18.2h-6.1V245.3z"/>
	<rect x="429.4" y="251.3" class="st14" width="18.2" height="6.1"/>
	<path class="st11" d="M52.2,337.4h6.1v6.1h-6.1V337.4z"/>
	<g>
		<path class="st5" d="M40,349.5h6.1v6.1H40V349.5z"/>
	</g>
	<g>
		<path class="st11" d="M52.2,361.7h6.1v6.1h-6.1V361.7z"/>
	</g>
	<g>
		<path class="st12" d="M52.2,349.5h6.1v6.1h-6.1V349.5z"/>
	</g>
	<g>
		<path class="st11" d="M432.5,346.9l5.9-1.4l1.4,5.9l-5.9,1.4L432.5,346.9z"/>
	</g>
	<g>
		<path class="st5" d="M423.5,361.4l5.9-1.4l1.4,5.9l-5.9,1.4L423.5,361.4z"/>
	</g>
	<g>
		<path class="st11" d="M408.9,352.3l5.9-1.4l1.4,5.9l-5.9,1.4L408.9,352.3z"/>
	</g>
	<g>
		<path class="st12" d="M420.8,349.5l5.9-1.4l1.4,5.9l-5.9,1.4L420.8,349.5z"/>
	</g>
</g>
<g id="getusers-sparkle-l">
	<rect x="306.4" y="159.7" class="st14" width="6.1" height="12.3"/>
	<polyline class="st14" points="287.9,147.4 300.2,147.4 300.2,153.6 287.9,153.6 	"/>
	<path class="st13" d="M292.1,163.5l8.7-8.7l4.3,4.4l-8.7,8.7L292.1,163.5"/>
</g>
<g id="getusers-sparkle-r">
	<path class="st14" d="M404.7,91.5l2.2-5.7l11.5,4.4l-2.2,5.7L404.7,91.5z M402.1,64.1l-4.4,11.5l5.7,2.2l4.4-11.5"/>
	<path class="st13" d="M415.6,73.8l-11.2,5l2.5,5.6l11.2-5L415.6,73.8"/>
</g>
<g id="content-getusers">
	<path class="st15" d="M286.3,99.1c-5.1,4-12.2,4-17.3,0c-2.9-2.3-4.8-5.6-5.2-9.4c-0.4-3.7,0.6-7.4,2.9-10.3
		c0.7-0.9,1.5-1.7,2.4-2.4c5.1-4,12.2-4,17.3,0c6.1,4.8,7.1,13.6,2.3,19.7C288,97.6,287.2,98.4,286.3,99.1L286.3,99.1z"/>
	<path class="st15" d="M295.2,130.7c-0.9,1.2-2.6,1.2-3.6,0.1c-7.7-9.2-7.9-22.7-0.5-32.1c1.3-1.6,2.7-3.1,4.3-4.3
		c7.7-6,18.3-7.1,27-2.7c1.3,0.7,1.7,2.4,0.8,3.5L295.2,130.7L295.2,130.7z"/>
	<path class="st15" d="M313.5,49.1c-0.7,0.6-1.5,1.1-2.3,1.5c-6.9,3.5-15.4,0.7-18.9-6.2c-3-6-1.4-13.3,3.9-17.4
		c0.7-0.6,1.5-1.1,2.3-1.5c6.9-3.5,15.4-0.7,18.9,6.2C320.4,37.7,318.7,45,313.5,49.1z M343.3,63.7l-40.5,20.5
		c-1.3,0.7-2.9,0-3.3-1.5c-2.7-9.9,0.8-20.3,8.9-26.7c1.3-1,2.7-1.9,4.2-2.7c10.7-5.4,23.9-2.6,31.4,6.8
		C344.9,61.3,344.6,63,343.3,63.7z M364.4,59.2c-1.2,0.9-2.6,1.6-4.1,2c-5.9,1.5-12-2.1-13.6-8c-1.1-4.3,0.4-8.8,3.9-11.6
		c1.2-0.9,2.6-1.6,4.1-2c2.9-0.7,5.9-0.3,8.4,1.2c2.6,1.5,4.4,3.9,5.1,6.8C369.4,51.9,367.9,56.5,364.4,59.2z M381.8,76.1l-33.1,8.5
		c-1.4,0.4-2.8-0.7-2.9-2.1c-0.3-6.4,2.5-12.5,7.6-16.5c2.2-1.7,4.6-2.9,7.3-3.6c9-2.3,18.6,2.1,22.7,10.4
		C383.9,74.1,383.2,75.7,381.8,76.1z"/>
	<path class="st15" d="M377.9,96.9l-14.1,10.8l-4.8,3.7l3.7,4.8l28.6,37.1c0.7,0.9,2.5,4.1,2.1,7.2c-0.3,2-1.5,3.9-3.7,5.6
		c-3.1,2.4-5.9,2.9-8.8,1.4c-2.4-1.2-4-3.1-4-3.1l-28.5-37.1l-3.7-4.8l-4.8,3.7L325.7,137l-4.8,3.7l3.7,4.8l28.6,37.1
		c6.3,8.3,15.5,13.6,25.9,14.9c10.3,1.4,20.6-1.4,28.8-7.8c8.3-6.3,13.6-15.5,14.9-25.9c1.4-10.3-1.4-20.6-7.8-28.8l-28.6-37
		l-3.7-4.8L377.9,96.9L377.9,96.9z M410.1,138.8c5.5,7.2,7.6,16,6.5,24.3c-1.1,8.4-5.4,16.3-12.6,21.8c-14.4,11.1-35.1,8.4-46.2-6
		l-14.2-18.5l14.1-10.8l14.2,18.5c0,0,9.3,12,21.3,2.8c4-3.1,5.7-6.5,6.1-9.6c0.8-6.3-3.3-11.7-3.3-11.7l-14.9-19.4l14.1-10.8
		L410.1,138.8z"/>
</g>
</svg>
