<?xml version="1.0" encoding="utf-8"?>
<!-- Generator: Adobe Illustrator 20.1.0, SVG Export Plug-In . SVG Version: 6.00 Build 0)  -->
<svg version="1.1" xmlns="http://www.w3.org/2000/svg" xmlns:xlink="http://www.w3.org/1999/xlink" x="0px" y="0px"
	 viewBox="0 0 482.8 406.1" style="enable-background:new 0 0 482.8 406.1;" xml:space="preserve">
<style type="text/css">
	.st0{opacity:0.25;fill:none;stroke:#000000;stroke-width:5;stroke-miterlimit:10;}
	.st1{fill:#E9F9FF;}
	.st2{fill:#E7F3F7;}
	.st3{fill:#D6E3E8;}
	.st4{fill:#FAFCE3;}
	.st5{fill:#FFFFF5;}
	.st6{fill:#F8FDFF;}
	.st7{fill:#FDFFFF;}
	.st8{fill:#D3D1C9;}
	.st9{fill:#FFCF44;}
	.st10{fill:#C1CFEA;}
	.st11{fill:#D0C0DE;}
	.st12{fill:#C3C0E0;}
	.st13{fill:#B0BCBF;}
	.st14{fill:#8C9596;}
	.st15{fill:#FAA947;}
	.st16{fill:#FCB867;}
	.st17{fill:#FEE18D;}
	.st18{fill:#BCBCAF;}
	.st19{opacity:0.25;}
	.st20{fill:#FFFFFF;}
	.st21{opacity:0.25;fill:#FFFFFF;}
</style>
<g id="Layer_7">
	<line class="st0" x1="65.2" y1="370.6" x2="270.8" y2="370.6"/>
</g>
<g id="Layer_4">
	<polygon class="st1" points="70.7,356.2 82.5,367 186.2,367 183.9,356.2 181.7,328.6 182.6,203.1 73.2,203.1 	"/>
	<polygon class="st2" points="183.5,275 184.7,359.8 197.7,367 212.9,361.3 214.5,281 219.4,272 186.2,271 	"/>
	<polygon class="st3" points="221.9,273.3 214.4,283.9 215.9,324.1 241.4,323.3 241.4,281 231,272 	"/>
	<polygon class="st4" points="260.3,268.9 284.3,367 432.9,334.2 409.1,233.1 	"/>
	<polygon class="st5" points="266.5,268 346.6,299.8 409.1,233.1 	"/>
</g>
<g id="Layer_5">
	<polygon class="st6" points="73.1,208.9 73.1,324.1 181.7,324.1 182.6,203.1 77.8,203.1 	"/>
</g>
<g id="Layer_6">
	<circle class="st7" cx="109.4" cy="257.9" r="17.8"/>
</g>
<g id="Layer_2_1_">
	<g>
		<g>
			
				<rect x="402.6" y="236.8" transform="matrix(0.9757 -0.219 0.219 0.9757 -42.6934 94.6704)" class="st8" width="6.1" height="6.1"/>
		</g>
		<g>
			
				<rect x="398" y="244.1" transform="matrix(0.9757 -0.219 0.219 0.9757 -44.4028 93.8358)" class="st8" width="6.1" height="6.1"/>
		</g>
		<g>
			
				<rect x="393.4" y="251.4" transform="matrix(0.9757 -0.219 0.219 0.9757 -46.1123 93.0013)" class="st8" width="6.1" height="6.1"/>
		</g>
		<g>
			
				<rect x="405.3" y="248.8" transform="matrix(0.9757 -0.219 0.219 0.9757 -45.2374 95.5453)" class="st8" width="6.1" height="6.1"/>
		</g>
		<g>
			
				<rect x="388.8" y="258.7" transform="matrix(0.9757 -0.219 0.219 0.9757 -47.8217 92.1667)" class="st8" width="6.1" height="6.1"/>
		</g>
		<g>
			
				<rect x="400.7" y="256.1" transform="matrix(0.9757 -0.219 0.219 0.9757 -46.9469 94.7107)" class="st8" width="6.1" height="6.1"/>
		</g>
		<g>
			
				<rect x="384.1" y="266" transform="matrix(0.9757 -0.219 0.219 0.9757 -49.5311 91.3321)" class="st8" width="6.1" height="6.1"/>
		</g>
		<g>
			
				<rect x="396" y="263.3" transform="matrix(0.9757 -0.219 0.219 0.9757 -48.6563 93.8761)" class="st8" width="6.1" height="6.1"/>
		</g>
		<g>
			
				<rect x="408" y="260.7" transform="matrix(0.9757 -0.219 0.219 0.9757 -47.7814 96.4201)" class="st8" width="6.1" height="6.1"/>
		</g>
		<g>
			
				<rect x="391.4" y="270.6" transform="matrix(0.9757 -0.219 0.219 0.9757 -50.3657 93.0415)" class="st8" width="6.1" height="6.1"/>
		</g>
		<g>
			
				<rect x="403.3" y="268" transform="matrix(0.9757 -0.219 0.219 0.9757 -49.4909 95.5855)" class="st8" width="6.1" height="6.1"/>
		</g>
		<g>
			
				<rect x="386.8" y="277.9" transform="matrix(0.9757 -0.219 0.219 0.9757 -52.0751 92.2069)" class="st8" width="6.1" height="6.1"/>
		</g>
		<g>
			
				<rect x="398.7" y="275.3" transform="matrix(0.9757 -0.219 0.219 0.9757 -51.2003 94.7509)" class="st8" width="6.1" height="6.1"/>
		</g>
		<g>
			
				<rect x="410.6" y="272.6" transform="matrix(0.9757 -0.219 0.219 0.9757 -50.3255 97.2949)" class="st8" width="6.1" height="6.1"/>
		</g>
		<g>
			
				<rect x="394.1" y="282.6" transform="matrix(0.9757 -0.219 0.219 0.9757 -52.9097 93.9163)" class="st8" width="6.1" height="6.1"/>
		</g>
		<g>
			
				<rect x="406" y="279.9" transform="matrix(0.9757 -0.219 0.219 0.9757 -52.0349 96.4603)" class="st8" width="6.1" height="6.1"/>
		</g>
		<g>
			
				<rect x="389.5" y="289.8" transform="matrix(0.9757 -0.219 0.219 0.9757 -54.6191 93.0817)" class="st8" width="6.1" height="6.1"/>
		</g>
		<g>
			
				<rect x="401.4" y="287.2" transform="matrix(0.9757 -0.219 0.219 0.9757 -53.7443 95.6257)" class="st8" width="6.1" height="6.1"/>
		</g>
		<g>
			
				<rect x="413.3" y="284.5" transform="matrix(0.9757 -0.219 0.219 0.9757 -52.8695 98.1697)" class="st8" width="6.1" height="6.1"/>
		</g>
		<g>
			
				<rect x="396.8" y="294.5" transform="matrix(0.9757 -0.219 0.219 0.9757 -55.4537 94.7911)" class="st8" width="6.1" height="6.1"/>
		</g>
		<g>
			
				<rect x="408.7" y="291.8" transform="matrix(0.9757 -0.219 0.219 0.9757 -54.5789 97.3352)" class="st8" width="6.1" height="6.1"/>
		</g>
		<g>
			
				<rect x="392.2" y="301.8" transform="matrix(0.9757 -0.219 0.219 0.9757 -57.1632 93.9565)" class="st8" width="6.1" height="6.1"/>
		</g>
		<g>
			
				<rect x="404.1" y="299.1" transform="matrix(0.9757 -0.219 0.219 0.9757 -56.2883 96.5006)" class="st8" width="6.1" height="6.1"/>
		</g>
		<g>
			
				<rect x="416" y="296.4" transform="matrix(0.9757 -0.219 0.219 0.9757 -55.4135 99.0446)" class="st8" width="6.1" height="6.1"/>
		</g>
		<g>
			
				<rect x="399.4" y="306.4" transform="matrix(0.9757 -0.219 0.219 0.9757 -57.9978 95.666)" class="st8" width="6.1" height="6.1"/>
		</g>
		<g>
			
				<rect x="411.4" y="303.7" transform="matrix(0.9757 -0.219 0.219 0.9757 -57.1229 98.21)" class="st8" width="6.1" height="6.1"/>
		</g>
		<g>
			
				<rect x="394.8" y="313.7" transform="matrix(0.9757 -0.219 0.219 0.9757 -59.7072 94.8314)" class="st8" width="6.1" height="6.1"/>
		</g>
		<g>
			
				<rect x="406.7" y="311" transform="matrix(0.9757 -0.219 0.219 0.9757 -58.8323 97.3754)" class="st8" width="6.1" height="6.1"/>
		</g>
		<g>
			
				<rect x="418.7" y="308.3" transform="matrix(0.9757 -0.219 0.219 0.9757 -57.9575 99.9194)" class="st8" width="6.1" height="6.1"/>
		</g>
		<g>
			
				<rect x="402.1" y="318.3" transform="matrix(0.9757 -0.219 0.219 0.9757 -60.5418 96.5408)" class="st8" width="6.1" height="6.1"/>
		</g>
		<g>
			
				<rect x="414" y="315.6" transform="matrix(0.9757 -0.219 0.219 0.9757 -59.6669 99.0848)" class="st8" width="6.1" height="6.1"/>
		</g>
		<g>
			
				<rect x="397.5" y="325.6" transform="matrix(0.9757 -0.219 0.219 0.9757 -62.2512 95.7062)" class="st8" width="6.1" height="6.1"/>
		</g>
		<g>
			
				<rect x="409.4" y="322.9" transform="matrix(0.9757 -0.219 0.219 0.9757 -61.3764 98.2502)" class="st8" width="6.1" height="6.1"/>
		</g>
		<g>
			
				<rect x="421.3" y="320.2" transform="matrix(0.9757 -0.219 0.219 0.9757 -60.5015 100.7942)" class="st8" width="6.1" height="6.1"/>
		</g>
		<g>
			
				<rect x="404.8" y="330.2" transform="matrix(0.9757 -0.219 0.219 0.9757 -63.0858 97.4156)" class="st8" width="6.1" height="6.1"/>
		</g>
		<g>
			
				<rect x="416.7" y="327.5" transform="matrix(0.9757 -0.219 0.219 0.9757 -62.211 99.9596)" class="st8" width="6.1" height="6.1"/>
		</g>
	</g>
	<path class="st9" d="M169,318.1L169,318.1c-3.4,3.4-8.9,3.4-12.3,0L141.6,303c-3.4-3.4-3.4-8.9,0-12.3h0c3.4-3.4,8.9-3.4,12.3,0
		l15.1,15.1C172.3,309.2,172.3,314.7,169,318.1z"/>
	<g>
		<rect x="197.7" y="193.7" class="st10" width="6.1" height="6.1"/>
	</g>
	<g>
		<rect x="209.8" y="205.9" class="st11" width="6.1" height="6.1"/>
	</g>
	<g>
		<rect x="197.7" y="218" class="st10" width="6.1" height="6.1"/>
	</g>
	<g>
		<rect x="197.7" y="205.9" class="st12" width="6.1" height="6.1"/>
	</g>
	<g>
		<rect x="221.9" y="308.9" class="st13" width="6.1" height="6.1"/>
	</g>
	<g>
		<rect x="231" y="308.9" class="st13" width="6.1" height="6.1"/>
	</g>
	<g>
		<rect x="221.9" y="299.8" class="st13" width="6.1" height="6.1"/>
	</g>
	<g>
		<rect x="231" y="299.8" class="st13" width="6.1" height="6.1"/>
	</g>
	<g>
		<rect x="221.9" y="290.7" class="st13" width="6.1" height="6.1"/>
	</g>
	<g>
		<rect x="231" y="290.7" class="st13" width="6.1" height="6.1"/>
	</g>
	<g>
		<rect x="221.9" y="281.6" class="st13" width="6.1" height="6.1"/>
	</g>
	<g>
		<rect x="231" y="281.6" class="st13" width="6.1" height="6.1"/>
	</g>
	<g>
		<path class="st13" d="M197.7,371.1H88.6c-10,0-18.2-8.2-18.2-18.2v-150c0-1.7,1.4-3,3-3h109.1c1.7,0,3,1.4,3,3v145.5h-6.1V205.9
			H76.4v147c0,6.7,5.4,12.1,12.1,12.1h109.1V371.1z"/>
	</g>
	<g>
		<path class="st13" d="M197.7,371.1c-10,0-18.2-8.2-18.2-18.2V271c0-1.7,1.4-3,3-3H228v6.1h-42.4v78.8c0,6.7,5.4,12.1,12.1,12.1
			c6.7,0,12.1-5.4,12.1-12.1v-63.7h6.1v63.7C215.9,362.9,207.7,371.1,197.7,371.1z"/>
	</g>
	<g>
		<path class="st13" d="M243.2,327.1h-30.3c-1.7,0-3-1.4-3-3v-37.9c0-10,8.2-18.2,18.2-18.2c10,0,18.2,8.2,18.2,18.2v37.9
			C246.2,325.8,244.8,327.1,243.2,327.1z M215.9,321h24.2v-34.9c0-6.7-5.4-12.1-12.1-12.1c-6.7,0-12.1,5.4-12.1,12.1V321z"/>
	</g>
	<g>
		<path class="st14" d="M111.3,286.2c-15,0-27.3-12.2-27.3-27.3s12.2-27.3,27.3-27.3c15,0,27.3,12.2,27.3,27.3
			S126.4,286.2,111.3,286.2z M111.3,237.7c-11.7,0-21.2,9.5-21.2,21.2c0,11.7,9.5,21.2,21.2,21.2c11.7,0,21.2-9.5,21.2-21.2
			C132.5,247.2,123,237.7,111.3,237.7z"/>
	</g>
	<g>
		
			<rect x="131.8" y="274.3" transform="matrix(0.7071 -0.7071 0.7071 0.7071 -161.2751 178.4756)" class="st14" width="6.1" height="19.3"/>
	</g>
	<g>
		<path class="st15" d="M162.8,327.1c-0.8,0-1.6-0.3-2.1-0.9l-27.3-27.3c-1.2-1.2-1.2-3.1,0-4.3l12.1-12.1c1.2-1.2,3.1-1.2,4.3,0
			l27.3,27.3c1.2,1.2,1.2,3.1,0,4.3L165,326.2C164.4,326.8,163.6,327.1,162.8,327.1z M139.8,296.8l23,23l7.8-7.8l-23-23L139.8,296.8
			z"/>
	</g>
	<g>
		<path class="st15" d="M114.9,244.5l-0.7,21.2h-6.1l-0.4-21.2"/>
	</g>
	<g>
		<rect x="108.2" y="267.2" class="st15" width="6.1" height="6.1"/>
	</g>
	<g>
		<rect x="140.1" y="239.2" class="st14" width="33.3" height="6.1"/>
	</g>
	<g>
		<rect x="140.1" y="215" class="st14" width="33.3" height="6.1"/>
	</g>
	<g>
		<rect x="140.1" y="251.3" class="st14" width="33.3" height="6.1"/>
	</g>
	<g>
		<rect x="140.1" y="263.5" class="st14" width="33.3" height="6.1"/>
	</g>
	<g>
		<rect x="85.5" y="296.8" class="st14" width="27.3" height="6.1"/>
	</g>
	<g>
		<rect x="85.5" y="308.9" class="st14" width="51.5" height="6.1"/>
	</g>
	<g>
		<rect x="124.9" y="227.1" class="st14" width="48.5" height="6.1"/>
	</g>
	<g>
		<rect x="85.5" y="321" class="st14" width="27.3" height="6.1"/>
	</g>
	<g>
		<rect x="118.9" y="321" class="st14" width="27.3" height="6.1"/>
	</g>
	<g>
		<rect x="85.5" y="333.2" class="st14" width="12.1" height="6.1"/>
	</g>
	<g>
		<rect x="137.1" y="333.2" class="st14" width="36.4" height="6.1"/>
	</g>
	<g>
		<rect x="152.2" y="345.3" class="st14" width="21.2" height="6.1"/>
	</g>
	<g>
		<rect x="85.5" y="345.3" class="st14" width="27.3" height="6.1"/>
	</g>
	<g>
		<rect x="103.7" y="333.2" class="st14" width="27.3" height="6.1"/>
	</g>
	<g>
		<rect x="121.9" y="215" class="st14" width="12.1" height="6.1"/>
	</g>
	<g>
		<rect x="82.5" y="227.1" class="st14" width="12.1" height="6.1"/>
	</g>
	<g>
		<rect x="82.5" y="215" class="st14" width="33.3" height="6.1"/>
	</g>
	<g>
		<rect x="118.9" y="345.3" class="st14" width="27.3" height="6.1"/>
	</g>
	<g>
		<rect x="58.3" y="178.6" class="st16" width="6.1" height="18.2"/>
	</g>
	<g>
		<rect x="52.2" y="184.6" class="st17" width="18.2" height="6.1"/>
	</g>
	<g>
		<path class="st18" d="M433.7,336.8l-148.9,33.4c-1.6,0.4-3.3-0.7-3.6-2.3l-22.7-101.3c-0.4-1.6,0.7-3.3,2.3-3.6l148.9-33.4
			c1.6-0.4,3.3,0.7,3.6,2.3L436,333.2C436.4,334.8,435.3,336.5,433.7,336.8z M286.4,363.6l142.9-32.1L408,236.3L265,268.3
			L286.4,363.6z"/>
	</g>
	<g>
		<path class="st18" d="M347.9,302.9c-0.6,0.1-1.2,0.1-1.8-0.1l-85.8-33.9c-1.2-0.5-2-1.7-1.9-3.1c0.1-1.3,1.1-2.4,2.4-2.7
			l148.9-33.4c1.3-0.3,2.7,0.3,3.3,1.5c0.7,1.2,0.5,2.6-0.4,3.6L349.4,302C349,302.5,348.4,302.8,347.9,302.9z M271.7,266.8
			l74.7,29.5l54.9-58.6L271.7,266.8z"/>
	</g>
	<g>
		<rect x="293.9" y="217.4" class="st17" width="2.8" height="5.6"/>
	</g>
	<g>
		<rect x="293.9" y="231.2" class="st17" width="2.8" height="5.6"/>
	</g>
	<g>
		<rect x="299.5" y="225.7" class="st17" width="5.6" height="2.8"/>
	</g>
	<polyline class="st17" points="285.6,225.7 291.2,225.7 291.2,228.5 285.6,228.5 	"/>
	<g>
		
			<rect x="298.8" y="229.2" transform="matrix(0.7071 -0.7071 0.7071 0.7071 -76.1055 280.2422)" class="st16" width="2.8" height="5.6"/>
	</g>
	<polyline class="st16" points="287.5,221.2 289.4,219.2 293.4,223.2 291.4,225.1 287.5,221.2 	"/>
	<polyline class="st16" points="287.5,233 291.4,229 293.4,231 289.4,234.9 287.5,233 	"/>
	<g>
		
			<rect x="297.5" y="220.8" transform="matrix(0.7071 -0.7071 0.7071 0.7071 -69.1612 277.3657)" class="st16" width="5.6" height="2.8"/>
	</g>
	<g>
		<rect x="101.4" y="140.2" class="st16" width="4.6" height="9.2"/>
	</g>
	<g>
		<rect x="101.4" y="163.3" class="st16" width="4.6" height="9.2"/>
	</g>
	<g>
		<rect x="110.7" y="154" class="st16" width="9.2" height="4.6"/>
	</g>
	<polyline class="st16" points="87.6,154 96.8,154 96.8,158.7 87.6,158.7 	"/>
	<g>
		
			<rect x="109.6" y="159.9" transform="matrix(0.7071 -0.7071 0.7071 0.7071 -83.5511 127.3102)" class="st17" width="4.6" height="9.2"/>
	</g>
	<polyline class="st17" points="90.7,146.5 93.9,143.3 100.5,149.8 97.2,153.1 90.7,146.5 	"/>
	<polyline class="st17" points="90.7,166.1 97.2,159.6 100.5,162.9 93.9,169.4 90.7,166.1 	"/>
	<g>
		
			<rect x="107.3" y="145.9" transform="matrix(0.7071 -0.7071 0.7071 0.7071 -71.9967 122.5242)" class="st17" width="9.2" height="4.6"/>
	</g>
	<g>
		<rect x="435.4" y="245.3" class="st16" width="6.1" height="18.2"/>
	</g>
	<g>
		<rect x="429.4" y="251.3" class="st17" width="18.2" height="6.1"/>
	</g>
	<g class="st19">
		<path class="st20" d="M286.3,99.1c-5.1,4-12.2,4-17.3,0c-2.9-2.3-4.8-5.6-5.2-9.4c-0.4-3.7,0.6-7.4,2.9-10.3
			c0.7-0.9,1.5-1.7,2.4-2.4c5.1-4,12.2-4,17.3,0c6.1,4.8,7.1,13.6,2.3,19.7C288,97.6,287.2,98.4,286.3,99.1z"/>
	</g>
	<path class="st21" d="M295.2,130.7c-0.9,1.2-2.6,1.2-3.6,0.1l0,0c-7.7-9.2-7.9-22.7-0.5-32.1c1.3-1.6,2.7-3.1,4.3-4.3
		c7.7-6,18.3-7.1,27-2.7l0,0c1.3,0.7,1.7,2.4,0.8,3.5L295.2,130.7z"/>
	<g class="st19">
		<path class="st20" d="M313.5,49.1c-0.7,0.6-1.5,1.1-2.3,1.5c-6.9,3.5-15.4,0.7-18.9-6.2c-3-6-1.4-13.3,3.9-17.4
			c0.7-0.6,1.5-1.1,2.3-1.5c6.9-3.5,15.4-0.7,18.9,6.2C320.4,37.7,318.7,45,313.5,49.1z"/>
	</g>
	<g class="st19">
		<path class="st20" d="M343.3,63.7l-40.5,20.5c-1.3,0.7-2.9,0-3.3-1.5v0c-2.7-9.9,0.8-20.3,8.9-26.7c1.3-1,2.7-1.9,4.2-2.7
			c10.7-5.4,23.9-2.6,31.4,6.8l0,0C344.9,61.3,344.6,63,343.3,63.7z"/>
	</g>
	<g class="st19">
		<path class="st20" d="M364.4,59.2c-1.2,0.9-2.6,1.6-4.1,2c-5.9,1.5-12-2.1-13.6-8c-1.1-4.3,0.4-8.8,3.9-11.6
			c1.2-0.9,2.6-1.6,4.1-2c2.9-0.7,5.9-0.3,8.4,1.2c2.6,1.5,4.4,3.9,5.1,6.8C369.4,51.9,367.9,56.5,364.4,59.2z"/>
	</g>
	<g class="st19">
		<path class="st20" d="M381.8,76.1l-33.1,8.5c-1.4,0.4-2.8-0.7-2.9-2.1l0,0c-0.3-6.4,2.5-12.5,7.6-16.5c2.2-1.7,4.6-2.9,7.3-3.6
			c9-2.3,18.6,2.1,22.7,10.4l0,0C383.9,74.1,383.2,75.7,381.8,76.1z"/>
	</g>
	<g>
		<rect x="306.4" y="159.7" class="st17" width="6.1" height="12.3"/>
	</g>
	<polyline class="st17" points="287.9,147.4 300.2,147.4 300.2,153.6 287.9,153.6 	"/>
	<polyline class="st16" points="292.1,163.5 300.8,154.8 305.1,159.2 296.4,167.9 292.1,163.5 	"/>
	<g>
		
			<rect x="408.5" y="84.7" transform="matrix(0.3584 -0.9336 0.9336 0.3584 179.2481 442.5109)" class="st17" width="6.1" height="12.3"/>
	</g>
	<polyline class="st17" points="402.1,64.1 397.7,75.6 403.4,77.8 407.8,66.3 	"/>
	<polyline class="st16" points="415.6,73.8 404.4,78.8 406.9,84.4 418.1,79.4 415.6,73.8 	"/>
	<g>
		
			<rect x="52.2" y="337.5" transform="matrix(-1 -4.500590e-11 4.500590e-11 -1 110.4625 680.9811)" class="st10" width="6.1" height="6.1"/>
	</g>
	<g>
		
			<rect x="40.1" y="349.6" transform="matrix(-1 -4.500590e-11 4.500590e-11 -1 86.2125 705.2311)" class="st11" width="6.1" height="6.1"/>
	</g>
	<g>
		
			<rect x="52.2" y="361.7" transform="matrix(-1 -4.500590e-11 4.500590e-11 -1 110.4625 729.4811)" class="st10" width="6.1" height="6.1"/>
	</g>
	<g>
		
			<rect x="52.2" y="349.6" transform="matrix(-1 -4.500590e-11 4.500590e-11 -1 110.4625 705.2311)" class="st12" width="6.1" height="6.1"/>
	</g>
	<g>
		
			<rect x="433.2" y="346" transform="matrix(0.2275 0.9738 -0.9738 0.2275 676.8315 -155.1275)" class="st10" width="6.1" height="6.1"/>
	</g>
	<g>
		
			<rect x="424.1" y="360.5" transform="matrix(0.2275 0.9738 -0.9738 0.2275 684.0238 -135.0632)" class="st11" width="6.1" height="6.1"/>
	</g>
	<g>
		
			<rect x="409.5" y="351.5" transform="matrix(0.2275 0.9738 -0.9738 0.2275 663.9595 -127.871)" class="st10" width="6.1" height="6.1"/>
	</g>
	<g>
		
			<rect x="421.3" y="348.7" transform="matrix(0.2275 0.9738 -0.9738 0.2275 670.3955 -141.4993)" class="st12" width="6.1" height="6.1"/>
	</g>
	<path class="st21" d="M377.9,96.9l-14.1,10.8l-4.8,3.7l3.7,4.8l28.6,37.1c0.7,0.9,2.5,4.1,2.1,7.2c-0.3,2-1.5,3.9-3.7,5.6
		c-3.1,2.4-5.9,2.9-8.8,1.4c-2.4-1.2-4-3.1-4-3.1l-28.5-37.1l-3.7-4.8l-4.8,3.7L325.7,137l-4.8,3.7l3.7,4.8l28.6,37.1
		c6.3,8.3,15.5,13.6,25.9,14.9c10.3,1.4,20.6-1.4,28.8-7.8c8.3-6.3,13.6-15.5,14.9-25.9c1.4-10.3-1.4-20.6-7.8-28.8L386.4,98
		l-3.7-4.8L377.9,96.9z M410.1,138.8c5.5,7.2,7.6,16,6.5,24.3c-1.1,8.4-5.4,16.3-12.6,21.8c-14.4,11.1-35.1,8.4-46.2-6l-14.2-18.5
		l14.1-10.8l14.2,18.5c0,0,9.3,12,21.3,2.8c4-3.1,5.7-6.5,6.1-9.6c0.8-6.3-3.3-11.7-3.3-11.7l-14.9-19.4l14.1-10.8L410.1,138.8z"/>
</g>
</svg>
