<?xml version="1.0" encoding="utf-8"?>
<!-- Generator: Adobe Illustrator 20.1.0, SVG Export Plug-In . SVG Version: 6.00 Build 0)  -->
<svg version="1.1" id="design-layer-1" xmlns="http://www.w3.org/2000/svg" xmlns:xlink="http://www.w3.org/1999/xlink" x="0px"
	 y="0px" viewBox="0 0 482.8 406.1" style="enable-background:new 0 0 482.8 406.1;" xml:space="preserve">
<style type="text/css">
	.st0{opacity:0.25;fill:none;stroke:#000000;stroke-width:5;stroke-miterlimit:10;enable-background:new    ;}
	.st1{fill:#FCB867;}
	.st2{fill:#FEE18D;}
	.st3{fill:#FFECBB;}
	.st4{fill:#FFCF44;}
	.st5{fill:#FFE092;}
	.st6{fill:#FFF6E1;}
	.st7{fill:#FFF8EB;}
	.st8{fill:#FFFBF3;}
	.st9{fill:#FFFFFF;}
	.st10{fill:#FFE19F;}
	.st11{fill:#BCBCAF;}
	.st12{fill:#D1D1C5;}
	.st13{fill:none;stroke:#A8A79B;stroke-width:4;stroke-miterlimit:10;}
	.st14{fill:#FAA947;}
	.st15{fill:#E0E0DC;}
	.st16{fill:#A8A79B;}
</style>
<g id="design-shadow">
	<line class="st0" x1="38.5" y1="369.7" x2="396.8" y2="369.7"/>
</g>
<g id="design-sparkles">
	<g>
		<g>
			<rect x="236.6" y="213.4" class="st1" width="6.1" height="18.2"/>
		</g>
		<g>
			<rect x="230.5" y="219.4" class="st2" width="18.2" height="6.1"/>
		</g>
	</g>
	<g>
		<g>
			
				<rect x="356.8" y="327.2" transform="matrix(0.241 -0.9705 0.9705 0.241 -47.3797 599.9097)" class="st3" width="6.1" height="6.1"/>
		</g>
		<g>
			
				<rect x="365.7" y="341.8" transform="matrix(0.241 -0.9705 0.9705 0.241 -54.8494 619.6505)" class="st4" width="6.1" height="6.1"/>
		</g>
		<g>
			
				<rect x="350.9" y="350.7" transform="matrix(0.241 -0.9705 0.9705 0.241 -74.7208 612.0063)" class="st3" width="6.1" height="6.1"/>
		</g>
		<g>
			
				<rect x="353.9" y="338.9" transform="matrix(0.241 -0.9705 0.9705 0.241 -60.9729 605.9114)" class="st5" width="6.1" height="6.1"/>
		</g>
	</g>
	<g>
		<g>
			<rect x="50.4" y="206.6" class="st1" width="4.6" height="9.2"/>
		</g>
		<g>
			<rect x="50.4" y="229.7" class="st1" width="4.6" height="9.2"/>
		</g>
		<g>
			<rect x="59.7" y="220.4" class="st1" width="9.2" height="4.6"/>
		</g>
		<polyline class="st1" points="36.6,220.4 45.8,220.4 45.8,225.1 36.6,225.1 		"/>
		<g>
			
				<rect x="58.6" y="226.3" transform="matrix(0.7071 -0.7071 0.7071 0.7071 -145.4347 110.6834)" class="st2" width="4.6" height="9.2"/>
		</g>
		<polyline class="st2" points="39.7,212.9 42.9,209.7 49.5,216.2 46.2,219.5 39.7,212.9 		"/>
		<polyline class="st2" points="39.7,232.5 46.2,226 49.5,229.3 42.9,235.8 39.7,232.5 		"/>
		<g>
			
				<rect x="56.3" y="212.3" transform="matrix(0.7071 -0.7071 0.7071 0.7071 -133.9229 105.9093)" class="st2" width="9.2" height="4.6"/>
		</g>
	</g>
	<g>
		<g>
			
				<rect x="272" y="105.9" transform="matrix(1 -3.627046e-03 3.627046e-03 1 -0.3934 0.9983)" class="st3" width="6.1" height="6.1"/>
		</g>
		<g>
			
				<rect x="259.9" y="93.7" transform="matrix(1 -3.627046e-03 3.627046e-03 1 -0.3492 0.9544)" class="st4" width="6.1" height="6.1"/>
		</g>
		<g>
			
				<rect x="247.7" y="106" transform="matrix(1 -3.627046e-03 3.627046e-03 1 -0.3939 0.9102)" class="st3" width="6.1" height="6.1"/>
		</g>
		<g>
			
				<rect x="259.9" y="105.9" transform="matrix(1 -3.627046e-03 3.627046e-03 1 -0.3934 0.9545)" class="st5" width="6.1" height="6.1"/>
		</g>
	</g>
</g>
<g id="design-layout">
	<rect x="407.6" y="158.1" class="st6" width="19.7" height="129.4"/>
	<rect x="387.9" y="145.4" class="st7" width="15.5" height="142.1"/>
	<polygon class="st8" points="257.5,144.2 384.9,144.2 384.9,281.8 367.1,281.5 362.2,285.6 357,281.3 341.5,281 336.5,285.6 
		331,280.8 315.9,280.6 311.2,284.8 305.5,280.4 291.3,280.1 285.5,284.8 280.8,279.9 266.2,279.7 262.9,281.8 257.5,279.5 	"/>
	<path class="st9" d="M343.7,248.7H304c-6.6,0-12-5.4-12-12v-14.2c0-6.6,5.4-12,12-12h39.7c6.6,0,12,5.4,12,12v14.2
		C355.7,243.3,350.3,248.7,343.7,248.7z"/>
	<rect x="260.2" y="120.4" class="st10" width="129.6" height="25.3"/>
	<path class="st9" d="M287.6,198.7h-4.9c-6.6,0-12-5.4-12-12v-19.8c0-6.6,5.4-12,12-12h4.9c6.6,0,12,5.4,12,12v19.8
		C299.6,193.3,294.2,198.7,287.6,198.7z"/>
	<g id="Layout">
		<g>
			<path class="st11" d="M387.5,290.1c-0.6,0-1.2-0.2-1.7-0.6l-11-9.2l-11,9.2c-1,0.8-2.4,0.8-3.4,0l-11-9.2l-11,9.2
				c-1,0.8-2.4,0.8-3.4,0l-11-9.2l-11,9.2c-1,0.8-2.4,0.8-3.4,0l-11-9.2l-11,9.2c-1,0.8-2.4,0.8-3.4,0l-11-9.2l-11,9.2
				c-0.8,0.7-1.9,0.8-2.8,0.4s-1.5-1.4-1.5-2.4V123c0-1.5,1.2-2.7,2.7-2.7h127.3c1.5,0,2.7,1.2,2.7,2.7v164.5c0,1-0.6,2-1.5,2.4
				C388.3,290,387.9,290.1,387.5,290.1z M349.3,274.2c0.6,0,1.2,0.2,1.7,0.6l11,9.2l11-9.2c1-0.8,2.4-0.8,3.4,0l8.4,7V125.7h-122
				v154v2.2l8.4-7c1-0.8,2.4-0.8,3.4,0l11,9.2l11-9.2c1-0.8,2.4-0.8,3.4,0l11,9.2l11-9.2c1-0.8,2.4-0.8,3.4,0l11,9.2l11-9.2
				C348.1,274.4,348.7,274.2,349.3,274.2z"/>
		</g>
		<g>
			<path class="st11" d="M387.5,146.9H260.2c-1.5,0-2.7-1.2-2.7-2.7V123c0-1.5,1.2-2.7,2.7-2.7h127.3c1.5,0,2.7,1.2,2.7,2.7v21.2
				C390.2,145.7,389,146.9,387.5,146.9z M262.9,141.6h122v-15.9h-122V141.6z"/>
		</g>
		<g>
			<path class="st11" d="M272.1,138.9c-2.9,0-5.3-2.4-5.3-5.3s2.4-5.3,5.3-5.3s5.3,2.4,5.3,5.3S275.1,138.9,272.1,138.9z
				 M272.1,133.6L272.1,133.6L272.1,133.6z"/>
		</g>
		<g>
			<path class="st11" d="M288.1,138.9c-2.9,0-5.3-2.4-5.3-5.3s2.4-5.3,5.3-5.3s5.3,2.4,5.3,5.3S291,138.9,288.1,138.9z M288.1,133.6
				L288.1,133.6L288.1,133.6z"/>
		</g>
		<g>
			<path class="st11" d="M304,138.9c-2.9,0-5.3-2.4-5.3-5.3s2.4-5.3,5.3-5.3s5.3,2.4,5.3,5.3S306.9,138.9,304,138.9z M304,133.6
				L304,133.6L304,133.6z"/>
		</g>
		<g>
			<rect x="305.3" y="152.2" class="st11" width="23.9" height="5.3"/>
		</g>
		<g>
			<rect x="305.3" y="162.8" class="st11" width="42.4" height="5.3"/>
		</g>
		<g>
			<rect x="305.3" y="173.4" class="st11" width="23.9" height="5.3"/>
		</g>
		<g>
			<rect x="334.5" y="173.4" class="st11" width="21.2" height="5.3"/>
		</g>
		<g>
			<rect x="305.3" y="184" class="st11" width="10.6" height="5.3"/>
		</g>
		<g>
			<rect x="347.7" y="184" class="st11" width="31.8" height="5.3"/>
		</g>
		<g>
			<rect x="361" y="194.6" class="st11" width="18.6" height="5.3"/>
		</g>
		<g>
			<rect x="305.3" y="194.6" class="st11" width="23.9" height="5.3"/>
		</g>
		<g>
			<rect x="321.2" y="184" class="st11" width="21.2" height="5.3"/>
		</g>
		<g>
			<rect x="334.5" y="194.6" class="st11" width="21.2" height="5.3"/>
		</g>
		<g>
			<rect x="286.7" y="253" class="st11" width="10.6" height="5.3"/>
		</g>
		<g>
			<rect x="329.2" y="253" class="st11" width="31.8" height="5.3"/>
		</g>
		<g>
			<rect x="342.4" y="263.6" class="st11" width="18.6" height="5.3"/>
		</g>
		<g>
			<rect x="286.7" y="263.6" class="st11" width="23.9" height="5.3"/>
		</g>
		<g>
			<rect x="302.6" y="253" class="st11" width="21.2" height="5.3"/>
		</g>
		<g>
			<rect x="315.9" y="263.6" class="st11" width="21.2" height="5.3"/>
		</g>
		<g>
			<path class="st11" d="M297.3,199.9h-26.5c-1.5,0-2.7-1.2-2.7-2.7v-42.4c0-1.5,1.2-2.7,2.7-2.7h26.5c1.5,0,2.7,1.2,2.7,2.7v42.4
				C300,198.8,298.8,199.9,297.3,199.9z M273.5,194.6h21.2v-37.1h-21.2V194.6z"/>
		</g>
		<g>
			
				<rect x="259" y="173.5" transform="matrix(0.5303 -0.8478 0.8478 0.5303 -15.9029 323.5009)" class="st11" width="50" height="5.3"/>
		</g>
		<g>
			<rect x="281.4" y="151" transform="matrix(0.848 -0.53 0.53 0.848 -50.1196 177.2855)" class="st11" width="5.3" height="50"/>
		</g>
		<g>
			<path class="st11" d="M355.7,250.3H292c-1.5,0-2.7-1.2-2.7-2.7v-37.1c0-1.5,1.2-2.7,2.7-2.7h63.7c1.5,0,2.7,1.2,2.7,2.7v37.1
				C358.3,249.2,357.2,250.3,355.7,250.3z M294.7,245H353v-31.8h-58.4V245H294.7z"/>
		</g>
		<g>
			
				<rect x="287" y="226.5" transform="matrix(0.8639 -0.5037 0.5037 0.8639 -71.3308 194.3232)" class="st11" width="73.7" height="5.3"/>
		</g>
		<g>
			
				<rect x="321.2" y="192.3" transform="matrix(0.5039 -0.8638 0.8638 0.5039 -37.2349 393.4551)" class="st11" width="5.3" height="73.7"/>
		</g>
		<g>
			<path class="st11" d="M406.1,290.1h-18.6c-1.5,0-2.7-1.2-2.7-2.7V144.2c0-1.5,1.2-2.7,2.7-2.7h18.6c1.5,0,2.7,1.2,2.7,2.7v143.2
				C408.7,288.9,407.6,290.1,406.1,290.1z M390.2,284.8h13.3V146.9h-13.3V284.8z"/>
		</g>
		<g>
			<path class="st11" d="M424.7,290.1h-18.6c-1.5,0-2.7-1.2-2.7-2.7v-130c0-1.5,1.2-2.7,2.7-2.7h18.6c1.5,0,2.7,1.2,2.7,2.7v130
				C427.3,288.9,426.1,290.1,424.7,290.1z M408.7,284.8H422V160.1h-13.3V284.8z"/>
		</g>
	</g>
</g>
<g id="design-phone">
	<polygon class="st12" points="286.7,268.9 292,258.6 351,274.8 352.1,282 350.4,289.1 344.3,286.7 307.7,273.8 	"/>
	<polygon class="st12" points="258.6,348.8 260.8,357.7 321.1,372.7 330.9,366.9 324.2,360.2 267.7,346 	"/>
	<polygon class="st6" points="266.5,344.1 284.6,271.8 343.1,284.8 324.2,360.2 	"/>
	<polygon class="st12" points="324.2,360.2 341.3,286 351,286.7 329.2,371.1 324.2,373 	"/>
	<polygon class="st12" points="258.4,346 280.4,263.9 287.4,258.3 295.6,259.3 290.2,271.3 285.2,271.8 267.9,346 258.6,351.6 	"/>
	<path class="st13" d="M321.1,372.7l-56.6-14.2c-4.3-1.1-7-5.5-5.9-9.8l21.2-84.9c1.1-4.3,5.5-7,9.8-5.9l56.6,14.2
		c4.3,1.1,7,5.5,5.9,9.8l-21.2,84.9C329.8,371.2,325.4,373.8,321.1,372.7z"/>
	<path class="st13" d="M321.3,359.5l-51.6-12.9c-0.8-0.2-1.3-1.1-1-1.9l18.1-72.3c0.2-0.9,1-1.4,1.8-1.2l51.6,12.9
		c0.8,0.2,1.3,1.1,1,1.9l-18.1,72.3C322.9,359.1,322.1,359.7,321.3,359.5z"/>
	<path class="st14" d="M299.1,293.8l-9.4-2.4c-0.9-0.2-1.4-1.1-1.2-2l2.4-9.4c0.2-0.9,1.1-1.4,2-1.2l9.4,2.4c0.9,0.2,1.4,1.1,1.2,2
		l-2.4,9.4C300.9,293.5,300,294,299.1,293.8z"/>
	<path class="st14" d="M314.8,297.7l-9.4-2.4c-0.9-0.2-1.4-1.1-1.2-2l2.4-9.4c0.2-0.9,1.1-1.4,2-1.2l9.4,2.4c0.9,0.2,1.4,1.1,1.2,2
		l-2.4,9.4C316.6,297.4,315.7,297.9,314.8,297.7z"/>
	<path class="st4" d="M330.5,301.6l-9.4-2.4c-0.9-0.2-1.4-1.1-1.2-2l2.4-9.4c0.2-0.9,1.1-1.4,2-1.2l9.4,2.4c0.9,0.2,1.4,1.1,1.2,2
		l-2.4,9.4C332.3,301.3,331.4,301.9,330.5,301.6z"/>
	<path class="st14" d="M295.2,309.5l-9.4-2.4c-0.9-0.2-1.4-1.1-1.2-2l2.4-9.4c0.2-0.9,1.1-1.4,2-1.2l9.4,2.4c0.9,0.2,1.4,1.1,1.2,2
		l-2.4,9.4C296.9,309.2,296,309.7,295.2,309.5z"/>
	<path class="st14" d="M310.9,313.4l-9.4-2.4c-0.9-0.2-1.4-1.1-1.2-2l2.4-9.4c0.2-0.9,1.1-1.4,2-1.2l9.4,2.4c0.9,0.2,1.4,1.1,1.2,2
		l-2.4,9.4C312.6,313.1,311.8,313.6,310.9,313.4z"/>
	<path class="st4" d="M326.6,317.4l-9.4-2.4c-0.9-0.2-1.4-1.1-1.2-2l2.4-9.4c0.2-0.9,1.1-1.4,2-1.2l9.4,2.4c0.9,0.2,1.4,1.1,1.2,2
		l-2.4,9.4C328.3,317,327.5,317.6,326.6,317.4z"/>
	<path class="st14" d="M291.2,325.2l-9.4-2.4c-0.9-0.2-1.4-1.1-1.2-2l2.4-9.4c0.2-0.9,1.1-1.4,2-1.2l9.4,2.4c0.9,0.2,1.4,1.1,1.2,2
		l-2.4,9.4C293,324.9,292.1,325.4,291.2,325.2z"/>
	<path class="st4" d="M306.9,329.1l-9.4-2.4c-0.9-0.2-1.4-1.1-1.2-2l2.4-9.4c0.2-0.9,1.1-1.4,2-1.2l9.4,2.4c0.9,0.2,1.4,1.1,1.2,2
		l-2.4,9.4C308.7,328.8,307.8,329.4,306.9,329.1z"/>
	<path class="st14" d="M286.5,344.1l-9.4-2.4c-0.9-0.2-1.4-1.1-1.2-2l2.4-9.4c0.2-0.9,1.1-1.4,2-1.2l9.4,2.4c0.9,0.2,1.4,1.1,1.2,2
		l-2.4,9.4C288.3,343.7,287.4,344.3,286.5,344.1z"/>
	<path class="st14" d="M302.2,348l-9.4-2.4c-0.9-0.2-1.4-1.1-1.2-2l2.4-9.4c0.2-0.9,1.1-1.4,2-1.2l9.4,2.4c0.9,0.2,1.4,1.1,1.2,2
		l-2.4,9.4C304,347.7,303.1,348.2,302.2,348z"/>
	<path class="st14" d="M317.9,351.9l-9.4-2.4c-0.9-0.2-1.4-1.1-1.2-2l2.4-9.4c0.2-0.9,1.1-1.4,2-1.2l9.4,2.4c0.9,0.2,1.4,1.1,1.2,2
		l-2.4,9.4C319.7,351.6,318.8,352.1,317.9,351.9z"/>
</g>
<g id="design-laptop">
	<polygon class="st15" points="56.1,348.9 57.3,361 64.9,366.6 234.3,366.6 244.1,357.5 242.3,349.2 	"/>
	<polygon class="st12" points="68.9,250 68.9,348.9 81.4,348.9 80,248.7 81.7,246.8 219.2,246.8 219.2,348.9 231.1,348.9 
		231.1,240.3 222.2,233.3 77,234.3 67.9,242.6 	"/>
	<polygon class="st6" points="80,272.9 80,346.9 219.2,348.9 219.2,269.9 80,269.9 	"/>
	<polygon class="st9" points="92.1,287.1 92.1,316.2 95.1,321.3 116.3,301.7 130.8,314.6 151.7,298 149.6,282 95.1,284.8 	"/>
	<polygon class="st4" points="80,248.7 80,272.9 219.2,269.9 219.2,246.8 81.7,246.8 	"/>
	<polygon class="st4" points="95.1,321.3 116.3,301.7 130.8,314.6 147.8,301.7 148.6,324.4 	"/>
	<g>
		<rect x="80" y="266.9" class="st14" width="139.2" height="6.1"/>
	</g>
	<g>
		<path class="st16" d="M231.3,351.6H67.9c-1.7,0-3-1.4-3-3V245.7c0-8.3,6.8-15.1,15.1-15.1h139.2c8.3,0,15.1,6.8,15.1,15.1v102.9
			C234.3,350.2,233,351.6,231.3,351.6z M70.9,345.5h157.4v-99.9c0-5-4.1-9.1-9.1-9.1H80c-5,0-9.1,4.1-9.1,9.1V345.5z"/>
	</g>
	<g>
		<path class="st16" d="M231.3,369.7H67.9c-8.3,0-15.1-6.8-15.1-15.1v-6.1c0-1.7,1.4-3,3-3h187.6c1.7,0,3,1.4,3,3v6.1
			C246.4,363,239.6,369.7,231.3,369.7z M58.8,351.6v3c0,5,4.1,9.1,9.1,9.1h163.4c5,0,9.1-4.1,9.1-9.1v-3H58.8z"/>
	</g>
	<g>
		<path class="st16" d="M219.2,351.6H80c-1.7,0-3-1.4-3-3V245.7c0-1.7,1.4-3,3-3h139.2c1.7,0,3,1.4,3,3v102.9
			C222.2,350.2,220.9,351.6,219.2,351.6z M83,345.5h133.2v-96.8H83V345.5z"/>
	</g>
	<g>
		<circle class="st14" cx="92.1" cy="257.8" r="6.1"/>
	</g>
	<g>
		<circle class="st14" cx="107.2" cy="257.8" r="6.1"/>
	</g>
	<g>
		<circle class="st14" cx="122.4" cy="257.8" r="6.1"/>
	</g>
	<g>
		<path class="st14" d="M138.4,326.5l-22.1-22.1l-22.1,22.1l-4.3-4.3l24.2-24.2c1.2-1.2,3.1-1.2,4.3,0l24.2,24.2L138.4,326.5z"/>
	</g>
	<g>
		
			<rect x="129.5" y="305.4" transform="matrix(0.7071 -0.7071 0.7071 0.7071 -176.7502 190.219)" class="st14" width="23.5" height="6.1"/>
	</g>
	<g>
		<polygon class="st11" points="166.2,301.7 185.9,310.7 173.8,321.3 		"/>
		<path class="st11" d="M173.8,324.4c-0.2,0-0.5,0-0.7-0.1c-1-0.2-1.7-0.9-2.1-1.8l-7.6-19.7c-0.4-1.1-0.1-2.5,0.8-3.3
			c0.9-0.8,2.2-1.1,3.3-0.5l19.7,9.1c0.9,0.4,1.6,1.3,1.7,2.3c0.1,1-0.2,2-1,2.7l-12.1,10.6C175.2,324.1,174.5,324.4,173.8,324.4z
			 M171.7,307.5l3.3,8.7l5.3-4.7L171.7,307.5z"/>
	</g>
	<g>
		
			<rect x="182.9" y="312.8" transform="matrix(0.7071 -0.7071 0.7071 0.7071 -172.7375 225.5944)" class="st11" width="6.1" height="17.1"/>
	</g>
	<g>
		<path class="st11" d="M149.6,327.4H92.1c-1.7,0-3-1.4-3-3V285c0-1.7,1.4-3,3-3h57.5c1.7,0,3,1.4,3,3v39.3
			C152.6,326,151.3,327.4,149.6,327.4z M95.1,321.3h51.4V288H95.1V321.3z"/>
	</g>
</g>
</svg>
