<?xml version="1.0" encoding="utf-8"?>
<!-- Generator: Adobe Illustrator 20.1.0, SVG Export Plug-In . SVG Version: 6.00 Build 0)  -->
<svg version="1.1" xmlns="http://www.w3.org/2000/svg" xmlns:xlink="http://www.w3.org/1999/xlink" x="0px" y="0px"
	 viewBox="0 0 482.8 406.1" style="enable-background:new 0 0 482.8 406.1;" xml:space="preserve">
<style type="text/css">
	.st0{display:none;}
	.st1{display:inline;}
	.st2{opacity:0.25;fill:none;stroke:#000000;stroke-width:5;stroke-miterlimit:10;enable-background:new    ;}
	.st3{fill:#FCB867;}
	.st4{fill:#FEE18D;}
	.st5{fill:#FFECBB;}
	.st6{fill:#FFCF44;}
	.st7{fill:#FFE092;}
	.st8{fill:#FFF6E1;}
	.st9{fill:#FFF8EB;}
	.st10{fill:#FFFBF3;}
	.st11{fill:#FFFFFF;}
	.st12{fill:#FFE19F;}
	.st13{fill:#BCBCAF;}
	.st14{fill:#D1D1C5;}
	.st15{fill:none;stroke:#A8A79B;stroke-width:4;stroke-miterlimit:10;}
	.st16{fill:#FAA947;}
	.st17{fill:#E0E0DC;}
	.st18{fill:#A8A79B;}
	.st19{opacity:0.25;fill:none;stroke:#000000;stroke-width:5;stroke-miterlimit:10;}
	.st20{fill:#DDDDD3;}
	.st21{fill:#FFFDF8;}
	.st22{fill:#E5E5DC;}
	.st23{fill:#DBDBD1;}
	.st24{fill:#B2B1A6;}
	.st25{fill:#93928A;}
</style>
<g id="Layer_2" class="st0">
	<g id="Layer_7_1_" class="st1">
		<line class="st2" x1="38.5" y1="369.7" x2="396.8" y2="369.7"/>
	</g>
	<g class="st1">
		<g>
			<rect x="236.6" y="213.4" class="st3" width="6.1" height="18.2"/>
		</g>
		<g>
			<rect x="230.5" y="219.4" class="st4" width="18.2" height="6.1"/>
		</g>
	</g>
	<g class="st1">
		<g>
			
				<rect x="356.8" y="327.2" transform="matrix(0.241 -0.9705 0.9705 0.241 -47.3797 599.9097)" class="st5" width="6.1" height="6.1"/>
		</g>
		<g>
			
				<rect x="365.7" y="341.8" transform="matrix(0.241 -0.9705 0.9705 0.241 -54.8494 619.6505)" class="st6" width="6.1" height="6.1"/>
		</g>
		<g>
			
				<rect x="350.9" y="350.7" transform="matrix(0.241 -0.9705 0.9705 0.241 -74.7208 612.0063)" class="st5" width="6.1" height="6.1"/>
		</g>
		<g>
			
				<rect x="353.9" y="338.9" transform="matrix(0.241 -0.9705 0.9705 0.241 -60.9729 605.9114)" class="st7" width="6.1" height="6.1"/>
		</g>
	</g>
	<g class="st1">
		<g>
			<rect x="50.4" y="206.6" class="st3" width="4.6" height="9.2"/>
		</g>
		<g>
			<rect x="50.4" y="229.7" class="st3" width="4.6" height="9.2"/>
		</g>
		<g>
			<rect x="59.7" y="220.4" class="st3" width="9.2" height="4.6"/>
		</g>
		<polyline class="st3" points="36.6,220.4 45.8,220.4 45.8,225.1 36.6,225.1 		"/>
		<g>
			
				<rect x="58.6" y="226.3" transform="matrix(0.7071 -0.7071 0.7071 0.7071 -145.4347 110.6834)" class="st4" width="4.6" height="9.2"/>
		</g>
		<polyline class="st4" points="39.7,212.9 42.9,209.7 49.5,216.2 46.2,219.5 39.7,212.9 		"/>
		<polyline class="st4" points="39.7,232.5 46.2,226 49.5,229.3 42.9,235.8 39.7,232.5 		"/>
		<g>
			
				<rect x="56.3" y="212.3" transform="matrix(0.7071 -0.7071 0.7071 0.7071 -133.9229 105.9093)" class="st4" width="9.2" height="4.6"/>
		</g>
	</g>
	<g class="st1">
		<g>
			
				<rect x="272" y="105.9" transform="matrix(1 -3.627046e-03 3.627046e-03 1 -0.3934 0.9983)" class="st5" width="6.1" height="6.1"/>
		</g>
		<g>
			
				<rect x="259.9" y="93.7" transform="matrix(1 -3.627046e-03 3.627046e-03 1 -0.3492 0.9544)" class="st6" width="6.1" height="6.1"/>
		</g>
		<g>
			
				<rect x="247.7" y="106" transform="matrix(1 -3.627046e-03 3.627046e-03 1 -0.3939 0.9102)" class="st5" width="6.1" height="6.1"/>
		</g>
		<g>
			
				<rect x="259.9" y="105.9" transform="matrix(1 -3.627046e-03 3.627046e-03 1 -0.3934 0.9545)" class="st7" width="6.1" height="6.1"/>
		</g>
	</g>
	<g id="Layout_1_" class="st1">
		<rect x="407.6" y="158.1" class="st8" width="19.7" height="129.4"/>
		<rect x="387.9" y="145.4" class="st9" width="15.5" height="142.1"/>
		<polygon class="st10" points="257.5,144.2 384.9,144.2 384.9,281.8 367.1,281.5 362.2,285.6 357,281.3 341.5,281 336.5,285.6 
			331,280.8 315.9,280.6 311.2,284.8 305.5,280.4 291.3,280.1 285.5,284.8 280.8,279.9 266.2,279.7 262.9,281.8 257.5,279.5 		"/>
		<path class="st11" d="M343.7,248.7H304c-6.6,0-12-5.4-12-12v-14.2c0-6.6,5.4-12,12-12h39.7c6.6,0,12,5.4,12,12v14.2
			C355.7,243.3,350.3,248.7,343.7,248.7z"/>
		<rect x="260.2" y="120.4" class="st12" width="129.6" height="25.3"/>
		<path class="st11" d="M287.6,198.7h-4.9c-6.6,0-12-5.4-12-12v-19.8c0-6.6,5.4-12,12-12h4.9c6.6,0,12,5.4,12,12v19.8
			C299.6,193.3,294.2,198.7,287.6,198.7z"/>
		<g id="Layout">
			<g>
				<path class="st13" d="M387.5,290.1c-0.6,0-1.2-0.2-1.7-0.6l-11-9.2l-11,9.2c-1,0.8-2.4,0.8-3.4,0l-11-9.2l-11,9.2
					c-1,0.8-2.4,0.8-3.4,0l-11-9.2l-11,9.2c-1,0.8-2.4,0.8-3.4,0l-11-9.2l-11,9.2c-1,0.8-2.4,0.8-3.4,0l-11-9.2l-11,9.2
					c-0.8,0.7-1.9,0.8-2.8,0.4s-1.5-1.4-1.5-2.4V123c0-1.5,1.2-2.7,2.7-2.7h127.3c1.5,0,2.7,1.2,2.7,2.7v164.5c0,1-0.6,2-1.5,2.4
					C388.3,290,387.9,290.1,387.5,290.1z M349.3,274.2c0.6,0,1.2,0.2,1.7,0.6l11,9.2l11-9.2c1-0.8,2.4-0.8,3.4,0l8.4,7V125.7h-122
					v154v2.2l8.4-7c1-0.8,2.4-0.8,3.4,0l11,9.2l11-9.2c1-0.8,2.4-0.8,3.4,0l11,9.2l11-9.2c1-0.8,2.4-0.8,3.4,0l11,9.2l11-9.2
					C348.1,274.4,348.7,274.2,349.3,274.2z"/>
			</g>
			<g>
				<path class="st13" d="M387.5,146.9H260.2c-1.5,0-2.7-1.2-2.7-2.7V123c0-1.5,1.2-2.7,2.7-2.7h127.3c1.5,0,2.7,1.2,2.7,2.7v21.2
					C390.2,145.7,389,146.9,387.5,146.9z M262.9,141.6h122v-15.9h-122V141.6z"/>
			</g>
			<g>
				<path class="st13" d="M272.1,138.9c-2.9,0-5.3-2.4-5.3-5.3s2.4-5.3,5.3-5.3s5.3,2.4,5.3,5.3S275.1,138.9,272.1,138.9z
					 M272.1,133.6L272.1,133.6L272.1,133.6z"/>
			</g>
			<g>
				<path class="st13" d="M288.1,138.9c-2.9,0-5.3-2.4-5.3-5.3s2.4-5.3,5.3-5.3s5.3,2.4,5.3,5.3S291,138.9,288.1,138.9z
					 M288.1,133.6L288.1,133.6L288.1,133.6z"/>
			</g>
			<g>
				<path class="st13" d="M304,138.9c-2.9,0-5.3-2.4-5.3-5.3s2.4-5.3,5.3-5.3s5.3,2.4,5.3,5.3S306.9,138.9,304,138.9z M304,133.6
					L304,133.6L304,133.6z"/>
			</g>
			<g>
				<rect x="305.3" y="152.2" class="st13" width="23.9" height="5.3"/>
			</g>
			<g>
				<rect x="305.3" y="162.8" class="st13" width="42.4" height="5.3"/>
			</g>
			<g>
				<rect x="305.3" y="173.4" class="st13" width="23.9" height="5.3"/>
			</g>
			<g>
				<rect x="334.5" y="173.4" class="st13" width="21.2" height="5.3"/>
			</g>
			<g>
				<rect x="305.3" y="184" class="st13" width="10.6" height="5.3"/>
			</g>
			<g>
				<rect x="347.7" y="184" class="st13" width="31.8" height="5.3"/>
			</g>
			<g>
				<rect x="361" y="194.6" class="st13" width="18.6" height="5.3"/>
			</g>
			<g>
				<rect x="305.3" y="194.6" class="st13" width="23.9" height="5.3"/>
			</g>
			<g>
				<rect x="321.2" y="184" class="st13" width="21.2" height="5.3"/>
			</g>
			<g>
				<rect x="334.5" y="194.6" class="st13" width="21.2" height="5.3"/>
			</g>
			<g>
				<rect x="286.7" y="253" class="st13" width="10.6" height="5.3"/>
			</g>
			<g>
				<rect x="329.2" y="253" class="st13" width="31.8" height="5.3"/>
			</g>
			<g>
				<rect x="342.4" y="263.6" class="st13" width="18.6" height="5.3"/>
			</g>
			<g>
				<rect x="286.7" y="263.6" class="st13" width="23.9" height="5.3"/>
			</g>
			<g>
				<rect x="302.6" y="253" class="st13" width="21.2" height="5.3"/>
			</g>
			<g>
				<rect x="315.9" y="263.6" class="st13" width="21.2" height="5.3"/>
			</g>
			<g>
				<path class="st13" d="M297.3,199.9h-26.5c-1.5,0-2.7-1.2-2.7-2.7v-42.4c0-1.5,1.2-2.7,2.7-2.7h26.5c1.5,0,2.7,1.2,2.7,2.7v42.4
					C300,198.8,298.8,199.9,297.3,199.9z M273.5,194.6h21.2v-37.1h-21.2V194.6z"/>
			</g>
			<g>
				
					<rect x="259" y="173.5" transform="matrix(0.5303 -0.8478 0.8478 0.5303 -15.9029 323.5009)" class="st13" width="50" height="5.3"/>
			</g>
			<g>
				<rect x="281.4" y="151" transform="matrix(0.848 -0.53 0.53 0.848 -50.1196 177.2855)" class="st13" width="5.3" height="50"/>
			</g>
			<g>
				<path class="st13" d="M355.7,250.3H292c-1.5,0-2.7-1.2-2.7-2.7v-37.1c0-1.5,1.2-2.7,2.7-2.7h63.7c1.5,0,2.7,1.2,2.7,2.7v37.1
					C358.3,249.2,357.2,250.3,355.7,250.3z M294.7,245H353v-31.8h-58.4V245H294.7z"/>
			</g>
			<g>
				
					<rect x="287" y="226.5" transform="matrix(0.8639 -0.5037 0.5037 0.8639 -71.3308 194.3232)" class="st13" width="73.7" height="5.3"/>
			</g>
			<g>
				
					<rect x="321.2" y="192.3" transform="matrix(0.5039 -0.8638 0.8638 0.5039 -37.2349 393.4551)" class="st13" width="5.3" height="73.7"/>
			</g>
			<g>
				<path class="st13" d="M406.1,290.1h-18.6c-1.5,0-2.7-1.2-2.7-2.7V144.2c0-1.5,1.2-2.7,2.7-2.7h18.6c1.5,0,2.7,1.2,2.7,2.7v143.2
					C408.7,288.9,407.6,290.1,406.1,290.1z M390.2,284.8h13.3V146.9h-13.3V284.8z"/>
			</g>
			<g>
				<path class="st13" d="M424.7,290.1h-18.6c-1.5,0-2.7-1.2-2.7-2.7v-130c0-1.5,1.2-2.7,2.7-2.7h18.6c1.5,0,2.7,1.2,2.7,2.7v130
					C427.3,288.9,426.1,290.1,424.7,290.1z M408.7,284.8H422V160.1h-13.3V284.8z"/>
			</g>
		</g>
	</g>
	<g id="Phone" class="st1">
		<polygon class="st14" points="286.7,268.9 292,258.6 351,274.8 352.1,282 350.4,289.1 344.3,286.7 307.7,273.8 		"/>
		<polygon class="st14" points="258.6,348.8 260.8,357.7 321.1,372.7 330.9,366.9 324.2,360.2 267.7,346 		"/>
		<polygon class="st8" points="266.5,344.1 284.6,271.8 343.1,284.8 324.2,360.2 		"/>
		<polygon class="st14" points="324.2,360.2 341.3,286 351,286.7 329.2,371.1 324.2,373 		"/>
		<polygon class="st14" points="258.4,346 280.4,263.9 287.4,258.3 295.6,259.3 290.2,271.3 285.2,271.8 267.9,346 258.6,351.6 		
			"/>
		<path class="st15" d="M321.1,372.7l-56.6-14.2c-4.3-1.1-7-5.5-5.9-9.8l21.2-84.9c1.1-4.3,5.5-7,9.8-5.9l56.6,14.2
			c4.3,1.1,7,5.5,5.9,9.8l-21.2,84.9C329.8,371.2,325.4,373.8,321.1,372.7z"/>
		<path class="st15" d="M321.3,359.5l-51.6-12.9c-0.8-0.2-1.3-1.1-1-1.9l18.1-72.3c0.2-0.9,1-1.4,1.8-1.2l51.6,12.9
			c0.8,0.2,1.3,1.1,1,1.9l-18.1,72.3C322.9,359.1,322.1,359.7,321.3,359.5z"/>
		<path class="st16" d="M299.1,293.8l-9.4-2.4c-0.9-0.2-1.4-1.1-1.2-2l2.4-9.4c0.2-0.9,1.1-1.4,2-1.2l9.4,2.4c0.9,0.2,1.4,1.1,1.2,2
			l-2.4,9.4C300.9,293.5,300,294,299.1,293.8z"/>
		<path class="st16" d="M314.8,297.7l-9.4-2.4c-0.9-0.2-1.4-1.1-1.2-2l2.4-9.4c0.2-0.9,1.1-1.4,2-1.2l9.4,2.4c0.9,0.2,1.4,1.1,1.2,2
			l-2.4,9.4C316.6,297.4,315.7,297.9,314.8,297.7z"/>
		<path class="st6" d="M330.5,301.6l-9.4-2.4c-0.9-0.2-1.4-1.1-1.2-2l2.4-9.4c0.2-0.9,1.1-1.4,2-1.2l9.4,2.4c0.9,0.2,1.4,1.1,1.2,2
			l-2.4,9.4C332.3,301.3,331.4,301.9,330.5,301.6z"/>
		<path class="st16" d="M295.2,309.5l-9.4-2.4c-0.9-0.2-1.4-1.1-1.2-2l2.4-9.4c0.2-0.9,1.1-1.4,2-1.2l9.4,2.4c0.9,0.2,1.4,1.1,1.2,2
			l-2.4,9.4C296.9,309.2,296,309.7,295.2,309.5z"/>
		<path class="st16" d="M310.9,313.4l-9.4-2.4c-0.9-0.2-1.4-1.1-1.2-2l2.4-9.4c0.2-0.9,1.1-1.4,2-1.2l9.4,2.4c0.9,0.2,1.4,1.1,1.2,2
			l-2.4,9.4C312.6,313.1,311.8,313.6,310.9,313.4z"/>
		<path class="st6" d="M326.6,317.4l-9.4-2.4c-0.9-0.2-1.4-1.1-1.2-2l2.4-9.4c0.2-0.9,1.1-1.4,2-1.2l9.4,2.4c0.9,0.2,1.4,1.1,1.2,2
			l-2.4,9.4C328.3,317,327.5,317.6,326.6,317.4z"/>
		<path class="st16" d="M291.2,325.2l-9.4-2.4c-0.9-0.2-1.4-1.1-1.2-2l2.4-9.4c0.2-0.9,1.1-1.4,2-1.2l9.4,2.4c0.9,0.2,1.4,1.1,1.2,2
			l-2.4,9.4C293,324.9,292.1,325.4,291.2,325.2z"/>
		<path class="st6" d="M306.9,329.1l-9.4-2.4c-0.9-0.2-1.4-1.1-1.2-2l2.4-9.4c0.2-0.9,1.1-1.4,2-1.2l9.4,2.4c0.9,0.2,1.4,1.1,1.2,2
			l-2.4,9.4C308.7,328.8,307.8,329.4,306.9,329.1z"/>
		<path class="st16" d="M286.5,344.1l-9.4-2.4c-0.9-0.2-1.4-1.1-1.2-2l2.4-9.4c0.2-0.9,1.1-1.4,2-1.2l9.4,2.4c0.9,0.2,1.4,1.1,1.2,2
			l-2.4,9.4C288.3,343.7,287.4,344.3,286.5,344.1z"/>
		<path class="st16" d="M302.2,348l-9.4-2.4c-0.9-0.2-1.4-1.1-1.2-2l2.4-9.4c0.2-0.9,1.1-1.4,2-1.2l9.4,2.4c0.9,0.2,1.4,1.1,1.2,2
			l-2.4,9.4C304,347.7,303.1,348.2,302.2,348z"/>
		<path class="st16" d="M317.9,351.9l-9.4-2.4c-0.9-0.2-1.4-1.1-1.2-2l2.4-9.4c0.2-0.9,1.1-1.4,2-1.2l9.4,2.4c0.9,0.2,1.4,1.1,1.2,2
			l-2.4,9.4C319.7,351.6,318.8,352.1,317.9,351.9z"/>
	</g>
	<g id="Laptop" class="st1">
		<polygon class="st17" points="56.1,348.9 57.3,361 64.9,366.6 234.3,366.6 244.1,357.5 242.3,349.2 		"/>
		<polygon class="st14" points="68.9,250 68.9,348.9 81.4,348.9 80,248.7 81.7,246.8 219.2,246.8 219.2,348.9 231.1,348.9 
			231.1,240.3 222.2,233.3 77,234.3 67.9,242.6 		"/>
		<polygon class="st8" points="80,272.9 80,346.9 219.2,348.9 219.2,269.9 80,269.9 		"/>
		<polygon class="st11" points="92.1,287.1 92.1,316.2 95.1,321.3 116.3,301.7 130.8,314.6 151.7,298 149.6,282 95.1,284.8 		"/>
		<polygon class="st6" points="80,248.7 80,272.9 219.2,269.9 219.2,246.8 81.7,246.8 		"/>
		<polygon class="st6" points="95.1,321.3 116.3,301.7 130.8,314.6 147.8,301.7 148.6,324.4 		"/>
		<g>
			<rect x="80" y="266.9" class="st16" width="139.2" height="6.1"/>
		</g>
		<g>
			<path class="st18" d="M231.3,351.6H67.9c-1.7,0-3-1.4-3-3V245.7c0-8.3,6.8-15.1,15.1-15.1h139.2c8.3,0,15.1,6.8,15.1,15.1v102.9
				C234.3,350.2,233,351.6,231.3,351.6z M70.9,345.5h157.4v-99.9c0-5-4.1-9.1-9.1-9.1H80c-5,0-9.1,4.1-9.1,9.1V345.5z"/>
		</g>
		<g>
			<path class="st18" d="M231.3,369.7H67.9c-8.3,0-15.1-6.8-15.1-15.1v-6.1c0-1.7,1.4-3,3-3h187.6c1.7,0,3,1.4,3,3v6.1
				C246.4,363,239.6,369.7,231.3,369.7z M58.8,351.6v3c0,5,4.1,9.1,9.1,9.1h163.4c5,0,9.1-4.1,9.1-9.1v-3H58.8z"/>
		</g>
		<g>
			<path class="st18" d="M219.2,351.6H80c-1.7,0-3-1.4-3-3V245.7c0-1.7,1.4-3,3-3h139.2c1.7,0,3,1.4,3,3v102.9
				C222.2,350.2,220.9,351.6,219.2,351.6z M83,345.5h133.2v-96.8H83V345.5z"/>
		</g>
		<g>
			<circle class="st16" cx="92.1" cy="257.8" r="6.1"/>
		</g>
		<g>
			<circle class="st16" cx="107.2" cy="257.8" r="6.1"/>
		</g>
		<g>
			<circle class="st16" cx="122.4" cy="257.8" r="6.1"/>
		</g>
		<g>
			<path class="st16" d="M138.4,326.5l-22.1-22.1l-22.1,22.1l-4.3-4.3l24.2-24.2c1.2-1.2,3.1-1.2,4.3,0l24.2,24.2L138.4,326.5z"/>
		</g>
		<g>
			
				<rect x="129.5" y="305.4" transform="matrix(0.7071 -0.7071 0.7071 0.7071 -176.7502 190.219)" class="st16" width="23.5" height="6.1"/>
		</g>
		<g>
			<polygon class="st13" points="166.2,301.7 185.9,310.7 173.8,321.3 			"/>
			<path class="st13" d="M173.8,324.4c-0.2,0-0.5,0-0.7-0.1c-1-0.2-1.7-0.9-2.1-1.8l-7.6-19.7c-0.4-1.1-0.1-2.5,0.8-3.3
				c0.9-0.8,2.2-1.1,3.3-0.5l19.7,9.1c0.9,0.4,1.6,1.3,1.7,2.3c0.1,1-0.2,2-1,2.7l-12.1,10.6C175.2,324.1,174.5,324.4,173.8,324.4z
				 M171.7,307.5l3.3,8.7l5.3-4.7L171.7,307.5z"/>
		</g>
		<g>
			
				<rect x="182.9" y="312.8" transform="matrix(0.7071 -0.7071 0.7071 0.7071 -172.7375 225.5944)" class="st13" width="6.1" height="17.1"/>
		</g>
		<g>
			<path class="st13" d="M149.6,327.4H92.1c-1.7,0-3-1.4-3-3V285c0-1.7,1.4-3,3-3h57.5c1.7,0,3,1.4,3,3v39.3
				C152.6,326,151.3,327.4,149.6,327.4z M95.1,321.3h51.4V288H95.1V321.3z"/>
		</g>
	</g>
</g>
<g id="Layer_4">
	<polygon class="st8" points="233.6,271.9 255.4,239.2 279.3,239.8 284.5,197.2 304.4,179.6 340.9,176.3 367.5,187.7 372.5,210.9 
		394,212.6 407.3,237 414,239.2 441.3,261.5 440,284.3 433.9,301.6 416.4,312.8 394,319.1 269.9,318.8 244.6,305.8 	"/>
</g>
<g id="Layer_3">
	<line class="st19" x1="33.9" y1="369.8" x2="437.2" y2="369.8"/>
	<g>
		<g>
			<polygon class="st20" points="112.9,251.7 131.4,261.5 143.2,285.6 151.5,284.3 138.1,253.4 110.4,241.2 			"/>
			<polygon class="st20" points="66,297.8 63.9,274.2 74.9,256.5 93.1,244.4 113.6,242.2 113.6,253.6 102.8,253.2 93.8,255.5 
				82.5,264.8 74.4,277.9 76.3,301.6 			"/>
			<polygon class="st20" points="74,294.4 85.9,312.5 104.5,319.1 124.3,314.9 138.8,299.2 139.8,278.7 151.5,279.9 147.8,302.5 
				138.1,317.5 121.8,326.8 96.6,328.2 80.2,319.1 66,300.5 			"/>
		</g>
		<g>
			<polygon class="st14" points="71.7,335.6 94.7,347.5 94.7,365.2 120.2,365.2 120.2,347.5 142,338.3 138.1,317.5 121.8,329.6 
				104.2,329.4 81.4,321.6 			"/>
			<polygon class="st14" points="142,258.9 161,248 167.3,273.3 187.5,273.3 187.5,299.2 168.4,299.2 160.1,319.1 172.4,332 
				156.4,353 142,338.3 132.2,321.6 150.5,299.2 153.6,285.6 			"/>
			<polygon class="st14" points="71.1,233.6 82,249.6 102.9,242.4 129.7,247.3 143.2,261.5 172.4,238 155,221.1 143.2,233.4 
				121.1,225.2 120.4,205.7 95.1,205.7 94.6,225.2 			"/>
			<polygon class="st14" points="29.9,275.3 29.9,295.9 46.8,295.9 57.2,321 45.3,332.9 59.9,347.5 75,335.3 81.4,321.6 62.9,299.2 
				63.9,274.2 71.1,260.1 85.1,246.6 60.8,221.1 45.3,238.3 57.5,253.4 47,272.1 			"/>
		</g>
		<g>
			<g>
				<path class="st18" d="M120.1,368H94.3c-1.4,0-2.6-1.2-2.6-2.6v-17.3c-6.3-1.5-12.3-4-17.8-7.4L61.7,353c-1,1-2.7,1-3.6,0
					l-18.2-18.2c-1-1-1-2.6,0-3.6l12.3-12.3c-3.4-5.6-5.8-11.5-7.4-17.8H27.4c-1.4,0-2.6-1.2-2.6-2.6v-25.8c0-1.4,1.2-2.6,2.6-2.6
					h17.3c1.5-6.3,4-12.3,7.4-17.8l-12.3-12.3c-1-1-1-2.6,0-3.6L58,218.2c0.5-0.5,1.1-0.8,1.8-0.8l0,0c0.7,0,1.3,0.3,1.8,0.8
					l12.3,12.3c5.6-3.4,11.5-5.8,17.8-7.4v-17.3c0-1.4,1.2-2.6,2.6-2.6h25.8c1.4,0,2.6,1.2,2.6,2.6v17.3c6.3,1.5,12.3,4,17.8,7.4
					l12.3-12.3c1-1,2.7-1,3.6,0l18.2,18.2c1,1,1,2.6,0,3.6l-12.3,12.3c3.4,5.6,5.8,11.5,7.4,17.8H187c1.4,0,2.6,1.2,2.6,2.6v25.8
					c0,1.4-1.2,2.6-2.6,2.6h-17.3c-1.5,6.3-4,12.3-7.4,17.8l12.3,12.3c1,1,1,2.6,0,3.6L156.4,353c-0.5,0.5-1.1,0.8-1.8,0.8l0,0
					c-0.7,0-1.3-0.3-1.8-0.8l-12.3-12.3c-5.6,3.4-11.5,5.8-17.8,7.4v17.3C122.6,366.8,121.5,368,120.1,368z M96.9,362.9h20.6V346
					c0-1.2,0.9-2.3,2-2.5c7.1-1.5,13.8-4.3,19.9-8.3c1-0.7,2.4-0.5,3.2,0.3l11.9,11.9l14.6-14.6L157.2,321c-0.9-0.9-1-2.2-0.3-3.2
					c4-6.1,6.7-12.8,8.3-19.9c0.3-1.2,1.3-2,2.5-2h16.8v-20.6h-16.8c-1.2,0-2.3-0.9-2.5-2c-1.5-7.1-4.3-13.8-8.3-19.9
					c-0.7-1-0.5-2.4,0.3-3.2l11.9-11.9l-14.6-14.6l-11.9,11.9c-0.9,0.9-2.2,1-3.2,0.3c-6.1-4-12.8-6.8-19.9-8.3
					c-1.2-0.3-2-1.3-2-2.5v-16.8H96.9v16.8c0,1.2-0.9,2.3-2,2.5c-7.1,1.5-13.8,4.3-19.9,8.3c-1,0.7-2.4,0.5-3.2-0.3l-11.9-11.9
					l-14.6,14.6l11.9,11.9c0.9,0.9,1,2.2,0.3,3.2c-4,6.1-6.7,12.8-8.3,19.9c-0.3,1.2-1.3,2-2.5,2H29.9v20.6h16.8
					c1.2,0,2.3,0.9,2.5,2c1.5,7.1,4.3,13.8,8.3,19.9c0.7,1,0.5,2.4-0.3,3.2l-11.9,11.9l14.6,14.6l11.9-11.9c0.9-0.9,2.2-1,3.2-0.3
					c6.1,4,12.8,6.8,19.9,8.3c1.2,0.3,2,1.3,2,2.5V362.9z"/>
			</g>
			<g>
				<path class="st18" d="M107.2,332c-25.6,0-46.4-20.8-46.4-46.4c0-25.6,20.8-46.4,46.4-46.4c25.6,0,46.4,20.8,46.4,46.4
					C153.6,311.2,132.8,332,107.2,332z M107.2,244.4c-22.7,0-41.2,18.5-41.2,41.2c0,22.7,18.5,41.2,41.2,41.2
					c22.7,0,41.2-18.5,41.2-41.2C148.4,262.9,129.9,244.4,107.2,244.4z"/>
			</g>
			<g>
				<path class="st18" d="M107.2,321.6c-19.9,0-36.1-16.2-36.1-36c0-19.9,16.2-36.1,36.1-36.1c19.9,0,36.1,16.2,36.1,36.1
					C143.2,305.5,127.1,321.6,107.2,321.6z M107.2,254.7c-17,0-30.9,13.9-30.9,30.9c0,2.8,0.4,5.6,1.1,8.2
					c3.6,13.1,15.6,22.7,29.8,22.7c17,0,30.9-13.9,30.9-30.9C138.1,268.6,124.2,254.7,107.2,254.7z"/>
			</g>
		</g>
	</g>
	<g>
		<g>
			<g>
				<rect x="244.6" y="285.9" class="st7" width="6.6" height="6.6"/>
			</g>
			<g>
				<rect x="271.2" y="285.9" class="st7" width="6.6" height="6.6"/>
			</g>
			<g>
				<rect x="297.8" y="285.9" class="st7" width="6.6" height="6.6"/>
			</g>
			<g>
				<rect x="324.3" y="285.9" class="st7" width="6.6" height="6.6"/>
			</g>
			<g>
				<rect x="350.9" y="285.9" class="st7" width="6.6" height="6.6"/>
			</g>
			<g>
				<rect x="377.4" y="285.9" class="st7" width="6.6" height="6.6"/>
			</g>
			<g>
				<rect x="404" y="285.9" class="st7" width="6.6" height="6.6"/>
			</g>
			<g>
				<rect x="430.6" y="285.9" class="st7" width="6.6" height="6.6"/>
			</g>
			<g>
				<rect x="238" y="292.5" class="st7" width="6.6" height="6.6"/>
			</g>
			<g>
				<rect x="251.3" y="292.5" class="st7" width="6.6" height="6.6"/>
			</g>
			<g>
				<rect x="264.6" y="292.5" class="st7" width="6.6" height="6.6"/>
			</g>
			<g>
				<rect x="277.8" y="292.5" class="st7" width="6.6" height="6.6"/>
			</g>
			<g>
				<rect x="291.1" y="292.5" class="st7" width="6.6" height="6.6"/>
			</g>
			<g>
				<rect x="304.4" y="292.5" class="st7" width="6.6" height="6.6"/>
			</g>
			<g>
				<rect x="317.7" y="292.5" class="st7" width="6.6" height="6.6"/>
			</g>
			<g>
				<rect x="331" y="292.5" class="st7" width="6.6" height="6.6"/>
			</g>
			<g>
				<rect x="344.2" y="292.5" class="st7" width="6.6" height="6.6"/>
			</g>
			<g>
				<rect x="357.5" y="292.5" class="st7" width="6.6" height="6.6"/>
			</g>
			<g>
				<rect x="370.8" y="292.5" class="st7" width="6.6" height="6.6"/>
			</g>
			<g>
				<rect x="384.1" y="292.5" class="st7" width="6.6" height="6.6"/>
			</g>
			<g>
				<rect x="397.4" y="292.5" class="st7" width="6.6" height="6.6"/>
			</g>
			<g>
				<rect x="410.6" y="292.5" class="st7" width="6.6" height="6.6"/>
			</g>
			<g>
				<rect x="423.9" y="292.5" class="st7" width="6.6" height="6.6"/>
			</g>
			<g>
				<rect x="244.6" y="299.2" class="st7" width="6.6" height="6.6"/>
			</g>
			<g>
				<rect x="257.9" y="299.2" class="st7" width="6.6" height="6.6"/>
			</g>
			<g>
				<rect x="271.2" y="299.2" class="st7" width="6.6" height="6.6"/>
			</g>
			<g>
				<rect x="284.5" y="299.2" class="st7" width="6.6" height="6.6"/>
			</g>
			<g>
				<rect x="297.8" y="299.2" class="st7" width="6.6" height="6.6"/>
			</g>
			<g>
				<rect x="311" y="299.2" class="st7" width="6.6" height="6.6"/>
			</g>
			<g>
				<rect x="324.3" y="299.2" class="st7" width="6.6" height="6.6"/>
			</g>
			<g>
				<rect x="337.6" y="299.2" class="st7" width="6.6" height="6.6"/>
			</g>
			<g>
				<rect x="350.9" y="299.2" class="st7" width="6.6" height="6.6"/>
			</g>
			<g>
				<rect x="364.2" y="299.2" class="st7" width="6.6" height="6.6"/>
			</g>
			<g>
				<rect x="377.4" y="299.2" class="st7" width="6.6" height="6.6"/>
			</g>
			<g>
				<rect x="390.7" y="299.2" class="st7" width="6.6" height="6.6"/>
			</g>
			<g>
				<rect x="404" y="299.2" class="st7" width="6.6" height="6.6"/>
			</g>
			<g>
				<rect x="417.3" y="299.2" class="st7" width="6.6" height="6.6"/>
			</g>
			<g>
				<rect x="251.3" y="305.8" class="st7" width="6.6" height="6.6"/>
			</g>
			<g>
				<rect x="264.6" y="305.8" class="st7" width="6.6" height="6.6"/>
			</g>
			<g>
				<rect x="277.8" y="305.8" class="st7" width="6.6" height="6.6"/>
			</g>
			<g>
				<rect x="291.1" y="305.8" class="st7" width="6.6" height="6.6"/>
			</g>
			<g>
				<rect x="304.4" y="305.8" class="st7" width="6.6" height="6.6"/>
			</g>
			<g>
				<rect x="317.7" y="305.8" class="st7" width="6.6" height="6.6"/>
			</g>
			<g>
				<rect x="331" y="305.8" class="st7" width="6.6" height="6.6"/>
			</g>
			<g>
				<rect x="344.2" y="305.8" class="st7" width="6.6" height="6.6"/>
			</g>
			<g>
				<rect x="357.5" y="305.8" class="st7" width="6.6" height="6.6"/>
			</g>
			<g>
				<rect x="370.8" y="305.8" class="st7" width="6.6" height="6.6"/>
			</g>
			<g>
				<rect x="384.1" y="305.8" class="st7" width="6.6" height="6.6"/>
			</g>
			<g>
				<rect x="397.4" y="305.8" class="st7" width="6.6" height="6.6"/>
			</g>
			<g>
				<rect x="410.6" y="305.8" class="st7" width="6.6" height="6.6"/>
			</g>
		</g>
		<polygon class="st21" points="236.9,261.5 437.2,263.4 427.2,248 408.4,238.4 398.6,221.1 387.4,212.1 376.5,213.3 360.8,184.9 
			340.3,176.3 311,176.3 289.2,192.7 281.2,208.1 278.9,223.1 277.8,234.2 256.5,240.9 		"/>
		<g>
			<path class="st6" d="M400.7,319.1H271.2c-0.5,0-0.9-0.1-1.3-0.3c-21.7-2.3-38.5-21-38.5-42.9c0-23.8,19.4-43.2,43.2-43.2
				c0.3,0,0.6,0,1,0c-0.6-3.3-1-6.7-1-10c0-29.3,23.8-53.1,53.1-53.1c23.1,0,43.4,14.9,50.5,36.7c15.7-1.6,29.2,10.9,29.2,26.4
				c0,0.2,0,0.4,0,0.5c20.7,3.2,36.5,21.3,36.5,42.6C443.9,299.7,424.5,319.1,400.7,319.1z M272.2,312.5h128.4
				c20.1,0,36.5-16.4,36.5-36.5c0-19-14.8-35-33.7-36.4c-0.9-0.1-1.8-0.5-2.3-1.2c-0.6-0.7-0.8-1.7-0.7-2.6c0.2-1.1,0.2-2.1,0.2-3
				c0-12.4-11.6-22.2-24.2-19.4c-1.7,0.4-3.5-0.7-3.9-2.4c-5.4-20.4-23.8-34.6-44.9-34.6c-25.6,0-46.5,20.9-46.5,46.5
				c0,4.2,0.6,8.5,1.8,12.8c0.3,1.1,0,2.2-0.7,3.1c-0.7,0.8-1.8,1.3-3,1.1c-1.8-0.2-3.4-0.4-4.8-0.4c-20.1,0-36.5,16.4-36.5,36.5
				c0,18.8,14.7,34.8,33.5,36.4C271.7,312.3,272,312.4,272.2,312.5z"/>
		</g>
	</g>
	<g>
		<g>
			<polygon class="st22" points="247.2,138.7 249.8,159.5 236.9,183.1 242.8,189.1 260.3,160.4 254.4,130.6 			"/>
			<polygon class="st22" points="182.5,126.9 200.6,111.7 221.4,110.4 241.8,118.4 255.4,133.9 246.1,140.5 240.2,131.4 
				233.2,125.3 219,121.4 203.7,122.3 185.3,137.5 			"/>
			<polygon class="st22" points="189.9,131.5 182,151.6 187.2,170.7 202.1,184.4 223.2,187.3 240.6,176.3 246.3,186.6 225.7,196.6 
				207.9,197.2 190.9,189.2 175.3,169.4 173.3,150.8 180.3,128.4 			"/>
		</g>
		<g>
			<polygon class="st23" points="154.9,153.3 158.4,179 143.9,189.2 158.5,210 173,199.8 193,212.3 207.9,197.2 188.6,190.8 
				178.7,176.3 171.8,153.2 			"/>
			<polygon class="st23" points="258,166.7 277.9,176 260.8,195.7 272.4,212.2 251.2,227.1 240.3,211.5 219.2,216.1 215.7,233.6 
				189.3,232.6 193,212.3 201.1,194.8 230,196.9 242.8,191.5 			"/>
			<polygon class="st23" points="238,94.2 231.2,112.3 249.1,125.3 260.4,150 256.7,169.2 292.6,179.6 296.5,155.6 279.7,153.1 
				273.6,130.2 289.1,118.5 274.6,97.8 258.4,108.6 			"/>
			<polygon class="st23" points="180.2,84.5 163.4,96.3 173,110.1 158.4,133 141.9,130.1 138.3,150.4 157,155.8 171.8,153.2 
				179.6,125.1 200.6,111.7 216.4,109.4 235.4,113.1 242.4,78.6 219.4,75.7 214,94.4 192.6,96.6 			"/>
		</g>
		<g>
			<path class="st24" d="M156.2,211.5l-14.8-21.1c-0.8-1.2-0.5-2.8,0.6-3.6l14.2-10c-2.3-6-3.7-12.3-4.2-18.8l-17.1-3
				c-1.3-0.2-2.3-1.6-2.1-3l4.4-25.4c0.2-1.4,1.6-2.3,3-2.1l17.1,3c2.6-5.9,6.1-11.4,10.3-16.3l-10-14.2c-0.8-1.2-0.5-2.8,0.6-3.6
				l21.1-14.8c1.2-0.8,2.8-0.5,3.6,0.6l10,14.2c6-2.3,12.3-3.7,18.8-4.2l3-17.1c0.2-1.4,1.6-2.3,3-2.1l25.4,4.4
				c0.7,0.1,1.3,0.5,1.7,1.1l0,0c0.4,0.6,0.5,1.3,0.4,1.9l-3,17.1c6,2.6,11.4,6.1,16.3,10.3l14.2-10c1.2-0.8,2.8-0.5,3.6,0.6
				l14.8,21.1c0.8,1.2,0.5,2.8-0.6,3.6l-14.2,10c2.3,6,3.7,12.3,4.2,18.8l17.1,3c1.3,0.2,2.3,1.6,2.1,3l-4.4,25.4
				c-0.2,1.4-1.6,2.3-3,2.1l-17.1-3c-2.6,5.9-6.1,11.4-10.3,16.3l10,14.2c0.8,1.2,0.5,2.8-0.6,3.6L253,228.4
				c-1.2,0.8-2.8,0.5-3.6-0.6l-10-14.2c-6,2.3-12.3,3.7-18.8,4.2l-3,17.1c-0.2,1.4-1.6,2.3-3,2.1l-25.4-4.4
				c-0.7-0.1-1.3-0.5-1.7-1.1l0,0c-0.4-0.6-0.5-1.3-0.4-1.9l3-17.1c-6-2.6-11.4-6.1-16.3-10.3l-14.2,10
				C158.6,212.9,157,212.7,156.2,211.5z M147.1,189.6l11.8,16.9l13.8-9.7c1-0.7,2.3-0.6,3.2,0.2c5.3,4.9,11.4,8.8,18.2,11.5
				c1.1,0.5,1.8,1.6,1.6,2.8l-2.9,16.6l20.3,3.5l2.9-16.6c0.2-1.2,1.2-2.1,2.4-2.1c7.3-0.3,14.4-1.8,21-4.7c1.1-0.5,2.4-0.1,3.1,0.9
				l9.7,13.8l16.9-11.8l-9.7-13.8c-0.7-1-0.6-2.3,0.2-3.2c4.9-5.3,8.8-11.4,11.5-18.2c0.5-1.1,1.6-1.8,2.8-1.6l16.6,2.9l3.5-20.3
				l-16.6-2.9c-1.2-0.2-2.1-1.2-2.1-2.4c-0.3-7.3-1.8-14.4-4.7-21c-0.5-1.1-0.1-2.4,0.9-3.1l13.8-9.7l-11.8-16.9l-13.8,9.7
				c-1,0.7-2.3,0.6-3.2-0.2c-5.3-4.9-11.4-8.8-18.2-11.5c-1.1-0.5-1.8-1.6-1.6-2.8l2.9-16.6l-20.3-3.5l-2.9,16.6
				c-0.2,1.2-1.2,2.1-2.4,2.1c-7.3,0.3-14.4,1.8-21,4.7c-1.1,0.5-2.4,0.1-3.1-0.9l-9.7-13.8l-16.9,11.8l9.7,13.8
				c0.7,1,0.6,2.3-0.2,3.2c-4.9,5.3-8.8,11.4-11.5,18.2c-0.5,1.1-1.6,1.8-2.8,1.6l-16.6-2.9l-3.5,20.3l16.6,2.9
				c1.2,0.2,2.1,1.2,2.1,2.4c0.3,7.3,1.8,14.4,4.7,21c0.5,1.1,0.1,2.4-0.9,3.1L147.1,189.6z"/>
		</g>
		<g>
			<path class="st24" d="M178.3,180.2c-14.7-20.9-9.6-49.9,11.3-64.6c20.9-14.7,49.9-9.6,64.6,11.3s9.6,49.9-11.3,64.6
				C221.9,206.2,193,201.2,178.3,180.2z M249.9,129.9c-13.1-18.6-38.8-23.1-57.4-10c-18.6,13.1-23.1,38.8-10,57.4
				c13.1,18.6,38.8,23.1,57.4,10C258.5,174.3,263,148.5,249.9,129.9z"/>
		</g>
		<g>
			<path class="st24" d="M186.7,174.3c-11.4-16.3-7.5-38.8,8.8-50.2c16.3-11.4,38.8-7.5,50.2,8.8c11.4,16.3,7.5,38.8-8.8,50.2
				C220.7,194.5,198.1,190.6,186.7,174.3z M241.5,135.8c-9.8-13.9-29.1-17.3-43-7.5c-2.3,1.6-4.4,3.5-6.1,5.6
				c-8.6,10.5-9.6,25.8-1.4,37.4c9.8,13.9,29.1,17.3,43,7.5C247.9,169.1,251.3,149.8,241.5,135.8z"/>
		</g>
	</g>
	<polygon class="st22" points="288,296.2 299,298.3 298.4,285.2 304.6,271 317.9,256.5 331.6,251.6 346.4,249.7 359.7,255.3 
		371.2,264.8 376.8,276.1 382.9,287.9 384.2,298.3 391.6,298.3 392.9,287.6 386.2,268.9 379.6,254.1 367.5,246.4 351.5,237.8 
		336.3,237.8 323.1,239 312,245.2 299.9,256.5 289.9,273.4 	"/>
	<rect x="282.4" y="299.1" class="st20" width="114.7" height="69.8"/>
	<g>
		<g>
			<rect x="369.3" y="298.3" class="st14" width="3.7" height="4.2"/>
		</g>
		<g>
			<rect x="376.8" y="298.3" class="st14" width="3.7" height="4.2"/>
		</g>
		<g>
			<rect x="384.2" y="298.3" class="st14" width="3.7" height="4.2"/>
		</g>
		<g>
			<rect x="391.6" y="298.3" class="st14" width="3.7" height="4.2"/>
		</g>
		<g>
			<rect x="373" y="302.5" class="st14" width="3.7" height="4.2"/>
		</g>
		<g>
			<rect x="380.5" y="302.5" class="st14" width="3.7" height="4.2"/>
		</g>
		<g>
			<rect x="387.9" y="302.5" class="st14" width="3.7" height="4.2"/>
		</g>
		<g>
			<rect x="369.3" y="306.7" class="st14" width="3.7" height="4.2"/>
		</g>
		<g>
			<rect x="376.8" y="306.7" class="st14" width="3.7" height="4.2"/>
		</g>
		<g>
			<rect x="384.2" y="306.7" class="st14" width="3.7" height="4.2"/>
		</g>
		<g>
			<rect x="391.6" y="306.7" class="st14" width="3.7" height="4.2"/>
		</g>
		<g>
			<rect x="373" y="311" class="st14" width="3.7" height="4.2"/>
		</g>
		<g>
			<rect x="380.5" y="311" class="st14" width="3.7" height="4.2"/>
		</g>
		<g>
			<rect x="387.9" y="311" class="st14" width="3.7" height="4.2"/>
		</g>
		<g>
			<rect x="369.3" y="315.2" class="st14" width="3.7" height="4.2"/>
		</g>
		<g>
			<rect x="376.8" y="315.2" class="st14" width="3.7" height="4.2"/>
		</g>
		<g>
			<rect x="384.2" y="315.2" class="st14" width="3.7" height="4.2"/>
		</g>
		<g>
			<rect x="391.6" y="315.2" class="st14" width="3.7" height="4.2"/>
		</g>
		<g>
			<rect x="373" y="319.4" class="st14" width="3.7" height="4.2"/>
		</g>
		<g>
			<rect x="380.5" y="319.4" class="st14" width="3.7" height="4.2"/>
		</g>
		<g>
			<rect x="387.9" y="319.4" class="st14" width="3.7" height="4.2"/>
		</g>
		<g>
			<rect x="369.3" y="323.7" class="st14" width="3.7" height="4.2"/>
		</g>
		<g>
			<rect x="376.8" y="323.7" class="st14" width="3.7" height="4.2"/>
		</g>
		<g>
			<rect x="384.2" y="323.7" class="st14" width="3.7" height="4.2"/>
		</g>
		<g>
			<rect x="391.6" y="323.7" class="st14" width="3.7" height="4.2"/>
		</g>
		<g>
			<rect x="373" y="327.9" class="st14" width="3.7" height="4.2"/>
		</g>
		<g>
			<rect x="380.5" y="327.9" class="st14" width="3.7" height="4.2"/>
		</g>
		<g>
			<rect x="387.9" y="327.9" class="st14" width="3.7" height="4.2"/>
		</g>
		<g>
			<rect x="369.3" y="332.1" class="st14" width="3.7" height="4.2"/>
		</g>
		<g>
			<rect x="376.8" y="332.1" class="st14" width="3.7" height="4.2"/>
		</g>
		<g>
			<rect x="384.2" y="332.1" class="st14" width="3.7" height="4.2"/>
		</g>
		<g>
			<rect x="391.6" y="332.1" class="st14" width="3.7" height="4.2"/>
		</g>
		<g>
			<rect x="373" y="336.4" class="st14" width="3.7" height="4.2"/>
		</g>
		<g>
			<rect x="380.5" y="336.4" class="st14" width="3.7" height="4.2"/>
		</g>
		<g>
			<rect x="387.9" y="336.4" class="st14" width="3.7" height="4.2"/>
		</g>
		<g>
			<rect x="369.3" y="340.6" class="st14" width="3.7" height="4.2"/>
		</g>
		<g>
			<rect x="376.8" y="340.6" class="st14" width="3.7" height="4.2"/>
		</g>
		<g>
			<rect x="384.2" y="340.6" class="st14" width="3.7" height="4.2"/>
		</g>
		<g>
			<rect x="391.6" y="340.6" class="st14" width="3.7" height="4.2"/>
		</g>
		<g>
			<rect x="373" y="344.8" class="st14" width="3.7" height="4.2"/>
		</g>
		<g>
			<rect x="380.5" y="344.8" class="st14" width="3.7" height="4.2"/>
		</g>
		<g>
			<rect x="387.9" y="344.8" class="st14" width="3.7" height="4.2"/>
		</g>
		<g>
			<rect x="369.3" y="349" class="st14" width="3.7" height="4.2"/>
		</g>
		<g>
			<rect x="376.8" y="349" class="st14" width="3.7" height="4.2"/>
		</g>
		<g>
			<rect x="384.2" y="349" class="st14" width="3.7" height="4.2"/>
		</g>
		<g>
			<rect x="391.6" y="349" class="st14" width="3.7" height="4.2"/>
		</g>
		<g>
			<rect x="373" y="353.3" class="st14" width="3.7" height="4.2"/>
		</g>
		<g>
			<rect x="380.5" y="353.3" class="st14" width="3.7" height="4.2"/>
		</g>
		<g>
			<rect x="387.9" y="353.3" class="st14" width="3.7" height="4.2"/>
		</g>
		<g>
			<rect x="369.3" y="357.5" class="st14" width="3.7" height="4.2"/>
		</g>
		<g>
			<rect x="376.8" y="357.5" class="st14" width="3.7" height="4.2"/>
		</g>
		<g>
			<rect x="384.2" y="357.5" class="st14" width="3.7" height="4.2"/>
		</g>
		<g>
			<rect x="391.6" y="357.5" class="st14" width="3.7" height="4.2"/>
		</g>
		<g>
			<rect x="373" y="361.7" class="st14" width="3.7" height="4.2"/>
		</g>
		<g>
			<rect x="380.5" y="361.7" class="st14" width="3.7" height="4.2"/>
		</g>
		<g>
			<rect x="387.9" y="361.7" class="st14" width="3.7" height="4.2"/>
		</g>
	</g>
	<g>
		<path class="st18" d="M397.1,370.2H282.4c-1,0-1.9-0.9-1.9-2.1v-69.8c0-1.2,0.8-2.1,1.9-2.1h114.7c1,0,1.9,0.9,1.9,2.1v69.8
			C399,369.3,398.1,370.2,397.1,370.2z M284.2,366h111v-65.6h-111V366z"/>
	</g>
	<g>
		<g>
			<path class="st18" d="M393.4,300.4h-11.1c-1,0-1.9-0.9-1.9-2.1c0-25.7-18.3-46.5-40.7-46.5S299,272.6,299,298.3
				c0,1.2-0.8,2.1-1.9,2.1h-11.1c-1,0-1.9-0.9-1.9-2.1c0-35,24.9-63.5,55.5-63.5s55.5,28.5,55.5,63.5
				C395.3,299.4,394.4,300.4,393.4,300.4z M384.1,296.2h7.4c-1-31.7-23.8-57.1-51.8-57.1c-27.9,0-50.8,25.4-51.8,57.1h7.4
				c1-27,20.5-48.7,44.4-48.7S383.1,269.1,384.1,296.2z"/>
		</g>
	</g>
	<g>
		<path class="st25" d="M336,325.3c0-5.9-5-10.7-11.1-10.7c-6.1,0-11.1,4.8-11.1,10.7c0,4,2.2,7.4,5.6,9.3v21.1h11.1v-21.1
			C333.8,332.7,336,329.3,336,325.3z"/>
		<path class="st25" d="M330.5,357.5h-11.1c-1,0-1.9-0.8-1.9-1.8v-20.2c-3.4-2.3-5.6-6.2-5.6-10.3c0-6.9,5.8-12.5,13-12.5
			c7.1,0,13,5.6,13,12.5c0,4.1-2.1,7.9-5.6,10.3v20.2C332.3,356.7,331.5,357.5,330.5,357.5z M321.2,353.9h7.4v-19.4
			c0-0.6,0.4-1.2,0.9-1.5c2.9-1.6,4.6-4.6,4.6-7.7c0-4.9-4.2-9-9.3-9c-5.1,0-9.3,4-9.3,9c0,3.2,1.8,6.1,4.6,7.7
			c0.6,0.3,0.9,0.9,0.9,1.5V353.9z"/>
	</g>
	<g>
		<rect x="375.1" y="141.2" class="st3" width="4.6" height="9.2"/>
	</g>
	<g>
		<rect x="375.1" y="164.4" class="st3" width="4.6" height="9.2"/>
	</g>
	<g>
		<rect x="384.4" y="155" class="st3" width="9.2" height="4.6"/>
	</g>
	<polyline class="st3" points="361.3,155 370.5,155 370.5,159.8 361.3,159.8 	"/>
	<g>
		
			<rect x="383.3" y="160.9" transform="matrix(0.7071 -0.7071 0.7071 0.7071 -4.1219 321.1379)" class="st4" width="4.6" height="9.2"/>
	</g>
	<polyline class="st4" points="364.4,147.5 367.6,144.4 374.2,150.9 370.9,154.1 364.4,147.5 	"/>
	<polyline class="st4" points="364.4,167.1 370.9,160.6 374.2,163.9 367.6,170.4 364.4,167.1 	"/>
	<g>
		<rect x="381" y="147" transform="matrix(0.7071 -0.7071 0.7071 0.7071 7.3968 316.3806)" class="st4" width="9.2" height="4.6"/>
	</g>
	<g>
		<rect x="216.6" y="305.4" class="st3" width="4.6" height="9.2"/>
	</g>
	<g>
		<rect x="216.6" y="328.5" class="st3" width="4.6" height="9.2"/>
	</g>
	<g>
		<rect x="225.9" y="319.2" class="st3" width="9.2" height="4.6"/>
	</g>
	<polyline class="st3" points="202.8,319.2 212,319.2 212,323.9 202.8,323.9 	"/>
	<g>
		
			<rect x="224.8" y="325.1" transform="matrix(0.7071 -0.7071 0.7071 0.7071 -166.6099 257.1454)" class="st4" width="4.6" height="9.2"/>
	</g>
	<polyline class="st4" points="205.9,311.7 209.1,308.5 215.7,315 212.4,318.3 205.9,311.7 	"/>
	<polyline class="st4" points="205.9,331.3 212.4,324.8 215.7,328.1 209.1,334.6 205.9,331.3 	"/>
	<g>
		
			<rect x="222.5" y="311.1" transform="matrix(0.7071 -0.7071 0.7071 0.7071 -155.0911 252.3881)" class="st4" width="9.2" height="4.6"/>
	</g>
	<g>
		<rect x="27.8" y="227" class="st5" width="6.1" height="6.1"/>
	</g>
	<g>
		<rect x="15.6" y="239.1" class="st6" width="6.1" height="6.1"/>
	</g>
	<g>
		<rect x="27.8" y="251.3" class="st5" width="6.1" height="6.1"/>
	</g>
	<g>
		<rect x="27.8" y="239.1" class="st7" width="6.1" height="6.1"/>
	</g>
	<g>
		<rect x="304.7" y="102.4" class="st5" width="6.1" height="6.1"/>
	</g>
	<g>
		<rect x="316.9" y="114.5" class="st6" width="6.1" height="6.1"/>
	</g>
	<g>
		<rect x="304.7" y="126.7" class="st5" width="6.1" height="6.1"/>
	</g>
	<g>
		<rect x="304.7" y="114.5" class="st7" width="6.1" height="6.1"/>
	</g>
</g>
</svg>
