<?xml version="1.0" encoding="utf-8"?>
<!-- Generator: Adobe Illustrator 20.1.0, SVG Export Plug-In . SVG Version: 6.00 Build 0)  -->
<svg version="1.1" id="digmarket-layer-1" xmlns="http://www.w3.org/2000/svg" xmlns:xlink="http://www.w3.org/1999/xlink" x="0px"
	 y="0px" viewBox="0 0 482.8 406.1" style="enable-background:new 0 0 482.8 406.1;" xml:space="preserve">
<style type="text/css">
	.st0{opacity:0.25;fill:none;stroke:#000000;stroke-width:6;stroke-miterlimit:10;enable-background:new    ;}
	.st1{fill:#E0E0DC;}
	.st2{fill:#FFCF44;}
	.st3{fill:#A8A79B;}
	.st4{fill:#FAA947;}
	.st5{fill:#FFE19F;}
	.st6{fill:none;}
	.st7{fill:none;stroke:#000000;stroke-width:5;stroke-miterlimit:10;}
	.st8{fill:none;stroke:#FAA947;stroke-width:5;stroke-miterlimit:10;}
	.st9{opacity:0.25;}
	.st10{fill:#FFFFFF;}
	.st11{fill:#FCB867;}
	.st12{fill:#FEE18D;}
</style>
<g id="digmarket-shadow">
	<line class="st0" x1="35.5" y1="368.7" x2="185.2" y2="368.7"/>
	<line class="st0" x1="293.5" y1="368.7" x2="443.2" y2="368.7"/>
</g>
<g id="digmarket-www">
	<circle class="st1" cx="367" cy="268.5" r="83.2"/>
	<polygon class="st2" points="311.5,241.3 300.8,252 300.8,284.1 311.5,294.8 424,294.8 434.7,284.1 432,246.6 424,241.3 	"/>
	<path class="st3" d="M367.8,353.8c-47.3,0-85.7-38.4-85.7-85.7s38.4-85.7,85.7-85.7s85.7,38.4,85.7,85.7S415,353.8,367.8,353.8z
		 M367.8,187.7c-44.3,0-80.3,36-80.3,80.3s36,80.3,80.3,80.3s80.3-36,80.3-80.3S412.1,187.7,367.8,187.7z"/>
	<path class="st3" d="M367.8,236.9c-26.1,0-50.4-6.6-66.7-18.1c-0.6-0.4-1-1.1-1.1-1.8s0.1-1.5,0.5-2c16.4-20.7,40.9-32.6,67.3-32.6
		c26.4,0,50.9,11.9,67.3,32.6c0.5,0.6,0.7,1.3,0.5,2c-0.1,0.7-0.5,1.4-1.1,1.8C418.2,230.3,393.9,236.9,367.8,236.9z M306.5,216.1
		c15.4,9.9,37.5,15.5,61.2,15.5s45.9-5.6,61.2-15.5c-15.3-18.1-37.5-28.4-61.2-28.4C344,187.7,321.9,198,306.5,216.1z"/>
	<path class="st3" d="M367.8,353.8c-26.4,0-50.9-11.9-67.3-32.6c-0.5-0.6-0.7-1.3-0.5-2c0.1-0.7,0.5-1.4,1.1-1.8
		c16.3-11.5,40.6-18.1,66.7-18.1c26.1,0,50.4,6.6,66.7,18.1c0.6,0.4,1,1.1,1.1,1.8c0.1,0.7-0.1,1.5-0.5,2
		C418.7,341.9,394.1,353.8,367.8,353.8z M306.5,320c15.3,18.1,37.5,28.4,61.2,28.4c23.8,0,45.9-10.3,61.2-28.4
		c-15.4-9.9-37.5-15.5-61.2-15.5C344,304.6,321.9,310.2,306.5,320z"/>
	<rect x="432" y="265.4" class="st3" width="21.4" height="5.4"/>
	<rect x="365.1" y="292.2" class="st3" width="5.4" height="61.6"/>
	<rect x="365.1" y="182.4" class="st3" width="5.4" height="61.6"/>
	<path class="st3" d="M367.8,353.8c-20.5,0-38.1-24.6-43.8-61.2c-0.1-0.8,0.1-1.6,0.6-2.2s1.3-0.9,2-0.9H409c0.8,0,1.5,0.3,2,0.9
		s0.7,1.4,0.6,2.2C405.9,329.2,388.2,353.8,367.8,353.8z M329.7,294.8c5.7,31.7,21.1,53.6,38,53.6s32.3-21.9,38-53.6H329.7z"/>
	<path class="st3" d="M409,246.6h-82.4c-0.8,0-1.5-0.3-2-0.9c-0.5-0.6-0.7-1.4-0.6-2.2c5.8-36.6,23.4-61.2,43.8-61.2
		c20.5,0,38.1,24.6,43.8,61.2c0.1,0.8-0.1,1.6-0.6,2.2C410.5,246.3,409.7,246.6,409,246.6z M329.7,241.3h76.1
		c-5.7-31.7-21.1-53.6-38-53.6C350.9,187.7,335.4,209.6,329.7,241.3z"/>
	<path class="st4" d="M424,294.8H311.5c-5.9,0-10.7-4.8-10.7-10.7V252c0-5.9,4.8-10.7,10.7-10.7H424c5.9,0,10.7,4.8,10.7,10.7v32.1
		C434.7,290,429.9,294.8,424,294.8z M311.5,246.6c-3,0-5.4,2.4-5.4,5.4v32.1c0,3,2.4,5.4,5.4,5.4H424c3,0,5.4-2.4,5.4-5.4V252
		c0-3-2.4-5.4-5.4-5.4H311.5z"/>
	<polygon class="st4" points="314.2,252 316.9,284.1 324.9,284.1 330.3,265.4 335.6,284.1 343.7,284.1 346.3,252 341,252 
		338.3,276.1 333,252 327.6,252 322.2,276.1 319.6,252 	"/>
	<polygon class="st4" points="351.7,252 354.4,284.1 362.4,284.1 367.8,265.4 373.1,284.1 381.2,284.1 383.8,252 378.5,252 
		375.8,276.1 370.4,252 365.1,252 359.7,276.1 357.1,252 	"/>
	<polygon class="st4" points="389.2,252 391.9,284.1 399.9,284.1 405.3,265.4 410.6,284.1 418.7,284.1 421.3,252 416,252 
		413.3,276.1 407.9,252 402.6,252 397.2,276.1 394.5,252 	"/>
</g>
<g id="digmarket-megaphone">
	<polyline class="st5" points="52,303.4 53.3,257.1 73,262.1 186.6,218.6 185,329.6 73.7,286.9 48.4,301.2 	"/>
	<polyline class="st2" points="73,289.7 71.8,330.1 93,330 92.3,297 73,289.7 	"/>
	<polygon class="st2" points="189.9,267.7 187.5,291.6 194.8,286.1 196.7,270.9 	"/>
	<path class="st4" d="M187.5,335.6c-0.3,0-0.6-0.1-0.9-0.2L73,291.9l-21,11.5c-0.8,0.4-1.7,0.4-2.4,0s-1.2-1.2-1.2-2.1V253
		c0-0.9,0.5-1.7,1.2-2.1c0.7-0.4,1.6-0.5,2.4-0.1l21,11.3l113.6-43.5c0.7-0.3,1.6-0.2,2.3,0.3s1.1,1.2,1.1,2v112.2
		c0,0.8-0.4,1.6-1.1,2C188.4,335.4,188,335.6,187.5,335.6z M72.8,286.8c0.3,0,0.6,0.1,0.9,0.2L185,329.6V224.4L73.7,267.1
		c-0.7,0.2-1.4,0.2-2-0.1l-18.4-9.9v40l18.3-10C72,286.9,72.4,286.8,72.8,286.8z"/>
	<path class="st4" d="M187.5,291.6c-1.3,0-2.4-1.1-2.4-2.4v-24.4c0-1.3,1.1-2.4,2.4-2.4c6.7,0,12.2,5.5,12.2,12.2v4.9
		C199.7,286.2,194.2,291.6,187.5,291.6z M189.9,267.7v18.7c2.8-1,4.9-3.7,4.9-6.9v-4.9C194.8,271.4,192.7,268.7,189.9,267.7z"/>
	<path class="st4" d="M140.4,286.1l-3.4-3.4c2.9-2.9,2.9-8.3,0-11.2l3.4-3.4C145.1,272.7,145.1,281.3,140.4,286.1z"/>
	<path class="st4" d="M150.2,293.4l-3.4-3.4c6.6-6.6,6.6-19.2,0-25.8l3.4-3.4C158.7,269.2,158.7,284.8,150.2,293.4z"/>
	<path class="st4" d="M159.9,301.9l-3.4-3.4c5.3-5.3,8.3-13.1,8.3-21.5s-3-16.2-8.3-21.5l3.4-3.4c6.2,6.2,9.8,15.3,9.8,24.9
		S166.1,295.7,159.9,301.9z"/>
	<rect x="116.7" y="286.8" class="st2" width="4.9" height="4.9"/>
	<rect x="107" y="286.8" class="st2" width="4.9" height="4.9"/>
	<rect x="97.2" y="286.8" class="st2" width="4.9" height="4.9"/>
	<rect x="126.5" y="296.5" class="st2" width="4.9" height="4.9"/>
	<rect x="126.5" y="286.8" class="st2" width="4.9" height="4.9"/>
	<rect x="116.7" y="296.5" class="st2" width="4.9" height="4.9"/>
	<rect x="87.4" y="286.8" class="st2" width="4.9" height="4.9"/>
	<rect x="116.7" y="277" class="st2" width="4.9" height="4.9"/>
	<rect x="107" y="277" class="st2" width="4.9" height="4.9"/>
	<rect x="146" y="296.5" class="st2" width="4.9" height="4.9"/>
	<rect x="136.2" y="296.5" class="st2" width="4.9" height="4.9"/>
	<rect x="165.5" y="303.6" class="st2" width="4.9" height="4.9"/>
	<rect x="97.2" y="277" class="st2" width="4.9" height="4.9"/>
	<rect x="87.4" y="277" class="st2" width="4.9" height="4.9"/>
	<line class="st6" x1="71.6" y1="298.8" x2="71.6" y2="298.8"/>
	<path class="st7" d="M71.8,289.2"/>
	<path class="st8" d="M91.2,331.8H73.6c-1,0-1.8-0.8-1.8-1.8v-39.6c0-0.6,0.6-1,1.2-0.8l19.3,7.4l0.7,33
		C93,331,92.2,331.8,91.2,331.8z"/>
</g>
<g id="digmarket-target" class="st9">
	<path class="st10" d="M249.2,166.6c-32.1,0-58.3-26.2-58.3-58.3S217.1,50,249.2,50s58.3,26.2,58.3,58.3S281.4,166.6,249.2,166.6z
		 M249.2,61.6c-25.7,0-46.7,20.9-46.7,46.7s20.9,46.7,46.7,46.7s46.7-20.9,46.7-46.7S275,61.6,249.2,61.6z"/>
	<path class="st10" d="M249.2,143.3c-19.3,0-35-15.7-35-35s15.7-35,35-35s35,15.7,35,35S268.6,143.3,249.2,143.3z M249.2,84.9
		c-12.9,0-23.3,10.4-23.3,23.3s10.4,23.3,23.3,23.3s23.3-10.4,23.3-23.3S262.1,84.9,249.2,84.9z"/>
	<circle class="st10" cx="249.2" cy="108.3" r="11.7"/>
	<path class="st10" d="M196.7,114.1h-35c-3.2,0-5.8-2.6-5.8-5.8c0-3.2,2.6-5.8,5.8-5.8h35c3.2,0,5.8,2.6,5.8,5.8
		C202.6,111.5,200,114.1,196.7,114.1z"/>
	<path class="st10" d="M336.8,114.1h-35c-3.2,0-5.8-2.6-5.8-5.8c0-3.2,2.6-5.8,5.8-5.8h35c3.2,0,5.8,2.6,5.8,5.8
		C342.6,111.5,340,114.1,336.8,114.1z"/>
	<path class="st10" d="M249.2,61.6c-3.2,0-5.8-2.6-5.8-5.8v-35c0-3.2,2.6-5.8,5.8-5.8s5.8,2.6,5.8,5.8v35
		C255.1,59,252.5,61.6,249.2,61.6z"/>
	<path class="st10" d="M249.2,201.6c-3.2,0-5.8-2.6-5.8-5.8v-35c0-3.2,2.6-5.8,5.8-5.8s5.8,2.6,5.8,5.8v35
		C255.1,199,252.5,201.6,249.2,201.6z"/>
	<path class="st10" d="M175.5,96.7c-0.5,0-0.9-0.1-1.3-0.2c-3.2-0.8-5.1-3.9-4.4-7c7-29.9,30.9-53.7,60.8-60.7
		c3.2-0.7,6.3,1.2,7,4.4c0.8,3.2-1.2,6.3-4.4,7c-25.6,6-46,26.4-52,52C180.5,94.9,178.1,96.7,175.5,96.7z"/>
	<path class="st10" d="M231.9,187.8c-0.5,0-0.9-0.1-1.3-0.2c-29.9-7-53.7-30.9-60.7-60.7c-0.8-3.2,1.2-6.3,4.4-7
		c3.1-0.7,6.3,1.2,7,4.4c6,25.6,26.4,46,52,52c3.2,0.8,5.1,3.9,4.4,7C236.9,186,234.5,187.8,231.9,187.8z"/>
	<path class="st10" d="M266.6,187.8c-2.6,0-5-1.8-5.7-4.5c-0.8-3.2,1.2-6.3,4.4-7c25.6-6,46-26.4,52-52c0.8-3.2,3.9-5.1,7-4.4
		c3.2,0.8,5.1,3.9,4.4,7c-7,29.9-30.9,53.7-60.7,60.7C267.5,187.8,267,187.8,266.6,187.8z"/>
	<path class="st10" d="M323,96.7c-2.6,0-5-1.8-5.7-4.5c-6-25.6-26.4-46-52-52c-3.2-0.8-5.1-3.9-4.4-7c0.8-3.2,3.9-5.1,7-4.4
		c29.9,7,53.7,30.9,60.7,60.7c0.8,3.2-1.2,6.3-4.4,7C323.9,96.7,323.5,96.7,323,96.7z"/>
</g>
<g id="digmarket-sparkle">
	
		<rect x="183" y="193.8" transform="matrix(0.7071 -0.7071 0.7071 0.7071 -82.656 193.0209)" class="st11" width="17.3" height="4.9"/>
	<g id="digmarket-sparkles">
		<path class="st12" d="M133.3,220.7c-0.3,0-0.6-0.1-0.9-0.2c-0.9-0.4-1.5-1.3-1.5-2.3v-3.9l-5.6,5.6l-3.4-3.4l9.8-9.8
			c0.7-0.7,1.7-0.9,2.7-0.5c0.9,0.4,1.5,1.3,1.5,2.3v3.9l5.6-5.6l3.4,3.4L135,220C134.6,220.4,133.9,220.7,133.3,220.7z"/>
		<path class="st11" d="M126,203.6c-0.3,0-0.6-0.1-0.9-0.2c-0.9-0.4-1.5-1.3-1.5-2.3v-3.9l-5.6,5.6l-3.4-3.4l9.8-9.8
			c0.7-0.7,1.7-0.9,2.7-0.5c0.9,0.4,1.5,1.3,1.5,2.3v3.9l5.6-5.6l3.4,3.4l-9.8,9.8C127.2,203.4,126.6,203.6,126,203.6z"/>
		<path class="st12" d="M106.5,223.1c-0.3,0-0.6-0.1-0.9-0.2c-0.9-0.4-1.5-1.3-1.5-2.3v-3.9l-5.6,5.6L95,219l9.8-9.8
			c0.7-0.7,1.7-0.9,2.7-0.5c0.9,0.4,1.5,1.3,1.5,2.3v3.9l5.6-5.6l3.4,3.4l-9.8,9.8C107.7,222.9,107.1,223.1,106.5,223.1z"/>
		<rect x="53.2" y="327.2" class="st12" width="4.9" height="9.8"/>
		<rect x="53.2" y="346.7" class="st12" width="4.9" height="9.8"/>
		<rect x="60.5" y="339.4" class="st11" width="9.8" height="4.9"/>
		<rect x="41" y="339.4" class="st11" width="9.8" height="4.9"/>
		
			<rect x="189.1" y="187.7" transform="matrix(0.7071 -0.7071 0.7071 0.7071 -82.7267 192.9917)" class="st12" width="4.9" height="17.3"/>
		<rect x="439.3" y="153.5" class="st11" width="4.9" height="9.9"/>
		<rect x="439.3" y="173.3" class="st11" width="4.9" height="9.9"/>
		<polyline class="st12" points="456.6,165.9 456.6,170.8 446.7,170.8 446.7,165.9 456.6,165.9 		"/>
		<rect x="426.9" y="165.9" class="st12" width="9.9" height="4.9"/>
		<rect x="290.3" y="328.5" class="st12" width="4.9" height="4.9"/>
		<rect x="290.3" y="342.9" class="st12" width="4.9" height="4.9"/>
		<rect x="297.7" y="335.9" class="st11" width="4.9" height="4.9"/>
		<rect x="282.9" y="335.9" class="st11" width="4.9" height="4.9"/>
		<rect x="38.6" y="224.6" class="st12" width="4.9" height="4.9"/>
		<rect x="38.6" y="239.4" class="st12" width="4.9" height="4.9"/>
		<rect x="46" y="232" class="st11" width="4.9" height="4.9"/>
		<rect x="31.1" y="232" class="st11" width="4.9" height="4.9"/>
	</g>
</g>
</svg>
