<?xml version="1.0" encoding="utf-8"?>
<!-- Generator: Adobe Illustrator 20.1.0, SVG Export Plug-In . SVG Version: 6.00 Build 0)  -->
<svg version="1.1" id="digtech-layer-1" xmlns="http://www.w3.org/2000/svg" xmlns:xlink="http://www.w3.org/1999/xlink" x="0px"
	 y="0px" viewBox="0 0 482.8 406.1" style="enable-background:new 0 0 482.8 406.1;" xml:space="preserve">
<style type="text/css">
	.st0{opacity:0.25;fill:none;stroke:#000000;stroke-width:5;stroke-miterlimit:10;enable-background:new    ;}
	.st1{fill:#D1D1C5;}
	.st2{fill:#DDDDD3;}
	.st3{fill:#A8A79B;}
	.st4{fill:#FFF6E1;}
	.st5{fill:#FFE092;}
	.st6{fill:#FFFDF8;}
	.st7{fill:#FFCF44;}
	.st8{fill:#E5E5DC;}
	.st9{fill:#DBDBD1;}
	.st10{fill:#B2B1A6;}
	.st11{fill:#93928A;}
	.st12{fill:#FCB867;}
	.st13{fill:#FEE18D;}
	.st14{fill:#FFECBB;}
</style>
<line id="digtech-shadow" class="st0" x1="33.9" y1="369.8" x2="437.2" y2="369.8"/>
<g id="digtech-gear-l">
	<polygon class="st1" points="142,258.9 161,248 167.3,273.3 187.5,273.3 187.5,299.2 168.4,299.2 160.1,319.1 172.4,332 156.4,353 
		142,338.3 132.2,321.6 150.5,299.2 153.6,285.6 	"/>
	<g>
		<polygon class="st2" points="112.9,251.7 131.4,261.5 143.2,285.6 151.5,284.3 138.1,253.4 110.4,241.2 		"/>
		<polygon class="st2" points="66,297.8 63.9,274.2 74.9,256.5 93.1,244.4 113.6,242.2 113.6,253.6 102.8,253.2 93.8,255.5 
			82.5,264.8 74.4,277.9 76.3,301.6 		"/>
		<polygon class="st2" points="74,294.4 85.9,312.5 104.5,319.1 124.3,314.9 138.8,299.2 139.8,278.7 151.5,279.9 147.8,302.5 
			138.1,317.5 121.8,326.8 96.6,328.2 80.2,319.1 66,300.5 		"/>
		<polygon class="st1" points="71.7,335.6 94.7,347.5 94.7,365.2 120.2,365.2 120.2,347.5 142,338.3 138.1,317.5 121.8,329.6 
			104.2,329.4 81.4,321.6 		"/>
		<polygon class="st1" points="71.1,233.6 82,249.6 102.9,242.4 129.7,247.3 143.2,261.5 172.4,238 155,221.1 143.2,233.4 
			121.1,225.2 120.4,205.7 95.1,205.7 94.6,225.2 		"/>
		<polygon class="st1" points="29.9,275.3 29.9,295.9 46.8,295.9 57.2,321 45.3,332.9 59.9,347.5 75,335.3 81.4,321.6 62.9,299.2 
			63.9,274.2 71.1,260.1 85.1,246.6 60.8,221.1 45.3,238.3 57.5,253.4 47,272.1 		"/>
		<path class="st3" d="M120.1,368H94.3c-1.4,0-2.6-1.2-2.6-2.6v-17.3c-6.3-1.5-12.3-4-17.8-7.4L61.7,353c-1,1-2.7,1-3.6,0
			l-18.2-18.2c-1-1-1-2.6,0-3.6l12.3-12.3c-3.4-5.6-5.8-11.5-7.4-17.8H27.4c-1.4,0-2.6-1.2-2.6-2.6v-25.8c0-1.4,1.2-2.6,2.6-2.6
			h17.3c1.5-6.3,4-12.3,7.4-17.8L39.8,240c-1-1-1-2.6,0-3.6L58,218.2c0.5-0.5,1.1-0.8,1.8-0.8l0,0c0.7,0,1.3,0.3,1.8,0.8l12.3,12.3
			c5.6-3.4,11.5-5.8,17.8-7.4v-17.3c0-1.4,1.2-2.6,2.6-2.6h25.8c1.4,0,2.6,1.2,2.6,2.6v17.3c6.3,1.5,12.3,4,17.8,7.4l12.3-12.3
			c1-1,2.7-1,3.6,0l18.2,18.2c1,1,1,2.6,0,3.6l-12.3,12.3c3.4,5.6,5.8,11.5,7.4,17.8H187c1.4,0,2.6,1.2,2.6,2.6v25.8
			c0,1.4-1.2,2.6-2.6,2.6h-17.3c-1.5,6.3-4,12.3-7.4,17.8l12.3,12.3c1,1,1,2.6,0,3.6L156.4,353c-0.5,0.5-1.1,0.8-1.8,0.8l0,0
			c-0.7,0-1.3-0.3-1.8-0.8l-12.3-12.3c-5.6,3.4-11.5,5.8-17.8,7.4v17.3C122.6,366.8,121.5,368,120.1,368z M96.9,362.9h20.6V346
			c0-1.2,0.9-2.3,2-2.5c7.1-1.5,13.8-4.3,19.9-8.3c1-0.7,2.4-0.5,3.2,0.3l11.9,11.9l14.6-14.6L157.2,321c-0.9-0.9-1-2.2-0.3-3.2
			c4-6.1,6.7-12.8,8.3-19.9c0.3-1.2,1.3-2,2.5-2h16.8v-20.6h-16.8c-1.2,0-2.3-0.9-2.5-2c-1.5-7.1-4.3-13.8-8.3-19.9
			c-0.7-1-0.5-2.4,0.3-3.2l11.9-11.9l-14.6-14.6l-11.9,11.9c-0.9,0.9-2.2,1-3.2,0.3c-6.1-4-12.8-6.8-19.9-8.3c-1.2-0.3-2-1.3-2-2.5
			v-16.8H96.9v16.8c0,1.2-0.9,2.3-2,2.5c-7.1,1.5-13.8,4.3-19.9,8.3c-1,0.7-2.4,0.5-3.2-0.3l-11.9-11.9l-14.6,14.6l11.9,11.9
			c0.9,0.9,1,2.2,0.3,3.2c-4,6.1-6.7,12.8-8.3,19.9c-0.3,1.2-1.3,2-2.5,2H29.9v20.6h16.8c1.2,0,2.3,0.9,2.5,2
			c1.5,7.1,4.3,13.8,8.3,19.9c0.7,1,0.5,2.4-0.3,3.2l-11.9,11.9l14.6,14.6l11.9-11.9c0.9-0.9,2.2-1,3.2-0.3c6.1,4,12.8,6.8,19.9,8.3
			c1.2,0.3,2,1.3,2,2.5C96.9,346.1,96.9,362.9,96.9,362.9z"/>
		<path class="st3" d="M107.2,332c-25.6,0-46.4-20.8-46.4-46.4s20.8-46.4,46.4-46.4s46.4,20.8,46.4,46.4S132.8,332,107.2,332z
			 M107.2,244.4c-22.7,0-41.2,18.5-41.2,41.2s18.5,41.2,41.2,41.2s41.2-18.5,41.2-41.2S129.9,244.4,107.2,244.4z"/>
		<path class="st3" d="M107.2,321.6c-19.9,0-36.1-16.2-36.1-36c0-19.9,16.2-36.1,36.1-36.1s36.1,16.2,36.1,36.1
			C143.2,305.5,127.1,321.6,107.2,321.6z M107.2,254.7c-17,0-30.9,13.9-30.9,30.9c0,2.8,0.4,5.6,1.1,8.2
			c3.6,13.1,15.6,22.7,29.8,22.7c17,0,30.9-13.9,30.9-30.9C138.1,268.6,124.2,254.7,107.2,254.7z"/>
	</g>
</g>
<g id="digtech-cloud">
	<polygon class="st4" points="233.6,271.9 255.4,239.2 279.3,239.8 284.5,197.2 304.4,179.6 340.9,176.3 367.5,187.7 372.5,210.9 
		394,212.6 407.3,237 414,239.2 441.3,261.5 440,284.3 433.9,301.6 416.4,312.8 394,319.1 269.9,318.8 244.6,305.8 	"/>
	<rect x="244.6" y="285.9" class="st5" width="6.6" height="6.6"/>
	<rect x="271.2" y="285.9" class="st5" width="6.6" height="6.6"/>
	<rect x="297.8" y="285.9" class="st5" width="6.6" height="6.6"/>
	<rect x="324.3" y="285.9" class="st5" width="6.6" height="6.6"/>
	<rect x="350.9" y="285.9" class="st5" width="6.6" height="6.6"/>
	<rect x="377.4" y="285.9" class="st5" width="6.6" height="6.6"/>
	<rect x="404" y="285.9" class="st5" width="6.6" height="6.6"/>
	<rect x="430.6" y="285.9" class="st5" width="6.6" height="6.6"/>
	<rect x="238" y="292.5" class="st5" width="6.6" height="6.6"/>
	<rect x="251.3" y="292.5" class="st5" width="6.6" height="6.6"/>
	<rect x="264.6" y="292.5" class="st5" width="6.6" height="6.6"/>
	<rect x="277.8" y="292.5" class="st5" width="6.6" height="6.6"/>
	<rect x="291.1" y="292.5" class="st5" width="6.6" height="6.6"/>
	<rect x="304.4" y="292.5" class="st5" width="6.6" height="6.6"/>
	<rect x="317.7" y="292.5" class="st5" width="6.6" height="6.6"/>
	<rect x="331" y="292.5" class="st5" width="6.6" height="6.6"/>
	<rect x="344.2" y="292.5" class="st5" width="6.6" height="6.6"/>
	<rect x="357.5" y="292.5" class="st5" width="6.6" height="6.6"/>
	<rect x="370.8" y="292.5" class="st5" width="6.6" height="6.6"/>
	<rect x="384.1" y="292.5" class="st5" width="6.6" height="6.6"/>
	<rect x="397.4" y="292.5" class="st5" width="6.6" height="6.6"/>
	<rect x="410.6" y="292.5" class="st5" width="6.6" height="6.6"/>
	<rect x="423.9" y="292.5" class="st5" width="6.6" height="6.6"/>
	<rect x="244.6" y="299.2" class="st5" width="6.6" height="6.6"/>
	<rect x="257.9" y="299.2" class="st5" width="6.6" height="6.6"/>
	<rect x="271.2" y="299.2" class="st5" width="6.6" height="6.6"/>
	<rect x="284.5" y="299.2" class="st5" width="6.6" height="6.6"/>
	<rect x="297.8" y="299.2" class="st5" width="6.6" height="6.6"/>
	<rect x="311" y="299.2" class="st5" width="6.6" height="6.6"/>
	<rect x="324.3" y="299.2" class="st5" width="6.6" height="6.6"/>
	<rect x="337.6" y="299.2" class="st5" width="6.6" height="6.6"/>
	<rect x="350.9" y="299.2" class="st5" width="6.6" height="6.6"/>
	<rect x="364.2" y="299.2" class="st5" width="6.6" height="6.6"/>
	<rect x="377.4" y="299.2" class="st5" width="6.6" height="6.6"/>
	<rect x="390.7" y="299.2" class="st5" width="6.6" height="6.6"/>
	<rect x="404" y="299.2" class="st5" width="6.6" height="6.6"/>
	<rect x="417.3" y="299.2" class="st5" width="6.6" height="6.6"/>
	<rect x="251.3" y="305.8" class="st5" width="6.6" height="6.6"/>
	<rect x="264.6" y="305.8" class="st5" width="6.6" height="6.6"/>
	<rect x="277.8" y="305.8" class="st5" width="6.6" height="6.6"/>
	<rect x="291.1" y="305.8" class="st5" width="6.6" height="6.6"/>
	<rect x="304.4" y="305.8" class="st5" width="6.6" height="6.6"/>
	<rect x="317.7" y="305.8" class="st5" width="6.6" height="6.6"/>
	<rect x="331" y="305.8" class="st5" width="6.6" height="6.6"/>
	<rect x="344.2" y="305.8" class="st5" width="6.6" height="6.6"/>
	<rect x="357.5" y="305.8" class="st5" width="6.6" height="6.6"/>
	<rect x="370.8" y="305.8" class="st5" width="6.6" height="6.6"/>
	<rect x="384.1" y="305.8" class="st5" width="6.6" height="6.6"/>
	<rect x="397.4" y="305.8" class="st5" width="6.6" height="6.6"/>
	<rect x="410.6" y="305.8" class="st5" width="6.6" height="6.6"/>
	<polygon class="st6" points="236.9,261.5 437.2,263.4 427.2,248 408.4,238.4 398.6,221.1 387.4,212.1 376.5,213.3 360.8,184.9 
		340.3,176.3 311,176.3 289.2,192.7 281.2,208.1 278.9,223.1 277.8,234.2 256.5,240.9 	"/>
	<path class="st7" d="M400.7,319.1H271.2c-0.5,0-0.9-0.1-1.3-0.3c-21.7-2.3-38.5-21-38.5-42.9c0-23.8,19.4-43.2,43.2-43.2
		c0.3,0,0.6,0,1,0c-0.6-3.3-1-6.7-1-10c0-29.3,23.8-53.1,53.1-53.1c23.1,0,43.4,14.9,50.5,36.7c15.7-1.6,29.2,10.9,29.2,26.4
		c0,0.2,0,0.4,0,0.5c20.7,3.2,36.5,21.3,36.5,42.6C443.9,299.7,424.5,319.1,400.7,319.1z M272.2,312.5h128.4
		c20.1,0,36.5-16.4,36.5-36.5c0-19-14.8-35-33.7-36.4c-0.9-0.1-1.8-0.5-2.3-1.2c-0.6-0.7-0.8-1.7-0.7-2.6c0.2-1.1,0.2-2.1,0.2-3
		c0-12.4-11.6-22.2-24.2-19.4c-1.7,0.4-3.5-0.7-3.9-2.4c-5.4-20.4-23.8-34.6-44.9-34.6c-25.6,0-46.5,20.9-46.5,46.5
		c0,4.2,0.6,8.5,1.8,12.8c0.3,1.1,0,2.2-0.7,3.1c-0.7,0.8-1.8,1.3-3,1.1c-1.8-0.2-3.4-0.4-4.8-0.4c-20.1,0-36.5,16.4-36.5,36.5
		c0,18.8,14.7,34.8,33.5,36.4C271.7,312.3,272,312.4,272.2,312.5z"/>
</g>
<g id="digtech-gear-r">
	<polygon class="st8" points="247.2,138.7 249.8,159.5 236.9,183.1 242.8,189.1 260.3,160.4 254.4,130.6 	"/>
	<g>
		<polygon class="st9" points="238,94.2 231.2,112.3 249.1,125.3 260.4,150 256.7,169.2 292.6,179.6 296.5,155.6 279.7,153.1 
			273.6,130.2 289.1,118.5 274.6,97.8 258.4,108.6 		"/>
		<g>
			<polygon class="st8" points="182.5,126.9 200.6,111.7 221.4,110.4 241.8,118.4 255.4,133.9 246.1,140.5 240.2,131.4 233.2,125.3 
				219,121.4 203.7,122.3 185.3,137.5 			"/>
			<polygon class="st8" points="189.9,131.5 182,151.6 187.2,170.7 202.1,184.4 223.2,187.3 240.6,176.3 246.3,186.6 225.7,196.6 
				207.9,197.2 190.9,189.2 175.3,169.4 173.3,150.8 180.3,128.4 			"/>
			<polygon class="st9" points="154.9,153.3 158.4,179 143.9,189.2 158.5,210 173,199.8 193,212.3 207.9,197.2 188.6,190.8 
				178.7,176.3 171.8,153.2 			"/>
			<polygon class="st9" points="258,166.7 277.9,176 260.8,195.7 272.4,212.2 251.2,227.1 240.3,211.5 219.2,216.1 215.7,233.6 
				189.3,232.6 193,212.3 201.1,194.8 230,196.9 242.8,191.5 			"/>
			<polygon class="st9" points="180.2,84.5 163.4,96.3 173,110.1 158.4,133 141.9,130.1 138.3,150.4 157,155.8 171.8,153.2 
				179.6,125.1 200.6,111.7 216.4,109.4 235.4,113.1 242.4,78.6 219.4,75.7 214,94.4 192.6,96.6 			"/>
			<path class="st10" d="M156.2,211.5l-14.8-21.1c-0.8-1.2-0.5-2.8,0.6-3.6l14.2-10c-2.3-6-3.7-12.3-4.2-18.8l-17.1-3
				c-1.3-0.2-2.3-1.6-2.1-3l4.4-25.4c0.2-1.4,1.6-2.3,3-2.1l17.1,3c2.6-5.9,6.1-11.4,10.3-16.3l-10-14.2c-0.8-1.2-0.5-2.8,0.6-3.6
				l21.1-14.8c1.2-0.8,2.8-0.5,3.6,0.6l10,14.2c6-2.3,12.3-3.7,18.8-4.2l3-17.1c0.2-1.4,1.6-2.3,3-2.1l25.4,4.4
				c0.7,0.1,1.3,0.5,1.7,1.1l0,0c0.4,0.6,0.5,1.3,0.4,1.9l-3,17.1c6,2.6,11.4,6.1,16.3,10.3l14.2-10c1.2-0.8,2.8-0.5,3.6,0.6
				l14.8,21.1c0.8,1.2,0.5,2.8-0.6,3.6l-14.2,10c2.3,6,3.7,12.3,4.2,18.8l17.1,3c1.3,0.2,2.3,1.6,2.1,3l-4.4,25.4
				c-0.2,1.4-1.6,2.3-3,2.1l-17.1-3c-2.6,5.9-6.1,11.4-10.3,16.3l10,14.2c0.8,1.2,0.5,2.8-0.6,3.6L253,228.4
				c-1.2,0.8-2.8,0.5-3.6-0.6l-10-14.2c-6,2.3-12.3,3.7-18.8,4.2l-3,17.1c-0.2,1.4-1.6,2.3-3,2.1l-25.4-4.4
				c-0.7-0.1-1.3-0.5-1.7-1.1l0,0c-0.4-0.6-0.5-1.3-0.4-1.9l3-17.1c-6-2.6-11.4-6.1-16.3-10.3l-14.2,10
				C158.6,212.9,157,212.7,156.2,211.5z M147.1,189.6l11.8,16.9l13.8-9.7c1-0.7,2.3-0.6,3.2,0.2c5.3,4.9,11.4,8.8,18.2,11.5
				c1.1,0.5,1.8,1.6,1.6,2.8l-2.9,16.6l20.3,3.5l2.9-16.6c0.2-1.2,1.2-2.1,2.4-2.1c7.3-0.3,14.4-1.8,21-4.7c1.1-0.5,2.4-0.1,3.1,0.9
				l9.7,13.8l16.9-11.8l-9.7-13.8c-0.7-1-0.6-2.3,0.2-3.2c4.9-5.3,8.8-11.4,11.5-18.2c0.5-1.1,1.6-1.8,2.8-1.6l16.6,2.9l3.5-20.3
				l-16.6-2.9c-1.2-0.2-2.1-1.2-2.1-2.4c-0.3-7.3-1.8-14.4-4.7-21c-0.5-1.1-0.1-2.4,0.9-3.1l13.8-9.7l-11.8-16.9l-13.8,9.7
				c-1,0.7-2.3,0.6-3.2-0.2c-5.3-4.9-11.4-8.8-18.2-11.5c-1.1-0.5-1.8-1.6-1.6-2.8l2.9-16.6l-20.3-3.5l-2.9,16.6
				c-0.2,1.2-1.2,2.1-2.4,2.1c-7.3,0.3-14.4,1.8-21,4.7c-1.1,0.5-2.4,0.1-3.1-0.9l-9.7-13.8l-16.9,11.8l9.7,13.8
				c0.7,1,0.6,2.3-0.2,3.2c-4.9,5.3-8.8,11.4-11.5,18.2c-0.5,1.1-1.6,1.8-2.8,1.6l-16.6-2.9l-3.5,20.3l16.6,2.9
				c1.2,0.2,2.1,1.2,2.1,2.4c0.3,7.3,1.8,14.4,4.7,21c0.5,1.1,0.1,2.4-0.9,3.1L147.1,189.6z"/>
			<path class="st10" d="M178.3,180.2c-14.7-20.9-9.6-49.9,11.3-64.6s49.9-9.6,64.6,11.3s9.6,49.9-11.3,64.6
				C221.9,206.2,193,201.2,178.3,180.2z M249.9,129.9c-13.1-18.6-38.8-23.1-57.4-10s-23.1,38.8-10,57.4s38.8,23.1,57.4,10
				C258.5,174.3,263,148.5,249.9,129.9z"/>
			<path class="st10" d="M186.7,174.3c-11.4-16.3-7.5-38.8,8.8-50.2s38.8-7.5,50.2,8.8c11.4,16.3,7.5,38.8-8.8,50.2
				C220.7,194.5,198.1,190.6,186.7,174.3z M241.5,135.8c-9.8-13.9-29.1-17.3-43-7.5c-2.3,1.6-4.4,3.5-6.1,5.6
				c-8.6,10.5-9.6,25.8-1.4,37.4c9.8,13.9,29.1,17.3,43,7.5C247.9,169.1,251.3,149.8,241.5,135.8z"/>
		</g>
	</g>
</g>
<g id="digtech-lock">
	<polygon class="st8" points="288,296.2 299,298.3 298.4,285.2 304.6,271 317.9,256.5 331.6,251.6 346.4,249.7 359.7,255.3 
		371.2,264.8 376.8,276.1 382.9,287.9 384.2,298.3 391.6,298.3 392.9,287.6 386.2,268.9 379.6,254.1 367.5,246.4 351.5,237.8 
		336.3,237.8 323.1,239 312,245.2 299.9,256.5 289.9,273.4 	"/>
	<g>
		<rect x="282.4" y="299.1" class="st2" width="114.7" height="69.8"/>
		<rect x="369.3" y="298.3" class="st1" width="3.7" height="4.2"/>
		<rect x="376.8" y="298.3" class="st1" width="3.7" height="4.2"/>
		<rect x="384.2" y="298.3" class="st1" width="3.7" height="4.2"/>
		<rect x="391.6" y="298.3" class="st1" width="3.7" height="4.2"/>
		<rect x="373" y="302.5" class="st1" width="3.7" height="4.2"/>
		<rect x="380.5" y="302.5" class="st1" width="3.7" height="4.2"/>
		<rect x="387.9" y="302.5" class="st1" width="3.7" height="4.2"/>
		<rect x="369.3" y="306.7" class="st1" width="3.7" height="4.2"/>
		<rect x="376.8" y="306.7" class="st1" width="3.7" height="4.2"/>
		<rect x="384.2" y="306.7" class="st1" width="3.7" height="4.2"/>
		<rect x="391.6" y="306.7" class="st1" width="3.7" height="4.2"/>
		<rect x="373" y="311" class="st1" width="3.7" height="4.2"/>
		<rect x="380.5" y="311" class="st1" width="3.7" height="4.2"/>
		<rect x="387.9" y="311" class="st1" width="3.7" height="4.2"/>
		<rect x="369.3" y="315.2" class="st1" width="3.7" height="4.2"/>
		<rect x="384.2" y="315.2" class="st1" width="3.7" height="4.2"/>
		<rect x="391.6" y="315.2" class="st1" width="3.7" height="4.2"/>
		<rect x="373" y="319.4" class="st1" width="3.7" height="4.2"/>
		<rect x="380.5" y="319.4" class="st1" width="3.7" height="4.2"/>
		<rect x="387.9" y="319.4" class="st1" width="3.7" height="4.2"/>
		<rect x="376.8" y="323.7" class="st1" width="3.7" height="4.2"/>
		<rect x="384.2" y="323.7" class="st1" width="3.7" height="4.2"/>
		<rect x="391.6" y="323.7" class="st1" width="3.7" height="4.2"/>
		<rect x="373" y="327.9" class="st1" width="3.7" height="4.2"/>
		<rect x="380.5" y="327.9" class="st1" width="3.7" height="4.2"/>
		<rect x="387.9" y="327.9" class="st1" width="3.7" height="4.2"/>
		<rect x="373" y="353.3" class="st1" width="3.7" height="4.2"/>
		<rect x="380.5" y="353.3" class="st1" width="3.7" height="4.2"/>
		<rect x="387.9" y="353.3" class="st1" width="3.7" height="4.2"/>
		<rect x="369.3" y="357.5" class="st1" width="3.7" height="4.2"/>
		<rect x="376.8" y="357.5" class="st1" width="3.7" height="4.2"/>
		<rect x="384.2" y="357.5" class="st1" width="3.7" height="4.2"/>
		<rect x="391.6" y="357.5" class="st1" width="3.7" height="4.2"/>
		<rect x="373" y="361.7" class="st1" width="3.7" height="4.2"/>
		<rect x="380.5" y="361.7" class="st1" width="3.7" height="4.2"/>
		<rect x="387.9" y="361.7" class="st1" width="3.7" height="4.2"/>
		<g>
			<rect x="376.8" y="315.2" class="st1" width="3.7" height="4.2"/>
			<rect x="369.3" y="323.7" class="st1" width="3.7" height="4.2"/>
			<rect x="369.3" y="332.1" class="st1" width="3.7" height="4.2"/>
			<rect x="376.8" y="332.1" class="st1" width="3.7" height="4.2"/>
			<rect x="384.2" y="332.1" class="st1" width="3.7" height="4.2"/>
			<rect x="391.6" y="332.1" class="st1" width="3.7" height="4.2"/>
			<rect x="373" y="336.4" class="st1" width="3.7" height="4.2"/>
			<rect x="380.5" y="336.4" class="st1" width="3.7" height="4.2"/>
			<rect x="387.9" y="336.4" class="st1" width="3.7" height="4.2"/>
			<rect x="369.3" y="340.6" class="st1" width="3.7" height="4.2"/>
			<rect x="376.8" y="340.6" class="st1" width="3.7" height="4.2"/>
			<rect x="384.2" y="340.6" class="st1" width="3.7" height="4.2"/>
			<rect x="391.6" y="340.6" class="st1" width="3.7" height="4.2"/>
			<rect x="373" y="344.8" class="st1" width="3.7" height="4.2"/>
			<rect x="380.5" y="344.8" class="st1" width="3.7" height="4.2"/>
			<rect x="387.9" y="344.8" class="st1" width="3.7" height="4.2"/>
			<rect x="369.3" y="349" class="st1" width="3.7" height="4.2"/>
			<rect x="376.8" y="349" class="st1" width="3.7" height="4.2"/>
			<rect x="384.2" y="349" class="st1" width="3.7" height="4.2"/>
			<rect x="391.6" y="349" class="st1" width="3.7" height="4.2"/>
			<path class="st3" d="M397.1,370.2H282.4c-1,0-1.9-0.9-1.9-2.1v-69.8c0-1.2,0.8-2.1,1.9-2.1h114.7c1,0,1.9,0.9,1.9,2.1v69.8
				C399,369.3,398.1,370.2,397.1,370.2z M284.2,366h111v-65.6h-111V366z"/>
			<path class="st3" d="M393.4,300.4h-11.1c-1,0-1.9-0.9-1.9-2.1c0-25.7-18.3-46.5-40.7-46.5S299,272.6,299,298.3
				c0,1.2-0.8,2.1-1.9,2.1H286c-1,0-1.9-0.9-1.9-2.1c0-35,24.9-63.5,55.5-63.5s55.5,28.5,55.5,63.5
				C395.3,299.4,394.4,300.4,393.4,300.4z M384.1,296.2h7.4c-1-31.7-23.8-57.1-51.8-57.1c-27.9,0-50.8,25.4-51.8,57.1h7.4
				c1-27,20.5-48.7,44.4-48.7S383.1,269.1,384.1,296.2z"/>
			<path class="st11" d="M336,325.3c0-5.9-5-10.7-11.1-10.7s-11.1,4.8-11.1,10.7c0,4,2.2,7.4,5.6,9.3v21.1h11.1v-21.1
				C333.8,332.7,336,329.3,336,325.3z"/>
			<path class="st11" d="M330.5,357.5h-11.1c-1,0-1.9-0.8-1.9-1.8v-20.2c-3.4-2.3-5.6-6.2-5.6-10.3c0-6.9,5.8-12.5,13-12.5
				c7.1,0,13,5.6,13,12.5c0,4.1-2.1,7.9-5.6,10.3v20.2C332.3,356.7,331.5,357.5,330.5,357.5z M321.2,353.9h7.4v-19.4
				c0-0.6,0.4-1.2,0.9-1.5c2.9-1.6,4.6-4.6,4.6-7.7c0-4.9-4.2-9-9.3-9c-5.1,0-9.3,4-9.3,9c0,3.2,1.8,6.1,4.6,7.7
				c0.6,0.3,0.9,0.9,0.9,1.5v19.4H321.2z"/>
		</g>
	</g>
</g>
<g id="digtech-sparkles">
	<rect x="375.1" y="141.2" class="st12" width="4.6" height="9.2"/>
	<rect x="375.1" y="164.4" class="st12" width="4.6" height="9.2"/>
	<rect x="384.4" y="155" class="st12" width="9.2" height="4.6"/>
	<polyline class="st12" points="361.3,155 370.5,155 370.5,159.8 361.3,159.8 	"/>
	
		<rect x="383.3" y="160.9" transform="matrix(0.7071 -0.7071 0.7071 0.7071 -4.1017 321.1081)" class="st13" width="4.6" height="9.2"/>
	<polyline class="st13" points="364.4,147.5 367.6,144.4 374.2,150.9 370.9,154.1 364.4,147.5 	"/>
	<polyline class="st13" points="364.4,167.1 370.9,160.6 374.2,163.9 367.6,170.4 364.4,167.1 	"/>
	<rect x="381" y="147" transform="matrix(0.7071 -0.7071 0.7071 0.7071 7.3808 316.4046)" class="st13" width="9.2" height="4.6"/>
	<rect x="216.6" y="305.4" class="st12" width="4.6" height="9.2"/>
	<rect x="216.6" y="328.5" class="st12" width="4.6" height="9.2"/>
	<rect x="225.9" y="319.2" class="st12" width="9.2" height="4.6"/>
	<polyline class="st12" points="202.8,319.2 212,319.2 212,323.9 202.8,323.9 	"/>
	
		<rect x="224.8" y="325.1" transform="matrix(0.7071 -0.7071 0.7071 0.7071 -166.6117 257.1514)" class="st13" width="4.6" height="9.2"/>
	<polyline class="st13" points="205.9,311.7 209.1,308.5 215.7,315 212.4,318.3 205.9,311.7 	"/>
	<polyline class="st13" points="205.9,331.3 212.4,324.8 215.7,328.1 209.1,334.6 205.9,331.3 	"/>
	
		<rect x="222.5" y="311.1" transform="matrix(0.7071 -0.7071 0.7071 0.7071 -155.0999 252.3773)" class="st13" width="9.2" height="4.6"/>
	<rect x="27.8" y="227" class="st14" width="6.1" height="6.1"/>
	<rect x="15.6" y="239.1" class="st7" width="6.1" height="6.1"/>
	<rect x="27.8" y="251.3" class="st14" width="6.1" height="6.1"/>
	<rect x="27.8" y="239.1" class="st5" width="6.1" height="6.1"/>
	<rect x="304.7" y="102.4" class="st14" width="6.1" height="6.1"/>
	<rect x="316.9" y="114.5" class="st7" width="6.1" height="6.1"/>
	<rect x="304.7" y="126.7" class="st14" width="6.1" height="6.1"/>
	<rect x="304.7" y="114.5" class="st5" width="6.1" height="6.1"/>
</g>
</svg>
