<?xml version="1.0" encoding="utf-8"?>
<!-- Generator: Adobe Illustrator 20.1.0, SVG Export Plug-In . SVG Version: 6.00 Build 0)  -->
<svg version="1.1" id="Layer_1" xmlns="http://www.w3.org/2000/svg" xmlns:xlink="http://www.w3.org/1999/xlink" x="0px" y="0px"
	 viewBox="0 0 482.8 406.1" style="enable-background:new 0 0 482.8 406.1;" xml:space="preserve">
<style type="text/css">
	.st0{opacity:0.251;fill:#FFFFFF;enable-background:new    ;}
	.st1{fill:#FFF6E1;}
	.st2{opacity:0.25;fill:none;stroke:#000000;stroke-width:3;stroke-miterlimit:10;enable-background:new    ;}
	.st3{fill:#FFFFFF;}
	.st4{fill:#FCB867;}
	.st5{fill:#FEE18D;}
	.st6{fill:#D1D1C5;}
	.st7{fill:#BCBCAF;}
	.st8{fill:#FFCF44;}
	.st9{fill:#A8A79B;}
	.st10{fill:#FAA947;}
	.st11{fill:#FFECBB;}
	.st12{fill:#FFF5DD;}
</style>
<g id="Layer_8">
	<g>
		<path class="st0" d="M353.7,53c-1.1,0-2.1,0.4-2.9,1.1c-0.8,0.7-1.5,2-1.7,3.5l-2.1,25c-0.1,2.9,2.1,5.4,4.7,5.6
			c0.2,0.1,0.5,0.1,0.7,0.1c1.1,0,2.4-0.5,3-1.1c0.8-0.7,1.5-2,1.7-3.5l1-12.3l7.5,8.9c8.4,10,9.6,24,2.6,35.2
			c-1.6,2.4-0.7,5.5,1.7,7.1c0.9,0.5,1.8,0.7,2.8,0.7c1.2,0,2.3-0.4,3.3-1.2c0.4-0.4,0.8-0.7,1.1-1.3c9.4-15,7.9-34.1-3.3-47.4
			l-7.5-8.9l12.3,1c0.2,0.1,0.5,0.1,0.7,0.1c1.1,0,2.4-0.5,3-1.1c0.8-0.7,1.5-2,1.7-3.5c0.1-2.9-2.1-5.4-4.5-5.8l-24.9-2.1
			C354.3,53,354,53,353.7,53 M304.1,92.7c-2.8,0-5.3,2.1-5.5,4.7l-1.3,15l-15-1.3h-0.1c-2.8,0-5.3,2.1-5.5,4.7
			c-0.1,2.9,2.1,5.4,4.7,5.6l15,1.3l-1.3,15c-0.1,2.9,2.1,5.4,4.7,5.6c0.2,0.1,0.5,0.1,0.7,0.1c1.1,0,2.4-0.5,3-1.1
			c0.8-0.7,1.5-2,1.7-3.5l1.3-15l15.4,0.9c0.2,0.1,0.5,0.1,0.7,0.1c1.1,0,2.4-0.5,3-1.1c0.8-0.7,1.5-2,1.7-3.5
			c0.1-2.9-2.1-5.4-4.7-5.6l-15-1.3l1.3-15c0.1-2.9-2.1-5.4-4.7-5.6C304.2,92.7,304.2,92.7,304.1,92.7 M417.3,104.8
			c-2.8,0-5.3,2.1-5.5,4.7l-1.3,15l-15-1.3h-0.1c-2.8,0-5.3,2.1-5.5,4.7c-0.1,2.9,2.1,5.4,4.7,5.6l15,1.3l-1.3,15
			c-0.1,2.9,2.1,5.4,4.7,5.6c0.2,0.1,0.5,0.1,0.7,0.1c1.1,0,2.4-0.5,3-1.1c0.8-0.7,1.5-2,1.7-3.5l1.3-15l15,1.3
			c0.2,0.1,0.5,0.1,0.7,0.1c1.1,0,2.4-0.5,3-1.1c0.8-0.7,1.5-2,1.7-3.5c0.1-2.9-2.1-5.4-4.7-5.6l-15-1.3l1.3-15
			c0.1-2.9-2.1-5.4-4.3-6C417.4,104.8,417.3,104.8,417.3,104.8 M357.4,127.5c-1.1,0-2.1,0.4-2.9,1.1c-1,0.9-1.7,2.2-1.7,3.5
			c-0.3,1.3,0.2,2.7,1,3.8c0.8,1,2,1.7,3.3,1.7c0.1,0,0.1,0,0.2,0c0.3,0.1,0.6,0.1,0.8,0.1c1.1,0,2.1-0.4,2.9-1.1
			c1-0.9,1.5-2,1.7-3.5c0.3-1.3-0.2-2.7-1-3.8c-0.9-1-2.4-1.6-3.5-1.7C358,127.5,357.7,127.5,357.4,127.5 M343.9,139.2
			c-1.2,0-2.4,0.4-3.3,1.1c-2.3,1.9-2.4,5.2-0.6,7.3c1,1.2,2.5,1.8,3.9,1.8c1.2,0,2.4-0.4,3.4-1.2c2.3-1.9,2.4-5.2,0.6-7.3
			C346.9,139.8,345.4,139.2,343.9,139.2 M329.7,150.8c-1.1,0-2.1,0.4-2.9,1.1c-1,0.9-1.7,2.2-1.7,3.5c-0.3,1.3,0.2,2.7,1,3.8
			c0.8,1,2,1.7,3.3,1.7c0.1,0,0.1,0,0.2,0c0.3,0.1,0.6,0.1,0.8,0.1c1.1,0,2.1-0.4,2.9-1.1c1-0.9,1.7-2.2,1.7-3.5
			c0.1-1.2-0.4-2.5-1-3.8c-0.8-1-2-1.7-3.3-1.7c-0.1,0-0.1,0-0.2,0C330.3,150.9,330,150.8,329.7,150.8 M387.9,164.1
			c-2.8,0-5.3,2.1-5.5,4.7l-1.3,15l-15-1.3H366c-2.8,0-5.3,2.1-5.5,4.7c-0.1,2.9,2.1,5.4,4.7,5.6l15,1.3l-1.3,15
			c-0.1,2.9,2.1,5.4,4.7,5.6c0.2,0.1,0.5,0.1,0.7,0.1c1.1,0,2.4-0.5,3-1.1c0.8-0.7,1.5-2,1.7-3.5l1.3-15l15,1.3
			c0.2,0.1,0.5,0.1,0.7,0.1c1.1,0,2.4-0.5,3-1.1c0.8-0.7,1.5-2,1.7-3.5c0.1-2.9-2.1-5.4-4.7-5.6l-15-1.3l1.3-15
			c0.3-3.1-1.8-5.6-4.3-6C388,164.1,387.9,164.1,387.9,164.1 M319.6,165.9c-2.1,0-4.1,1.3-4.7,3.2c-1,2.6,0.5,5.6,3.1,6.6
			c0.7,0.3,1.4,0.5,2,0.5c1.1,0,2.2-0.5,3.1-1.2c0.6-0.5,1.1-1.3,1.3-2.2c1-2.6-0.5-5.6-3.1-6.6C320.8,166,320.2,165.9,319.6,165.9
			 M318.1,183.9c-0.3,0-0.6,0-0.9,0.1c-2.8,0.5-4.7,3.3-4.2,6c0.3,2.5,2.2,4.1,4.5,4.1c0.4,0,0.9-0.1,1.3-0.2c1-0.1,2-0.6,2.6-1.1
			c1.2-1.1,2-2.7,1.8-4.7C322.7,185.7,320.5,183.9,318.1,183.9 M325.1,200.7c-1.1,0-2.1,0.4-2.9,1.1c-1,0.9-1.6,2.4-1.7,3.5
			c-0.3,1.3,0.2,2.7,1,3.8c0.8,1,2,1.7,3.3,1.7c0.1,0,0.1,0,0.2,0c0.2,0,0.5,0,0.7,0c1.2,0,2.2-0.3,3.1-1.1c1-0.9,1.6-2.4,1.7-3.5
			c0.3-1.3-0.2-2.7-1-3.8c-0.9-1-2-1.5-3.5-1.7C325.7,200.7,325.4,200.7,325.1,200.7 M349,213.8c-4.5,0-9.1,1.5-12.8,4.6
			c-8.3,7-9.4,19.7-2.4,28c3.9,4.6,9.6,7,15.2,7c4.5,0,9.1-1.5,12.8-4.6c8.3-7,9.4-19.7,2.4-28C360.4,216.2,354.7,213.8,349,213.8
			 M349.3,243.3c-2.7,0-5.5-1.1-7.3-3.3c-3.3-4-2.8-10.1,1.1-13.4c1.8-1.5,3.9-2.2,6.1-2.2c2.7,0,5.5,1.1,7.3,3.3
			c3.3,4,3,9.9-1.1,13.4C353.6,242.6,351.4,243.3,349.3,243.3 M329.4,38.6c-2.7,0-5.5-1.1-7.3-3.3c-3.3-4-2.8-10.1,1.1-13.4
			c1.8-1.5,3.9-2.2,6.1-2.2c2.7,0,5.5,1.1,7.3,3.3c3.3,4,2.8,10.1-1.1,13.4C333.7,37.9,331.6,38.6,329.4,38.6 M329.5,9.5
			c-4.5,0-9.1,1.5-12.8,4.6c-8.3,7-9.4,19.7-2.4,28c3.9,4.6,9.6,7,15.2,7c4.5,0,9.1-1.5,12.8-4.6c8.3-7,9.4-19.7,2.4-28
			C340.8,11.9,335.2,9.5,329.5,9.5"/>
	</g>
</g>
<g id="Layer_9">
</g>
<g id="Layer_5">
</g>
<g id="Layer_7">
	<polygon class="st1" points="333.7,326.7 342,319.5 342,348.7 328.4,350.4 326.9,360.7 311.2,360.7 311.9,373 401,371.3 401,359.3 
		392.5,359.3 392.5,300.2 362.6,271.6 355.8,271.6 355.8,265.8 350.7,268.1 349.4,276.7 343.4,272 300.9,316.1 313.1,330.2 	"/>
</g>
<g id="Layer_6">
</g>
<g id="Layer_2">
</g>
<g id="Layer_4">
</g>
<line class="st2" x1="67.2" y1="370.9" x2="431.7" y2="373"/>
<polygon class="st3" points="318.2,296.1 379.6,288.5 363.3,273.6 356.5,271.9 356.5,266.1 350.1,268.4 350.4,275.4 344.1,272.3 "/>
<rect x="291.4" y="271.9" class="st4" width="6.9" height="3.4"/>
<rect x="305.1" y="271.9" class="st4" width="6.9" height="3.4"/>
<rect x="299.9" y="263.4" class="st5" width="3.4" height="6.9"/>
<rect x="356.5" y="277.1" class="st6" width="13.7" height="3.4"/>
<rect x="356.5" y="283.9" class="st6" width="20.6" height="3.4"/>
<rect x="363.3" y="290.8" class="st6" width="20.6" height="3.4"/>
<rect x="370.2" y="297.6" class="st6" width="18.8" height="3.4"/>
<rect x="377" y="304.5" class="st6" width="13.7" height="3.4"/>
<rect x="377" y="311.3" class="st6" width="13.7" height="3.4"/>
<rect x="377" y="318.2" class="st6" width="13.7" height="3.4"/>
<rect x="377" y="325" class="st6" width="13.7" height="3.4"/>
<rect x="377" y="331.9" class="st6" width="13.7" height="3.4"/>
<rect x="377" y="338.7" class="st6" width="13.7" height="3.4"/>
<rect x="377" y="345.6" class="st6" width="13.7" height="3.4"/>
<rect x="377" y="352.4" class="st6" width="13.7" height="3.4"/>
<rect x="299.9" y="277.1" class="st5" width="3.4" height="6.9"/>
<path class="st7" d="M399.3,373h-87.4c-0.9,0-1.7-0.8-1.7-1.7v-12c0-0.9,0.8-1.7,1.7-1.7h15.4V349c0-0.9,0.8-1.7,1.7-1.7h12v-23.5
	l-5.3,5.8c-0.3,0.4-0.8,0.6-1.3,0.6H313c-0.5,0-0.9-0.2-1.2-0.5L299,316.8c-0.7-0.7-0.7-1.8,0-2.4l43.7-43.7
	c0.3-0.3,0.8-0.5,1.2-0.5l0,0c0.5,0,0.9,0.2,1.2,0.5l3.9,3.9l-0.1-5.2c0-0.6,0.3-1.1,0.7-1.4l5.9-4.3c0.5-0.4,1.2-0.4,1.8-0.1
	c0.6,0.3,0.9,0.9,0.9,1.5v19l20.1,20.5c0.3,0.3,0.5,0.8,0.5,1.2v51.8h20.6c0.9,0,1.7,0.8,1.7,1.7v12C401,372.2,400.3,373,399.3,373z
	 M313.6,369.6h83.9V361H377c-0.9,0-1.7-0.8-1.7-1.7v-52.8l-20-20.5c-0.3-0.3-0.5-0.8-0.5-1.2v-16.3l-2.4,1.8l0.1,8.6
	c0,0.7-0.4,1.3-1.1,1.6c-0.6,0.3-1.4,0.1-1.9-0.4l-5.6-5.7l-41.3,41.3l11.1,11.1h20l7.3-8v-10.9h3.4V349c0,0.9-0.8,1.7-1.7,1.7h-12
	v8.6c0,0.9-0.8,1.7-1.7,1.7h-15.4L313.6,369.6L313.6,369.6z"/>
<path class="st7" d="M392.5,359.3H389v-58.4l-26.1-27.2h-6.4v-3.4h7.1c0.5,0,0.9,0.2,1.2,0.5L392,299c0.3,0.3,0.5,0.7,0.5,1.2V359.3
	z"/>
<path class="st6" d="M332.8,304.5c-2.8,0-5.1-2.3-5.1-5.1c0-2.8,2.3-5.1,5.1-5.1c2.8,0,5.1,2.3,5.1,5.1S335.6,304.5,332.8,304.5z
	 M332.8,297.6c-0.9,0-1.7,0.8-1.7,1.7c0,0.9,0.8,1.7,1.7,1.7c0.9,0,1.7-0.8,1.7-1.7S333.7,297.6,332.8,297.6z"/>
<rect x="390.7" y="362.7" class="st6" width="3.4" height="3.4"/>
<rect x="383.9" y="362.7" class="st6" width="3.4" height="3.4"/>
<rect x="377" y="362.7" class="st6" width="3.4" height="3.4"/>
<rect x="370.2" y="362.7" class="st6" width="3.4" height="3.4"/>
<rect x="363.3" y="362.7" class="st6" width="3.4" height="3.4"/>
<rect x="370.2" y="355.9" class="st6" width="3.4" height="3.4"/>
<rect x="363.3" y="355.9" class="st6" width="3.4" height="3.4"/>
<rect x="370.2" y="349" class="st6" width="3.4" height="3.4"/>
<rect x="363.3" y="349" class="st6" width="3.4" height="3.4"/>
<rect x="370.2" y="342.2" class="st6" width="3.4" height="3.4"/>
<rect x="363.3" y="342.2" class="st6" width="3.4" height="3.4"/>
<rect x="370.2" y="335.3" class="st6" width="3.4" height="3.4"/>
<rect x="363.3" y="335.3" class="st6" width="3.4" height="3.4"/>
<rect x="370.2" y="328.5" class="st6" width="3.4" height="3.4"/>
<rect x="363.3" y="328.5" class="st6" width="3.4" height="3.4"/>
<rect x="370.2" y="321.6" class="st6" width="3.4" height="3.4"/>
<rect x="363.3" y="321.6" class="st6" width="3.4" height="3.4"/>
<rect x="370.2" y="314.8" class="st6" width="3.4" height="3.4"/>
<rect x="363.3" y="314.8" class="st6" width="3.4" height="3.4"/>
<rect x="370.2" y="307.9" class="st6" width="3.4" height="3.4"/>
<rect x="363.3" y="307.9" class="st6" width="3.4" height="3.4"/>
<rect x="363.3" y="301" class="st6" width="3.4" height="3.4"/>
<path class="st8" d="M57.2,321.6c-10.6-5.5-1.9,32,12.9,41.9c10.5,7,22.2,5.2,29.1,4.1c18.2-2.9,32.7-17.8,31.8-31.1
	c-0.4-6.1,0.2-9-1.1-3.6c-3,12.8-11.8-7.7-26.3-10.1L79,335.7C79,335.7,68.8,327.6,57.2,321.6z"/>
<polygon class="st8" points="159.7,367.7 252.2,367.7 234.9,331.1 228.5,334.3 217,328.9 209.1,332.9 205.9,336.2 196.2,328.9 
	185.2,335.7 176.9,328.9 "/>
<polygon class="st1" points="81,291.9 61.8,304.7 55.6,319.3 62.6,324.8 78.7,335.3 93.4,328.1 104.6,321 126.1,332.9 130.9,332.9 
	128.5,311.3 116.5,298.3 102,290.3 102.3,256.1 83.6,256.1 "/>
<polygon class="st1" points="176.9,328.9 193,295.7 193,238.7 218.8,238.7 218.8,295.7 233.1,326.3 228.5,335.3 215.6,329.6 
	207.8,334.3 194.8,327.6 185.8,335.3 "/>
<polygon class="st1" points="200.3,237.2 196.2,225.8 216.9,225.8 211.4,237.2 "/>
<ellipse class="st3" cx="240.3" cy="195.1" rx="11.8" ry="9.7"/>
<ellipse class="st3" cx="153.7" cy="279.1" rx="7" ry="7.9"/>
<circle class="st3" cx="154.1" cy="145.8" r="4.9"/>
<polyline class="st3" points="61.6,312.4 105,295.7 105.9,289.1 99.4,258 86.5,258 84.1,294.7 64,300.5 61.6,312.4 "/>
<polygon class="st3" points="184.9,312.4 218.8,291.9 218.8,238.7 193,238.7 193,295.7 "/>
<path class="st9" d="M212.3,241.9h-12.9c-1.5,0-2.8-1-3.1-2.4l-3.2-12.9c-0.2-1,0-2,0.6-2.8s1.6-1.2,2.5-1.2h19.4
	c1,0,1.9,0.5,2.5,1.2c0.6,0.8,0.8,1.8,0.6,2.8l-3.2,12.9C215.1,240.9,213.8,241.9,212.3,241.9z M202,235.5h7.9l1.6-6.5h-11.1
	L202,235.5z"/>
<path class="st9" d="M96.2,254.8h-6.5v-29c0-1.8,1.4-3.2,3.2-3.2h29v6.5H96.2V254.8z"/>
<rect x="51" y="180.6" class="st4" width="12.9" height="6.5"/>
<rect x="76.9" y="180.6" class="st4" width="12.9" height="6.5"/>
<rect x="67.2" y="164.5" class="st5" width="6.5" height="12.9"/>
<rect x="67.2" y="190.3" class="st5" width="6.5" height="12.9"/>
<rect x="138.1" y="203.2" class="st5" width="12.9" height="6.5"/>
<rect x="164" y="203.2" class="st5" width="12.9" height="6.5"/>
<rect x="154.3" y="187.1" class="st4" width="6.5" height="12.9"/>
<rect x="154.3" y="212.9" class="st4" width="6.5" height="12.9"/>
<path class="st7" d="M93,370.9c-23.1,0-42-18.8-42-41.9c0-18.3,11.8-34.3,29-39.9v-34.3c0-1.8,1.4-3.2,3.2-3.2h19.4
	c1.8,0,3.2,1.4,3.2,3.2v34.3c17.2,5.6,29,21.6,29,39.9C134.9,352.1,116.1,370.9,93,370.9z M86.5,258v33.5c0,1.5-1,2.8-2.4,3.1
	c-15.7,4-26.6,18.2-26.6,34.3c0,19.6,15.9,35.5,35.5,35.5s35.5-15.9,35.5-35.5c0-16.2-10.9-30.3-26.6-34.3c-1.4-0.4-2.4-1.7-2.4-3.1
	V258H86.5z"/>
<path class="st10" d="M133.6,333.4c-0.6-0.7-1.5-1.2-2.4-1.2c-1,0-1.8-0.2-2.6-0.4c-0.2,2.1-1.7,4.1-1.8,6.2c0.1,0,0.2,0.1,0.4,0.1
	c-4.1,15.4-18,26.3-34.2,26.3c-19.6,0-35.5-15.9-35.5-35.5c0-0.9,0-1.8,0.1-2.8c3,0.8,4.9,2.8,7.3,5.1c3.3,3.3,7.4,7.4,15.2,7.4
	s11.9-4.1,15.2-7.4c3.1-3.1,5.5-5.5,10.6-5.5s7.6,2.4,10.6,5.5c2.7,2.6,5.6,5.6,10.3,6.8c0.1-2.1,1.6-4.1,1.8-6.2
	c-3.2-0.8-5.2-2.7-7.6-5.1c-3.3-3.3-7.4-7.4-15.2-7.4s-11.9,4.1-15.2,7.4c-3.1,3.1-5.5,5.5-10.6,5.5s-7.6-2.4-10.6-5.5
	c-2.7-2.7-5.7-5.6-10.5-6.8c-0.6,2-2.5,4-1.3,6.3c-1.2-2.3,0.7-4.3,1.3-6.3c-1.2-0.3-2.5-0.5-4-0.5c-1.8,0-3,1.1-3.3,2.7
	c-0.4,2.3-0.6,4.6-0.6,6.9c0,23.1,18.8,41.9,41.9,41.9c20.5,0,37.9-14.7,41.3-35C134.5,335,134.2,334.1,133.6,333.4z"/>
<path class="st7" d="M254.3,370.9h-96.8c-1.1,0-2.2-0.6-2.7-1.5c-0.6-1-0.6-2.1-0.1-3.1l35.1-70.3v-57.3c0-1.8,1.4-3.2,3.2-3.2h25.8
	c1.8,0,3.2,1.4,3.2,3.2V296l35.1,70.3c0.5,1,0.4,2.2-0.1,3.1C256.4,370.4,255.4,370.9,254.3,370.9z M162.7,364.5H249l-33.1-66.3
	c-0.2-0.4-0.3-0.9-0.3-1.4V242h-19.4v54.8c0,0.5-0.1,1-0.3,1.4L162.7,364.5z"/>
<path class="st10" d="M254.3,370.9h-96.8c-1.1,0-2.2-0.6-2.7-1.5c-0.6-1-0.6-2.1-0.1-3.1l19.4-38.7c0.4-0.8,1.2-1.4,2.1-1.7
	c0.9-0.2,1.8-0.1,2.6,0.4l7.9,5.3l7.9-5.3c1.1-0.7,2.5-0.7,3.6,0l7.9,5.3l7.9-5.3c1.1-0.7,2.5-0.7,3.6,0l7.9,5.3l7.9-5.3
	c0.8-0.5,1.7-0.7,2.6-0.4c0.9,0.2,1.6,0.8,2.1,1.7l19.4,38.7c0.5,1,0.4,2.2-0.1,3.1C256.4,370.4,255.4,370.9,254.3,370.9z
	 M162.7,364.5H249l-15.4-30.8l-6.6,4.4c-1.1,0.7-2.5,0.7-3.6,0l-7.9-5.3l-7.9,5.3c-1.1,0.7-2.5,0.7-3.6,0l-7.9-5.3l-7.9,5.3
	c-1.1,0.7-2.5,0.7-3.6,0l-6.6-4.4L162.7,364.5z"/>
<path class="st11" d="M153.2,291.9c-7.1,0-12.9-5.8-12.9-12.9s5.8-12.9,12.9-12.9c7.1,0,12.9,5.8,12.9,12.9S160.3,291.9,153.2,291.9
	z M153.2,272.6c-3.6,0-6.5,2.9-6.5,6.5s2.9,6.5,6.5,6.5s6.5-2.9,6.5-6.5S156.8,272.6,153.2,272.6z"/>
<path class="st5" d="M240.3,211.3c-8.9,0-16.1-7.2-16.1-16.1s7.2-16.1,16.1-16.1c8.9,0,16.1,7.2,16.1,16.1S249.2,211.3,240.3,211.3z
	 M240.3,185.5c-5.3,0-9.7,4.3-9.7,9.7c0,5.3,4.3,9.7,9.7,9.7c5.3,0,9.7-4.3,9.7-9.7S245.6,185.5,240.3,185.5z"/>
<rect x="189.8" y="341.9" class="st12" width="6.5" height="6.5"/>
<rect x="215.6" y="341.9" class="st12" width="6.5" height="6.5"/>
<rect x="176.9" y="351.6" class="st12" width="6.5" height="6.5"/>
<rect x="202.7" y="351.6" class="st12" width="6.5" height="6.5"/>
<rect x="228.5" y="351.6" class="st12" width="6.5" height="6.5"/>
<rect x="106.1" y="338.7" class="st12" width="6.5" height="6.5"/>
<rect x="93.4" y="348.4" class="st12" width="6.5" height="6.5"/>
<path class="st11" d="M153.7,153c-4.2,0-7.5-3.4-7.5-7.5s3.4-7.5,7.5-7.5c4.2,0,7.5,3.4,7.5,7.5S157.9,153,153.7,153z M153.7,140.9
	c-2.5,0-4.5,2-4.5,4.5s2,4.5,4.5,4.5s4.5-2,4.5-4.5S156.2,140.9,153.7,140.9z"/>
</svg>
