<svg xmlns="http://www.w3.org/2000/svg" xmlns:xlink="http://www.w3.org/1999/xlink" version="1.1" x="0px" y="0px" viewBox="0 0 100 100" enable-background="new 0 0 100 100" xml:space="preserve"><text transform="matrix(0.9094 -0.416 0.416 0.9094 -248.0459 111.0078)" display="none"><tspan x="0" y="0" display="inline" font-family="'FreeroadRegular'" font-size="81.5877">YOUR SHOPPING</tspan><tspan x="0" y="97.904" display="inline" font-family="'FreeroadRegular'" font-size="81.5877">CART IS EMPTY</tspan></text><path d="M95.598,4.812c-2.43,0-4.404,1.975-4.404,4.403c0,1.412,0.67,2.667,1.707,3.474c-1.225,3.18-3.473,5.433-4.867,6.6  L75.462,19.67l-1.36-8.787c-0.084-0.546-0.594-0.917-1.142-0.835c-0.546,0.084-0.919,0.596-0.835,1.141l1.322,8.542L0,21.957  l5.929,48.048l65.315,3.182c0.84,0.995,2.42,3.305,2.926,7.073L9.699,81.462c-1.382,0.026-2.48,1.167-2.455,2.549  c0.026,1.365,1.141,2.455,2.501,2.455c0.016,0,0.032,0,0.047,0l69.542-1.297v-2.456c0-6.506-2.576-10.664-4.152-12.602  l15.094-47.798c1.814-1.479,4.828-4.452,6.332-8.816C98.549,13.039,100,11.296,100,9.216C100,6.788,98.025,4.812,95.598,4.812z   M74.438,25.244l2.311,2.421l-2.311,2.421l-2.309-2.42L74.438,25.244z M65.562,46.947l2.311,2.42l-2.311,2.421l-1.232-1.292  c0.088-0.274,0.137-0.566,0.137-0.87v-1.53L65.562,46.947z M64.467,46.737v-0.94l0.447,0.47L64.467,46.737z M64.467,44.438v-2.05  c0-0.154-0.016-0.304-0.039-0.452l1.135-1.19l2.311,2.421l-2.311,2.421L64.467,44.438z M66.211,40.066l2.311-2.421l2.311,2.421  l-2.311,2.421L66.211,40.066z M65.562,39.387l-2.309-2.421l2.309-2.421l2.311,2.421L65.562,39.387z M64.914,40.066l-0.842,0.882  c-0.494-0.844-1.408-1.413-2.459-1.413h-0.812l1.805-1.89L64.914,40.066z M63.215,42.388v7.239c0,0.883-0.719,1.601-1.602,1.601  H24.338c-0.883,0-1.601-0.718-1.601-1.601v-7.239c0-0.882,0.718-1.601,1.601-1.601h37.275  C62.496,40.787,63.215,41.506,63.215,42.388z M59.646,39.387l-2.311-2.421l2.311-2.421l2.311,2.421L59.646,39.387z M58.492,39.536  h-3.609l1.805-1.891L58.492,39.536z M53.729,39.387l-2.309-2.421l2.311-2.421l2.309,2.421L53.729,39.387z M52.574,39.536h-3.607  l1.805-1.89L52.574,39.536z M47.812,39.387l-2.311-2.421l2.311-2.421l2.311,2.421L47.812,39.387z M46.658,39.536h-3.607l1.803-1.89  L46.658,39.536z M41.896,39.387l-2.31-2.421l2.31-2.421l2.31,2.421L41.896,39.387z M40.741,39.536h-3.606l1.804-1.89L40.741,39.536z   M35.979,39.387l-2.31-2.421l2.31-2.421l2.311,2.421L35.979,39.387z M34.825,39.536h-3.607l1.804-1.891L34.825,39.536z   M30.062,39.387l-2.31-2.421l2.31-2.421l2.31,2.421L30.062,39.387z M28.908,39.536h-3.607l1.804-1.89L28.908,39.536z M24.146,39.387  l-2.31-2.421l2.31-2.421l2.31,2.421L24.146,39.387z M23.212,39.768c-0.949,0.409-1.63,1.318-1.715,2.396l-0.31,0.325l-2.31-2.421  l2.31-2.42L23.212,39.768z M20.539,49.368l-2.31,2.421l-2.31-2.421l2.31-2.42L20.539,49.368z M15.919,43.167l2.31-2.421l2.31,2.421  l-2.31,2.421L15.919,43.167z M18.877,46.268l2.31-2.421l0.298,0.312v4.217l-0.298,0.312L18.877,46.268z M18.229,39.387l-2.31-2.421  l2.31-2.421l2.31,2.421L18.229,39.387z M17.581,40.066l-2.31,2.421l-2.31-2.42l2.31-2.421L17.581,40.066z M17.581,46.268  l-2.31,2.421l-2.31-2.421l2.31-2.421L17.581,46.268z M17.581,52.468l-2.31,2.421l-2.31-2.421l2.31-2.42L17.581,52.468z   M18.229,53.147l2.31,2.421l-2.31,2.421l-2.31-2.421L18.229,53.147z M18.877,52.468l2.31-2.42l0.438,0.459  c0.267,0.824,0.898,1.481,1.704,1.786l0.168,0.176l-2.31,2.421L18.877,52.468z M24.146,53.147l2.31,2.421l-2.31,2.421l-2.311-2.421  L24.146,53.147z M24.804,52.479h4.6l-2.3,2.41L24.804,52.479z M30.062,53.147l2.31,2.421l-2.31,2.421l-2.31-2.421L30.062,53.147z   M30.721,52.479h4.6l-2.3,2.41L30.721,52.479z M35.979,53.147l2.311,2.421l-2.311,2.421l-2.31-2.421L35.979,53.147z M36.637,52.479  h4.6l-2.299,2.41L36.637,52.479z M41.896,53.147l2.31,2.421l-2.31,2.421l-2.31-2.421L41.896,53.147z M42.555,52.479h4.599l-2.3,2.41  L42.555,52.479z M47.812,53.147l2.311,2.421l-2.311,2.421l-2.311-2.421L47.812,53.147z M48.471,52.479h4.6l-2.299,2.41  L48.471,52.479z M53.729,53.147l2.311,2.422l-2.309,2.42l-2.311-2.421L53.729,53.147z M54.387,52.479h4.602l-2.301,2.411  L54.387,52.479z M59.646,53.147l2.311,2.421l-2.311,2.421l-2.311-2.42L59.646,53.147z M60.305,52.479h1.309  c0.918,0,1.732-0.435,2.254-1.108l1.047,1.097l-2.309,2.421L60.305,52.479z M65.562,53.147l2.311,2.421l-2.311,2.421l-2.309-2.421  L65.562,53.147z M66.211,52.468l2.311-2.421l2.311,2.421l-2.311,2.422L66.211,52.468z M66.211,46.268l2.311-2.421l2.311,2.421  l-2.311,2.42L66.211,46.268z M69.17,43.167l2.311-2.421l2.309,2.421l-2.309,2.421L69.17,43.167z M69.17,36.966l2.311-2.421  l2.309,2.421l-2.309,2.421L69.17,36.966z M72.129,33.866l2.309-2.421l2.311,2.421l-2.311,2.421L72.129,33.866z M73.789,30.765  l-2.309,2.421l-2.311-2.421l2.311-2.421L73.789,30.765z M70.832,33.866l-2.311,2.421l-2.311-2.42l2.311-2.421L70.832,33.866z   M65.562,33.187l-2.311-2.421l2.311-2.421l2.311,2.421L65.562,33.187z M64.914,33.866l-2.309,2.421l-2.311-2.421l2.309-2.421  L64.914,33.866z M59.646,33.186l-2.311-2.42l2.311-2.421l2.309,2.42L59.646,33.186z M58.998,33.866l-2.311,2.421l-2.311-2.421  l2.311-2.42L58.998,33.866z M53.73,33.187l-2.311-2.421l2.309-2.421l2.311,2.421L53.73,33.187z M53.08,33.866l-2.309,2.42  l-2.311-2.42l2.311-2.421L53.08,33.866z M47.812,33.187l-2.311-2.421l2.311-2.421l2.311,2.421L47.812,33.187z M47.164,33.866  l-2.31,2.42l-2.31-2.421l2.31-2.42L47.164,33.866z M41.896,33.187l-2.31-2.421l2.31-2.421l2.31,2.421L41.896,33.187z M41.248,33.866  l-2.31,2.421l-2.311-2.42l2.311-2.421L41.248,33.866z M35.979,33.187l-2.31-2.421l2.31-2.421l2.311,2.421L35.979,33.187z   M35.331,33.866l-2.31,2.42l-2.31-2.42l2.31-2.421L35.331,33.866z M30.062,33.187l-2.31-2.421l2.31-2.421l2.31,2.421L30.062,33.187z   M29.414,33.866l-2.31,2.421l-2.31-2.421l2.31-2.421L29.414,33.866z M24.146,33.186l-2.31-2.42l2.31-2.421l2.31,2.421L24.146,33.186  z M23.497,33.866l-2.31,2.421l-2.31-2.42l2.31-2.421L23.497,33.866z M18.229,33.187l-2.31-2.421l2.31-2.421l2.31,2.421  L18.229,33.187z M17.581,33.866l-2.31,2.42l-2.31-2.421l2.31-2.42L17.581,33.866z M12.312,33.187l-2.31-2.421l2.31-2.421l2.31,2.421  L12.312,33.187z M11.664,33.866l-2.31,2.421l-2.31-2.421l2.31-2.42L11.664,33.866z M12.312,34.545l2.31,2.421l-2.31,2.421  l-2.311-2.421L12.312,34.545z M14.622,43.167l-2.31,2.421l-2.31-2.421l2.311-2.421L14.622,43.167z M14.622,49.368l-2.31,2.421  l-2.311-2.421l2.31-2.42L14.622,49.368z M14.622,55.568l-2.31,2.421l-2.31-2.421l2.311-2.421L14.622,55.568z M15.271,56.248  l2.31,2.421l-2.31,2.421l-2.31-2.421L15.271,56.248z M18.229,59.349l2.31,2.421l-2.31,2.421l-2.31-2.421L18.229,59.349z   M18.877,58.669l2.31-2.421l2.31,2.421l-2.31,2.421L18.877,58.669z M24.146,59.349l2.31,2.421l-2.31,2.421l-2.31-2.421  L24.146,59.349z M24.794,58.669l2.31-2.421l2.31,2.421l-2.31,2.421L24.794,58.669z M30.062,59.349l2.31,2.421l-2.31,2.421  l-2.31-2.421L30.062,59.349z M30.711,58.669l2.31-2.421l2.31,2.421l-2.31,2.421L30.711,58.669z M35.979,59.349l2.311,2.421  l-2.311,2.421l-2.31-2.421L35.979,59.349z M36.627,58.669l2.311-2.421l2.31,2.421l-2.31,2.421L36.627,58.669z M41.896,59.349  l2.31,2.421l-2.31,2.421l-2.31-2.421L41.896,59.349z M42.544,58.669l2.31-2.421l2.31,2.421l-2.31,2.421L42.544,58.669z   M47.812,59.349l2.311,2.421l-2.311,2.421l-2.311-2.421L47.812,59.349z M48.461,58.669l2.311-2.421l2.309,2.421l-2.309,2.421  L48.461,58.669z M53.73,59.349l2.309,2.421l-2.311,2.421L51.42,61.77L53.73,59.349z M54.377,58.669l2.311-2.421l2.311,2.421  l-2.311,2.421L54.377,58.669z M59.646,59.349l2.309,2.421l-2.309,2.421l-2.311-2.421L59.646,59.349z M60.295,58.669l2.311-2.421  l2.309,2.421l-2.311,2.421L60.295,58.669z M65.562,59.349l2.311,2.421l-2.311,2.421l-2.311-2.421L65.562,59.349z M66.211,58.669  l2.311-2.421l2.311,2.421l-2.311,2.421L66.211,58.669z M69.17,55.569l2.311-2.422l2.309,2.421l-2.309,2.421L69.17,55.569z   M69.17,49.368l2.311-2.42l2.309,2.42l-2.309,2.421L69.17,49.368z M72.129,46.268l2.309-2.421l2.311,2.421l-2.311,2.421  L72.129,46.268z M72.129,40.067l2.309-2.421l2.311,2.42l-2.311,2.421L72.129,40.067z M75.086,36.966l2.311-2.421l2.311,2.421  l-2.311,2.421L75.086,36.966z M75.086,30.765l2.311-2.421l2.311,2.421l-2.311,2.421L75.086,30.765z M78.045,27.665l2.311-2.421  l2.309,2.421l-2.309,2.42L78.045,27.665z M79.707,24.565l-2.311,2.42l-2.195-2.301l4.49-0.136L79.707,24.565z M73.631,24.732  l-2.15,2.253l-2.029-2.127L73.631,24.732z M70.832,27.665l-2.311,2.421l-2.311-2.421l2.311-2.421L70.832,27.665z M67.537,24.917  l-1.975,2.068l-1.863-1.952L67.537,24.917z M64.914,27.665l-2.311,2.421l-2.309-2.421l2.311-2.421L64.914,27.665z M61.443,25.102  l-1.797,1.884l-1.697-1.778L61.443,25.102z M56.689,25.246l2.309,2.42l-2.311,2.42l-2.311-2.42l2.311-2.419L56.689,25.246z   M55.352,25.286l-1.621,1.7l-1.531-1.604L55.352,25.286z M50.939,25.42l2.141,2.246l-2.309,2.42l-2.311-2.421l2.133-2.234  L50.939,25.42z M49.258,25.471l-1.445,1.515l-1.363-1.43L49.258,25.471z M45.188,25.594l1.977,2.071l-2.31,2.421l-2.31-2.421  l1.956-2.05L45.188,25.594z M43.165,25.656l-1.269,1.33l-1.198-1.255L43.165,25.656z M39.438,25.769l1.81,1.896l-2.31,2.421  l-2.311-2.421l1.781-1.865L39.438,25.769z M37.073,25.84l-1.094,1.146l-1.031-1.081L37.073,25.84z M33.687,25.943l1.644,1.722  l-2.31,2.421l-2.31-2.421l1.604-1.681L33.687,25.943z M30.979,26.025l-0.917,0.961l-0.865-0.907L30.979,26.025z M27.937,26.117  l1.478,1.548l-2.31,2.421l-2.31-2.42l1.428-1.497L27.937,26.117z M24.886,26.209l-0.74,0.776l-0.699-0.733L24.886,26.209z   M20.129,26.354l2.058-0.062l1.311,1.374l-2.31,2.421l-2.31-2.421L20.129,26.354z M18.793,26.394l-0.564,0.591l-0.533-0.558  L18.793,26.394z M14.036,26.538l2.399-0.072l1.145,1.199l-2.31,2.421l-2.31-2.421L14.036,26.538z M12.7,26.579l-0.388,0.407  l-0.366-0.384L12.7,26.579z M7.943,26.723l2.742-0.083l0.979,1.025l-2.31,2.421l-2.31-2.421L7.943,26.723z M6.607,26.763  l-0.212,0.222l-0.2-0.209L6.607,26.763z M5.747,27.666L5.747,27.666L5.747,27.666L5.747,27.666z M5.895,28.869l0.5-0.524l2.31,2.421  l-2.282,2.391L5.895,28.869z M6.625,34.786l2.08,2.18l-1.604,1.681L6.625,34.786z M7.25,39.851l2.104-2.205l2.31,2.421l-2.31,2.421  l-2.042-2.141L7.25,39.851z M7.504,41.908l1.202,1.259l-0.926,0.971L7.504,41.908z M7.928,45.341l1.426-1.495l2.31,2.421l-2.31,2.42  L8.19,47.469L7.928,45.341z M8.383,49.03l0.323,0.338l-0.249,0.26L8.383,49.03z M8.605,50.832l0.749-0.785l2.31,2.421l-2.31,2.421  l-0.285-0.298L8.605,50.832z M9.283,56.322l0.071-0.074l2.31,2.421l-1.852,1.94L9.283,56.322z M11.294,65.257l-0.915-0.045  l-0.239-1.938l1.523,1.597L11.294,65.257z M10.002,61.77l2.31-2.421l2.31,2.421l-2.31,2.421L10.002,61.77z M16.948,65.532  l-3.519-0.172l-0.469-0.49l2.31-2.421l2.31,2.421L16.948,65.532z M18.188,65.592l0.041-0.043l0.045,0.048L18.188,65.592z   M22.603,65.808l-2.968-0.145l-0.757-0.793l2.31-2.421l2.31,2.421L22.603,65.808z M23.842,65.868l0.304-0.319l0.333,0.351  L23.842,65.868z M28.256,66.083l-2.417-0.118l-1.045-1.095l2.31-2.421l2.31,2.421L28.256,66.083z M29.496,66.144l0.567-0.595  l0.622,0.652L29.496,66.144z M32.044,66.268l-1.333-1.397l2.31-2.421l2.31,2.421l-1.42,1.488L32.044,66.268z M35.15,66.418  l0.829-0.869l0.91,0.954L35.15,66.418z M38.25,66.569l-1.623-1.699l2.311-2.421l2.31,2.421l-1.683,1.764L38.25,66.569z   M40.803,66.694l1.093-1.146l1.198,1.257L40.803,66.694z M44.455,66.872l-1.91-2.002l2.31-2.421l2.31,2.421l-1.945,2.039  L44.455,66.872z M46.457,66.97l1.355-1.421l1.486,1.559L46.457,66.97z M50.66,67.174l-2.199-2.304l2.311-2.422l2.309,2.421  l-2.209,2.315L50.66,67.174z M52.111,67.244l1.619-1.695l1.775,1.861L52.111,67.244z M54.377,64.87l2.311-2.422l2.311,2.422  l-2.311,2.42L54.377,64.87z M57.766,67.521l1.881-1.972l2.064,2.163L57.766,67.521z M60.295,64.87l2.309-2.421l2.311,2.421  l-2.309,2.421L60.295,64.87z M67.834,68.011l-4.414-0.215l2.143-2.247l2.311,2.422L67.834,68.011z M66.211,64.87l2.311-2.422  l2.311,2.422l-2.311,2.421L66.211,64.87z M70.557,68.144l-1.281-0.062l-0.105-0.11l2.154-2.258L70.557,68.144z M71.965,63.683  L71.48,64.19L69.17,61.77l2.311-2.421l1.393,1.46L71.965,63.683z M73.195,59.787l-1.068-1.118l2.123-2.224L73.195,59.787z   M74.891,54.414l-0.453,0.475l-2.309-2.421l2.309-2.42l1.377,1.443L74.891,54.414z M76.137,50.469l-1.051-1.102l2.09-2.19  L76.137,50.469z M77.818,45.146l-0.422,0.442l-2.311-2.421l2.311-2.421l1.361,1.426L77.818,45.146z M79.08,41.151l-1.035-1.085  l2.059-2.157L79.08,41.151z M80.744,35.878l-0.389,0.409l-2.311-2.42l2.311-2.421l1.344,1.409L80.744,35.878z M82.021,31.833  l-1.018-1.067l2.025-2.124L82.021,31.833z M83.672,26.611l-0.359,0.375l-2.309-2.421l0.055-0.058l3.309-0.1L83.672,26.611z   M95.598,11.586c-1.309,0-2.371-1.063-2.371-2.37c0-1.307,1.062-2.371,2.371-2.371c1.307,0,2.369,1.063,2.369,2.371  C97.967,10.522,96.904,11.586,95.598,11.586z"></path><path d="M11.701,88.029c-1.725,0-3.127,1.403-3.127,3.128s1.403,3.128,3.127,3.128s3.127-1.403,3.127-3.128  S13.425,88.029,11.701,88.029z"></path><path d="M75.635,87.042c-1.996,0-3.621,1.625-3.621,3.622c0,1.996,1.625,3.621,3.621,3.621c1.998,0,3.621-1.625,3.621-3.621  C79.256,88.667,77.633,87.042,75.635,87.042z"></path></svg>