<?xml version="1.0" encoding="utf-8"?>
<!-- Generator: Adobe Illustrator 20.0.0, SVG Export Plug-In . SVG Version: 6.00 Build 0)  -->
<svg version="1.1" id="Layer_2" xmlns="http://www.w3.org/2000/svg" xmlns:xlink="http://www.w3.org/1999/xlink" x="0px" y="0px"
	 width="372.3px" height="188px" viewBox="0 0 372.3 188" style="enable-background:new 0 0 372.3 188;" xml:space="preserve">
<style type="text/css">
	.st0{fill:#010101;}
</style>
<g>
	<path class="st0" d="M256.5,71.3c0.3-0.2,0.5-0.5,0.6-0.8c-0.1,0.2-0.2,0.3-0.3,0.4c-0.4,0.4-1,0.7-1.7,0.7c-0.6,0-1.2-0.2-1.7-0.7
		c-0.4-0.4-0.7-1-0.7-1.7c0-0.6,0.2-1.2,0.7-1.7c0.4-0.4,1-0.7,1.7-0.7h0.1c-0.6-0.2-1.2-0.1-1.8,0.2l-0.2,0.1
		c-0.2,0.1-0.3,0.2-0.5,0.4c-1,1-1,2.8-0.1,3.8C253.7,72.4,255.4,72.4,256.5,71.3z"/>
	<path class="st0" d="M24.7,133.8c-0.6,0-1.2-0.2-1.7-0.7c-0.4-0.4-0.7-1-0.7-1.7c0-0.6,0.2-1.2,0.7-1.7s1.2-0.8,1.9-0.7
		c-0.2-0.1-0.4-0.1-0.6-0.1c-0.7,0-1.4,0.3-1.9,0.8c-1.1,1.1-1.1,2.8,0,3.9c1,0.9,2.4,1.1,3.5,0.3l0.3-0.3c0.2-0.3,0.4-0.5,0.5-0.8
		c-0.1,0.1-0.2,0.2-0.3,0.3C26,133.5,25.4,133.8,24.7,133.8z"/>
	<path class="st0" d="M23.8,130.4c-0.3,0.2-0.4,0.6-0.4,1c0,0.4,0.1,0.7,0.4,1s0.7,0.4,1,0.4c0.4,0,0.7-0.1,1-0.4
		c0.5-0.6,0.5-1.5,0-2c-0.3-0.3-0.6-0.4-1-0.4C24.4,130,24.1,130.1,23.8,130.4z"/>
	<path class="st0" d="M60.4,130.1l-5.6-5.6c-0.4-0.4-1-0.4-1.4,0l-5.6,5.6c-0.4,0.3-0.4,0.9,0,1.3l5.6,5.6c0.4,0.4,0.9,0.4,1.3,0.1
		l0.3,0.4l5.9-5.8l-0.4-0.3C60.8,131,60.7,130.4,60.4,130.1z"/>
	<path class="st0" d="M35.2,125.8c-0.4,0-0.7,0.1-1,0.4c-0.6,0.5-0.6,1.4,0,2c0.5,0.6,1.4,0.6,2,0c0.6-0.5,0.6-1.4,0-2
		C35.9,126,35.6,125.8,35.2,125.8z"/>
	<path class="st0" d="M254.2,68.2c-0.2,0.2-0.4,0.6-0.4,1c0,0.4,0.1,0.7,0.4,1c0.2,0.3,0.6,0.4,1,0.4c0.4,0,0.7-0.1,1-0.4
		c0.5-0.6,0.5-1.5,0-2c-0.3-0.3-0.6-0.4-1-0.4C254.8,67.8,254.5,67.9,254.2,68.2z"/>
	<path class="st0" d="M263,57.2c-0.4,0.4-1,0.7-1.7,0.7c-0.6,0-1.2-0.2-1.7-0.7c-0.4-0.4-0.7-1-0.7-1.7c0-0.6,0.2-1.2,0.7-1.7
		c0.4-0.4,1-0.7,1.7-0.7c0.1,0,0.1,0,0.2,0c-0.2-0.1-0.4-0.1-0.6-0.1c-0.7,0-1.4,0.3-1.9,0.8c-1.1,1.1-1.1,2.8,0,3.9
		c1.1,1.1,2.8,1.1,3.9,0c0.3-0.2,0.5-0.5,0.4-0.9C263.2,56.9,263.1,57.1,263,57.2z"/>
	<path class="st0" d="M306.5,64.9l4.7,4.7c0.2,0.2,0.4,0.3,0.7,0.3s0.5-0.1,0.7-0.3l4.8-4.8c0.2-0.2,0.3-0.4,0.3-0.7
		c0-0.3-0.1-0.5-0.3-0.7l-4.8-4.8c-0.2-0.2-0.4-0.3-0.7-0.3c-0.2,0-0.5,0.1-0.7,0.3l-4.8,4.8c-0.3,0.3-0.4,0.8-0.1,1.2L306.5,64.9z"
		/>
	<path class="st0" d="M241.2,62.6c-0.6,0.5-0.6,1.4,0,2c0.5,0.6,1.4,0.6,2,0c0.6-0.6,0.6-1.5,0-2c-0.3-0.3-0.6-0.4-1-0.4
		C241.8,62.2,241.5,62.3,241.2,62.6z"/>
	<path class="st0" d="M33.5,129c-0.9-1-0.9-2.5,0-3.5c0.4-0.4,1-0.7,1.7-0.7h-0.1c-0.1,0-0.3,0-0.4,0c-0.7,0-1.4,0.3-1.9,0.8
		s-0.8,1.2-0.8,1.9s0.3,1.4,0.8,1.9c1.1,1.1,2.8,1.1,3.9,0c0.3-0.2,0.5-0.5,0.6-0.8c-0.1,0.1-0.2,0.2-0.3,0.4
		C36,130,34.5,130,33.5,129z"/>
	<path class="st0" d="M227.2,65.7c0.3-0.2,0.5-0.5,0.6-0.8c-0.1,0.2-0.2,0.3-0.3,0.4c-0.4,0.4-1,0.7-1.7,0.7c-0.6,0-1.2-0.2-1.7-0.7
		c-0.9-1-1-2.5,0-3.5c0.4-0.4,1-0.7,1.7-0.7c0,0,0.1,0,0.2,0c-0.3-0.1-0.4-0.1-0.7-0.1c-0.7,0-1.4,0.3-1.9,0.8s-0.7,1.1-0.8,1.7
		l-0.1,0.4v0.2c0.1,0.6,0.4,1.2,0.8,1.6C224.4,66.8,226.1,66.8,227.2,65.7z"/>
	<path class="st0" d="M9.1,133.8c-0.6,0.5-0.6,1.4,0,2c0.5,0.6,1.4,0.6,2,0c0.6-0.6,0.6-1.5,0-2c-0.3-0.3-0.6-0.4-1-0.4
		C9.7,133.4,9.4,133.5,9.1,133.8z"/>
	<path class="st0" d="M8.3,136.5c-0.9-1-1-2.5,0-3.5c0.5-0.5,1.2-0.7,1.9-0.7c-0.2-0.1-0.4-0.1-0.6-0.1c-0.7,0-1.4,0.3-1.9,0.8
		c-1.1,1.1-1.1,2.8,0,3.9c1.1,1.1,2.8,1.1,3.9,0c0.3-0.2,0.4-0.5,0.5-0.8c-0.1,0.1-0.2,0.3-0.3,0.4C10.8,137.4,9.3,137.4,8.3,136.5z
		"/>
	<path class="st0" d="M273.1,69.9c0.2,0.2,0.4,0.3,0.7,0.3c0.3,0,0.5-0.1,0.7-0.3l4.8-4.8c0.2-0.2,0.3-0.4,0.3-0.7
		c0-0.3-0.1-0.5-0.3-0.7l-4.8-4.8c-0.2-0.2-0.4-0.3-0.7-0.3c-0.3,0-0.5,0.1-0.7,0.3l-4.8,4.8c-0.2,0.2-0.3,0.4-0.3,0.7
		c0,0.3,0.1,0.5,0.3,0.7l4.3,4.3L273.1,69.9z"/>
	<path class="st0" d="M224.8,62.5c-0.6,0.5-0.6,1.4,0,2c0.3,0.3,0.6,0.4,1,0.4c0.3,0,0.7-0.1,1-0.4c0.6-0.6,0.6-1.5,0-2
		c-0.3-0.2-0.6-0.4-1-0.4C225.4,62.1,225.1,62.2,224.8,62.5z"/>
	<path class="st0" d="M243.6,65.8c0.3-0.2,0.5-0.5,0.6-0.8c-0.1,0.1-0.2,0.3-0.3,0.4c-1,1-2.5,1-3.5,0c-0.9-1-1-2.5,0-3.5
		c0.4-0.4,1-0.7,1.7-0.7c0.1,0,0.1,0,0.2,0c-0.2-0.1-0.4-0.1-0.6-0.1c-0.7,0-1.4,0.2-2,0.8c-1.1,1.1-1.1,2.8,0,3.9
		C240.8,66.8,242.6,66.8,243.6,65.8z"/>
	<path class="st0" d="M39.6,99.7c-0.2,0.2-0.4,0.6-0.4,1c0,0.4,0.1,0.7,0.4,1c0.3,0.3,0.6,0.4,1,0.4c0.4,0,0.7-0.1,1-0.4
		c0.3-0.3,0.4-0.6,0.4-1c0-0.4-0.2-0.7-0.4-1c-0.3-0.3-0.6-0.4-1-0.4C40.2,99.3,39.9,99.4,39.6,99.7z"/>
	<path class="st0" d="M40.5,103.1c-0.6,0-1.2-0.2-1.7-0.7c-0.4-0.4-0.7-1-0.7-1.7c0-0.6,0.2-1.2,0.7-1.7c0.4-0.4,1-0.7,1.7-0.7h0.1
		c-0.2-0.1-0.4-0.1-0.6-0.1c-0.7,0-1.4,0.3-1.9,0.8c-1.1,1.1-1.1,2.8,0,3.9c1.1,1.1,2.8,1.1,3.9,0c0.3-0.2,0.4-0.5,0.5-0.9
		c-0.1,0.2-0.2,0.3-0.3,0.4C41.8,102.8,41.2,103.1,40.5,103.1z"/>
	<path class="st0" d="M26.9,124.4c-0.6,0-1.2-0.2-1.7-0.7c-1-1-1-2.5,0-3.5c0.4-0.4,1-0.7,1.7-0.7H27c-0.1-0.1-0.3-0.1-0.5-0.1
		c-0.7,0-1.4,0.3-1.9,0.8c-1.1,1.1-1.1,2.8,0,3.9c0.5,0.5,1.2,0.8,1.9,0.8s1.4-0.3,1.9-0.8c0.2-0.3,0.4-0.5,0.5-0.8
		c-0.1,0.1-0.2,0.3-0.3,0.4C28.2,124.1,27.6,124.4,26.9,124.4z"/>
	<path class="st0" d="M24.4,97.4c0.7,0,1.4-0.3,1.9-0.8c0.3-0.3,0.5-0.6,0.6-0.9c-0.1,0.1-0.2,0.3-0.3,0.4c-0.4,0.4-1,0.7-1.7,0.7
		c-0.6,0-1.2-0.2-1.7-0.7c-1-0.9-1-2.4,0-3.4c0.5-0.5,1.2-0.7,1.9-0.7c-0.3-0.1-0.5-0.1-0.7-0.1c-0.7,0-1.4,0.3-1.9,0.8
		s-0.8,1.2-0.8,2c0,0.7,0.3,1.4,0.8,1.9S23.7,97.4,24.4,97.4z"/>
	<path class="st0" d="M260.5,54.5c-0.3,0.3-0.4,0.6-0.4,1s0.1,0.7,0.4,1s0.6,0.4,1,0.4c0.4,0,0.7-0.1,1-0.4c0.2-0.2,0.4-0.6,0.4-1
		c0-0.3-0.2-0.7-0.4-1c-0.3-0.3-0.6-0.4-1-0.4C261.1,54.1,260.8,54.2,260.5,54.5z"/>
	<path class="st0" d="M23.9,93.4c-0.6,0.5-0.6,1.4,0,2c0.3,0.3,0.6,0.4,1,0.4c0.4,0,0.7-0.1,1-0.4c0.2-0.2,0.4-0.6,0.4-1
		c0-0.4-0.1-0.8-0.4-1c-0.3-0.3-0.6-0.4-1-0.4C24.6,93,24.2,93.1,23.9,93.4z"/>
	<path class="st0" d="M251.8,45.3c0.3-0.2,0.5-0.5,0.6-0.8c-0.1,0.1-0.2,0.3-0.3,0.4c-1,1-2.5,1-3.5,0c-0.4-0.4-0.7-1-0.7-1.7
		c0-0.6,0.2-1.2,0.7-1.7c0.4-0.4,1-0.7,1.7-0.7c0.1,0,0.1,0,0.2,0c-0.9-0.2-1.8,0-2.5,0.7l-0.2,0.2l-0.1,0.2c-0.9,1-0.8,2.6,0.2,3.4
		C249,46.4,250.7,46.4,251.8,45.3z"/>
	<path class="st0" d="M263.7,32.5c-0.2,0.3-0.4,0.6-0.4,1s0.1,0.7,0.4,1c0.5,0.6,1.4,0.6,2,0s0.6-1.5,0-2c-0.3-0.3-0.6-0.4-1-0.4
		C264.4,32.1,264,32.2,263.7,32.5z"/>
	<path class="st0" d="M266.1,35.6c0.3-0.2,0.5-0.5,0.6-0.8c-0.1,0.2-0.2,0.3-0.3,0.4c-1,0.9-2.5,1-3.5,0c-0.4-0.4-0.7-1-0.7-1.7
		c0-0.6,0.2-1.2,0.7-1.7s1.2-0.7,1.9-0.7c-0.2-0.1-0.4-0.1-0.6-0.1c-0.7,0-1.4,0.3-1.9,0.8c-0.4,0.4-0.7,0.9-0.8,1.5v0.1h-0.1v0.3
		c0,0.7,0.3,1.4,0.8,1.9C263.3,36.7,265,36.7,266.1,35.6z"/>
	<path class="st0" d="M61.9,62.1c0.4,0.2,0.8,0.1,1.1-0.2l5.7-5.6c0.2-0.2,0.3-0.4,0.3-0.7c0-0.3-0.1-0.5-0.3-0.7l-5.6-5.6
		c-0.4-0.4-1-0.4-1.4,0l-5.6,5.6c-0.4,0.4-0.4,1,0,1.4l5.6,5.7L61.9,62.1z"/>
	<path class="st0" d="M36.2,83.8c0.4,0.4,1,0.4,1.4,0l5.6-5.6c0.2-0.2,0.3-0.4,0.3-0.7s-0.1-0.5-0.3-0.7l-5.6-5.6
		c-0.4-0.4-1-0.4-1.4,0l-5.6,5.6c-0.2,0.2-0.3,0.4-0.3,0.7s0.1,0.5,0.3,0.7l5.2,5.2L36.2,83.8z"/>
	<path class="st0" d="M102.5,16.3c0.2,0.2,0.4,0.3,0.7,0.3s0.5-0.1,0.7-0.3l5.5-5.5l0.1-0.1l0.1-0.1l0.1-0.2c0.1-0.4,0.1-0.7-0.2-1
		L104,3.9c-0.2-0.2-0.4-0.3-0.7-0.3s-0.5,0.1-0.7,0.3l-5.5,5.5c-0.4,0.3-0.4,0.9-0.1,1.4L102.5,16.3z"/>
	<path class="st0" d="M249.3,42.3c-0.3,0.3-0.4,0.6-0.4,1c0,0.4,0.1,0.7,0.4,1c0.5,0.6,1.4,0.6,2,0c0.2-0.2,0.4-0.6,0.4-1
		c0-0.4-0.1-0.7-0.4-1c-0.3-0.3-0.6-0.4-1-0.4C249.9,41.9,249.6,42,249.3,42.3z"/>
	<path class="st0" d="M25.9,120.9c-0.6,0.5-0.6,1.4,0,2c0.3,0.3,0.6,0.4,1,0.4c0.4,0,0.7-0.1,1-0.4c0.6-0.5,0.6-1.4,0-2
		c-0.3-0.3-0.6-0.4-1-0.4C26.5,120.5,26.2,120.6,25.9,120.9z"/>
	<path class="st0" d="M281.4,42.4l0.2,0.2c1.1,0.9,2.6,0.8,3.6-0.2c0.3-0.2,0.5-0.5,0.6-0.8c-0.1,0.1-0.2,0.3-0.3,0.4
		c-0.4,0.4-1,0.7-1.7,0.7c-0.6,0-1.2-0.2-1.7-0.7c-1-1-1-2.5,0-3.5c0.4-0.4,1-0.7,1.7-0.7c0.1,0,0.2,0,0.2,0c-0.8-0.2-1.8,0-2.5,0.7
		c-1.1,1-1.1,2.7-0.2,3.8L281.4,42.4z"/>
	<path class="st0" d="M7.8,112.3c-0.6,0.5-0.6,1.4,0,2c0.5,0.6,1.4,0.6,2,0c0.3-0.3,0.4-0.6,0.4-1c0-0.4-0.1-0.7-0.4-1
		c-0.3-0.2-0.6-0.4-1-0.4C8.4,111.9,8.1,112,7.8,112.3z"/>
	<path class="st0" d="M282.9,39.2c-0.6,0.5-0.6,1.4,0,2c0.3,0.2,0.6,0.4,1,0.4c0.4,0,0.7-0.1,1-0.4c0.5-0.6,0.5-1.5,0-2
		C284.4,38.6,283.5,38.6,282.9,39.2z"/>
	<path class="st0" d="M233.6,69.1c-0.2,0.3-0.4,0.6-0.4,1c0,0.4,0.1,0.7,0.4,1c0.3,0.3,0.6,0.4,1,0.4c0.4,0,0.7-0.1,1-0.4
		c0.5-0.5,0.5-1.4,0-2C235.1,68.5,234.2,68.5,233.6,69.1z"/>
	<path class="st0" d="M91.8,55.3l-0.3-0.1h-0.1c-0.1,0.1-0.3,0.1-0.5,0.3l-5.6,5.6c-0.2,0.2-0.3,0.4-0.3,0.5l-0.1,0.2L85,62
		c0,0.1,0.1,0.3,0.2,0.4l5.6,5.6c0.2,0.2,0.4,0.3,0.7,0.3s0.5-0.1,0.7-0.3l5.6-5.6c0.4-0.4,0.4-1,0-1.4l-5.6-5.5
		C92.1,55.4,92,55.3,91.8,55.3z"/>
	<path class="st0" d="M16.3,119.7c-0.6,0.5-0.6,1.4,0,2c0.5,0.6,1.4,0.6,2,0c0.3-0.3,0.4-0.6,0.4-1c0-0.3-0.1-0.7-0.4-1
		c-0.3-0.3-0.6-0.4-1-0.4C16.9,119.3,16.6,119.4,16.3,119.7z"/>
	<path class="st0" d="M10.2,115.5c0.3-0.2,0.5-0.5,0.6-0.8c-0.1,0.2-0.2,0.3-0.3,0.4c-1,1-2.5,1-3.5,0s-1-2.5,0-3.5
		c0.4-0.4,1-0.7,1.7-0.7c0.1,0,0.1,0,0.2,0c-0.2-0.1-0.4-0.1-0.6-0.1c-0.7,0-1.4,0.3-1.9,0.8s-0.8,1.2-0.8,1.9c0,0.8,0.3,1.4,0.8,2
		c0.5,0.5,1.2,0.8,1.9,0.8S9.7,116,10.2,115.5z"/>
	<path class="st0" d="M15.4,122.5c-1-1-1-2.5,0-3.5c0.5-0.5,1.2-0.7,1.9-0.7c-0.9-0.2-1.8,0-2.5,0.7c-1.1,1.1-1.1,2.8,0,3.9
		c1.1,1.1,2.8,1.1,3.9,0c0.3-0.2,0.5-0.5,0.5-0.8c-0.1,0.1-0.2,0.3-0.3,0.4C17.9,123.4,16.4,123.5,15.4,122.5z"/>
	<path class="st0" d="M56,103.6c0.4,0.4,1,0.4,1.4,0L63,98c0.2-0.2,0.3-0.4,0.3-0.7s-0.1-0.5-0.3-0.7L57.4,91
		c-0.2-0.2-0.4-0.3-0.7-0.3S56.2,90.8,56,91l-5.7,5.5c0,0.1-0.1,0.1-0.1,0.2l-0.1,0.2v0.2c0,0.3,0.1,0.6,0.3,0.9L56,103.6z"/>
	<path class="st0" d="M108.6,24.6c-0.6,0-1.2-0.2-1.7-0.7c-0.4-0.4-0.7-1-0.7-1.7c0-0.6,0.2-1.2,0.7-1.7c0.4-0.4,1-0.7,1.7-0.7
		c0.1,0,0.1,0,0.2,0c-0.2-0.1-0.4-0.1-0.6-0.1c-0.7,0-1.4,0.3-1.9,0.8s-0.8,1.2-0.8,1.9c0,0.7,0.3,1.4,0.8,1.9
		c0.9,0.9,2.3,1.1,3.4,0.4l0.3-0.2c0.1-0.1,0.1-0.1,0.2-0.2c0.2-0.3,0.4-0.6,0.4-0.8c-0.1,0.2-0.2,0.3-0.3,0.4
		C109.9,24.3,109.3,24.6,108.6,24.6z"/>
	<path class="st0" d="M184,72.3c-0.2,0.2-0.4,0.6-0.4,1c0,0.4,0.1,0.7,0.4,1c0.5,0.6,1.4,0.6,2,0c0.5-0.6,0.5-1.5,0-2
		c-0.3-0.3-0.6-0.4-1-0.4C184.6,71.9,184.3,72,184,72.3z"/>
	<path class="st0" d="M41.6,167.1c-1-1-1-2.5,0-3.5c0.5-0.5,1.2-0.7,1.9-0.7c-0.2-0.1-0.4-0.1-0.6-0.1c-0.7,0-1.4,0.3-1.9,0.8
		s-0.8,1.2-0.8,1.9s0.3,1.4,0.8,1.9s1.2,0.8,1.9,0.8c0.7,0,1.4-0.3,1.9-0.8c0-0.1,0.1-0.1,0.1-0.2C43.9,168,42.5,168,41.6,167.1z"/>
	<path class="st0" d="M114.2,115.6c-0.6,0.5-0.6,1.4,0,2c0.5,0.6,1.4,0.6,2,0c0.2-0.2,0.4-0.6,0.4-1c0-0.4-0.2-0.7-0.4-1
		c-0.3-0.3-0.6-0.4-1-0.4C114.9,115.2,114.5,115.3,114.2,115.6z"/>
	<path class="st0" d="M107.7,21.1c-0.2,0.2-0.4,0.6-0.4,1c0,0.4,0.1,0.7,0.4,1c0.3,0.3,0.6,0.4,1,0.4c0.4,0,0.7-0.1,1-0.4
		c0.6-0.5,0.6-1.5,0-2c-0.3-0.2-0.6-0.4-1-0.4C108.3,20.7,108,20.8,107.7,21.1z"/>
	<path class="st0" d="M307.4,43.1l-4.8-4.8c-0.4-0.4-1-0.4-1.4,0l-4.8,4.8c-0.2,0.2-0.3,0.4-0.3,0.7s0.1,0.5,0.3,0.7l4.8,4.8
		c0.4,0.4,1,0.4,1.4,0l2.9-2.9v-0.3h0.3l1.6-1.6C307.8,44.1,307.8,43.5,307.4,43.1z"/>
	<path class="st0" d="M186.5,75.4c0.3-0.2,0.5-0.5,0.6-0.8c-0.1,0.2-0.2,0.3-0.3,0.4c-1,1-2.5,1-3.5,0c-0.4-0.4-0.7-1-0.7-1.7
		c0-0.6,0.2-1.2,0.7-1.7c0.4-0.4,1-0.7,1.7-0.7h0.1c-0.9-0.2-1.8,0-2.5,0.7l-0.2,0.1l-0.2,0.3c-0.7,1-0.6,2.5,0.4,3.4
		C183.7,76.5,185.4,76.5,186.5,75.4z"/>
	<path class="st0" d="M42.3,164.2c-0.6,0.5-0.6,1.4,0,2c0.5,0.6,1.4,0.6,2,0c0.6-0.5,0.6-1.5,0-2c-0.3-0.3-0.6-0.4-1-0.4
		C42.9,163.8,42.6,163.9,42.3,164.2z"/>
	<path class="st0" d="M61.9,153.1c-0.2-0.2-0.4-0.3-0.7-0.3s-0.5,0.1-0.7,0.3l-5.6,5.6c-0.4,0.4-0.4,1,0,1.4l2.5,2.5l3.1,3.1
		c0.4,0.4,1,0.4,1.4,0l5.6-5.6c0.2-0.2,0.3-0.4,0.3-0.7c0-0.3-0.1-0.5-0.3-0.7L61.9,153.1z"/>
	<path class="st0" d="M336.8,68.9c-0.2-0.2-0.5-0.3-0.7-0.3c-0.3,0-0.5,0.1-0.7,0.3l-4.8,4.8c-0.4,0.4-0.4,1,0,1.4l4.8,4.8
		c0.2,0.2,0.4,0.3,0.7,0.3s0.5-0.1,0.7-0.3l4.8-4.8c0.4-0.3,0.4-0.9,0-1.4L336.8,68.9z"/>
	<path class="st0" d="M186.6,50.4c-0.3,0.3-0.4,0.6-0.4,1c0,0.4,0.1,0.7,0.4,1c0.5,0.6,1.4,0.6,2,0c0.3-0.2,0.4-0.6,0.4-1
		c0-0.4-0.1-0.8-0.4-1c-0.3-0.3-0.6-0.4-1-0.4C187.2,50,186.9,50.1,186.6,50.4z"/>
	<path class="st0" d="M195.5,77.2c-0.3,0.2-0.4,0.6-0.4,1c0,0.4,0.1,0.7,0.4,1c0.3,0.3,0.6,0.4,1,0.4c0.4,0,0.7-0.1,1-0.4
		c0.6-0.6,0.6-1.5,0-2c-0.2-0.3-0.6-0.4-1-0.4C196.1,76.7,195.8,76.9,195.5,77.2z"/>
	<path class="st0" d="M185.8,53.2c-0.4-0.4-0.7-1.1-0.7-1.7c0-0.6,0.2-1.2,0.7-1.7c0.4-0.4,1-0.7,1.7-0.7c0.1,0,0.1,0,0.2,0
		c-0.2-0.1-0.4-0.1-0.6-0.1c-0.7,0-1.4,0.3-1.9,0.8s-0.8,1.2-0.8,1.9s0.3,1.4,0.8,1.9s1.2,0.8,1.9,0.8c0.7,0,1.4-0.3,1.9-0.8
		c0.3-0.3,0.5-0.5,0.6-0.8c-0.1,0.2-0.2,0.3-0.3,0.4C188.3,54.2,186.8,54.2,185.8,53.2z"/>
	<path class="st0" d="M195.9,81.1c0.7,0,1.4-0.3,1.9-0.8c0.3-0.2,0.5-0.5,0.6-0.8c-0.1,0.1-0.2,0.3-0.3,0.4c-0.4,0.4-1,0.7-1.7,0.7
		c-0.6,0-1.2-0.2-1.7-0.7c-0.4-0.4-0.7-1-0.7-1.7c0-0.6,0.2-1.2,0.7-1.7c0.4-0.4,1-0.7,1.7-0.7c0.1,0,0.1,0,0.2,0
		c-0.2-0.1-0.4-0.1-0.6-0.1c-0.7,0-1.4,0.3-1.9,0.8s-0.8,1.2-0.9,1.9c0,0.7,0.3,1.4,0.8,1.9S195.2,81.1,195.9,81.1z"/>
	<path class="st0" d="M314.9,138c-0.2-0.2-0.4-0.3-0.7-0.3s-0.5,0.1-0.7,0.3l-4.8,4.8c-0.4,0.4-0.4,1,0,1.4l4.8,4.8
		c0.2,0.2,0.4,0.3,0.7,0.3c0.3,0,0.5-0.1,0.7-0.3l4.8-4.8c0.2-0.2,0.3-0.4,0.3-0.7s-0.1-0.5-0.3-0.7L314.9,138z"/>
	<path class="st0" d="M184.6,94.1l5.5-5.5c0.4-0.4,0.4-1,0-1.4l-5.5-5.5c-0.2-0.2-0.4-0.3-0.7-0.3c-0.3,0-0.5,0.1-0.7,0.3l-5.5,5.5
		c-0.2,0.2-0.3,0.4-0.3,0.7c0,0.3,0.1,0.5,0.3,0.7l5.5,5.5c0.2,0.2,0.4,0.3,0.7,0.3C184.2,94.4,184.4,94.3,184.6,94.1z"/>
	<path class="st0" d="M113.4,118.5c-0.9-1-1-2.5,0-3.5c0.5-0.5,1.2-0.7,1.9-0.7c-0.2-0.1-0.4-0.1-0.6-0.1c-0.7,0-1.4,0.3-1.9,0.8
		s-0.8,1.2-0.8,1.9c0,0.7,0.3,1.4,0.8,1.9s1.2,0.8,1.9,0.8s1.4-0.3,1.9-0.8c0,0,0.1-0.1,0.1-0.1
		C115.7,119.5,114.3,119.4,113.4,118.5z"/>
	<path class="st0" d="M206.8,75.8c-0.6,0.5-0.6,1.4,0,2c0.5,0.6,1.4,0.6,2,0c0.2-0.2,0.4-0.6,0.4-1c0-0.4-0.2-0.8-0.4-1
		C208.3,75.2,207.4,75.2,206.8,75.8z"/>
	<path class="st0" d="M43.9,157.4c-0.6,0-1.2-0.2-1.7-0.7c-0.9-0.9-0.9-2.4,0-3.4c0.4-0.4,1-0.7,1.7-0.7c0.1,0,0.1,0,0.2,0
		c-0.2-0.1-0.4-0.1-0.6-0.1c-0.7,0-1.4,0.3-1.9,0.8c-1.1,1.1-1.1,2.8,0,3.9c1.1,1.1,2.8,1.1,3.9,0c0.2-0.2,0.4-0.5,0.4-0.9
		c-0.1,0.1-0.2,0.3-0.3,0.4C45.2,157.1,44.6,157.4,43.9,157.4z"/>
	<path class="st0" d="M209.2,78.9c0.3-0.2,0.5-0.5,0.6-0.8c-0.1,0.1-0.2,0.3-0.3,0.4c-1,1-2.5,1-3.5,0c-1-0.9-1-2.4,0-3.4
		c0.5-0.5,1.2-0.7,1.9-0.7c-0.9-0.3-1.9,0-2.6,0.6c-1.1,1.1-1.1,2.8,0,3.9C206.4,80,208.1,80,209.2,78.9z"/>
	<path class="st0" d="M0,0v188h374V0H0z M96.5,8.6l5.5-5.5c0.8-0.7,2.1-0.7,2.8,0l5.5,5.5c0.4,0.4,0.6,1.1,0.5,1.7l7.9,7.9h17.8
		l12.2-12.3H193l22.8,22.6h37.3l4.2,4.2h3.5c0.2-0.7,0.5-1.2,1-1.7c0.7-0.7,1.6-1.1,2.6-1.1s1.9,0.4,2.6,1.1c1.5,1.5,1.5,3.8,0,5.3
		c-0.7,0.7-1.6,1.1-2.6,1.1c-0.9,0-1.9-0.4-2.6-1.1c-0.6-0.6-1-1.3-1.1-2.1h-4.1l-4.2-4.2h-37.3L192.4,7.3h-43.1l-12.2,12.3H118
		l-8.1-8l-5.2,5.3c-0.4,0.4-0.9,0.6-1.4,0.6s-1-0.2-1.4-0.6l-5.4-5.5C95.7,10.6,95.7,9.4,96.5,8.6z M21.7,91.9
		c1.2-1.2,3.1-1.4,4.6-0.5l8-8l-4.5-4.5c-0.4-0.4-0.6-0.9-0.6-1.4s0.2-1,0.6-1.4l5.6-5.6c0.8-0.8,2-0.8,2.8,0l5.6,5.6
		c0.4,0.4,0.6,0.9,0.6,1.4s-0.2,1-0.6,1.4l-5.6,5.6c-0.8,0.8-2,0.8-2.8,0l-8,8c1,1.5,0.9,3.5-0.4,4.8c-0.7,0.7-1.6,1.1-2.6,1.1
		c-0.9,0-1.9-0.4-2.7-1.3c-0.7-0.7-1.1-1.6-1.1-2.6S21,92.6,21.7,91.9z M4.5,113.5c0-1,0.4-1.9,1.1-2.6c1.5-1.5,3.8-1.5,5.3,0
		c0.5,0.5,0.8,1.1,1,1.8h4.9l43.8-43.9v-6.5L55.3,57c-0.8-0.8-0.8-2,0-2.8l5.6-5.6c0.8-0.7,2.1-0.7,2.8,0l5.6,5.6
		c0.3,0.2,0.4,0.4,0.5,0.7L86.7,38h48.1l21-21H192l21.7,21.6h32.1l2,2c1.4-1.1,3.5-0.9,4.8,0.4c1.4,1.5,1.5,3.8,0,5.3
		s-3.8,1.5-5.3,0c-1.3-1.3-1.5-3.2-0.6-4.6l-1.6-1.6H213l-21.8-21.5h-35l-21,21H87.1L70,56.8l-0.3-0.3c-0.1,0.2-0.2,0.3-0.4,0.5
		l-5.6,5.6c-0.5,0.5-1,0.7-1.6,0.6v6.3L62,69.6l-44.5,44.6H12c-0.1,0.8-0.5,1.5-1,2c-0.7,0.7-1.7,1.1-2.8,1c-1,0-1.9-0.4-2.6-1.1
		C4.9,115.4,4.5,114.5,4.5,113.5z M280.6,38.1c1.5-1.5,3.8-1.5,5.3,0c0.7,0.7,1.1,1.6,1.1,2.6s-0.4,1.9-1.1,2.6
		c-1.3,1.3-3.1,1.5-4.6,0.6l-4.5,4.5h-17.1l-4,4h-8.9l-6-6h-27.5l-23.6-23.6h-32.8l-25.6,25.7H98.7l-6.2,6.2c0.1,0,0.1,0,0.2,0.1
		l5.6,5.6c0.8,0.8,0.8,2,0,2.8l-5.6,5.6c-0.4,0.4-0.9,0.6-1.4,0.6c-0.6,0-1-0.2-1.4-0.6l-5.6-5.6c0-0.1-0.1-0.1-0.1-0.2L68.8,78.4
		V101l-9.7,9.7H27.6l-8,8c1.1,1.5,1,3.6-0.3,4.9c-0.7,0.7-1.6,1.1-2.6,1.1c-0.9,0-1.9-0.4-2.6-1.1c-1.5-1.5-1.5-3.8,0-5.3
		c1.2-1.2,3.1-1.4,4.5-0.6l8.5-8.5h31.5l8.9-8.9V77.7l16.6-16.6c0.1-0.3,0.3-0.6,0.5-0.8l5.6-5.6c0.2-0.2,0.5-0.4,0.8-0.5l7.4-7.4
		H131l25.6-25.7h34l23.6,23.6h27.5l6,6h7.7l3.9-4l16.9,0.2l4-4C279.1,41.5,279.3,39.4,280.6,38.1z M305.6,62.6l4.8-4.8
		c0.4-0.4,0.9-0.6,1.4-0.6s1,0.2,1.4,0.6l4.8,4.8c0.4,0.4,0.6,0.9,0.6,1.4s-0.2,1-0.6,1.4l-4.8,4.8c-0.4,0.4-0.9,0.6-1.4,0.6
		s-1-0.2-1.4-0.6l-4.4-4.4h-2.6l-13.7-13.6h-17.8l-4.6,4.6h-2.8c-0.1,0.6-0.4,1.1-0.9,1.6c-0.7,0.7-1.6,1.1-2.6,1.1
		c-0.9,0-1.9-0.4-2.6-1.1c-0.7-0.6-1-1.4-1.1-2.2H247l-6.4-6.3h-27.5l-24.1-24h-30.8L69,115.3H35.7L30,121c0.4,1.3,0.1,2.7-0.9,3.7
		c-0.7,0.7-1.6,1.1-2.6,1.1s-1.9-0.4-2.6-1.1c-1.4-1.5-1.5-3.8,0-5.3c0.7-0.7,1.6-1.1,2.6-1.1s1.9,0.4,2.6,1.1
		c0.1,0,0.1,0.1,0.2,0.2l5.8-5.9h33.3l89.2-89.4h32l24.1,24h27.5l6.4,6.4h9.8c0.1-0.6,0.4-1.1,0.9-1.6c1.5-1.5,3.8-1.5,5.3,0
		c0.6,0.6,0.9,1.4,1,2.2h2.1l4.6-4.6h19.1l13.7,13.6h1C305,63.7,305.2,63,305.6,62.6z M250.6,68.4l0.7-0.7c0.2-0.3,0.4-0.6,0.7-0.9
		c0.1-0.1,0.1-0.1,0.2-0.2l-12.8-12.8H212l-24.5-24.3h-28.3l-89.7,89.9H41l-4.6,4.7c0.3,0.2,0.6,0.4,0.8,0.6c1.5,1.5,1.5,3.8,0,5.3
		c-0.7,0.7-1.6,1.1-2.6,1.1c-0.9,0-1.9-0.4-2.6-1.1s-1.1-1.6-1.1-2.6s0.4-1.9,1.1-2.6c0.8-0.8,1.8-1.2,2.9-1.1l5.7-5.7h28.5
		l89.7-89.8h29.6l24.3,24.2h27.4l13.5,13.5c1.3-0.4,2.7-0.1,3.7,0.9c1.5,1.5,1.5,3.8,0,5.3s-3.8,1.5-5.3,0c-1-1.1-1.3-2.6-0.9-4
		L250.6,68.4z M233.7,57.3h-23.1l-24-24h-26.2L54.5,139.4H30.6l-4.6-4.5c-1.4,0.8-3.2,0.6-4.4-0.6c-1.4-1.5-1.5-3.8,0-5.3
		c1.5-1.4,3.8-1.5,5.3,0c1.4,1.4,1.5,3.5,0.3,5l4,4h21.7c-0.1-0.1-0.1-0.1-0.2-0.2l-5.6-5.6c-0.8-0.8-0.8-2,0-2.8l5.6-5.6
		c0.8-0.8,2-0.8,2.8,0l5.6,5.6c0.2,0.2,0.4,0.5,0.5,0.8l98.2-98.4h27.4l24,24h23.1l5.1,5.1c1.5-1.1,3.6-1,4.9,0.3
		c1.4,1.5,1.5,3.8,0,5.3c-0.7,0.7-1.6,1.1-2.6,1.1s-1.9-0.4-2.6-1.1c-1.2-1.3-1.4-3.1-0.6-4.5L233.7,57.3z M42.7,103.7
		c-1.5,1.5-3.8,1.5-5.3,0s-1.5-3.8,0-5.3c1.3-1.3,3.2-1.5,4.6-0.6l1.7-1.8h5.9l0.1-0.1l5.6-5.6c0.4-0.4,0.9-0.6,1.4-0.6
		s1,0.2,1.4,0.6l5.6,5.6c0.4,0.4,0.6,0.9,0.6,1.4s-0.2,1-0.6,1.4l-5.6,5.6c-0.4,0.4-0.9,0.6-1.4,0.6s-1-0.2-1.4-0.6l-5.6-5.6
		c-0.4-0.4-0.5-0.8-0.6-1.2l-4.8,0.2l-1.2,1.2C44.1,100.3,44,102.4,42.7,103.7z M7.1,137.6c-1.5-1.5-1.5-3.8,0-5.3
		c0.7-0.7,1.6-1.1,2.6-1.1s1.9,0.4,2.6,1.1c0.5,0.4,0.8,1,1,1.7h4.8l8.8,8.8h26.8L161,35.4h25l24.2,24.1h8.8l3,3
		c0.2-0.6,0.5-1,0.9-1.4c0.7-0.7,1.6-1.1,2.6-1.1s1.9,0.4,2.6,1.1c1.5,1.5,1.5,3.8,0,5.3s-3.8,1.5-5.3,0c-0.5-0.5-0.9-1.2-1-2
		l-3.4-3.4h-8.8l-24.2-24.1h-23.8L54.3,144.4h-28l-8.8-8.8l-4.1-0.1c-0.1,0.8-0.4,1.5-1,2.1C10.9,139.1,8.6,139.1,7.1,137.6z
		 M18.7,145.8c-1.5,0.8-3.3,0.6-4.5-0.6c-0.7-0.7-1.1-1.6-1.1-2.6s0.4-1.9,1.1-2.6s1.6-1.1,2.6-1.1s1.9,0.4,2.6,1.1
		c1.3,1.3,1.4,3.4,0.3,4.9l2.4,2.4h31.8L162.1,38.8h22.6l24,24h7.7l8.7,8.7h5.4c-0.4-1.3-0.1-2.8,0.9-3.8c1.5-1.5,3.8-1.5,5.3,0
		c0.7,0.7,1.1,1.6,1.1,2.6c0,0.8-0.2,1.5-0.6,2.1L250,85.2h5.6l15.6-15.7l-3.7-3.7c-0.4-0.4-0.6-0.9-0.6-1.4s0.2-1,0.6-1.4l4.8-4.8
		c0.4-0.4,0.9-0.6,1.4-0.6s1,0.2,1.4,0.6l4.8,4.8c0.4,0.4,0.6,0.9,0.6,1.4s-0.2,1-0.6,1.4l-4.8,4.8c-0.4,0.4-0.9,0.6-1.4,0.6
		c-0.6,0-1-0.2-1.4-0.6l-16.1,16.1h-6.8l-13.3-13.2c-0.6,0.4-1.4,0.6-2.1,0.6c-1,0-1.9-0.4-2.6-1.1h-6.9l-8.7-8.7h-7.7l-24-23.9
		h-21.4l-108,108.3H21.6L18.7,145.8z M196.7,66.9L140.5,67l-88.6,88.6H47c-0.1,0.9-0.5,1.8-1.1,2.4c-0.7,0.7-1.6,1.1-2.6,1.1
		c-0.9,0-1.9-0.4-2.6-1.1c-1.5-1.5-1.5-3.8,0-5.3s3.8-1.5,5.3,0c0.4,0.4,0.7,0.9,0.9,1.4h4.5l88.4-88.6h0.2l57.2-0.1l8.3,8.3
		c1.4-0.7,3.1-0.5,4.3,0.7c1.5,1.5,1.5,3.8,0,5.3c-0.7,0.7-1.6,1.1-2.6,1.1c-0.9,0-1.9-0.4-2.6-1.1c-1.3-1.4-1.4-3.6-0.2-5.1
		L196.7,66.9z M154.5,54.8c1.5-1.5,3.8-1.5,5.3,0s1.5,3.8,0,5.3c-0.7,0.7-1.6,1.1-2.6,1.1s-1.9-0.4-2.7-1.1
		C153,58.6,153,56.3,154.5,54.8z M172.6,49.3c-0.7,0.7-1.6,1.1-2.6,1.1c-0.9,0-1.9-0.4-2.6-1.1c-0.7-0.7-1.1-1.6-1.1-2.6
		s0.4-1.9,1.1-2.6c0.7-0.7,1.6-1.1,2.6-1.1s2,0.4,2.6,1C174.1,45.5,174.1,47.8,172.6,49.3z M68.3,160.9l-5.6,5.6
		c-0.8,0.8-2,0.8-2.8,0l-2.8-2.8c-1.3,1.3-1.9,1.9-2.3,2.2l-0.2,0.2h-8c-0.1,0.7-0.5,1.4-1,1.9c-0.7,0.7-1.6,1.1-2.6,1.1
		s-1.9-0.4-2.6-1.1c-0.7-0.7-1.1-1.6-1.1-2.6s0.4-1.9,1.1-2.6c1.5-1.5,3.8-1.5,5.3,0c0.5,0.6,0.9,1.2,1,1.9h7.4l2-2l-1.8-1.8
		c-0.8-0.8-0.8-2,0-2.8l5.6-5.6l0.1-0.1l-0.4-0.4l81.2-81.4h41.3c1.5-1.2,3.7-1.2,5.1,0.2c1.5,1.5,1.5,3.8,0,5.3s-3.8,1.5-5.3,0
		c-1.1-1.1-1.4-2.6-0.9-4l-39.7,0.1l-79.6,79.7c0.4,0.1,0.7,0.3,0.9,0.5l5.7,5.7c0.4,0.4,0.6,0.9,0.6,1.4S68.7,160.5,68.3,160.9z
		 M117.2,119.4c-0.7,0.7-1.6,1.1-2.6,1.1s-1.9-0.4-2.6-1.1c-0.7-0.7-1.1-1.6-1.1-2.6s0.4-1.9,1.1-2.6c0.8-0.7,1.7-1.1,2.7-1.1
		s1.9,0.4,2.5,1.1c0.7,0.7,1.1,1.6,1.1,2.6S117.9,118.7,117.2,119.4z M176.9,89.4c-0.2-0.3-0.4-0.6-0.5-0.9l-0.4,0.4l-6-6h-30.3
		l-60.4,58.9l-1-1.1l60.9-59.4h31.5l5.8,5.8c0.1-0.2,0.2-0.4,0.4-0.6l5.5-5.5c0.4-0.4,0.9-0.6,1.4-0.6s1,0.2,1.4,0.6l3.9,3.9
		l4.1-4.1c-0.6-0.7-0.9-1.5-0.9-2.4c0-1,0.4-1.9,1.1-2.6s1.6-1.1,2.6-1.1s1.9,0.4,2.6,1.1s1.1,1.6,1.1,2.6s-0.4,1.9-1.1,2.6
		c-0.7,0.7-1.6,1.1-2.6,1.1c-0.5,0-1.1-0.2-1.6-0.4l-4.2,4.3l0.5,0.5c0.8,0.8,0.8,2,0,2.8l-5.5,5.5c-0.4,0.4-0.9,0.6-1.4,0.6
		s-1-0.2-1.4-0.5L176.9,89.4z M320.4,145l-4.8,4.8c-0.4,0.4-0.9,0.6-1.4,0.6s-1-0.2-1.4-0.6L308,145c-0.8-0.8-0.8-2,0-2.8l4.8-4.8
		c0.4-0.4,0.9-0.6,1.4-0.6s1,0.2,1.4,0.6l4.8,4.8c0.4,0.4,0.6,0.9,0.6,1.4S320.8,144.6,320.4,145z M342,90.5l8.9,8.9
		c0.4,0.5,0.6,1,0.6,1.6c0,0.6-0.2,1.2-0.6,1.6l-2.6,2.6c-0.4,0.4-0.9,0.6-1.5,0.6c-0.6,0-1.2-0.2-1.6-0.6l-11.4-11.3
		c-0.3-0.3-0.7-0.3-1,0l-3.1,3.1c-0.3,0.3-0.3,0.7,0,1l23.9,23.9c0.9,0.8,0.9,2.2,0,3.1l-2.7,2.8c-0.8,0.9-2.2,0.9-3.1,0l-23.7-23.7
		c-0.1-0.1-0.3-0.2-0.5-0.2s-0.4,0.1-0.5,0.2l-4.1,4.1c-0.3,0.3-0.3,0.7,0,1l12,12c0.9,0.8,0.9,2.2,0,3.1l-2.7,2.8
		c-0.5,0.4-1,0.6-1.6,0.6c-0.5,0-1.1-0.2-1.5-0.6l-12.9-12.9c-0.3-0.3-0.7-0.3-1,0l-4.3,4.3c-0.1,0.1-0.2,0.3-0.2,0.5
		s0.1,0.4,0.2,0.5l6.5,6.5c0.9,0.8,0.9,2.2,0,3.1l-2.4,2.4c-0.5,0.4-1,0.6-1.6,0.6c-0.6,0-1.2-0.2-1.6-0.6l-6-6
		c-0.1-0.1-0.3-0.2-0.5-0.2s-0.4,0.1-0.5,0.2l-3.8,3.8c-0.3,0.3-0.3,0.7,0,1l5.5,5.5c0.9,0.8,0.9,2.2,0,3.1l-2.2,2.2
		c-0.5,0.4-1,0.6-1.6,0.6c-0.6,0-1.2-0.2-1.6-0.6l-5.7-5.7c-0.3-0.3-0.7-0.3-1,0l-4.6,4.6c-0.1,0.1-0.2,0.3-0.2,0.5s0.1,0.4,0.2,0.5
		l17.5,17.2c0.4,0.5,0.6,1,0.6,1.6c0,0.6-0.2,1.2-0.6,1.6l-2.6,2.6c-0.5,0.4-1,0.6-1.6,0.6c-0.6,0-1.2-0.2-1.6-0.6l-17.4-17.3
		c-0.3-0.3-0.7-0.3-1,0l-2.6,2.6c-0.3,0.3-0.3,0.7,0,1l17.5,17.5c0.9,0.8,0.9,2.2,0,3.1l-2.9,2.9c-0.5,0.4-1,0.6-1.6,0.6
		c-0.6,0-1.2-0.2-1.6-0.6l-18.1-18c-0.3-0.3-0.7-0.3-1,0l-2.6,2.6c-0.3,0.3-0.3,0.7,0,1l19.3,19.2c0.4,0.5,0.6,1,0.6,1.6
		c0,0.6-0.2,1.2-0.6,1.6l-3.1,3.1c-0.5,0.4-1,0.6-1.6,0.6c-0.6,0-1.2-0.2-1.6-0.6l-39.4-39.3c-0.9-0.8-0.9-2.2,0-3.1l6.9-6.9
		c0.5-0.4,1-0.6,1.6-0.6c0.6,0,1.2,0.2,1.6,0.6l13.1,13c0.3,0.3,0.7,0.3,1,0l2.2-2.2c0.1-0.1,0.2-0.3,0.2-0.5c0-0.2-0.1-0.4-0.2-0.5
		L252.9,132c-0.4-0.5-0.6-1-0.6-1.6c0-0.6,0.2-1.2,0.6-1.6l1.9-1.9c0.8-0.9,2.2-0.9,3.1,0l13.2,13.2c0.1,0.1,0.3,0.2,0.5,0.2
		s0.4-0.1,0.5-0.2l1-1c0.3-0.3,0.3-0.7,0-1l-12.9-12.9c-0.4-0.5-0.6-1-0.6-1.6c0-0.6,0.2-1.2,0.6-1.6l1.9-1.9c0.5-0.4,1-0.6,1.6-0.6
		c0.6,0,1.2,0.2,1.6,0.6l12.7,12.7c0.3,0.3,0.7,0.3,1,0l32.5-32.5c0.3-0.3,0.3-0.7,0-1l-5-5c-0.4-0.5-0.6-1-0.6-1.6s0.2-1.2,0.6-1.6
		l9.8-9.8c0.1-0.1,0.2-0.3,0.2-0.5c0-0.2-0.1-0.4-0.2-0.5l-2.4-2.4c-0.3-0.3-0.7-0.3-1,0l-34.1,34.2c-0.5,0.4-1,0.6-1.6,0.6
		c-0.6,0-1.2-0.2-1.6-0.6l-2.2-2.2c-0.4-0.5-0.6-1-0.6-1.6c0-0.6,0.2-1.2,0.6-1.6l30.2-30.3c0.1-0.1,0.2-0.3,0.2-0.5
		c0-0.2-0.1-0.4-0.2-0.5l-2.2-2.2c-0.1-0.1-0.3-0.2-0.5-0.2s-0.4,0.1-0.5,0.2l-65.2,65.3c-0.8,0.8-2.2,0.8-3.1,0l-1.7-1.7
		c-0.9-0.9-0.8-2.2,0-3.1l64.7-64.8c0.3-0.3,0.3-0.7,0-1l-2.1-2.1c-0.3-0.3-0.7-0.3-1,0l-69.4,69.7c-0.7,0.7-2,1.2-3,1.2h-1.7
		c-1-0.1-2.3-0.6-3-1.3L184,104.6c-0.4-0.5-0.6-1-0.6-1.6s0.2-1.2,0.6-1.6l1.4-1.4c0.8-0.8,2.3-0.8,3.1,0l28.1,27.6
		c0.3,0.3,0.7,0.3,1,0l1.5-1.5c0.1-0.1,0.2-0.3,0.2-0.5s-0.1-0.4-0.2-0.5l-27.6-27.5c-0.9-0.8-0.9-2.2,0-3.1l2.2-2.2
		c0.8-0.9,2.2-0.9,3.1,0l27.5,27.5c0.1,0.1,0.3,0.2,0.5,0.2s0.4-0.1,0.5-0.2l2.1-2.1c0.1-0.1,0.2-0.3,0.2-0.5c0-0.2-0.1-0.4-0.2-0.5
		l-24.7-24.6c-0.9-0.8-0.9-2.2,0-3.1l2-2c0.4-0.4,0.9-0.6,1.5-0.6c0.6,0,1.2,0.2,1.6,0.6l24.7,24.4c0.3,0.3,0.7,0.3,1,0l2.2-2.2
		c0.3-0.3,0.3-0.7,0-1l-20.5-20.4c-0.9-0.9-0.9-2.2,0-3.1l1.7-1.7c0.8-0.8,2.2-0.9,3.1,0l20.3,20.4c0.3,0.3,0.7,0.3,1,0l2.3-2.3
		c0.3-0.3,0.3-0.7,0-1l-30.3-30.2c-0.4-0.4-1.3-0.8-1.9-0.8h-3.5c-1,0-2.3-0.5-3-1.2l-14.6-14.6c-0.2,0.4-0.4,0.7-0.7,1
		c-0.7,0.7-1.6,1.1-2.6,1.1s-1.9-0.4-2.6-1.1c-0.7-0.7-1.1-1.6-1.1-2.6s0.4-1.9,1.1-2.6c1.5-1.5,3.8-1.5,5.3,0
		c0.7,0.6,1.1,1.5,1.1,2.5l15.3,15.3c0.5,0.4,1.4,0.8,2,0.8h3.4c1,0,2.3,0.5,3,1.2l30.3,30.2c0.9,0.8,0.9,2.2,0,3.1l-2.3,2.3
		c-0.8,0.9-2.2,0.9-3.1,0l-20.5-20.4c-0.3-0.3-0.7-0.3-1,0l-1.7,1.7c-0.1,0.1-0.2,0.3-0.2,0.5s0.1,0.4,0.2,0.5l20.5,20.4
		c0.8,0.9,0.9,2.2,0,3.1l-2.2,2.2c-0.8,0.9-2.2,0.9-3.1,0L206.8,88c-0.3-0.3-0.7-0.3-1,0l-2,2c-0.3,0.3-0.3,0.7,0,1l24.6,24.7
		c0.4,0.5,0.6,1,0.6,1.6c0,0.6-0.2,1.2-0.6,1.6l-2.1,2.1c-0.8,0.8-2.2,0.9-3.1,0l-27.5-27.5c-0.3-0.3-0.7-0.3-1,0l-2.2,2.2
		c-0.3,0.3-0.3,0.7,0,1l27.6,27.5c0.9,0.8,0.9,2.2,0,3.1l-1.5,1.5c-0.8,0.9-2.2,0.9-3.1,0l-27.9-27.9c-0.1-0.1-0.3-0.2-0.5-0.2
		c-0.2,0-0.4,0.1-0.5,0.2l-1.4,1.4c-0.3,0.3-0.3,0.7,0,1l30.9,30.8c0.5,0.4,1.4,0.8,2,0.8h1.7c0.5,0,1.5-0.4,1.9-0.8L291,64.6
		c0.8-0.9,2.2-0.9,3.1,0l2.1,2.1c0.4,0.5,0.6,1,0.6,1.6c0,0.6-0.2,1.2-0.6,1.6l-64.7,64.8c-0.3,0.3-0.3,0.7,0,1l1.7,1.7
		c0.3,0.3,0.7,0.3,1,0l65.2-65.3c0.8-0.9,2.2-0.9,3.1,0l2.2,2.2c0.9,0.8,0.9,2.2,0,3.1l-30.2,30.3c-0.3,0.3-0.3,0.7,0,1l2.2,2.2
		c0.3,0.3,0.7,0.3,1,0l34.1-34.2c0.5-0.4,1-0.6,1.6-0.6c0.6,0,1.2,0.2,1.6,0.6l2.4,2.4c0.9,0.8,0.9,2.2,0,3.1l-9.8,9.8
		c-0.1,0.1-0.2,0.3-0.2,0.5s0.1,0.4,0.2,0.5l5,5c0.9,0.8,0.9,2.2,0,3.1L280,133.8c-0.8,0.9-2.2,0.9-3.1,0l-12.7-12.7
		c-0.3-0.3-0.7-0.3-1,0l-1.9,1.9c-0.1,0.1-0.2,0.3-0.2,0.5s0.1,0.4,0.2,0.5l12.8,12.9c0.8,0.8,0.8,2.2,0,3.1l-1,1
		c-0.9,0.9-2.2,0.9-3.1,0l-13.2-13.3c-0.3-0.3-0.7-0.3-1,0l-1.9,1.9c-0.1,0.1-0.2,0.3-0.2,0.5c0,0.2,0.1,0.4,0.2,0.5l13.4,13.4
		c0.4,0.5,0.6,1,0.6,1.6c0,0.6-0.2,1.2-0.6,1.6l-2.2,2.2c-0.8,0.9-2.2,0.9-3.1,0l-13.1-13c-0.3-0.3-0.7-0.3-1,0l-6.9,6.9
		c-0.3,0.3-0.3,0.7,0,1l39.2,39.4c0.3,0.3,0.7,0.3,1,0l3.1-3.1c0.3-0.3,0.3-0.7,0-1L265,160.4c-0.4-0.5-0.6-1-0.6-1.6
		c0-0.6,0.2-1.2,0.6-1.6l2.6-2.6c0.5-0.4,1-0.6,1.6-0.6c0.5,0,1.1,0.2,1.5,0.6l18.1,18c0.3,0.3,0.7,0.3,1,0l2.9-2.9
		c0.1-0.1,0.2-0.3,0.2-0.5c0-0.2-0.1-0.4-0.2-0.5l-17.5-17.5c-0.9-0.8-0.9-2.2,0-3.1l2.6-2.6c0.8-0.9,2.2-0.9,3.1,0l17.4,17.3
		c0.3,0.3,0.7,0.3,1,0l2.6-2.6c0.3-0.3,0.3-0.7,0-1L284.7,142c-0.8-0.9-0.9-2.2,0-3.1l4.6-4.6c0.8-0.9,2.2-0.9,3.1,0l5.7,5.7
		c0.3,0.3,0.7,0.3,1,0l2.2-2.2c0.3-0.3,0.3-0.7,0-1l-5.5-5.5c-0.4-0.5-0.6-1-0.6-1.6c0-0.6,0.2-1.2,0.6-1.6l3.8-3.8
		c0.8-0.8,2.3-0.8,3.1,0l6,6c0.3,0.3,0.7,0.3,1,0l2.4-2.4c0.3-0.3,0.3-0.7,0-1l-6.5-6.5c-0.8-0.9-0.9-2.2,0-3.1l4.3-4.3
		c0.5-0.4,1-0.6,1.6-0.6c0.6,0,1.2,0.2,1.6,0.6l12.9,12.7c0.3,0.3,0.7,0.3,1,0l2.7-2.7c0.3-0.3,0.3-0.7,0-1l-12-12
		c-0.9-0.8-0.9-2.2,0-3.1l4.1-4.1c0.5-0.4,1-0.6,1.6-0.6c0.6,0,1.2,0.2,1.6,0.6l23.6,23.8c0.3,0.3,0.7,0.3,1,0l2.7-2.8
		c0.3-0.3,0.3-0.7,0-1L328.4,99c-0.4-0.5-0.6-1-0.6-1.6c0-0.6,0.2-1.2,0.6-1.6l3.1-3.1c0.8-0.9,2.2-0.9,3.1,0L346,104
		c0.3,0.3,0.7,0.3,1,0l2.6-2.6c0.3-0.3,0.3-0.7,0-1l-8.9-8.9c-0.4-0.5-0.6-1-0.6-1.6c0-0.6,0.2-1.2,0.6-1.6l1.7-1.7
		c0.8-0.9,2.2-0.9,3.1,0l8.6,8.6c0.3,0.3,0.7,0.3,1,0l2.7-2.8c0.3-0.3,0.3-0.7,0-1l-15.6-15.6l-4.8,4.8c-0.4,0.4-0.9,0.6-1.4,0.6
		s-1-0.2-1.4-0.6l-4.8-4.8c-0.8-0.8-0.8-2,0-2.8l4.8-4.8c0.8-0.8,2-0.8,2.8,0l4.8,4.8c0.7,0.7,0.8,1.7,0.2,2.5l0.8-0.8l15.7,15.6
		c0.4,0.5,0.6,1,0.6,1.6c0,0.6-0.2,1.2-0.6,1.6l-2.7,2.8c-0.8,0.9-2.2,0.9-3.1,0l-8.6-8.6c-0.3-0.3-0.7-0.3-1,0l-1.5,1.8
		C341.7,89.8,341.7,90.2,342,90.5z M366.7,98.7l-9.7,9.7l-1-1l9.2-9.3V79.3l-31.8-31.7h-27.9l-2.4,2.5c-0.4,0.4-0.9,0.6-1.4,0.6
		s-1-0.2-1.4-0.6l-4.8-4.8c-0.4-0.4-0.6-0.9-0.6-1.4s0.2-1,0.6-1.4L298,40l-7.7-7.7h-9.2l-11.2,11.2h-10.3l-8-7.9h-38.1L191.9,14
		h-40.3l-16.4,16.4h-20.6l-4.8-4.8c-1.4,0.7-3.1,0.4-4.2-0.7c-0.7-0.7-1.1-1.6-1.1-2.6s0.4-1.9,1.1-2.6c0.7-0.7,1.6-1.1,2.6-1.1
		s1.9,0.4,2.6,1.1c0.7,0.7,1.1,1.6,1.1,2.6c0,0.9-0.3,1.8-0.9,2.5l4.2,4.2h19.4l16.5-16.5h41.5l21.6,21.6h38.1l8,7.9h9.1l11.1-11.4
		H291l8.2,8.2l1.3-1.3c0.8-0.8,2-0.8,2.8,0l4.8,4.8c0.8,0.8,0.8,2,0,2.8l-0.9,0.9h27l32.7,32.6L366.7,98.7z"/>
	<path class="st0" d="M231.8,71.7l0.1,0.2c0.1,0.2,0.1,0.2,0.2,0.3c0.5,0.5,1.2,0.8,1.9,0.8c0.7,0,1.4-0.3,1.9-0.8
		c0.3-0.2,0.5-0.5,0.6-0.8c-0.1,0.1-0.2,0.3-0.3,0.4c-0.4,0.4-1,0.7-1.7,0.7c-0.6,0-1.2-0.2-1.7-0.7c-0.4-0.4-0.7-1-0.7-1.7
		c0-0.6,0.2-1.2,0.7-1.7s1.2-0.7,1.9-0.7c-0.9-0.2-1.9,0-2.6,0.7c-0.8,0.9-1,2.3-0.4,3.2L231.8,71.7z"/>
	<path class="st0" d="M43,154.1c-0.6,0.5-0.6,1.4,0,2c0.2,0.2,0.6,0.4,1,0.4s0.7-0.1,1-0.4c0.3-0.2,0.4-0.6,0.4-1
		c0-0.4-0.1-0.8-0.4-1c-0.3-0.3-0.6-0.4-1-0.4S43.3,153.8,43,154.1z"/>
	<path class="st0" d="M16.3,141.5c-0.6,0.5-0.6,1.4,0,2c0.3,0.3,0.7,0.4,1,0.4c0.4,0,0.7-0.1,1-0.4c0.5-0.6,0.5-1.5,0-2
		c-0.3-0.3-0.6-0.4-1-0.4C16.9,141.1,16.6,141.2,16.3,141.5z"/>
	<path class="st0" d="M18.9,144.4c-0.4,0.4-1,0.7-1.7,0.7c-0.6,0-1.2-0.2-1.7-0.7c-0.9-1-1-2.5,0-3.5c0.4-0.4,1-0.7,1.7-0.7
		c0.1,0,0.1,0,0.2,0c-0.2-0.1-0.4-0.1-0.6-0.1c-0.7,0-1.4,0.3-1.9,0.8s-0.8,1.2-0.8,1.9s0.3,1.4,0.8,1.9c0.9,1,2.4,1.1,3.5,0.3
		l0.3-0.3c0.2-0.2,0.3-0.3,0.3-0.5C19,144.3,18.9,144.4,18.9,144.4z"/>
	<path class="st0" d="M169.5,45.5c-0.6,0.5-0.6,1.4,0,2c0.5,0.6,1.4,0.6,2,0c0.2-0.3,0.4-0.6,0.4-1s-0.1-0.8-0.4-1
		c-0.3-0.3-0.6-0.4-1-0.4C170.2,45.1,169.8,45.2,169.5,45.5z"/>
	<path class="st0" d="M170.5,48.9c-0.6,0-1.2-0.2-1.7-0.7c-0.9-0.9-1-2.4,0-3.4c0.5-0.5,1.2-0.8,1.9-0.7c-0.3-0.1-0.5-0.1-0.7-0.1
		c-0.7,0-1.4,0.3-1.9,0.8s-0.8,1.2-0.8,1.9s0.3,1.4,0.8,1.9c1.1,1.1,2.8,1.1,3.9,0c0.2-0.2,0.4-0.5,0.5-0.8
		c-0.1,0.1-0.2,0.3-0.3,0.4C171.8,48.6,171.2,48.9,170.5,48.9z"/>
	<path class="st0" d="M156.7,56.3c-0.2,0.2-0.4,0.6-0.4,1c0,0.4,0.1,0.7,0.4,1s0.6,0.4,1,0.4c0.4,0,0.7-0.1,1-0.4
		c0.6-0.6,0.6-1.5,0-2C158.2,55.7,157.3,55.7,156.7,56.3z"/>
	<path class="st0" d="M159.6,58.6c-0.1,0.2-0.2,0.3-0.3,0.4c-0.4,0.4-1,0.7-1.7,0.7c-0.6,0-1.2-0.2-1.7-0.7c-0.4-0.4-0.7-1-0.7-1.7
		c0-0.6,0.2-1.2,0.7-1.7s1.2-0.7,1.9-0.7c-0.2-0.1-0.4-0.1-0.6-0.1c-0.7,0-1.4,0.3-1.9,0.8c-1.1,1-1.1,2.8-0.1,3.8
		c0.5,0.5,1.2,0.8,1.9,0.8c0.7,0,1.4-0.3,1.9-0.8C159.3,59.2,159.5,58.9,159.6,58.6z"/>
</g>
</svg>
