<?xml version="1.0" encoding="utf-8"?>
<!-- Generator: Adobe Illustrator 20.0.0, SVG Export Plug-In . SVG Version: 6.00 Build 0)  -->
<svg version="1.1" id="Layer_1" xmlns="http://www.w3.org/2000/svg" xmlns:xlink="http://www.w3.org/1999/xlink" x="0px" y="0px"
	 viewBox="0 0 372.3 182.1" style="enable-background:new 0 0 372.3 182.1;" xml:space="preserve">
<style type="text/css">
	.st0{fill:none;stroke:#010101;stroke-miterlimit:10;}
</style>
<path class="st0" d="M185.8,97.7l-1.4,1.4c-0.7,0.7-0.7,1.7,0,2.4l30.9,30.8c0.6,0.6,1.8,1.1,2.7,1.1l1.7,0c0.9,0,2-0.5,2.7-1.1
	l69.3-69.5c0.5-0.5,1.2-0.5,1.7,0l2.1,2.1c0.5,0.5,0.5,1.2,0,1.7l-64.7,64.8c-0.7,0.7-0.7,1.7,0,2.4l1.7,1.7c0.7,0.7,1.7,0.7,2.4,0
	L300,70.2c0.5-0.5,1.2-0.5,1.7,0l2.2,2.2c0.5,0.5,0.5,1.2,0,1.7l-30.2,30.3c-0.7,0.7-0.7,1.7,0,2.4l2.2,2.2c0.7,0.7,1.7,0.7,2.4,0
	l34.1-34.2c0.5-0.5,1.2-0.5,1.7,0l2.4,2.4c0.5,0.5,0.5,1.2,0,1.7l-9.8,9.8c-0.7,0.7-0.7,1.7,0,2.4l5,5c0.5,0.5,0.5,1.2,0,1.7
	l-32.6,32.7c-0.5,0.5-1.2,0.5-1.7,0l-12.7-12.7c-0.7-0.7-1.7-0.7-2.4,0l-1.9,1.9c-0.7,0.7-0.7,1.7,0,2.4l12.9,12.9
	c0.5,0.5,0.5,1.2,0,1.7l-1,1c-0.5,0.5-1.2,0.5-1.7,0l-13.2-13.2c-0.7-0.7-1.7-0.7-2.4,0l-1.9,1.9c-0.7,0.7-0.7,1.7,0,2.4l13.4,13.4
	c0.5,0.5,0.5,1.2,0,1.7l-2.2,2.2c-0.5,0.5-1.2,0.5-1.7,0l-13.1-13c-0.7-0.7-1.7-0.7-2.4,0l-6.9,6.9c-0.7,0.7-0.7,1.7,0,2.4
	l39.4,39.3c0.7,0.7,1.7,0.7,2.4,0l3.1-3.1c0.7-0.7,0.7-1.7,0-2.4l-19.3-19.2c-0.5-0.5-0.5-1.2,0-1.7l2.6-2.6c0.5-0.5,1.2-0.5,1.7,0
	l18.1,18c0.7,0.7,1.7,0.7,2.4,0l2.9-2.9c0.7-0.7,0.7-1.7,0-2.4l-17.5-17.5c-0.5-0.5-0.5-1.2,0-1.7l2.6-2.6c0.5-0.5,1.3-0.5,1.7,0
	l17.4,17.3c0.7,0.7,1.7,0.7,2.4,0l2.6-2.6c0.7-0.7,0.7-1.7,0-2.4l-17.2-17.2c-0.5-0.5-0.5-1.2,0-1.7l4.6-4.6c0.5-0.5,1.2-0.5,1.7,0
	l5.7,5.7c0.7,0.7,1.7,0.7,2.4,0l2.2-2.2c0.7-0.7,0.7-1.7,0-2.4l-5.5-5.5c-0.5-0.5-0.5-1.2,0-1.7l3.8-3.8c0.5-0.5,1.2-0.5,1.7,0l6,6
	c0.7,0.7,1.7,0.7,2.4,0l2.4-2.4c0.7-0.7,0.7-1.7,0-2.4l-6.5-6.5c-0.5-0.5-0.5-1.2,0-1.7l4.3-4.3c0.5-0.5,1.3-0.5,1.7,0l12.9,12.9
	c0.7,0.7,1.7,0.7,2.4,0l2.7-2.8c0.7-0.7,0.7-1.7,0-2.4l-12-12c-0.5-0.5-0.5-1.2,0-1.7l4.1-4.1c0.5-0.5,1.2-0.5,1.7,0l23.7,23.7
	c0.7,0.7,1.7,0.7,2.4,0l2.7-2.8c0.7-0.7,0.7-1.7,0-2.4l-23.9-23.9c-0.5-0.5-0.5-1.3,0-1.7l3.1-3.1c0.5-0.5,1.3-0.5,1.7,0l11.4,11.3
	c0.7,0.7,1.7,0.7,2.4,0l2.6-2.6c0.7-0.7,0.7-1.7,0-2.4l-8.9-8.9c-0.5-0.5-0.5-1.2,0-1.7l1.7-1.7c0.5-0.5,1.2-0.5,1.7,0l8.6,8.6
	c0.7,0.7,1.7,0.7,2.4,0l2.7-2.8c0.7-0.7,0.7-1.7,0-2.4l-15.3-15.3l0,0l-0.3,0.3l15.3,15.3c0.5,0.5,0.5,1.2,0,1.7l-2.7,2.8
	c-0.5,0.5-1.2,0.5-1.7,0l-8.6-8.6c-0.7-0.7-1.7-0.7-2.4,0l-1.7,1.7c-0.7,0.7-0.7,1.7,0,2.4l8.9,8.9c0.5,0.5,0.5,1.2,0,1.7l-2.6,2.6
	c-0.5,0.5-1.2,0.5-1.7,0l-11.4-11.3c-0.7-0.7-1.7-0.7-2.4,0l-3.1,3.1c-0.7,0.7-0.7,1.7,0,2.4l23.9,23.9c0.5,0.5,0.5,1.2,0,1.7
	l-2.7,2.8c-0.5,0.5-1.2,0.5-1.7,0l-23.7-23.7c-0.7-0.7-1.7-0.7-2.4,0l-4.1,4.1c-0.7,0.7-0.7,1.7,0,2.4l12,12c0.5,0.5,0.5,1.2,0,1.7
	l-2.7,2.8c-0.5,0.5-1.2,0.5-1.7,0l-12.9-12.9c-0.7-0.7-1.7-0.7-2.4,0l-4.3,4.3c-0.7,0.7-0.7,1.7,0,2.4l6.5,6.5
	c0.5,0.5,0.5,1.3,0,1.7l-2.4,2.4c-0.5,0.5-1.2,0.5-1.7,0l-6-6c-0.7-0.7-1.7-0.7-2.4,0l-3.8,3.8c-0.7,0.7-0.7,1.7,0,2.4l5.5,5.5
	c0.5,0.5,0.5,1.2,0,1.7l-2.2,2.2c-0.5,0.5-1.2,0.5-1.7,0l-5.7-5.7c-0.7-0.7-1.7-0.7-2.4,0l-4.6,4.6c-0.7,0.7-0.7,1.7,0,2.4
	l17.2,17.2c0.5,0.5,0.5,1.3,0,1.7l-2.6,2.6c-0.5,0.5-1.2,0.5-1.7,0l-17.4-17.3c-0.7-0.7-1.7-0.7-2.4,0l-2.6,2.6
	c-0.7,0.7-0.7,1.7,0,2.4l17.5,17.5c0.5,0.5,0.5,1.2,0,1.7l-2.9,2.9c-0.5,0.5-1.2,0.5-1.7,0l-18.1-18c-0.7-0.7-1.7-0.7-2.4,0
	l-2.6,2.6c-0.7,0.7-0.7,1.7,0,2.4l19.3,19.2c0.5,0.5,0.5,1.2,0,1.7l-3.1,3.1c-0.5,0.5-1.2,0.5-1.7,0L240.7,142
	c-0.5-0.5-0.5-1.2,0-1.7l6.9-6.9c0.5-0.5,1.3-0.5,1.7,0l13.1,13c0.7,0.7,1.7,0.7,2.4,0l2.2-2.2c0.7-0.7,0.7-1.7,0-2.4l-13.4-13.4
	c-0.5-0.5-0.5-1.2,0-1.7l1.9-1.9c0.5-0.5,1.2-0.5,1.7,0l13.2,13.2c0.7,0.7,1.7,0.7,2.4,0l1-1c0.7-0.7,0.7-1.7,0-2.4l-12.9-12.9
	c-0.5-0.5-0.5-1.2,0-1.7l1.9-1.9c0.5-0.5,1.3-0.5,1.7,0l12.7,12.7c0.7,0.7,1.7,0.7,2.4,0l32.6-32.7c0.7-0.7,0.7-1.7,0-2.4l-5-5
	c-0.5-0.5-0.5-1.2,0-1.7l9.8-9.8c0.7-0.7,0.7-1.7,0-2.4l-2.4-2.4c-0.7-0.7-1.8-0.7-2.4,0l-34.1,34.2c-0.5,0.5-1.2,0.5-1.7,0
	l-2.2-2.2c-0.5-0.5-0.5-1.2,0-1.7l30.2-30.3c0.7-0.7,0.7-1.7,0-2.4l-2.2-2.2c-0.7-0.7-1.7-0.7-2.4,0l-65.2,65.3
	c-0.5,0.5-1.2,0.5-1.7,0l-1.7-1.7c-0.5-0.5-0.5-1.2,0-1.7l64.7-64.8c0.7-0.7,0.7-1.7,0-2.4l-2.1-2.1c-0.7-0.7-1.7-0.7-2.4,0
	l-69.3,69.5c-0.5,0.5-1.6,1-2.3,1l-1.7,0c-0.7,0-1.8-0.4-2.3-1l-30.9-30.8c-0.5-0.5-0.5-1.2,0-1.7l1.4-1.4c0.5-0.5,1.2-0.5,1.7,0
	l27.9,27.9c0.7,0.7,1.7,0.7,2.4,0l1.5-1.5c0.7-0.7,0.7-1.7,0-2.4l-27.6-27.5c-0.5-0.5-0.5-1.2,0-1.7l2.2-2.2c0.5-0.5,1.2-0.5,1.7,0
	l27.5,27.5c0.7,0.7,1.7,0.7,2.4,0l2.1-2.1c0.7-0.7,0.7-1.7,0-2.4l-24.7-24.6c-0.5-0.5-0.5-1.2,0-1.7l2-2c0.5-0.5,1.2-0.5,1.7,0
	l24.6,24.5c0.7,0.7,1.7,0.7,2.4,0l2.2-2.2c0.7-0.7,0.7-1.7,0-2.4l-20.5-20.4c-0.5-0.5-0.5-1.2,0-1.7l1.7-1.7c0.5-0.5,1.2-0.5,1.7,0
	l20.5,20.4c0.7,0.7,1.7,0.7,2.4,0l2.3-2.3c0.7-0.7,0.7-1.7,0-2.4l-30.3-30.2c-0.6-0.6-1.8-1.1-2.7-1.1l-3.4,0c-0.7,0-1.8-0.5-2.3-1
	l-15.4-15.4l-0.1,0.1c0.1-0.9-0.2-1.9-0.9-2.6c-1.3-1.3-3.3-1.3-4.6,0c-1.3,1.3-1.3,3.3,0,4.6c1.3,1.3,3.3,1.3,4.6,0
	c0.5-0.5,0.7-1,0.9-1.6l15.2,15.2c0.6,0.6,1.8,1.1,2.7,1.1l3.4,0c0.7,0,1.8,0.4,2.3,1l30.3,30.2c0.5,0.5,0.5,1.2,0,1.7l-2.3,2.3
	c-0.5,0.5-1.2,0.5-1.7,0l-20.5-20.4c-0.7-0.7-1.7-0.7-2.4,0l-1.7,1.7c-0.7,0.7-0.7,1.7,0,2.4l20.5,20.4c0.5,0.5,0.5,1.2,0,1.7
	l-2.2,2.2c-0.5,0.5-1.2,0.5-1.7,0l-24.6-24.5c-0.7-0.7-1.7-0.7-2.4,0l-2,2c-0.7,0.7-0.7,1.7,0,2.4l24.7,24.6c0.5,0.5,0.5,1.2,0,1.7
	l-2.1,2.1c-0.5,0.5-1.2,0.5-1.7,0l-27.5-27.5c-0.7-0.7-1.7-0.7-2.4,0l-2.2,2.2c-0.7,0.7-0.7,1.7,0,2.4l27.6,27.5
	c0.5,0.5,0.5,1.3,0,1.7l-1.5,1.5c-0.5,0.5-1.2,0.5-1.7,0l-27.9-27.9C187.5,97,186.4,97,185.8,97.7z M188.9,50.1
	c-0.8,0.8-2,0.7-2.7,0c-0.8-0.8-0.8-2,0-2.7c0.8-0.8,2-0.8,2.7,0C189.7,48.1,189.7,49.4,188.9,50.1z M337.1,66
	c-0.6-0.6-1.5-0.6-2.1,0l-4.8,4.8c-0.6,0.6-0.6,1.5,0,2.1l4.8,4.8c0.6,0.6,1.5,0.6,2.1,0l4.8-4.8c0.6-0.6,0.6-1.5,0-2.1L337.1,66z
	 M305.8,62.2l-1.9,0l-13.7-13.6l-18.7,0l-4.6,4.6l-2.7,0l0,0.5l2.9,0l4.6-4.6l18.3,0l13.7,13.6l2.6,0l4.6,4.6c0.6,0.6,1.5,0.6,2.1,0
	l4.8-4.8c0.6-0.6,0.6-1.5,0-2.1l-4.8-4.8c-0.6-0.6-1.5-0.6-2.1,0l-4.8,4.8C305.5,60.9,305.5,61.6,305.8,62.2z M302.9,47l4.8-4.8
	c0.6-0.6,0.6-1.5,0-2.1l-4.8-4.8c-0.6-0.6-1.5-0.6-2.1,0l-4.8,4.8c-0.6,0.6-0.6,1.5,0,2.1l4.8,4.8C301.4,47.5,302.4,47.5,302.9,47z
	 M313.2,146.7c0.6,0.6,1.5,0.6,2.1,0l4.8-4.8c0.6-0.6,0.6-1.5,0-2.1l-4.8-4.8c-0.6-0.6-1.5-0.6-2.1,0l-4.8,4.8
	c-0.6,0.6-0.6,1.5,0,2.1L313.2,146.7z M356.9,104.6l0.3,0.3l9.2-9.2l0-19.6L334,43.9l-28,0l0,0.5l27.8,0l32.1,32l0,19.2L356.9,104.6
	z M256,83.5l16.3-16.3l0.4,0.4c0.6,0.6,1.5,0.6,2.1,0l4.8-4.8c0.6-0.6,0.6-1.5,0-2.1l-4.8-4.8c-0.6-0.6-1.5-0.6-2.1,0l-4.8,4.8
	c-0.6,0.6-0.6,1.5,0,2.1l4.1,4.1L255.8,83l-6,0L236.7,70l-0.3,0.3l13.2,13.2L256,83.5z M231.5,69.8L231.5,69.8L231.5,69.8
	L231.5,69.8z M239.7,50.7L253,64c-0.2,0.1-0.4,0.3-0.6,0.5c-1.3,1.3-1.3,3.3,0,4.6c1.3,1.3,3.3,1.3,4.6,0c1.3-1.3,1.3-3.3,0-4.6
	c-1-1-2.5-1.2-3.7-0.6l0.2-0.2l-13.5-13.5l-27.4,0L188.1,26L159,26l-89.7,89.9l-28.5,0l-5.7,5.7l0,0c-1-0.1-2,0.2-2.7,0.9
	c-1.3,1.3-1.3,3.3,0,4.6c1.3,1.3,3.3,1.3,4.6,0c1.3-1.3,1.3-3.3,0-4.6c-0.4-0.4-0.8-0.6-1.3-0.8l5.3-5.3l28.5,0l89.7-89.9l28.8,0
	l24.3,24.2L239.7,50.7z M33.8,123.2c0.8-0.8,2-0.8,2.8,0c0.8,0.8,0.8,2,0,2.8c-0.8,0.8-2,0.8-2.7,0C33.1,125.2,33.1,124,33.8,123.2z
	 M253.8,65.2c0.8-0.8,2-0.8,2.7,0c0.8,0.8,0.8,2,0,2.8c-0.8,0.8-2,0.8-2.8,0C253,67.2,253,65.9,253.8,65.2z M54.3,136.3L160.2,30.2
	l26.6,0l24,24l23.1,0l5.1,5.1l0.3-0.3l-5.3-5.3l-23.1,0l-24-24l-27,0L60.9,129c0.4-0.6,0.4-1.4-0.1-1.9l-5.6-5.6
	c-0.6-0.6-1.5-0.6-2.1,0l-5.6,5.6c-0.6,0.6-0.6,1.5,0,2.1l5.6,5.6c0.5,0.5,1.3,0.6,1.9,0.1l-0.9,0.9l-23.1,0l-4.5-4.5c0,0,0,0,0.1,0
	c1.3-1.3,1.3-3.3,0-4.6s-3.3-1.3-4.6,0c-1.3,1.3-1.3,3.3,0,4.6c1.1,1.1,2.9,1.3,4.1,0.4l4.7,4.7L54.3,136.3z M26.1,130.1
	c-0.8,0.8-2,0.8-2.7,0c-0.8-0.8-0.8-2,0-2.8c0.8-0.8,2-0.8,2.7,0C26.9,128.1,26.9,129.3,26.1,130.1z M139.6,79.7l30.7,0l5.8,5.8
	l0.3-0.3l-5.9-5.9l-31.1,0l-60.4,58.9l0.3,0.4L139.6,79.7z M19.1,116l8.4-8.5l31.5,0l9.4-9.5l0-22.6l16-16.1
	c0.1,0.2,0.2,0.5,0.4,0.7l5.6,5.6c0.6,0.6,1.5,0.6,2.1,0l5.6-5.6c0.6-0.6,0.6-1.5,0-2.1l-5.6-5.6c-0.2-0.2-0.4-0.3-0.7-0.4l6.8-6.8
	l32.6,0l25.6-25.7l33.2,0L213.8,43l27.5,0l6,6l8.5,0l3.9-4l17.1,0l4.7-4.7c1.3,1,3.1,0.9,4.3-0.3c1.3-1.3,1.3-3.3,0-4.6
	c-1.3-1.3-3.3-1.3-4.6,0c-1.2,1.2-1.3,3.3,0,4.5l-4.5,4.5l-17.1,0l-3.9,4l-8.1,0l-6-6l-27.5,0L190.4,19l-33.6,0l-25.6,25.7l-32.6,0
	L91.2,52c-0.3,0.1-0.5,0.2-0.7,0.4L84.9,58c-0.2,0.2-0.3,0.5-0.4,0.7L68,75.3l0,22.6l-9.1,9.2l-31.5,0l-8.6,8.6L19.1,116z
	 M282.5,38.9c-0.8-0.8-0.8-2,0-2.7c0.8-0.8,2-0.8,2.7,0c0.8,0.8,0.8,2,0,2.8C284.5,39.7,283.2,39.7,282.5,38.9z M290.6,29.1l8.1,8.1
	l0.3-0.3l-8.2-8.2l-10,0l-11.2,11.2l-9.5,0l-8-7.9l-38.1,0l-21.6-21.6l-41.1,0l-16.4,16.5l-19.8,0l-4.7-4.7c0.1-0.1,0.1-0.1,0.2-0.2
	c1.3-1.3,1.3-3.3,0-4.6c-1.3-1.3-3.3-1.3-4.6,0c-1.3,1.3-1.3,3.3,0,4.6c1.1,1.1,2.7,1.2,4,0.5l4.9,4.9l20.2,0l16.4-16.5l40.7,0
	l21.6,21.6l38.1,0l8,7.9l9.9,0L281,29.1L290.6,29.1z M110.1,20.8c-0.8,0.8-2,0.8-2.8,0c-0.8-0.8-0.8-2,0-2.8c0.8-0.8,2-0.8,2.7,0
	C110.8,18.8,110.8,20.1,110.1,20.8z M87,36.4l48.1,0l21-21l35.4,0l21.7,21.6l32.1,0l2,2c-1,1.3-0.9,3.1,0.3,4.3
	c1.3,1.3,3.3,1.3,4.6,0c1.3-1.3,1.3-3.3,0-4.6c-1.2-1.2-3.2-1.3-4.5-0.1l-2.1-2.1l-32.1,0l-21.7-21.6l-35.8,0l-21,21l-48.1,0
	L69.7,53.1l0.3,0.3L87,36.4z M248.9,39.3c0.8-0.8,2-0.8,2.7,0c0.8,0.8,0.8,2,0,2.8c-0.8,0.8-2,0.8-2.8,0
	C248.2,41.3,248.2,40.1,248.9,39.3z M244,63.5c1.3-1.3,1.3-3.3,0-4.6c-1.3-1.3-3.3-1.3-4.6,0c-1.3,1.3-1.3,3.3,0,4.6
	C240.7,64.7,242.8,64.7,244,63.5z M243.6,62.3c-0.8,0.8-2,0.8-2.7,0c-0.8-0.8-0.8-2,0-2.7c0.8-0.8,2-0.8,2.7,0
	C244.3,60.3,244.3,61.6,243.6,62.3z M205,72.1c-1.3,1.3-1.3,3.3,0,4.6c1.3,1.3,3.3,1.3,4.6,0c1.3-1.3,1.3-3.3,0-4.6
	C208.3,70.8,206.3,70.8,205,72.1z M206.4,72.8c0.8-0.8,2-0.8,2.7,0c0.8,0.8,0.8,2,0,2.8c-0.8,0.8-2,0.8-2.7,0
	C205.6,74.8,205.6,73.5,206.4,72.8z M198.4,78c1.3-1.3,1.3-3.3,0-4.6c-1.3-1.3-3.3-1.3-4.6,0c-1.3,1.3-1.3,3.3,0,4.6
	C195,79.3,197.1,79.3,198.4,78z M197.9,76.9c-0.8,0.8-2,0.8-2.7,0c-0.8-0.8-0.8-2,0-2.8c0.8-0.8,2-0.8,2.8,0
	C198.7,74.9,198.7,76.1,197.9,76.9z M182.2,73.1c1.3,1.3,3.3,1.3,4.6,0c1.3-1.3,1.3-3.3,0-4.6c-1.3-1.3-3.3-1.3-4.6,0l-41.3,0
	l-80.6,80.8l0.3,0.3l80.5-80.6l40.7-0.1C181,70.3,181.1,72,182.2,73.1z M183.6,72c-0.8-0.8-0.8-2,0-2.8c0.8-0.8,2-0.8,2.7,0
	c0.8,0.8,0.8,2,0,2.7C185.6,72.8,184.3,72.8,183.6,72z M167.7,41.8c-1.3,1.3-1.3,3.3,0,4.6c1.3,1.3,3.3,1.3,4.6,0
	c1.3-1.3,1.3-3.3,0-4.6C171.1,40.5,169,40.5,167.7,41.8z M169.1,42.5c0.8-0.8,2-0.8,2.7,0c0.8,0.8,0.8,2,0,2.7c-0.8,0.8-2,0.8-2.7,0
	C168.4,44.5,168.4,43.2,169.1,42.5z M159.5,52.6c-1.3-1.3-3.3-1.3-4.6,0c-1.3,1.3-1.3,3.3,0,4.6c1.3,1.3,3.3,1.3,4.6,0
	C160.8,55.9,160.8,53.8,159.5,52.6z M159.1,53.2c0.8,0.8,0.8,2,0,2.7c-0.8,0.8-2,0.8-2.8,0c-0.8-0.8-0.8-2,0-2.8
	C157.1,52.5,158.3,52.5,159.1,53.2z M24.2,121.8c1.3,1.3,3.3,1.3,4.6,0c0.9-0.9,1.2-2.3,0.7-3.5l6.1-6.1l33.3,0L158,22.8l31.2,0
	l24.1,24l27.5,0l6.4,6.3l10.4,0l0-0.5l-10.2,0l-6.4-6.4l-27.5,0l-24.1-24l-31.6,0l-89.2,89.4l-33.3,0l-6.1,6.1
	c-0.1-0.2-0.3-0.4-0.5-0.7c-1.3-1.3-3.3-1.3-4.6,0C22.9,118.5,22.9,120.5,24.2,121.8z M25.6,120.6c-0.8-0.8-0.8-2,0-2.7
	c0.8-0.8,2-0.8,2.7,0c0.8,0.8,0.8,2,0,2.7C27.5,121.4,26.3,121.4,25.6,120.6z M14.5,116.1c-1.3,1.3-1.3,3.3,0,4.6
	c1.3,1.3,3.3,1.3,4.6,0c1.3-1.3,1.3-3.3,0-4.6C17.8,114.8,15.8,114.8,14.5,116.1z M15.9,116.7c0.8-0.8,2-0.8,2.7,0
	c0.8,0.8,0.8,2,0,2.7c-0.8,0.8-2,0.8-2.8,0C15.1,118.7,15.1,117.5,15.9,116.7z M6,108.6c-1.3,1.3-1.3,3.3,0,4.6
	c1.3,1.3,3.3,1.3,4.6,0c0.6-0.6,0.9-1.3,0.9-2.1l5.7,0l44.4-44.5l0-6.7c0.5,0.3,1.2,0.2,1.7-0.3L69,54c0.6-0.6,0.6-1.5,0-2.1
	l-5.6-5.6c-0.6-0.6-1.5-0.6-2.1,0l-5.6,5.6c-0.6,0.6-0.6,1.5,0,2.1l5.5,5.5l0,6.9l-44.1,44.2l-5.5,0c-0.1-0.7-0.4-1.4-0.9-2
	C9.3,107.3,7.3,107.3,6,108.6z M7.4,109.3c0.8-0.8,2-0.8,2.7,0c0.8,0.8,0.8,2,0,2.7c-0.8,0.8-2,0.8-2.8,0
	C6.6,111.3,6.6,110,7.4,109.3z M37.8,96c-1.3,1.3-1.3,3.3,0,4.6c1.3,1.3,3.3,1.3,4.6,0c1.2-1.3,1.3-3.3,0-4.5l1.7-1.7l5.5,0
	c-0.1,0.5,0,1,0.4,1.3l5.6,5.6c0.6,0.6,1.5,0.6,2.1,0l5.6-5.6c0.6-0.6,0.6-1.5,0-2.1L57.7,88c-0.6-0.6-1.5-0.6-2.1,0L50,93.6
	c-0.1,0.1-0.1,0.2-0.2,0.3l-5.9,0l-1.8,1.8l0.2,0.2C41,94.8,39,94.8,37.8,96z M39.2,96.7c0.8-0.8,2-0.8,2.7,0c0.8,0.8,0.8,2,0,2.7
	c-0.8,0.8-2,0.8-2.8,0C38.4,98.7,38.4,97.5,39.2,96.7z M112.4,111.9c-1.3,1.3-1.3,3.3,0,4.6c1.3,1.3,3.3,1.3,4.6,0s1.3-3.3,0-4.6
	C115.7,110.6,113.6,110.6,112.4,111.9z M113.7,112.6c0.8-0.8,2-0.8,2.8,0c0.8,0.8,0.8,2,0,2.8c-0.8,0.8-2,0.8-2.7,0
	C113,114.6,113,113.3,113.7,112.6z M41.2,150.4c-1.3,1.3-1.3,3.3,0,4.6c1.3,1.3,3.3,1.3,4.6,0c0.7-0.7,1-1.6,0.9-2.5l5.2,0
	l88.4-88.6l56.6-0.1l8.2,8.2l0.3-0.3l-8.3-8.3l-57,0.1l-88.4,88.6l-5.1,0c-0.1-0.6-0.4-1.1-0.9-1.6
	C44.5,149.1,42.5,149.1,41.2,150.4z M42.6,151.1c0.8-0.8,2-0.8,2.7,0c0.8,0.8,0.8,2,0,2.8c-0.8,0.8-2,0.8-2.7,0
	C41.9,153,41.9,151.8,42.6,151.1z M40.6,160.5c-1.3,1.3-1.3,3.3,0,4.6c1.3,1.3,3.3,1.3,4.6,0c0.6-0.6,0.9-1.3,0.9-2.1l8.3,0l0.1-0.1
	c0,0,1.8-1.8,2.6-2.6l3.2,3.1c0.6,0.6,1.5,0.6,2.1,0l5.6-5.6c0.6-0.6,0.6-1.5,0-2.1l-5.6-5.6c-0.6-0.6-1.5-0.6-2.1,0l-5.6,5.6
	c-0.6,0.6-0.6,1.5,0,2.1l2.1,2.1c-0.7,0.7-2.2,2.2-2.5,2.5l-8.1,0c-0.1-0.7-0.4-1.4-0.9-2C43.9,159.2,41.8,159.2,40.6,160.5z
	 M41.9,161.2c0.8-0.8,2-0.8,2.7,0c0.8,0.8,0.8,2,0,2.7c-0.8,0.8-2,0.8-2.8,0C41.2,163.2,41.2,161.9,41.9,161.2z M14.5,137.8
	c-1.3,1.3-1.3,3.3,0,4.6c1.1,1.1,2.9,1.2,4.2,0.3l3,3l32.6,0L162.5,37.2l21.8,0l24,23.9l7.7,0l8.7,8.7l6.8,0l0-0.1
	c0.1,0.1,0.2,0.2,0.3,0.3c1.3,1.3,3.3,1.3,4.6,0c1.3-1.3,1.3-3.3,0-4.6c-1.3-1.3-3.3-1.3-4.6,0c-1.1,1.1-1.2,2.7-0.5,3.9l-6.4,0
	l-8.7-8.7l-7.7,0l-24-24l-22.2,0L54.1,145.2l-32.2,0l-2.8-2.8c0,0,0,0,0,0c1.3-1.3,1.3-3.3,0-4.6C17.8,136.5,15.8,136.5,14.5,137.8z
	 M233.2,66.1c0.8-0.8,2-0.8,2.7,0s0.8,2,0,2.7c-0.8,0.8-2,0.8-2.8,0S232.4,66.9,233.2,66.1z M15.9,138.5c0.8-0.8,2-0.8,2.8,0
	c0.8,0.8,0.8,2,0,2.7c-0.8,0.8-2,0.8-2.7,0C15.1,140.4,15.1,139.2,15.9,138.5z M7.4,130.1c-1.3,1.3-1.3,3.3,0,4.6
	c1.3,1.3,3.3,1.3,4.6,0c0.6-0.6,0.9-1.4,0.9-2.2l4.8,0l8.8,8.8l27.6,0L161.4,33.7l24.2,0l24.2,24.1l8.8,0l3.7,3.7
	c0.1,0.7,0.4,1.4,0.9,1.9c1.3,1.3,3.3,1.3,4.6,0c1.3-1.3,1.3-3.3,0-4.6c-1.3-1.3-3.3-1.3-4.6,0c-0.6,0.6-0.9,1.3-0.9,2l-3.5-3.5
	l-8.8,0l-24.2-24.1l-24.6,0L54,140.7l-27.2,0l-8.8-8.8l-5.1,0l0,0c-0.1-0.7-0.4-1.4-0.9-1.9C10.7,128.8,8.6,128.8,7.4,130.1z
	 M224.4,59.5c0.8-0.8,2-0.8,2.8,0c0.8,0.8,0.8,2,0,2.7c-0.8,0.8-2,0.8-2.7,0C223.7,61.5,223.7,60.2,224.4,59.5z M8.7,130.7
	c0.8-0.8,2-0.8,2.8,0c0.8,0.8,0.8,2,0,2.7c-0.8,0.8-2,0.8-2.7,0C8,132.7,8,131.5,8.7,130.7z M263.3,55.4c1.3-1.3,1.3-3.3,0-4.6
	c-1.3-1.3-3.3-1.3-4.6,0c-1.3,1.3-1.3,3.3,0,4.6C259.9,56.7,262,56.7,263.3,55.4z M262.8,54.3c-0.8,0.8-2,0.8-2.7,0
	c-0.8-0.8-0.8-2,0-2.7c0.8-0.8,2-0.8,2.8,0C263.6,52.3,263.6,53.5,262.8,54.3z M177.3,84.3c-0.6,0.6-0.6,1.5,0,2.1l5.5,5.5
	c0.6,0.6,1.5,0.6,2.1,0l5.5-5.5c0.6-0.6,0.6-1.5,0-2.1l-0.9-0.9l4.8-4.8l-0.3-0.3l-4.8,4.8l-4.3-4.3c-0.6-0.6-1.5-0.6-2.1,0
	L177.3,84.3z M102.2,0.9l-5.5,5.5c-0.6,0.6-0.6,1.5,0,2.1l5.5,5.5c0.6,0.6,1.5,0.6,2.1,0l5.5-5.5c0,0,0.1-0.1,0.1-0.1l8.3,8.3
	l18.7,0L149,4.3l43.5,0l22.7,22.7l37.3,0l4.2,4.2l4.3,0c0,0.8,0.3,1.6,0.9,2.3c1.3,1.3,3.3,1.3,4.6,0s1.3-3.3,0-4.6
	c-1.3-1.3-3.3-1.3-4.6,0c-0.5,0.5-0.8,1.2-0.9,1.8l-4.1,0l-4.2-4.2l-37.3,0L192.7,3.8l-43.9,0L136.6,16l-18.2,0l-8.2-8.2
	c0.2-0.5,0.1-1.1-0.3-1.5l-5.5-5.5C103.7,0.3,102.8,0.3,102.2,0.9z M263.4,29.4c0.8-0.8,2-0.8,2.7,0c0.8,0.8,0.8,2,0,2.7
	c-0.8,0.8-2,0.8-2.8,0C262.6,31.4,262.6,30.2,263.4,29.4z M35.9,68.3l-5.6,5.6c-0.6,0.6-0.6,1.5,0,2.1l4.9,4.9l-8.6,8.7
	c-1.3-1-3.2-1-4.3,0.2c-1.3,1.3-1.3,3.3,0,4.6c1.3,1.3,3.3,1.3,4.6,0c1.2-1.2,1.3-3.2,0.1-4.5l8.6-8.7l0.4,0.4
	c0.6,0.6,1.5,0.6,2.1,0l5.6-5.6c0.6-0.6,0.6-1.5,0-2.1l-5.6-5.6C37.4,67.7,36.4,67.7,35.9,68.3z M26.3,90.4c0.8,0.8,0.8,2,0,2.8
	c-0.8,0.8-2,0.8-2.7,0c-0.8-0.8-0.8-2,0-2.7C24.3,89.6,25.5,89.6,26.3,90.4z"/>
</svg>
