<?xml version="1.0" encoding="utf-8"?>
<!-- Generator: Adobe Illustrator 20.0.0, SVG Export Plug-In . SVG Version: 6.00 Build 0)  -->
<svg version="1.1" id="Layer_1" xmlns="http://www.w3.org/2000/svg" xmlns:xlink="http://www.w3.org/1999/xlink" x="0px" y="0px"
	 viewBox="0 0 240 225" style="enable-background:new 0 0 240 225;" xml:space="preserve">
<style type="text/css">
	.st0{fill:#FFFFFF;}
</style>
<g>
	<g>
		<path class="st0" d="M198.3,21.9l-18.5,3.7c-0.8,0.2-1.5,0.6-2.1,1.2L161.5,45c-10.1-6-21.4-9.7-33.1-10.8c-1.1-0.1-2.2,0.3-3,1
			c-0.8,0.7-1.2,1.8-1.2,2.9c0.1,2-0.6,3.9-1.9,5.4c-2.8,3.1-7.6,3.4-10.7,0.6c-1.5-1.3-2.4-3.1-2.5-5.1c-0.1-1.1-0.6-2.1-1.5-2.7
			c-0.9-0.7-2-0.9-3.1-0.7c-12.6,2.6-24.5,8.4-34.3,16.6c-0.8,0.7-1.3,1.6-1.4,2.7c-0.1,1,0.3,2.1,1,2.8c2.7,2.9,2.8,7.3,0.2,10.2
			c-2.6,2.9-7,3.4-10.2,1c-0.8-0.6-1.9-0.9-2.9-0.7c-1,0.2-1.9,0.8-2.5,1.7c-7,10.8-11.4,23.2-12.6,36c-0.1,1.1,0.3,2.2,1,3
			c0.7,0.8,1.8,1.2,2.9,1.2c2-0.1,3.9,0.6,5.4,1.9c3.1,2.8,3.4,7.6,0.6,10.7c-1.3,1.5-3.1,2.4-5.1,2.5c-1.1,0.1-2.1,0.6-2.7,1.5
			c-0.7,0.9-0.9,2-0.7,3c2.4,11.5,7.4,22.3,14.5,31.7l-26.2,29.4c-1.4,1.6-1.3,3.9,0.3,5.3L48.9,211c1.6,1.4,3.9,1.3,5.3-0.3
			l26.2-29.4c10.1,6,21.4,9.7,33.1,10.8c1.1,0.1,2.2-0.3,3-1c0.8-0.7,1.2-1.8,1.2-2.9c-0.1-2,0.6-3.9,1.9-5.4
			c2.8-3.1,7.6-3.4,10.7-0.6c1.5,1.3,2.3,3.1,2.5,5.1c0.1,1.1,0.6,2.1,1.5,2.7c0.9,0.7,2,0.9,3.1,0.7c12.6-2.6,24.5-8.4,34.3-16.6
			c0.8-0.7,1.3-1.6,1.4-2.7c0.1-1-0.3-2.1-1-2.8c-2.7-2.9-2.8-7.3-0.2-10.2c2.6-2.9,7-3.4,10.2-1c0.8,0.6,1.9,0.9,2.9,0.7
			c0.8-0.1,1.6-0.6,2.2-1.2c0.1-0.1,0.2-0.3,0.3-0.4c7-10.8,11.4-23.2,12.6-36c0.1-1.1-0.3-2.2-1-3c-0.7-0.8-1.8-1.2-2.9-1.2
			c-2,0.1-3.9-0.6-5.3-1.9c-3.1-2.8-3.4-7.6-0.6-10.7c1.3-1.5,3.1-2.4,5.1-2.5c1.1-0.1,2.1-0.6,2.7-1.5c0.7-0.9,0.9-2,0.7-3.1
			c-2.4-11.5-7.4-22.3-14.5-31.7L200.2,47c0.5-0.6,0.9-1.4,0.9-2.2l1.6-18.8c0.1-1.2-0.4-2.3-1.3-3.1
			C200.6,22,199.4,21.7,198.3,21.9z M107.2,140c-2.2-1.1-4.4-2.6-6.3-4.3c-2-1.7-3.6-3.7-5-5.8l72.3-81.1l11.3,10.1L107.2,140z
			 M149.7,103.7c3.3,10.1,1.2,21.4-6.1,29.6c-7.4,8.3-18.5,11.6-28.7,9.5L149.7,103.7z M92.3,122.6c-3.2-9.9-1.3-21.3,6.1-29.6
			c7.3-8.1,18.3-11.6,28.7-9.4L92.3,122.6z M76.5,174.3l-15.3,17.2l-11.3-10.1l15.3-17.2c0.1-0.1,0.2-0.1,0.2-0.2
			c2.9-2.7,7.3-2.8,10.2-0.2c2.9,2.6,3.4,7,1,10.2C76.6,174.2,76.6,174.3,76.5,174.3z M39.9,192.8l5-5.6l11.3,10.1l-5,5.6
			L39.9,192.8z M190.4,94.7c-2.3,0.8-4.3,2.2-5.9,4.1c-5.5,6.2-5,15.8,1.2,21.4c1.8,1.6,4,2.8,6.3,3.4c-1.3,9.1-4.4,18-9.1,25.9
			c-5.7-2.2-12.5-0.8-16.8,4c-4.2,4.8-4.9,11.6-2,17.1c-7.4,5.5-15.8,9.6-24.7,12c-0.8-2.3-2.2-4.3-4.1-5.9
			c-6.2-5.5-15.8-5-21.4,1.2c-1.6,1.8-2.8,4-3.4,6.3c-9.1-1.3-18-4.4-25.9-9.1c2.2-5.7,0.8-12.5-4-16.8c-4.8-4.2-11.6-4.9-17.1-2
			c-5.5-7.4-9.6-15.8-12-24.7c2.2-0.8,4.3-2.2,5.9-4.1c5.6-6.2,5-15.8-1.2-21.4c-1.8-1.6-4-2.8-6.3-3.4c1.3-9.1,4.4-18,9.1-25.9
			c5.7,2.2,12.5,0.8,16.8-4c4.2-4.8,4.9-11.6,2-17.1c7.4-5.5,15.8-9.6,24.7-12c0.8,2.3,2.2,4.3,4.1,5.9c6.2,5.5,15.8,5,21.4-1.2
			c1.6-1.8,2.8-4,3.4-6.3c8.8,1.3,17.2,4.3,25,8.7l-23.6,26.4c-14.2-4.6-30-0.5-40,10.8c-13.9,15.6-12.5,39.5,3.1,53.4
			s39.5,12.5,53.4-3.1c10-11.3,12.4-27.4,6.1-41l23.6-26.4C184.1,78.1,188.1,86.1,190.4,94.7z M193.8,42.9l-9.2,10.3l-11.3-10.1
			l9.2-10.3l12.4-2.5L193.8,42.9z"/>
		
			<rect x="112.3" y="23.9" transform="matrix(0.6656 -0.7463 0.7463 0.6656 18.1553 95.9255)" class="st0" width="7.6" height="7.6"/>
		
			<rect x="202.6" y="104.5" transform="matrix(0.6656 -0.7463 0.7463 0.6656 -11.7475 190.2593)" class="st0" width="7.6" height="7.6"/>
		<rect x="55.1" y="54" transform="matrix(0.6656 -0.7463 0.7463 0.6656 -23.4048 63.2865)" class="st0" width="7.6" height="7.6"/>
		
			<rect x="179.3" y="164.7" transform="matrix(0.6656 -0.7463 0.7463 0.6656 -64.5211 192.9955)" class="st0" width="7.6" height="7.6"/>
		
			<rect x="31.8" y="114.2" transform="matrix(0.6656 -0.7463 0.7463 0.6656 -76.1785 66.0227)" class="st0" width="7.6" height="7.6"/>
		
			<rect x="122.1" y="194.8" transform="matrix(0.6656 -0.7463 0.7463 0.6656 -106.0813 160.3565)" class="st0" width="7.6" height="7.6"/>
		<path class="st0" d="M47.6,47.7c29.6-33.2,77.9-42.4,117.6-22.4l3.4-6.8C125.9-3,73.8,6.9,42,42.7s-35.8,88.6-9.5,128.5l6.3-4.1
			C14.4,129.9,18,80.9,47.6,47.7z"/>
		<path class="st0" d="M194.4,178.6c-29.6,33.2-77.9,42.4-117.6,22.4l-3.4,6.8c42.7,21.5,94.8,11.6,126.6-24.1s35.8-88.6,9.5-128.5
			l-6.3,4.1C227.6,96.3,224,145.4,194.4,178.6z"/>
	</g>
</g>
</svg>
