<?xml version="1.0" encoding="utf-8"?>
<!-- Generator: Adobe Illustrator 20.0.0, SVG Export Plug-In . SVG Version: 6.00 Build 0)  -->
<svg version="1.1" id="Layer_1" xmlns="http://www.w3.org/2000/svg" xmlns:xlink="http://www.w3.org/1999/xlink" x="0px" y="0px"
	 viewBox="0 0 307.8 460.6" style="enable-background:new 0 0 307.8 460.6;" xml:space="preserve">
<style type="text/css">
	.st0{fill:#FFFFFF;}
	.st1{fill:none;stroke:#FFFFFF;stroke-width:20;stroke-miterlimit:10;}
</style>
<g>
	<path class="st0" d="M286.6,18.1c-1.5-0.7-4.1-1.2-5.7-1.2H28c-1.7,0-4.2,0.6-5.7,1.2L17,23.3c-0.7,1.5-1.2,4.1-1.2,5.7v326.8
		c0,1.6,0.6,4.2,1.2,5.7l5.3,5.3c1.5,0.7,4.1,1.2,5.7,1.2h58.7c1.7,0,3,1.4,3,3v67.9c0,1.6-1.3,3-3,3h-31c-1.7,0-4.2,0.6-5.7,1.2
		c0,0-6.5,2.9-6.5,8c0,5.1,6.5,8,6.5,8c1.5,0.7,4.1,1.2,5.7,1.2h31c1.7,0,4.3,0,6,0h123.4c1.7,0,4.4,0,6,0h31c1.6,0,4.2-0.6,5.7-1.2
		c0,0,6.5-2.9,6.5-8c0-5.1-6.5-8-6.5-8c-1.5-0.7-4.1-1.2-5.7-1.2h-31c-1.6,0-3-1.4-3-3v-67.9c0-1.6,1.4-3,3-3h58.7
		c1.6,0,4.2-0.6,5.7-1.2l5.3-5.3c0.7-1.5,1.2-4.1,1.2-5.7V29.1c0-1.6-0.6-4.2-1.2-5.7L286.6,18.1z M200.6,439.1c0,1.6-1.4,3-3,3
		h-86.4c-1.7,0-3-1.4-3-3v-67.9c0-1.6,1.3-3,3-3h86.4c1.6,0,3,1.4,3,3V439.1z M274.6,346.6c0,1.6-1.4,3-3,3h-49.5c-1.6,0-4.3,0-6,0
		H92.7c-1.7,0-4.3,0-6,0H37.2c-1.7,0-3-1.4-3-3V38.3c0-1.6,1.3-3,3-3h12.5c1.7,0,3.6,1.2,4.2,2.7l5.3,5.3c1.5,0.7,4.1,1.2,5.7,1.2
		h178.9c1.6,0,4.2-0.6,5.7-1.2l5.3-5.3c0.7-1.5,2.6-2.7,4.2-2.7h12.5c1.6,0,3,1.4,3,3V346.6z"/>
</g>
<path class="st0" d="M182.7,294.2h-55.5c-5.1,0-9.2,4.1-9.2,9.2c0,5.1,4.1,9.3,9.2,9.3h55.5c5.1,0,9.2-4.1,9.2-9.3
	C192,298.3,187.8,294.2,182.7,294.2z"/>
<path class="st0" d="M219.7,261.4H90.3c-5.1,0-9.2,4.1-9.2,9.2s4.1,9.2,9.2,9.2h129.4c5.1,0,9.2-4.1,9.2-9.2
	S224.8,261.4,219.7,261.4z"/>
<path class="st1" d="M216.9,204.9H93c-6.6,0-12-5.4-12-12V106c0-6.6,5.4-12,12-12h123.9c6.6,0,12,5.4,12,12v86.9
	C228.9,199.5,223.5,204.9,216.9,204.9z"/>
<path class="st0" d="M218,228.6H88.6c-5.1,0-9.2,4.1-9.2,9.2c0,5.1,4.1,9.2,9.2,9.2H218c5.1,0,9.2-4.1,9.2-9.2
	C227.2,232.7,223.1,228.6,218,228.6z"/>
</svg>
