<?xml version="1.0" encoding="utf-8"?>
<!-- Generator: Adobe Illustrator 20.0.0, SVG Export Plug-In . SVG Version: 6.00 Build 0)  -->
<svg version="1.1" id="Layer_1" xmlns="http://www.w3.org/2000/svg" xmlns:xlink="http://www.w3.org/1999/xlink" x="0px" y="0px"
	 viewBox="0 0 512 512" style="enable-background:new 0 0 512 512;" xml:space="preserve">
<style type="text/css">
	.st0{fill:#FFFFFF;}
</style>
<path class="st0" d="M485.4,428.1V149.5H345.7c-1.5-16.1-7.2-30.9-16-43.4V26.6h-16.4v61.6c-15.6-12.9-35.6-20.7-57.4-20.7
	s-41.8,7.8-57.3,20.7V26.6h-16.4V106c-8.8,12.5-14.5,27.4-16,43.5H26.6v278.6H10.2v44.4L47.8,510h416.5l37.6-37.6V428h-16.5V428.1z
	 M256,247.8c31.6,0,59.3-16.3,75.4-41h88.4v180.3H83.9V206.8h96.6C196.7,231.5,224.4,247.8,256,247.8z M256,83.9
	c40.7,0,73.7,33.1,73.7,73.7s-33.1,73.7-73.7,73.7c-40.7,0-73.7-33.1-73.7-73.7S215.3,83.9,256,83.9z M43,165.9h123.3
	c0.8,8.6,2.8,16.8,5.8,24.6H67.6v213h368.7v-213h-96.4c3-7.7,5.1-16,5.8-24.6H469v262.2H288.8v16.4h-65.5v-16.4H43V165.9z
	 M485.4,465.6l-28,28H54.6l-28-28v-21.2h180.3v16.4h98.3v-16.4h180.3v21.2H485.4z"/>
<rect x="419.9" y="460.8" class="st0" width="16.4" height="16.4"/>
<rect x="387.1" y="460.8" class="st0" width="16.4" height="16.4"/>
<rect x="354.3" y="460.8" class="st0" width="16.4" height="16.4"/>
<rect x="67.5" y="460.8" class="st0" width="114.7" height="16.4"/>
<g>
	<path class="st0" d="M190.5,250.8c0-1.6-1.4-3-3-3h-75.9c-1.7,0-3,1.4-3,3v108.7c0,1.6,1.3,3,3,3h75.9c1.6,0,3-1.4,3-3V250.8z
		 M174.1,343.1c0,1.6-1.4,3-3,3h-43.2c-1.7,0-3-1.4-3-3v-75.9c0-1.6,1.3-3,3-3h43.2c1.6,0,3,1.4,3,3V343.1z"/>
</g>
<path class="st0" d="M245.2,182.6c-1.9-2.5-3.2-5.4-3.8-8.8l-16.7,1.8c1.3,8.4,4.2,14.9,8.8,19.6c4.6,4.6,10.6,7.4,18,8.3V215h9.3
	v-12c8.3-1.2,14.8-4.4,19.5-9.7s7-11.8,7-19.6c0-6.9-1.9-12.6-5.6-17s-10.7-8-21-10.8v-25.1c4.1,1.8,6.7,5.2,7.7,10.3l16.2-2.1
	c-1.1-6.4-3.7-11.5-7.7-15.4s-9.4-6.1-16.2-7v-6.3h-9.3v6.3c-7.4,0.7-13.2,3.5-17.7,8.2c-4.4,4.8-6.6,10.7-6.6,17.7
	c0,6.9,2,12.8,5.9,17.7s10.1,8.5,18.4,10.9V188C249.2,186.9,247.1,185.1,245.2,182.6z M260.8,163.9c3.8,1.1,6.6,2.7,8.3,4.8
	c1.7,2.1,2.5,4.5,2.5,7.4c0,3.2-1,6-3,8.4s-4.6,3.9-7.8,4.5V163.9z M245.3,138.1c-1.4-1.9-2.1-4.1-2.1-6.3c0-2.5,0.7-4.7,2.2-6.8
	c1.5-2.1,3.5-3.5,6-4.4v22.2C248.7,141.6,246.7,140.1,245.3,138.1z"/>
<rect x="247.8" y="2" class="st0" width="16.4" height="49.2"/>
<rect x="305.2" y="264.2" class="st0" width="16.4" height="16.4"/>
<rect x="337.9" y="264.2" class="st0" width="16.4" height="16.4"/>
<rect x="272.4" y="264.2" class="st0" width="16.4" height="16.4"/>
<rect x="223.2" y="346.1" class="st0" width="172.1" height="16.4"/>
</svg>
