<?xml version="1.0" encoding="utf-8"?>
<!-- Generator: Adobe Illustrator 20.0.0, SVG Export Plug-In . SVG Version: 6.00 Build 0)  -->
<svg version="1.1" id="Layer_1" xmlns="http://www.w3.org/2000/svg" xmlns:xlink="http://www.w3.org/1999/xlink" x="0px" y="0px"
	 viewBox="0 0 474 475" style="enable-background:new 0 0 474 475;" xml:space="preserve">
<style type="text/css">
	.st0{fill:#FFFFFF;}
</style>
<g>
	<rect x="193.3" y="43.7" class="st0" width="90.4" height="15.1"/>
	<rect x="208.3" y="420.2" class="st0" width="60.2" height="15.1"/>
	<path class="st0" d="M434.3,88.8c-18.2,0-33.4,13-36.9,30.2h-15.8V43.7c0-20.8-16.9-37.7-37.7-37.7H133.1
		c-20.8,0-37.7,16.9-37.7,37.7v299.5H79.6C76.1,326,60.9,313,42.7,313C21.9,313,5,330,5,350.7s16.9,37.7,37.7,37.7
		c18.2,0,33.4-13,36.9-30.2h15.8v77c0,20.8,16.9,37.7,37.7,37.7h210.9c20.8,0,37.7-16.9,37.7-37.7V134.1h15.8
		c3.5,17.2,18.8,30.2,36.9,30.2c20.8,0,37.7-16.9,37.7-37.7C472,105.7,455.1,88.8,434.3,88.8z M42.7,373.3
		c-12.5,0-22.6-10.1-22.6-22.6s10.1-22.6,22.6-22.6s22.6,10.1,22.6,22.6S55.1,373.3,42.7,373.3z M133.1,21.1h210.9
		c12.5,0,22.6,10.1,22.6,22.6v37.7H110.4V43.7C110.4,31.2,120.6,21.1,133.1,21.1z M110.4,96.4h256.1V119h-90.4v36.6
		c-11.5-5.3-24.2-8.4-37.7-8.4c-49.8,0-90.4,40.5-90.4,90.4c0,30.2,14.9,56.8,37.7,73.3v32.3h-75.3L110.4,96.4L110.4,96.4z
		 M193.4,297.9c1-24,20.9-43.3,45.1-43.3s44.1,19.2,45.1,43.3c-12.6,9.5-28.1,15.2-45.1,15.2C221.6,313,206,307.3,193.4,297.9z
		 M215.9,216.9c0-12.5,10.1-22.6,22.6-22.6s22.6,10.1,22.6,22.6c0,12.5-10.1,22.6-22.6,22.6S215.9,229.4,215.9,216.9z M296.9,285.2
		c-4.5-17.9-17-32.6-33.5-40.2c7.8-6.9,12.8-16.8,12.8-28c0-20.8-16.9-37.7-37.7-37.7s-37.7,16.9-37.7,37.7c0,11.2,5,21.1,12.8,28
		c-16.5,7.5-29,22.2-33.5,40.2c-10.6-13-16.9-29.5-16.9-47.5c0-41.6,33.8-75.3,75.3-75.3c41.6,0,75.3,33.8,75.3,75.3
		C313.8,255.7,307.4,272.1,296.9,285.2z M343.9,457.9H133.1c-12.5,0-22.6-10.1-22.6-22.6v-37.7h256.1v37.7
		C366.6,447.8,356.4,457.9,343.9,457.9z M366.6,382.6H110.4v-24.4h90.4v-38.5c11.5,5.3,24.2,8.4,37.7,8.4
		c49.8,0,90.4-40.5,90.4-90.4c0-30.2-14.9-56.8-37.7-73.3v-30.3h75.3L366.6,382.6L366.6,382.6z M434.3,149.1
		c-12.5,0-22.6-10.1-22.6-22.6s10.1-22.6,22.6-22.6c12.5,0,22.6,10.1,22.6,22.6S446.8,149.1,434.3,149.1z"/>
</g>
</svg>
