<?xml version="1.0" encoding="utf-8"?>
<!-- Generator: Adobe Illustrator 20.0.0, SVG Export Plug-In . SVG Version: 6.00 Build 0)  -->
<svg version="1.1" id="Layer_1" xmlns="http://www.w3.org/2000/svg" xmlns:xlink="http://www.w3.org/1999/xlink" x="0px" y="0px"
	 viewBox="0 0 100 81.9" style="enable-background:new 0 0 100 81.9;" xml:space="preserve">
<style type="text/css">
	.st0{fill:#FFFFFF;}
</style>
<path class="st0" d="M92.2,1.3H7.8C4.1,1.3,1,4.3,1,8.1v65.5c0,3.7,3,6.8,6.8,6.8h84.4c3.7,0,6.8-3,6.8-6.8V8
	C99,4.3,95.9,1.3,92.2,1.3z M7.8,4.8h84.4c1.8,0,3.3,1.5,3.3,3.3v12.1h-91V8C4.5,6.2,6,4.8,7.8,4.8z M92.2,76.8H7.8
	c-1.8,0-3.3-1.5-3.3-3.3V23.7h91v49.9C95.5,75.4,94,76.8,92.2,76.8z M11,13.7c-0.3-0.3-0.5-0.8-0.5-1.2s0.2-0.9,0.5-1.2
	c0.6-0.6,1.8-0.6,2.5,0c0.3,0.3,0.5,0.8,0.5,1.2s-0.2,0.9-0.5,1.2c-0.3,0.3-0.8,0.5-1.2,0.5S11.3,14,11,13.7z M20.4,13.7
	c-0.3-0.3-0.5-0.8-0.5-1.2s0.2-0.9,0.5-1.2c0.6-0.6,1.8-0.6,2.5,0c0.3,0.3,0.5,0.8,0.5,1.2s-0.2,0.9-0.5,1.2
	c-0.3,0.3-0.8,0.5-1.2,0.5S20.7,14,20.4,13.7z M29.9,13.7c-0.3-0.3-0.5-0.8-0.5-1.2s0.2-0.9,0.5-1.2c0.7-0.6,1.8-0.6,2.5,0
	c0.3,0.3,0.5,0.8,0.5,1.2s-0.2,0.9-0.5,1.2c-0.3,0.3-0.8,0.5-1.2,0.5C30.6,14.2,30.2,14,29.9,13.7z M62.9,36.6H37.1
	c-1,0-1.8,0.8-1.8,1.8v25.9c0,1,0.8,1.8,1.8,1.8H63c1,0,1.8-0.8,1.8-1.8V38.4C64.7,37.4,63.9,36.6,62.9,36.6z M61.2,62.5H38.8V40.1
	h22.4C61.2,40.1,61.2,62.5,61.2,62.5z M75,40.8v21.1c0,1-0.8,1.8-1.8,1.8s-1.8-0.8-1.8-1.8V40.8c0-1,0.8-1.8,1.8-1.8
	S75,39.8,75,40.8z M85,43.8v15c0,1-0.8,1.8-1.8,1.8s-1.7-0.8-1.7-1.8v-15c0-1,0.8-1.8,1.8-1.8S85,42.9,85,43.8z M28.4,40.8v21.1
	c0,1-0.8,1.8-1.8,1.8s-1.8-0.8-1.8-1.8V40.8c0-1,0.8-1.8,1.8-1.8S28.4,39.8,28.4,40.8z M18.4,43.9v14.9c0,1-0.8,1.8-1.8,1.8
	s-1.8-0.8-1.8-1.8V43.9c0-1,0.8-1.8,1.8-1.8S18.4,42.9,18.4,43.9z"/>
</svg>
